%TF.GenerationSoftware,KiCad,Pcbnew,7.0.8*%
%TF.CreationDate,2023-11-18T20:12:02-05:00*%
%TF.ProjectId,PIC24FJ64GA004 Dev Board,50494332-3446-44a3-9634-474130303420,rev?*%
%TF.SameCoordinates,Original*%
%TF.FileFunction,Paste,Bot*%
%TF.FilePolarity,Positive*%
%FSLAX46Y46*%
G04 Gerber Fmt 4.6, Leading zero omitted, Abs format (unit mm)*
G04 Created by KiCad (PCBNEW 7.0.8) date 2023-11-18 20:12:02*
%MOMM*%
%LPD*%
G01*
G04 APERTURE LIST*
G04 Aperture macros list*
%AMRoundRect*
0 Rectangle with rounded corners*
0 $1 Rounding radius*
0 $2 $3 $4 $5 $6 $7 $8 $9 X,Y pos of 4 corners*
0 Add a 4 corners polygon primitive as box body*
4,1,4,$2,$3,$4,$5,$6,$7,$8,$9,$2,$3,0*
0 Add four circle primitives for the rounded corners*
1,1,$1+$1,$2,$3*
1,1,$1+$1,$4,$5*
1,1,$1+$1,$6,$7*
1,1,$1+$1,$8,$9*
0 Add four rect primitives between the rounded corners*
20,1,$1+$1,$2,$3,$4,$5,0*
20,1,$1+$1,$4,$5,$6,$7,0*
20,1,$1+$1,$6,$7,$8,$9,0*
20,1,$1+$1,$8,$9,$2,$3,0*%
G04 Aperture macros list end*
%ADD10RoundRect,0.225000X-0.250000X0.225000X-0.250000X-0.225000X0.250000X-0.225000X0.250000X0.225000X0*%
%ADD11R,1.750000X0.450000*%
%ADD12RoundRect,0.200000X0.275000X-0.200000X0.275000X0.200000X-0.275000X0.200000X-0.275000X-0.200000X0*%
%ADD13RoundRect,0.225000X-0.225000X-0.250000X0.225000X-0.250000X0.225000X0.250000X-0.225000X0.250000X0*%
%ADD14RoundRect,0.225000X0.225000X0.250000X-0.225000X0.250000X-0.225000X-0.250000X0.225000X-0.250000X0*%
G04 APERTURE END LIST*
D10*
%TO.C,C1*%
X86974000Y-74409000D03*
X86974000Y-75959000D03*
%TD*%
D11*
%TO.C,U2*%
X97624000Y-66936000D03*
X97624000Y-67586000D03*
X97624000Y-68236000D03*
X97624000Y-68886000D03*
X97624000Y-69536000D03*
X97624000Y-70186000D03*
X97624000Y-70836000D03*
X97624000Y-71486000D03*
X97624000Y-72136000D03*
X97624000Y-72786000D03*
X97624000Y-73436000D03*
X97624000Y-74086000D03*
X97624000Y-74736000D03*
X97624000Y-75386000D03*
X90424000Y-75386000D03*
X90424000Y-74736000D03*
X90424000Y-74086000D03*
X90424000Y-73436000D03*
X90424000Y-72786000D03*
X90424000Y-72136000D03*
X90424000Y-71486000D03*
X90424000Y-70836000D03*
X90424000Y-70186000D03*
X90424000Y-69536000D03*
X90424000Y-68886000D03*
X90424000Y-68236000D03*
X90424000Y-67586000D03*
X90424000Y-66936000D03*
%TD*%
D12*
%TO.C,R3*%
X93218000Y-59460400D03*
X93218000Y-57810400D03*
%TD*%
D13*
%TO.C,C8*%
X86334000Y-78232000D03*
X87884000Y-78232000D03*
%TD*%
D10*
%TO.C,C9*%
X100584000Y-90665000D03*
X100584000Y-92215000D03*
%TD*%
D12*
%TO.C,R4*%
X95808800Y-59448200D03*
X95808800Y-57798200D03*
%TD*%
D14*
%TO.C,C7*%
X101118000Y-76758800D03*
X99568000Y-76758800D03*
%TD*%
D10*
%TO.C,C4*%
X101092000Y-67805000D03*
X101092000Y-69355000D03*
%TD*%
D14*
%TO.C,C6*%
X91046600Y-85191600D03*
X89496600Y-85191600D03*
%TD*%
M02*
