M48
; DRILL file {KiCad 7.0.8} date Sat Nov 18 20:12:02 2023
; FORMAT={-:-/ absolute / inch / decimal}
; #@! TF.CreationDate,2023-11-18T20:12:02-05:00
; #@! TF.GenerationSoftware,Kicad,Pcbnew,7.0.8
; #@! TF.FileFunction,Plated,1,2,PTH
FMAT,2
INCH
; #@! TA.AperFunction,Plated,PTH,ViaDrill
T1C0.0118
; #@! TA.AperFunction,Plated,PTH,ViaDrill
T2C0.0157
; #@! TA.AperFunction,Plated,PTH,ComponentDrill
T3C0.0236
; #@! TA.AperFunction,Plated,PTH,ComponentDrill
T4C0.0394
%
G90
G05
T1
X3.404Y-4.252
X3.428Y-2.78
X3.432Y-4.04
X3.44Y-2.406
X3.446Y-2.882
X3.468Y-3.868
X3.492Y-2.658
X3.526Y-3.672
X3.56Y-3.876
X3.582Y-3.246
X3.638Y-3.354
X3.6649Y-2.4645
X3.706Y-2.446
X3.712Y-2.961
X3.72Y-3.1
X3.72Y-3.138
X3.72Y-3.406
X3.736Y-3.66
X3.744Y-2.418
X3.76Y-3.954
X3.788Y-3.874
X3.794Y-2.388
X3.798Y-4.244
X3.812Y-3.834
X3.838Y-2.366
X3.84Y-3.694
X3.848Y-2.59
X3.876Y-3.266
X3.878Y-2.552
X3.896Y-2.57
X3.928Y-3.872
X3.938Y-4.066
X3.954Y-2.628
X3.956Y-2.568
X3.974Y-2.302
T2
X3.4534Y-2.7286
X3.46Y-2.585
X3.47Y-2.506
X3.53Y-2.5584
X3.545Y-4.02
X3.6Y-3.17
X3.616Y-2.358
X3.698Y-2.854
X3.7579Y-2.955
X3.8Y-3.195
X3.85Y-3.626
X3.92Y-2.932
X3.921Y-2.837
X4.006Y-2.35
T4
X3.3Y-2.3
X3.3Y-2.4
X3.3Y-2.5
X3.3Y-2.6
X3.3Y-2.7
X3.3Y-2.8
X3.3Y-2.9
X3.3Y-3.0
X3.3Y-3.1
X3.3Y-3.2
X3.3Y-3.3
X3.3Y-3.4
X3.3Y-3.5
X3.3Y-3.6
X3.3Y-3.7
X3.3Y-3.8
X3.3Y-3.9
X3.3Y-4.0
X3.3Y-4.1
X3.3Y-4.2
X3.3Y-4.3
X3.3Y-4.4
X4.1Y-2.3
X4.1Y-2.4
X4.1Y-2.5
X4.1Y-2.6
X4.1Y-2.7
X4.1Y-2.8
X4.1Y-2.9
X4.1Y-3.0
X4.1Y-3.1
X4.1Y-3.2
X4.1Y-3.3
X4.1Y-3.4
X4.1Y-3.5
X4.1Y-3.6
X4.1Y-3.7
X4.1Y-3.8
X4.1Y-3.9
X4.1Y-4.0
X4.1Y-4.1
X4.1Y-4.2
X4.1Y-4.3
X4.1Y-4.4
T3
G00X3.5437Y-2.3334
M15
G01X3.5437Y-2.3019
M16
G05
G00X3.5437Y-2.5039
M15
G01X3.5437Y-2.4606
M16
G05
G00X3.8839Y-2.3334
M15
G01X3.8839Y-2.3019
M16
G05
G00X3.8839Y-2.5039
M15
G01X3.8839Y-2.4606
M16
G05
T0
M30
