%TF.GenerationSoftware,KiCad,Pcbnew,7.0.8*%
%TF.CreationDate,2023-11-18T20:12:02-05:00*%
%TF.ProjectId,PIC24FJ64GA004 Dev Board,50494332-3446-44a3-9634-474130303420,rev?*%
%TF.SameCoordinates,Original*%
%TF.FileFunction,Legend,Bot*%
%TF.FilePolarity,Positive*%
%FSLAX46Y46*%
G04 Gerber Fmt 4.6, Leading zero omitted, Abs format (unit mm)*
G04 Created by KiCad (PCBNEW 7.0.8) date 2023-11-18 20:12:02*
%MOMM*%
%LPD*%
G01*
G04 APERTURE LIST*
G04 Aperture macros list*
%AMRoundRect*
0 Rectangle with rounded corners*
0 $1 Rounding radius*
0 $2 $3 $4 $5 $6 $7 $8 $9 X,Y pos of 4 corners*
0 Add a 4 corners polygon primitive as box body*
4,1,4,$2,$3,$4,$5,$6,$7,$8,$9,$2,$3,0*
0 Add four circle primitives for the rounded corners*
1,1,$1+$1,$2,$3*
1,1,$1+$1,$4,$5*
1,1,$1+$1,$6,$7*
1,1,$1+$1,$8,$9*
0 Add four rect primitives between the rounded corners*
20,1,$1+$1,$2,$3,$4,$5,0*
20,1,$1+$1,$4,$5,$6,$7,0*
20,1,$1+$1,$6,$7,$8,$9,0*
20,1,$1+$1,$8,$9,$2,$3,0*%
G04 Aperture macros list end*
%ADD10C,0.150000*%
%ADD11C,0.120000*%
%ADD12O,1.000000X2.100000*%
%ADD13O,1.000000X1.800000*%
%ADD14RoundRect,0.225000X-0.250000X0.225000X-0.250000X-0.225000X0.250000X-0.225000X0.250000X0.225000X0*%
%ADD15R,1.750000X0.450000*%
%ADD16RoundRect,0.200000X0.275000X-0.200000X0.275000X0.200000X-0.275000X0.200000X-0.275000X-0.200000X0*%
%ADD17RoundRect,0.225000X-0.225000X-0.250000X0.225000X-0.250000X0.225000X0.250000X-0.225000X0.250000X0*%
%ADD18R,1.700000X1.700000*%
%ADD19O,1.700000X1.700000*%
%ADD20RoundRect,0.225000X0.225000X0.250000X-0.225000X0.250000X-0.225000X-0.250000X0.225000X-0.250000X0*%
G04 APERTURE END LIST*
D10*
X88802380Y-74864933D02*
X88850000Y-74817314D01*
X88850000Y-74817314D02*
X88897619Y-74674457D01*
X88897619Y-74674457D02*
X88897619Y-74579219D01*
X88897619Y-74579219D02*
X88850000Y-74436362D01*
X88850000Y-74436362D02*
X88754761Y-74341124D01*
X88754761Y-74341124D02*
X88659523Y-74293505D01*
X88659523Y-74293505D02*
X88469047Y-74245886D01*
X88469047Y-74245886D02*
X88326190Y-74245886D01*
X88326190Y-74245886D02*
X88135714Y-74293505D01*
X88135714Y-74293505D02*
X88040476Y-74341124D01*
X88040476Y-74341124D02*
X87945238Y-74436362D01*
X87945238Y-74436362D02*
X87897619Y-74579219D01*
X87897619Y-74579219D02*
X87897619Y-74674457D01*
X87897619Y-74674457D02*
X87945238Y-74817314D01*
X87945238Y-74817314D02*
X87992857Y-74864933D01*
X88897619Y-75817314D02*
X88897619Y-75245886D01*
X88897619Y-75531600D02*
X87897619Y-75531600D01*
X87897619Y-75531600D02*
X88040476Y-75436362D01*
X88040476Y-75436362D02*
X88135714Y-75341124D01*
X88135714Y-75341124D02*
X88183333Y-75245886D01*
X94785904Y-64365819D02*
X94785904Y-65175342D01*
X94785904Y-65175342D02*
X94738285Y-65270580D01*
X94738285Y-65270580D02*
X94690666Y-65318200D01*
X94690666Y-65318200D02*
X94595428Y-65365819D01*
X94595428Y-65365819D02*
X94404952Y-65365819D01*
X94404952Y-65365819D02*
X94309714Y-65318200D01*
X94309714Y-65318200D02*
X94262095Y-65270580D01*
X94262095Y-65270580D02*
X94214476Y-65175342D01*
X94214476Y-65175342D02*
X94214476Y-64365819D01*
X93785904Y-64461057D02*
X93738285Y-64413438D01*
X93738285Y-64413438D02*
X93643047Y-64365819D01*
X93643047Y-64365819D02*
X93404952Y-64365819D01*
X93404952Y-64365819D02*
X93309714Y-64413438D01*
X93309714Y-64413438D02*
X93262095Y-64461057D01*
X93262095Y-64461057D02*
X93214476Y-64556295D01*
X93214476Y-64556295D02*
X93214476Y-64651533D01*
X93214476Y-64651533D02*
X93262095Y-64794390D01*
X93262095Y-64794390D02*
X93833523Y-65365819D01*
X93833523Y-65365819D02*
X93214476Y-65365819D01*
X92199619Y-57401933D02*
X91723428Y-57068600D01*
X92199619Y-56830505D02*
X91199619Y-56830505D01*
X91199619Y-56830505D02*
X91199619Y-57211457D01*
X91199619Y-57211457D02*
X91247238Y-57306695D01*
X91247238Y-57306695D02*
X91294857Y-57354314D01*
X91294857Y-57354314D02*
X91390095Y-57401933D01*
X91390095Y-57401933D02*
X91532952Y-57401933D01*
X91532952Y-57401933D02*
X91628190Y-57354314D01*
X91628190Y-57354314D02*
X91675809Y-57306695D01*
X91675809Y-57306695D02*
X91723428Y-57211457D01*
X91723428Y-57211457D02*
X91723428Y-56830505D01*
X91199619Y-57735267D02*
X91199619Y-58354314D01*
X91199619Y-58354314D02*
X91580571Y-58020981D01*
X91580571Y-58020981D02*
X91580571Y-58163838D01*
X91580571Y-58163838D02*
X91628190Y-58259076D01*
X91628190Y-58259076D02*
X91675809Y-58306695D01*
X91675809Y-58306695D02*
X91771047Y-58354314D01*
X91771047Y-58354314D02*
X92009142Y-58354314D01*
X92009142Y-58354314D02*
X92104380Y-58306695D01*
X92104380Y-58306695D02*
X92152000Y-58259076D01*
X92152000Y-58259076D02*
X92199619Y-58163838D01*
X92199619Y-58163838D02*
X92199619Y-57878124D01*
X92199619Y-57878124D02*
X92152000Y-57782886D01*
X92152000Y-57782886D02*
X92104380Y-57735267D01*
X87275666Y-80021580D02*
X87323285Y-80069200D01*
X87323285Y-80069200D02*
X87466142Y-80116819D01*
X87466142Y-80116819D02*
X87561380Y-80116819D01*
X87561380Y-80116819D02*
X87704237Y-80069200D01*
X87704237Y-80069200D02*
X87799475Y-79973961D01*
X87799475Y-79973961D02*
X87847094Y-79878723D01*
X87847094Y-79878723D02*
X87894713Y-79688247D01*
X87894713Y-79688247D02*
X87894713Y-79545390D01*
X87894713Y-79545390D02*
X87847094Y-79354914D01*
X87847094Y-79354914D02*
X87799475Y-79259676D01*
X87799475Y-79259676D02*
X87704237Y-79164438D01*
X87704237Y-79164438D02*
X87561380Y-79116819D01*
X87561380Y-79116819D02*
X87466142Y-79116819D01*
X87466142Y-79116819D02*
X87323285Y-79164438D01*
X87323285Y-79164438D02*
X87275666Y-79212057D01*
X86704237Y-79545390D02*
X86799475Y-79497771D01*
X86799475Y-79497771D02*
X86847094Y-79450152D01*
X86847094Y-79450152D02*
X86894713Y-79354914D01*
X86894713Y-79354914D02*
X86894713Y-79307295D01*
X86894713Y-79307295D02*
X86847094Y-79212057D01*
X86847094Y-79212057D02*
X86799475Y-79164438D01*
X86799475Y-79164438D02*
X86704237Y-79116819D01*
X86704237Y-79116819D02*
X86513761Y-79116819D01*
X86513761Y-79116819D02*
X86418523Y-79164438D01*
X86418523Y-79164438D02*
X86370904Y-79212057D01*
X86370904Y-79212057D02*
X86323285Y-79307295D01*
X86323285Y-79307295D02*
X86323285Y-79354914D01*
X86323285Y-79354914D02*
X86370904Y-79450152D01*
X86370904Y-79450152D02*
X86418523Y-79497771D01*
X86418523Y-79497771D02*
X86513761Y-79545390D01*
X86513761Y-79545390D02*
X86704237Y-79545390D01*
X86704237Y-79545390D02*
X86799475Y-79593009D01*
X86799475Y-79593009D02*
X86847094Y-79640628D01*
X86847094Y-79640628D02*
X86894713Y-79735866D01*
X86894713Y-79735866D02*
X86894713Y-79926342D01*
X86894713Y-79926342D02*
X86847094Y-80021580D01*
X86847094Y-80021580D02*
X86799475Y-80069200D01*
X86799475Y-80069200D02*
X86704237Y-80116819D01*
X86704237Y-80116819D02*
X86513761Y-80116819D01*
X86513761Y-80116819D02*
X86418523Y-80069200D01*
X86418523Y-80069200D02*
X86370904Y-80021580D01*
X86370904Y-80021580D02*
X86323285Y-79926342D01*
X86323285Y-79926342D02*
X86323285Y-79735866D01*
X86323285Y-79735866D02*
X86370904Y-79640628D01*
X86370904Y-79640628D02*
X86418523Y-79593009D01*
X86418523Y-79593009D02*
X86513761Y-79545390D01*
X99513580Y-91273333D02*
X99561200Y-91225714D01*
X99561200Y-91225714D02*
X99608819Y-91082857D01*
X99608819Y-91082857D02*
X99608819Y-90987619D01*
X99608819Y-90987619D02*
X99561200Y-90844762D01*
X99561200Y-90844762D02*
X99465961Y-90749524D01*
X99465961Y-90749524D02*
X99370723Y-90701905D01*
X99370723Y-90701905D02*
X99180247Y-90654286D01*
X99180247Y-90654286D02*
X99037390Y-90654286D01*
X99037390Y-90654286D02*
X98846914Y-90701905D01*
X98846914Y-90701905D02*
X98751676Y-90749524D01*
X98751676Y-90749524D02*
X98656438Y-90844762D01*
X98656438Y-90844762D02*
X98608819Y-90987619D01*
X98608819Y-90987619D02*
X98608819Y-91082857D01*
X98608819Y-91082857D02*
X98656438Y-91225714D01*
X98656438Y-91225714D02*
X98704057Y-91273333D01*
X99608819Y-91749524D02*
X99608819Y-91940000D01*
X99608819Y-91940000D02*
X99561200Y-92035238D01*
X99561200Y-92035238D02*
X99513580Y-92082857D01*
X99513580Y-92082857D02*
X99370723Y-92178095D01*
X99370723Y-92178095D02*
X99180247Y-92225714D01*
X99180247Y-92225714D02*
X98799295Y-92225714D01*
X98799295Y-92225714D02*
X98704057Y-92178095D01*
X98704057Y-92178095D02*
X98656438Y-92130476D01*
X98656438Y-92130476D02*
X98608819Y-92035238D01*
X98608819Y-92035238D02*
X98608819Y-91844762D01*
X98608819Y-91844762D02*
X98656438Y-91749524D01*
X98656438Y-91749524D02*
X98704057Y-91701905D01*
X98704057Y-91701905D02*
X98799295Y-91654286D01*
X98799295Y-91654286D02*
X99037390Y-91654286D01*
X99037390Y-91654286D02*
X99132628Y-91701905D01*
X99132628Y-91701905D02*
X99180247Y-91749524D01*
X99180247Y-91749524D02*
X99227866Y-91844762D01*
X99227866Y-91844762D02*
X99227866Y-92035238D01*
X99227866Y-92035238D02*
X99180247Y-92130476D01*
X99180247Y-92130476D02*
X99132628Y-92178095D01*
X99132628Y-92178095D02*
X99037390Y-92225714D01*
X97838419Y-58050133D02*
X97362228Y-57716800D01*
X97838419Y-57478705D02*
X96838419Y-57478705D01*
X96838419Y-57478705D02*
X96838419Y-57859657D01*
X96838419Y-57859657D02*
X96886038Y-57954895D01*
X96886038Y-57954895D02*
X96933657Y-58002514D01*
X96933657Y-58002514D02*
X97028895Y-58050133D01*
X97028895Y-58050133D02*
X97171752Y-58050133D01*
X97171752Y-58050133D02*
X97266990Y-58002514D01*
X97266990Y-58002514D02*
X97314609Y-57954895D01*
X97314609Y-57954895D02*
X97362228Y-57859657D01*
X97362228Y-57859657D02*
X97362228Y-57478705D01*
X97171752Y-58907276D02*
X97838419Y-58907276D01*
X96790800Y-58669181D02*
X97505085Y-58431086D01*
X97505085Y-58431086D02*
X97505085Y-59050133D01*
X100509666Y-75688380D02*
X100557285Y-75736000D01*
X100557285Y-75736000D02*
X100700142Y-75783619D01*
X100700142Y-75783619D02*
X100795380Y-75783619D01*
X100795380Y-75783619D02*
X100938237Y-75736000D01*
X100938237Y-75736000D02*
X101033475Y-75640761D01*
X101033475Y-75640761D02*
X101081094Y-75545523D01*
X101081094Y-75545523D02*
X101128713Y-75355047D01*
X101128713Y-75355047D02*
X101128713Y-75212190D01*
X101128713Y-75212190D02*
X101081094Y-75021714D01*
X101081094Y-75021714D02*
X101033475Y-74926476D01*
X101033475Y-74926476D02*
X100938237Y-74831238D01*
X100938237Y-74831238D02*
X100795380Y-74783619D01*
X100795380Y-74783619D02*
X100700142Y-74783619D01*
X100700142Y-74783619D02*
X100557285Y-74831238D01*
X100557285Y-74831238D02*
X100509666Y-74878857D01*
X100176332Y-74783619D02*
X99509666Y-74783619D01*
X99509666Y-74783619D02*
X99938237Y-75783619D01*
X100021580Y-68413333D02*
X100069200Y-68365714D01*
X100069200Y-68365714D02*
X100116819Y-68222857D01*
X100116819Y-68222857D02*
X100116819Y-68127619D01*
X100116819Y-68127619D02*
X100069200Y-67984762D01*
X100069200Y-67984762D02*
X99973961Y-67889524D01*
X99973961Y-67889524D02*
X99878723Y-67841905D01*
X99878723Y-67841905D02*
X99688247Y-67794286D01*
X99688247Y-67794286D02*
X99545390Y-67794286D01*
X99545390Y-67794286D02*
X99354914Y-67841905D01*
X99354914Y-67841905D02*
X99259676Y-67889524D01*
X99259676Y-67889524D02*
X99164438Y-67984762D01*
X99164438Y-67984762D02*
X99116819Y-68127619D01*
X99116819Y-68127619D02*
X99116819Y-68222857D01*
X99116819Y-68222857D02*
X99164438Y-68365714D01*
X99164438Y-68365714D02*
X99212057Y-68413333D01*
X99450152Y-69270476D02*
X100116819Y-69270476D01*
X99069200Y-69032381D02*
X99783485Y-68794286D01*
X99783485Y-68794286D02*
X99783485Y-69413333D01*
X90438266Y-84121180D02*
X90485885Y-84168800D01*
X90485885Y-84168800D02*
X90628742Y-84216419D01*
X90628742Y-84216419D02*
X90723980Y-84216419D01*
X90723980Y-84216419D02*
X90866837Y-84168800D01*
X90866837Y-84168800D02*
X90962075Y-84073561D01*
X90962075Y-84073561D02*
X91009694Y-83978323D01*
X91009694Y-83978323D02*
X91057313Y-83787847D01*
X91057313Y-83787847D02*
X91057313Y-83644990D01*
X91057313Y-83644990D02*
X91009694Y-83454514D01*
X91009694Y-83454514D02*
X90962075Y-83359276D01*
X90962075Y-83359276D02*
X90866837Y-83264038D01*
X90866837Y-83264038D02*
X90723980Y-83216419D01*
X90723980Y-83216419D02*
X90628742Y-83216419D01*
X90628742Y-83216419D02*
X90485885Y-83264038D01*
X90485885Y-83264038D02*
X90438266Y-83311657D01*
X89581123Y-83216419D02*
X89771599Y-83216419D01*
X89771599Y-83216419D02*
X89866837Y-83264038D01*
X89866837Y-83264038D02*
X89914456Y-83311657D01*
X89914456Y-83311657D02*
X90009694Y-83454514D01*
X90009694Y-83454514D02*
X90057313Y-83644990D01*
X90057313Y-83644990D02*
X90057313Y-84025942D01*
X90057313Y-84025942D02*
X90009694Y-84121180D01*
X90009694Y-84121180D02*
X89962075Y-84168800D01*
X89962075Y-84168800D02*
X89866837Y-84216419D01*
X89866837Y-84216419D02*
X89676361Y-84216419D01*
X89676361Y-84216419D02*
X89581123Y-84168800D01*
X89581123Y-84168800D02*
X89533504Y-84121180D01*
X89533504Y-84121180D02*
X89485885Y-84025942D01*
X89485885Y-84025942D02*
X89485885Y-83787847D01*
X89485885Y-83787847D02*
X89533504Y-83692609D01*
X89533504Y-83692609D02*
X89581123Y-83644990D01*
X89581123Y-83644990D02*
X89676361Y-83597371D01*
X89676361Y-83597371D02*
X89866837Y-83597371D01*
X89866837Y-83597371D02*
X89962075Y-83644990D01*
X89962075Y-83644990D02*
X90009694Y-83692609D01*
X90009694Y-83692609D02*
X90057313Y-83787847D01*
D11*
%TO.C,C1*%
X87484000Y-75043420D02*
X87484000Y-75324580D01*
X86464000Y-75043420D02*
X86464000Y-75324580D01*
D10*
%TO.C,U2*%
X96899000Y-76486000D02*
X96899000Y-75836000D01*
X96899000Y-76486000D02*
X91149000Y-76486000D01*
X96899000Y-66411000D02*
X98499000Y-66411000D01*
X96899000Y-65836000D02*
X96899000Y-66411000D01*
X96899000Y-65836000D02*
X91149000Y-65836000D01*
X91149000Y-76486000D02*
X91149000Y-75836000D01*
X91149000Y-65836000D02*
X91149000Y-66486000D01*
D11*
%TO.C,R3*%
X92695500Y-58872658D02*
X92695500Y-58398142D01*
X93740500Y-58872658D02*
X93740500Y-58398142D01*
%TO.C,C8*%
X86968420Y-77722000D02*
X87249580Y-77722000D01*
X86968420Y-78742000D02*
X87249580Y-78742000D01*
%TO.C,C9*%
X101094000Y-91299420D02*
X101094000Y-91580580D01*
X100074000Y-91299420D02*
X100074000Y-91580580D01*
%TO.C,J2*%
X85150000Y-113090000D02*
X82490000Y-113090000D01*
X85150000Y-59690000D02*
X85150000Y-113090000D01*
X85150000Y-59690000D02*
X82490000Y-59690000D01*
X85150000Y-58420000D02*
X85150000Y-57090000D01*
X85150000Y-57090000D02*
X83820000Y-57090000D01*
X82490000Y-59690000D02*
X82490000Y-113090000D01*
%TO.C,R4*%
X95286300Y-58860458D02*
X95286300Y-58385942D01*
X96331300Y-58860458D02*
X96331300Y-58385942D01*
%TO.C,C7*%
X100483580Y-77268800D02*
X100202420Y-77268800D01*
X100483580Y-76248800D02*
X100202420Y-76248800D01*
%TO.C,J3*%
X105470000Y-113090000D02*
X102810000Y-113090000D01*
X105470000Y-59690000D02*
X105470000Y-113090000D01*
X105470000Y-59690000D02*
X102810000Y-59690000D01*
X105470000Y-58420000D02*
X105470000Y-57090000D01*
X105470000Y-57090000D02*
X104140000Y-57090000D01*
X102810000Y-59690000D02*
X102810000Y-113090000D01*
%TO.C,C4*%
X101602000Y-68439420D02*
X101602000Y-68720580D01*
X100582000Y-68439420D02*
X100582000Y-68720580D01*
%TO.C,C6*%
X90412180Y-85701600D02*
X90131020Y-85701600D01*
X90412180Y-84681600D02*
X90131020Y-84681600D01*
%TD*%
%LPC*%
D12*
%TO.C,J1*%
X98650000Y-63049000D03*
D13*
X98650000Y-58869000D03*
D12*
X90010000Y-63049000D03*
D13*
X90010000Y-58869000D03*
%TD*%
D14*
%TO.C,C1*%
X86974000Y-74409000D03*
X86974000Y-75959000D03*
%TD*%
D15*
%TO.C,U2*%
X97624000Y-66936000D03*
X97624000Y-67586000D03*
X97624000Y-68236000D03*
X97624000Y-68886000D03*
X97624000Y-69536000D03*
X97624000Y-70186000D03*
X97624000Y-70836000D03*
X97624000Y-71486000D03*
X97624000Y-72136000D03*
X97624000Y-72786000D03*
X97624000Y-73436000D03*
X97624000Y-74086000D03*
X97624000Y-74736000D03*
X97624000Y-75386000D03*
X90424000Y-75386000D03*
X90424000Y-74736000D03*
X90424000Y-74086000D03*
X90424000Y-73436000D03*
X90424000Y-72786000D03*
X90424000Y-72136000D03*
X90424000Y-71486000D03*
X90424000Y-70836000D03*
X90424000Y-70186000D03*
X90424000Y-69536000D03*
X90424000Y-68886000D03*
X90424000Y-68236000D03*
X90424000Y-67586000D03*
X90424000Y-66936000D03*
%TD*%
D16*
%TO.C,R3*%
X93218000Y-59460400D03*
X93218000Y-57810400D03*
%TD*%
D17*
%TO.C,C8*%
X86334000Y-78232000D03*
X87884000Y-78232000D03*
%TD*%
D14*
%TO.C,C9*%
X100584000Y-90665000D03*
X100584000Y-92215000D03*
%TD*%
D18*
%TO.C,J2*%
X83820000Y-58420000D03*
D19*
X83820000Y-60960000D03*
X83820000Y-63500000D03*
X83820000Y-66040000D03*
X83820000Y-68580000D03*
X83820000Y-71120000D03*
X83820000Y-73660000D03*
X83820000Y-76200000D03*
X83820000Y-78740000D03*
X83820000Y-81280000D03*
X83820000Y-83820000D03*
X83820000Y-86360000D03*
X83820000Y-88900000D03*
X83820000Y-91440000D03*
X83820000Y-93980000D03*
X83820000Y-96520000D03*
X83820000Y-99060000D03*
X83820000Y-101600000D03*
X83820000Y-104140000D03*
X83820000Y-106680000D03*
X83820000Y-109220000D03*
X83820000Y-111760000D03*
%TD*%
D16*
%TO.C,R4*%
X95808800Y-59448200D03*
X95808800Y-57798200D03*
%TD*%
D20*
%TO.C,C7*%
X101118000Y-76758800D03*
X99568000Y-76758800D03*
%TD*%
D18*
%TO.C,J3*%
X104140000Y-58420000D03*
D19*
X104140000Y-60960000D03*
X104140000Y-63500000D03*
X104140000Y-66040000D03*
X104140000Y-68580000D03*
X104140000Y-71120000D03*
X104140000Y-73660000D03*
X104140000Y-76200000D03*
X104140000Y-78740000D03*
X104140000Y-81280000D03*
X104140000Y-83820000D03*
X104140000Y-86360000D03*
X104140000Y-88900000D03*
X104140000Y-91440000D03*
X104140000Y-93980000D03*
X104140000Y-96520000D03*
X104140000Y-99060000D03*
X104140000Y-101600000D03*
X104140000Y-104140000D03*
X104140000Y-106680000D03*
X104140000Y-109220000D03*
X104140000Y-111760000D03*
%TD*%
D14*
%TO.C,C4*%
X101092000Y-67805000D03*
X101092000Y-69355000D03*
%TD*%
D20*
%TO.C,C6*%
X91046600Y-85191600D03*
X89496600Y-85191600D03*
%TD*%
%LPD*%
M02*
