%TF.GenerationSoftware,KiCad,Pcbnew,7.0.8*%
%TF.CreationDate,2023-11-18T20:12:02-05:00*%
%TF.ProjectId,PIC24FJ64GA004 Dev Board,50494332-3446-44a3-9634-474130303420,rev?*%
%TF.SameCoordinates,Original*%
%TF.FileFunction,Soldermask,Top*%
%TF.FilePolarity,Negative*%
%FSLAX46Y46*%
G04 Gerber Fmt 4.6, Leading zero omitted, Abs format (unit mm)*
G04 Created by KiCad (PCBNEW 7.0.8) date 2023-11-18 20:12:02*
%MOMM*%
%LPD*%
G01*
G04 APERTURE LIST*
G04 Aperture macros list*
%AMRoundRect*
0 Rectangle with rounded corners*
0 $1 Rounding radius*
0 $2 $3 $4 $5 $6 $7 $8 $9 X,Y pos of 4 corners*
0 Add a 4 corners polygon primitive as box body*
4,1,4,$2,$3,$4,$5,$6,$7,$8,$9,$2,$3,0*
0 Add four circle primitives for the rounded corners*
1,1,$1+$1,$2,$3*
1,1,$1+$1,$4,$5*
1,1,$1+$1,$6,$7*
1,1,$1+$1,$8,$9*
0 Add four rect primitives between the rounded corners*
20,1,$1+$1,$2,$3,$4,$5,0*
20,1,$1+$1,$4,$5,$6,$7,0*
20,1,$1+$1,$6,$7,$8,$9,0*
20,1,$1+$1,$8,$9,$2,$3,0*%
G04 Aperture macros list end*
%ADD10RoundRect,0.137500X0.521491X0.327037X0.327037X0.521491X-0.521491X-0.327037X-0.327037X-0.521491X0*%
%ADD11RoundRect,0.137500X0.521491X-0.327037X-0.327037X0.521491X-0.521491X0.327037X0.327037X-0.521491X0*%
%ADD12R,1.400000X1.200000*%
%ADD13R,1.550000X1.300000*%
%ADD14RoundRect,0.200000X0.275000X-0.200000X0.275000X0.200000X-0.275000X0.200000X-0.275000X-0.200000X0*%
%ADD15RoundRect,0.150000X0.512500X0.150000X-0.512500X0.150000X-0.512500X-0.150000X0.512500X-0.150000X0*%
%ADD16RoundRect,0.225000X-0.225000X-0.250000X0.225000X-0.250000X0.225000X0.250000X-0.225000X0.250000X0*%
%ADD17R,1.000000X2.510000*%
%ADD18RoundRect,0.218750X-0.256250X0.218750X-0.256250X-0.218750X0.256250X-0.218750X0.256250X0.218750X0*%
%ADD19RoundRect,0.150000X0.150000X0.425000X-0.150000X0.425000X-0.150000X-0.425000X0.150000X-0.425000X0*%
%ADD20RoundRect,0.075000X0.075000X0.500000X-0.075000X0.500000X-0.075000X-0.500000X0.075000X-0.500000X0*%
%ADD21O,1.000000X2.100000*%
%ADD22O,1.000000X1.800000*%
%ADD23RoundRect,0.225000X0.250000X-0.225000X0.250000X0.225000X-0.250000X0.225000X-0.250000X-0.225000X0*%
%ADD24RoundRect,0.200000X-0.275000X0.200000X-0.275000X-0.200000X0.275000X-0.200000X0.275000X0.200000X0*%
%ADD25RoundRect,0.225000X-0.250000X0.225000X-0.250000X-0.225000X0.250000X-0.225000X0.250000X0.225000X0*%
%ADD26R,1.700000X1.700000*%
%ADD27O,1.700000X1.700000*%
G04 APERTURE END LIST*
D10*
%TO.C,U4*%
X92471835Y-90597019D03*
X91906150Y-90031334D03*
X91340464Y-89465648D03*
X90774779Y-88899963D03*
X90209093Y-88334278D03*
X89643408Y-87768592D03*
X89077722Y-87202907D03*
X88512037Y-86637221D03*
X87946352Y-86071536D03*
X87380666Y-85505850D03*
X86814981Y-84940165D03*
D11*
X86814981Y-82589035D03*
X87380666Y-82023350D03*
X87946352Y-81457664D03*
X88512037Y-80891979D03*
X89077722Y-80326293D03*
X89643408Y-79760608D03*
X90209093Y-79194922D03*
X90774779Y-78629237D03*
X91340464Y-78063552D03*
X91906150Y-77497866D03*
X92471835Y-76932181D03*
D10*
X94822965Y-76932181D03*
X95388650Y-77497866D03*
X95954336Y-78063552D03*
X96520021Y-78629237D03*
X97085707Y-79194922D03*
X97651392Y-79760608D03*
X98217078Y-80326293D03*
X98782763Y-80891979D03*
X99348448Y-81457664D03*
X99914134Y-82023350D03*
X100479819Y-82589035D03*
D11*
X100479819Y-84940165D03*
X99914134Y-85505850D03*
X99348448Y-86071536D03*
X98782763Y-86637221D03*
X98217078Y-87202907D03*
X97651392Y-87768592D03*
X97085707Y-88334278D03*
X96520021Y-88899963D03*
X95954336Y-89465648D03*
X95388650Y-90031334D03*
X94822965Y-90597019D03*
%TD*%
D12*
%TO.C,Y1*%
X88816000Y-72732000D03*
X91016000Y-72732000D03*
X91016000Y-71032000D03*
X88816000Y-71032000D03*
%TD*%
D13*
%TO.C,SW1*%
X90005000Y-100076000D03*
X97955000Y-100076000D03*
X90005000Y-104576000D03*
X97955000Y-104576000D03*
%TD*%
D14*
%TO.C,R2*%
X92964000Y-67881000D03*
X92964000Y-66231000D03*
%TD*%
D15*
%TO.C,U3*%
X99181500Y-68514000D03*
X99181500Y-66614000D03*
X96906500Y-67564000D03*
%TD*%
D16*
%TO.C,C2*%
X97002000Y-70612000D03*
X98552000Y-70612000D03*
%TD*%
D17*
%TO.C,J4*%
X99060000Y-108073000D03*
X96520000Y-111383000D03*
X93980000Y-108073000D03*
X91440000Y-111383000D03*
X88900000Y-108073000D03*
%TD*%
D16*
%TO.C,C10*%
X93205000Y-73660000D03*
X94755000Y-73660000D03*
%TD*%
D18*
%TO.C,TX*%
X92964000Y-69824500D03*
X92964000Y-71399500D03*
%TD*%
D14*
%TO.C,R1*%
X94996000Y-67881000D03*
X94996000Y-66231000D03*
%TD*%
D19*
%TO.C,J1*%
X97530000Y-63624000D03*
X96730000Y-63624000D03*
D20*
X95580000Y-63624000D03*
X94580000Y-63624000D03*
X94080000Y-63624000D03*
X93080000Y-63624000D03*
D19*
X91930000Y-63624000D03*
X91130000Y-63624000D03*
X91130000Y-63624000D03*
X91930000Y-63624000D03*
D20*
X92580000Y-63624000D03*
X93580000Y-63624000D03*
X95080000Y-63624000D03*
X96080000Y-63624000D03*
D19*
X96730000Y-63624000D03*
X97530000Y-63624000D03*
D21*
X98650000Y-63049000D03*
D22*
X98650000Y-58869000D03*
D21*
X90010000Y-63049000D03*
D22*
X90010000Y-58869000D03*
%TD*%
D23*
%TO.C,C3*%
X100482400Y-63919400D03*
X100482400Y-62369400D03*
%TD*%
D24*
%TO.C,R5*%
X87630000Y-58458600D03*
X87630000Y-60108600D03*
%TD*%
D16*
%TO.C,C11*%
X89141000Y-74422000D03*
X90691000Y-74422000D03*
%TD*%
D24*
%TO.C,R7*%
X90779600Y-94120200D03*
X90779600Y-95770200D03*
%TD*%
D18*
%TO.C,RX*%
X94996000Y-69824500D03*
X94996000Y-71399500D03*
%TD*%
D14*
%TO.C,R6*%
X96164400Y-95821000D03*
X96164400Y-94171000D03*
%TD*%
D25*
%TO.C,C5*%
X93522800Y-94221000D03*
X93522800Y-95771000D03*
%TD*%
D26*
%TO.C,J2*%
X83820000Y-58420000D03*
D27*
X83820000Y-60960000D03*
X83820000Y-63500000D03*
X83820000Y-66040000D03*
X83820000Y-68580000D03*
X83820000Y-71120000D03*
X83820000Y-73660000D03*
X83820000Y-76200000D03*
X83820000Y-78740000D03*
X83820000Y-81280000D03*
X83820000Y-83820000D03*
X83820000Y-86360000D03*
X83820000Y-88900000D03*
X83820000Y-91440000D03*
X83820000Y-93980000D03*
X83820000Y-96520000D03*
X83820000Y-99060000D03*
X83820000Y-101600000D03*
X83820000Y-104140000D03*
X83820000Y-106680000D03*
X83820000Y-109220000D03*
X83820000Y-111760000D03*
%TD*%
D26*
%TO.C,J3*%
X104140000Y-58420000D03*
D27*
X104140000Y-60960000D03*
X104140000Y-63500000D03*
X104140000Y-66040000D03*
X104140000Y-68580000D03*
X104140000Y-71120000D03*
X104140000Y-73660000D03*
X104140000Y-76200000D03*
X104140000Y-78740000D03*
X104140000Y-81280000D03*
X104140000Y-83820000D03*
X104140000Y-86360000D03*
X104140000Y-88900000D03*
X104140000Y-91440000D03*
X104140000Y-93980000D03*
X104140000Y-96520000D03*
X104140000Y-99060000D03*
X104140000Y-101600000D03*
X104140000Y-104140000D03*
X104140000Y-106680000D03*
X104140000Y-109220000D03*
X104140000Y-111760000D03*
%TD*%
M02*
