%TF.GenerationSoftware,KiCad,Pcbnew,7.0.8*%
%TF.CreationDate,2023-11-18T20:12:02-05:00*%
%TF.ProjectId,PIC24FJ64GA004 Dev Board,50494332-3446-44a3-9634-474130303420,rev?*%
%TF.SameCoordinates,Original*%
%TF.FileFunction,Copper,L1,Top*%
%TF.FilePolarity,Positive*%
%FSLAX46Y46*%
G04 Gerber Fmt 4.6, Leading zero omitted, Abs format (unit mm)*
G04 Created by KiCad (PCBNEW 7.0.8) date 2023-11-18 20:12:02*
%MOMM*%
%LPD*%
G01*
G04 APERTURE LIST*
G04 Aperture macros list*
%AMRoundRect*
0 Rectangle with rounded corners*
0 $1 Rounding radius*
0 $2 $3 $4 $5 $6 $7 $8 $9 X,Y pos of 4 corners*
0 Add a 4 corners polygon primitive as box body*
4,1,4,$2,$3,$4,$5,$6,$7,$8,$9,$2,$3,0*
0 Add four circle primitives for the rounded corners*
1,1,$1+$1,$2,$3*
1,1,$1+$1,$4,$5*
1,1,$1+$1,$6,$7*
1,1,$1+$1,$8,$9*
0 Add four rect primitives between the rounded corners*
20,1,$1+$1,$2,$3,$4,$5,0*
20,1,$1+$1,$4,$5,$6,$7,0*
20,1,$1+$1,$6,$7,$8,$9,0*
20,1,$1+$1,$8,$9,$2,$3,0*%
G04 Aperture macros list end*
%TA.AperFunction,SMDPad,CuDef*%
%ADD10RoundRect,0.137500X0.521491X0.327037X0.327037X0.521491X-0.521491X-0.327037X-0.327037X-0.521491X0*%
%TD*%
%TA.AperFunction,SMDPad,CuDef*%
%ADD11RoundRect,0.137500X0.521491X-0.327037X-0.327037X0.521491X-0.521491X0.327037X0.327037X-0.521491X0*%
%TD*%
%TA.AperFunction,SMDPad,CuDef*%
%ADD12R,1.400000X1.200000*%
%TD*%
%TA.AperFunction,SMDPad,CuDef*%
%ADD13R,1.550000X1.300000*%
%TD*%
%TA.AperFunction,SMDPad,CuDef*%
%ADD14RoundRect,0.200000X0.275000X-0.200000X0.275000X0.200000X-0.275000X0.200000X-0.275000X-0.200000X0*%
%TD*%
%TA.AperFunction,SMDPad,CuDef*%
%ADD15RoundRect,0.150000X0.512500X0.150000X-0.512500X0.150000X-0.512500X-0.150000X0.512500X-0.150000X0*%
%TD*%
%TA.AperFunction,SMDPad,CuDef*%
%ADD16RoundRect,0.225000X-0.225000X-0.250000X0.225000X-0.250000X0.225000X0.250000X-0.225000X0.250000X0*%
%TD*%
%TA.AperFunction,SMDPad,CuDef*%
%ADD17R,1.000000X2.510000*%
%TD*%
%TA.AperFunction,SMDPad,CuDef*%
%ADD18RoundRect,0.218750X-0.256250X0.218750X-0.256250X-0.218750X0.256250X-0.218750X0.256250X0.218750X0*%
%TD*%
%TA.AperFunction,SMDPad,CuDef*%
%ADD19RoundRect,0.150000X0.150000X0.425000X-0.150000X0.425000X-0.150000X-0.425000X0.150000X-0.425000X0*%
%TD*%
%TA.AperFunction,SMDPad,CuDef*%
%ADD20RoundRect,0.075000X0.075000X0.500000X-0.075000X0.500000X-0.075000X-0.500000X0.075000X-0.500000X0*%
%TD*%
%TA.AperFunction,ComponentPad*%
%ADD21O,1.000000X2.100000*%
%TD*%
%TA.AperFunction,ComponentPad*%
%ADD22O,1.000000X1.800000*%
%TD*%
%TA.AperFunction,SMDPad,CuDef*%
%ADD23RoundRect,0.225000X0.250000X-0.225000X0.250000X0.225000X-0.250000X0.225000X-0.250000X-0.225000X0*%
%TD*%
%TA.AperFunction,SMDPad,CuDef*%
%ADD24RoundRect,0.200000X-0.275000X0.200000X-0.275000X-0.200000X0.275000X-0.200000X0.275000X0.200000X0*%
%TD*%
%TA.AperFunction,SMDPad,CuDef*%
%ADD25RoundRect,0.225000X-0.250000X0.225000X-0.250000X-0.225000X0.250000X-0.225000X0.250000X0.225000X0*%
%TD*%
%TA.AperFunction,ComponentPad*%
%ADD26R,1.700000X1.700000*%
%TD*%
%TA.AperFunction,ComponentPad*%
%ADD27O,1.700000X1.700000*%
%TD*%
%TA.AperFunction,ViaPad*%
%ADD28C,0.500000*%
%TD*%
%TA.AperFunction,ViaPad*%
%ADD29C,0.800000*%
%TD*%
%TA.AperFunction,Conductor*%
%ADD30C,0.150000*%
%TD*%
%TA.AperFunction,Conductor*%
%ADD31C,0.250000*%
%TD*%
G04 APERTURE END LIST*
D10*
%TO.P,U4,44,RP8/SCL1/CN22/PMD4/RB8*%
%TO.N,P44*%
X92471835Y-90597019D03*
%TO.P,U4,43,RP7/INT0/CN23/PMD5/RB7*%
%TO.N,P43*%
X91906150Y-90031334D03*
%TO.P,U4,42,PGC3/EMUC3/RP6/ASCL1/CN24/PMD6/RB6*%
%TO.N,P42*%
X91340464Y-89465648D03*
%TO.P,U4,41,PGD3/EMUD3/RP5/ASDA1/CN27/PMD7/RB5*%
%TO.N,P41*%
X90774779Y-88899963D03*
%TO.P,U4,40,VDD*%
%TO.N,+3V3*%
X90209093Y-88334278D03*
%TO.P,U4,39,VSS__1*%
%TO.N,GND*%
X89643408Y-87768592D03*
%TO.P,U4,38,RP21/CN26/PMA3/RC5*%
%TO.N,P38*%
X89077722Y-87202907D03*
%TO.P,U4,37,RP20/CN25/PMA4/RC4*%
%TO.N,P37*%
X88512037Y-86637221D03*
%TO.P,U4,36,RP19/CN28/PMBE/RC3*%
%TO.N,P36*%
X87946352Y-86071536D03*
%TO.P,U4,35,TDI/PMA9/RA9*%
%TO.N,P35*%
X87380666Y-85505850D03*
%TO.P,U4,34,SOSCO/T1CK/CN0/RA4*%
%TO.N,P34*%
X86814981Y-84940165D03*
D11*
%TO.P,U4,33,SOSCI/RP4/CN1/RB4*%
%TO.N,P33*%
X86814981Y-82589035D03*
%TO.P,U4,32,TDO/PMA8/RA8*%
%TO.N,P32*%
X87380666Y-82023350D03*
%TO.P,U4,31,OSCO/CLKO/CN29/RA3*%
%TO.N,OSCO*%
X87946352Y-81457664D03*
%TO.P,U4,30,OSCI/CLKI/CN30/RA2*%
%TO.N,OSCI*%
X88512037Y-80891979D03*
%TO.P,U4,29,VSS*%
%TO.N,GND*%
X89077722Y-80326293D03*
%TO.P,U4,28,VDD__1*%
%TO.N,+3V3*%
X89643408Y-79760608D03*
%TO.P,U4,27,AN8/RP18/CN10/PMA2/RC2*%
%TO.N,P27*%
X90209093Y-79194922D03*
%TO.P,U4,26,AN7/RP17/CN9/RC1*%
%TO.N,P26*%
X90774779Y-78629237D03*
%TO.P,U4,25,AN6/RP16/CN8/RC0*%
%TO.N,P25*%
X91340464Y-78063552D03*
%TO.P,U4,24,AN5/C1IN+/RP3/SCL2/CN7/RB3*%
%TO.N,P24*%
X91906150Y-77497866D03*
%TO.P,U4,23,AN4/C1IN-/RP2/SDA2/CN6/RB2*%
%TO.N,P23*%
X92471835Y-76932181D03*
D10*
%TO.P,U4,22,PGC1/EMUC1/AN3/C2IN+/RP1/CN5/RB1*%
%TO.N,RX*%
X94822965Y-76932181D03*
%TO.P,U4,21,PGD1/EMUD1/AN2/C2IN-/RP0/CN4/RB0*%
%TO.N,TX*%
X95388650Y-77497866D03*
%TO.P,U4,20,AN1/VREF-/CN3/RA1*%
%TO.N,P20*%
X95954336Y-78063552D03*
%TO.P,U4,19,AN0/VREF+/CN2/RA0*%
%TO.N,P19*%
X96520021Y-78629237D03*
%TO.P,U4,18,~{MCLR}*%
%TO.N,MCLR*%
X97085707Y-79194922D03*
%TO.P,U4,17,AVDD*%
%TO.N,+3V3*%
X97651392Y-79760608D03*
%TO.P,U4,16,AVSS*%
%TO.N,GND*%
X98217078Y-80326293D03*
%TO.P,U4,15,AN9/RP15/CN11/PMCS1/RB15*%
%TO.N,P15*%
X98782763Y-80891979D03*
%TO.P,U4,14,AN10/CVREF/RTCC/RP14/CN12/PMWR/RB14*%
%TO.N,P14*%
X99348448Y-81457664D03*
%TO.P,U4,13,TCK/PMA7/RA7*%
%TO.N,P13*%
X99914134Y-82023350D03*
%TO.P,U4,12,TMS/PMA10/RA10*%
%TO.N,P12*%
X100479819Y-82589035D03*
D11*
%TO.P,U4,11,AN11/RP13/CN13/PMRD/RB13*%
%TO.N,P11*%
X100479819Y-84940165D03*
%TO.P,U4,10,AN12/RP12/CN14/PMD0/RB12*%
%TO.N,P10*%
X99914134Y-85505850D03*
%TO.P,U4,9,PGC2/EMUC2/RP11/CN15/PMD1/RB11*%
%TO.N,PGC2*%
X99348448Y-86071536D03*
%TO.P,U4,8,PGD2/EMUD2/RP10/CN16/PMD2/RB10*%
%TO.N,PGD2*%
X98782763Y-86637221D03*
%TO.P,U4,7,VCAP/VDDCORE*%
%TO.N,+3V3*%
X98217078Y-87202907D03*
%TO.P,U4,6,DISVREG*%
%TO.N,GND*%
X97651392Y-87768592D03*
%TO.P,U4,5,RP25/CN19/PMA6/RC9*%
%TO.N,P5*%
X97085707Y-88334278D03*
%TO.P,U4,4,RP24/CN20/PMA5/RC8*%
%TO.N,P4*%
X96520021Y-88899963D03*
%TO.P,U4,3,RP23/CN17/PMA0/RC7*%
%TO.N,P3*%
X95954336Y-89465648D03*
%TO.P,U4,2,RP22/CN18/PMA1/RC6*%
%TO.N,P2*%
X95388650Y-90031334D03*
%TO.P,U4,1,RP9/SDA1/CN21/PMD3/RB9*%
%TO.N,P1*%
X94822965Y-90597019D03*
%TD*%
D12*
%TO.P,Y1,1,1*%
%TO.N,OSCI*%
X88816000Y-72732000D03*
%TO.P,Y1,2,2*%
%TO.N,OSCO*%
X91016000Y-72732000D03*
%TO.P,Y1,3*%
%TO.N,N/C*%
X91016000Y-71032000D03*
%TO.P,Y1,4*%
X88816000Y-71032000D03*
%TD*%
D13*
%TO.P,SW1,1,1*%
%TO.N,GND*%
X90005000Y-100076000D03*
X97955000Y-100076000D03*
%TO.P,SW1,2,2*%
%TO.N,Net-(C5-Pad1)*%
X90005000Y-104576000D03*
X97955000Y-104576000D03*
%TD*%
D14*
%TO.P,R2,1*%
%TO.N,Net-(D2-K)*%
X92964000Y-67881000D03*
%TO.P,R2,2*%
%TO.N,Net-(U2-CBUS1)*%
X92964000Y-66231000D03*
%TD*%
D15*
%TO.P,U3,1,GND*%
%TO.N,GND*%
X99181500Y-68514000D03*
%TO.P,U3,2,VO*%
%TO.N,+3V3*%
X99181500Y-66614000D03*
%TO.P,U3,3,VI*%
%TO.N,+5V*%
X96906500Y-67564000D03*
%TD*%
D16*
%TO.P,C2,1*%
%TO.N,+5V*%
X97002000Y-70612000D03*
%TO.P,C2,2*%
%TO.N,GND*%
X98552000Y-70612000D03*
%TD*%
D17*
%TO.P,J4,1,~{MCLR}/VPP*%
%TO.N,MCLR*%
X99060000Y-108073000D03*
%TO.P,J4,2,VDD*%
%TO.N,+3V3*%
X96520000Y-111383000D03*
%TO.P,J4,3,VSS*%
%TO.N,GND*%
X93980000Y-108073000D03*
%TO.P,J4,4,PGD/ICSPDAT*%
%TO.N,PGD2*%
X91440000Y-111383000D03*
%TO.P,J4,5,PGC/ICSPCLK*%
%TO.N,PGC2*%
X88900000Y-108073000D03*
%TD*%
D16*
%TO.P,C10,1*%
%TO.N,OSCO*%
X93205000Y-73660000D03*
%TO.P,C10,2*%
%TO.N,GND*%
X94755000Y-73660000D03*
%TD*%
D18*
%TO.P,TX,1,K*%
%TO.N,Net-(D2-K)*%
X92964000Y-69824500D03*
%TO.P,TX,2,A*%
%TO.N,+3V3*%
X92964000Y-71399500D03*
%TD*%
D14*
%TO.P,R1,1*%
%TO.N,Net-(D1-K)*%
X94996000Y-67881000D03*
%TO.P,R1,2*%
%TO.N,Net-(U2-CBUS0)*%
X94996000Y-66231000D03*
%TD*%
D19*
%TO.P,J1,A1,GND*%
%TO.N,GND*%
X97530000Y-63624000D03*
%TO.P,J1,A4,VBUS*%
%TO.N,+5V*%
X96730000Y-63624000D03*
D20*
%TO.P,J1,A5,CC1*%
%TO.N,Net-(J1-CC1)*%
X95580000Y-63624000D03*
%TO.P,J1,A6,D+*%
%TO.N,D+*%
X94580000Y-63624000D03*
%TO.P,J1,A7,D-*%
%TO.N,D-*%
X94080000Y-63624000D03*
%TO.P,J1,A8,SBU1*%
%TO.N,unconnected-(J1-SBU1-PadA8)*%
X93080000Y-63624000D03*
D19*
%TO.P,J1,A9,VBUS*%
%TO.N,+5V*%
X91930000Y-63624000D03*
%TO.P,J1,A12,GND*%
%TO.N,GND*%
X91130000Y-63624000D03*
%TO.P,J1,B1,GND*%
X91130000Y-63624000D03*
%TO.P,J1,B4,VBUS*%
%TO.N,+5V*%
X91930000Y-63624000D03*
D20*
%TO.P,J1,B5,CC2*%
%TO.N,Net-(J1-CC2)*%
X92580000Y-63624000D03*
%TO.P,J1,B6,D+*%
%TO.N,D+*%
X93580000Y-63624000D03*
%TO.P,J1,B7,D-*%
%TO.N,D-*%
X95080000Y-63624000D03*
%TO.P,J1,B8,SBU2*%
%TO.N,unconnected-(J1-SBU2-PadB8)*%
X96080000Y-63624000D03*
D19*
%TO.P,J1,B9,VBUS*%
%TO.N,+5V*%
X96730000Y-63624000D03*
%TO.P,J1,B12,GND*%
%TO.N,GND*%
X97530000Y-63624000D03*
D21*
%TO.P,J1,S1,SHIELD*%
%TO.N,Net-(J1-SHIELD)*%
X98650000Y-63049000D03*
D22*
X98650000Y-58869000D03*
D21*
X90010000Y-63049000D03*
D22*
X90010000Y-58869000D03*
%TD*%
D23*
%TO.P,C3,1*%
%TO.N,+3V3*%
X100482400Y-63919400D03*
%TO.P,C3,2*%
%TO.N,GND*%
X100482400Y-62369400D03*
%TD*%
D24*
%TO.P,R5,1*%
%TO.N,Net-(J1-SHIELD)*%
X87630000Y-58458600D03*
%TO.P,R5,2*%
%TO.N,GND*%
X87630000Y-60108600D03*
%TD*%
D16*
%TO.P,C11,1*%
%TO.N,OSCI*%
X89141000Y-74422000D03*
%TO.P,C11,2*%
%TO.N,GND*%
X90691000Y-74422000D03*
%TD*%
D24*
%TO.P,R7,1*%
%TO.N,Net-(C5-Pad1)*%
X90779600Y-94120200D03*
%TO.P,R7,2*%
%TO.N,MCLR*%
X90779600Y-95770200D03*
%TD*%
D18*
%TO.P,RX,1,K*%
%TO.N,Net-(D1-K)*%
X94996000Y-69824500D03*
%TO.P,RX,2,A*%
%TO.N,+3V3*%
X94996000Y-71399500D03*
%TD*%
D14*
%TO.P,R6,1*%
%TO.N,+3V3*%
X96164400Y-95821000D03*
%TO.P,R6,2*%
%TO.N,Net-(C5-Pad1)*%
X96164400Y-94171000D03*
%TD*%
D25*
%TO.P,C5,1*%
%TO.N,Net-(C5-Pad1)*%
X93522800Y-94221000D03*
%TO.P,C5,2*%
%TO.N,GND*%
X93522800Y-95771000D03*
%TD*%
D26*
%TO.P,J2,1,Pin_1*%
%TO.N,P23*%
X83820000Y-58420000D03*
D27*
%TO.P,J2,2,Pin_2*%
%TO.N,P24*%
X83820000Y-60960000D03*
%TO.P,J2,3,Pin_3*%
%TO.N,P25*%
X83820000Y-63500000D03*
%TO.P,J2,4,Pin_4*%
%TO.N,P26*%
X83820000Y-66040000D03*
%TO.P,J2,5,Pin_5*%
%TO.N,P27*%
X83820000Y-68580000D03*
%TO.P,J2,6,Pin_6*%
%TO.N,+3V3*%
X83820000Y-71120000D03*
%TO.P,J2,7,Pin_7*%
%TO.N,GND*%
X83820000Y-73660000D03*
%TO.P,J2,8,Pin_8*%
%TO.N,OSCI*%
X83820000Y-76200000D03*
%TO.P,J2,9,Pin_9*%
%TO.N,OSCO*%
X83820000Y-78740000D03*
%TO.P,J2,10,Pin_10*%
%TO.N,P32*%
X83820000Y-81280000D03*
%TO.P,J2,11,Pin_11*%
%TO.N,P33*%
X83820000Y-83820000D03*
%TO.P,J2,12,Pin_12*%
%TO.N,P34*%
X83820000Y-86360000D03*
%TO.P,J2,13,Pin_13*%
%TO.N,P35*%
X83820000Y-88900000D03*
%TO.P,J2,14,Pin_14*%
%TO.N,P36*%
X83820000Y-91440000D03*
%TO.P,J2,15,Pin_15*%
%TO.N,P37*%
X83820000Y-93980000D03*
%TO.P,J2,16,Pin_16*%
%TO.N,P38*%
X83820000Y-96520000D03*
%TO.P,J2,17,Pin_17*%
%TO.N,GND*%
X83820000Y-99060000D03*
%TO.P,J2,18,Pin_18*%
%TO.N,+3V3*%
X83820000Y-101600000D03*
%TO.P,J2,19,Pin_19*%
%TO.N,P41*%
X83820000Y-104140000D03*
%TO.P,J2,20,Pin_20*%
%TO.N,P42*%
X83820000Y-106680000D03*
%TO.P,J2,21,Pin_21*%
%TO.N,P43*%
X83820000Y-109220000D03*
%TO.P,J2,22,Pin_22*%
%TO.N,P44*%
X83820000Y-111760000D03*
%TD*%
D26*
%TO.P,J3,1,Pin_1*%
%TO.N,RX*%
X104140000Y-58420000D03*
D27*
%TO.P,J3,2,Pin_2*%
%TO.N,TX*%
X104140000Y-60960000D03*
%TO.P,J3,3,Pin_3*%
%TO.N,P20*%
X104140000Y-63500000D03*
%TO.P,J3,4,Pin_4*%
%TO.N,P19*%
X104140000Y-66040000D03*
%TO.P,J3,5,Pin_5*%
%TO.N,MCLR*%
X104140000Y-68580000D03*
%TO.P,J3,6,Pin_6*%
%TO.N,+3V3*%
X104140000Y-71120000D03*
%TO.P,J3,7,Pin_7*%
%TO.N,GND*%
X104140000Y-73660000D03*
%TO.P,J3,8,Pin_8*%
%TO.N,P15*%
X104140000Y-76200000D03*
%TO.P,J3,9,Pin_9*%
%TO.N,P14*%
X104140000Y-78740000D03*
%TO.P,J3,10,Pin_10*%
%TO.N,P13*%
X104140000Y-81280000D03*
%TO.P,J3,11,Pin_11*%
%TO.N,P12*%
X104140000Y-83820000D03*
%TO.P,J3,12,Pin_12*%
%TO.N,P11*%
X104140000Y-86360000D03*
%TO.P,J3,13,Pin_13*%
%TO.N,P10*%
X104140000Y-88900000D03*
%TO.P,J3,14,Pin_14*%
%TO.N,PGC2*%
X104140000Y-91440000D03*
%TO.P,J3,15,Pin_15*%
%TO.N,PGD2*%
X104140000Y-93980000D03*
%TO.P,J3,16,Pin_16*%
%TO.N,+3V3*%
X104140000Y-96520000D03*
%TO.P,J3,17,Pin_17*%
%TO.N,GND*%
X104140000Y-99060000D03*
%TO.P,J3,18,Pin_18*%
%TO.N,P5*%
X104140000Y-101600000D03*
%TO.P,J3,19,Pin_19*%
%TO.N,P4*%
X104140000Y-104140000D03*
%TO.P,J3,20,Pin_20*%
%TO.N,P3*%
X104140000Y-106680000D03*
%TO.P,J3,21,Pin_21*%
%TO.N,P2*%
X104140000Y-109220000D03*
%TO.P,J3,22,Pin_22*%
%TO.N,P1*%
X104140000Y-111760000D03*
%TD*%
D28*
%TO.N,GND*%
X94284800Y-75209400D03*
X87071200Y-70612000D03*
X98501200Y-64820800D03*
X94894400Y-92964000D03*
X94488000Y-86512400D03*
D29*
X99593400Y-72059800D03*
X90043000Y-102108000D03*
D28*
X96469200Y-107797600D03*
X98450400Y-82956400D03*
X100939600Y-58470800D03*
X87172800Y-102616000D03*
D29*
X89662000Y-64984500D03*
D28*
X100025200Y-103276400D03*
X90982800Y-82448400D03*
D29*
X101752400Y-59690000D03*
D28*
X88087200Y-98247200D03*
X86461600Y-108000800D03*
X89560400Y-93268800D03*
X96215200Y-98399600D03*
X97536000Y-93827600D03*
X100431600Y-66751200D03*
D29*
X93929200Y-72491600D03*
D28*
X95504000Y-100431600D03*
X97485200Y-60096400D03*
X95097600Y-61417200D03*
X100482400Y-65227200D03*
X87376000Y-61112400D03*
X90424000Y-98450400D03*
X98958400Y-65278000D03*
X94488000Y-79705200D03*
X87528400Y-73202800D03*
D29*
X88138000Y-63652400D03*
D28*
X88696800Y-67513200D03*
%TO.N,+5V*%
X97739200Y-65786000D03*
%TO.N,+3V3*%
X96824800Y-97383600D03*
D29*
X96520000Y-81153000D03*
D28*
X99771200Y-98348800D03*
X92405200Y-85191600D03*
D29*
X99568000Y-74472800D03*
X91440000Y-80518000D03*
%TO.N,MCLR*%
X97790000Y-92100400D03*
D28*
%TO.N,Net-(J1-CC1)*%
X96367600Y-60655200D03*
D29*
%TO.N,Net-(J1-CC2)*%
X91846400Y-59893200D03*
%TO.N,Net-(U2-CBUS0)*%
X87884000Y-65659000D03*
%TO.N,Net-(U2-CBUS1)*%
X87715956Y-69306844D03*
%TO.N,RX*%
X95449500Y-75057000D03*
D28*
%TO.N,TX*%
X94488000Y-78740000D03*
%TO.N,D+*%
X93087541Y-62599500D03*
%TO.N,D-*%
X94132400Y-62128400D03*
%TD*%
D30*
%TO.N,Net-(J1-CC2)*%
X92580000Y-63097958D02*
X92580000Y-63624000D01*
X91846400Y-59893200D02*
X92256042Y-60302842D01*
X92256042Y-62774000D02*
X92580000Y-63097958D01*
X92256042Y-60302842D02*
X92256042Y-62774000D01*
%TO.N,+3V3*%
X96164400Y-96723200D02*
X96824800Y-97383600D01*
X96164400Y-95821000D02*
X96164400Y-96723200D01*
X93726000Y-90262095D02*
X93726000Y-90277872D01*
X97848772Y-86834601D02*
X97153493Y-86834601D01*
X97153493Y-86834601D02*
X93726000Y-90262095D01*
X93726000Y-90277872D02*
X96914400Y-93466272D01*
X98217078Y-87202907D02*
X97848772Y-86834601D01*
X96914400Y-93466272D02*
X96914400Y-95071000D01*
X96914400Y-95071000D02*
X96164400Y-95821000D01*
%TO.N,Net-(C5-Pad1)*%
X93572800Y-94171000D02*
X93522800Y-94221000D01*
X96164400Y-94171000D02*
X93572800Y-94171000D01*
X90880400Y-94221000D02*
X90779600Y-94120200D01*
X93522800Y-94221000D02*
X90880400Y-94221000D01*
X88955000Y-103526000D02*
X90005000Y-104576000D01*
X88955000Y-95944800D02*
X88955000Y-103526000D01*
X90779600Y-94120200D02*
X88955000Y-95944800D01*
%TO.N,MCLR*%
X90779600Y-96176600D02*
X91694000Y-97091000D01*
X90779600Y-95770200D02*
X90779600Y-96176600D01*
D31*
%TO.N,+3V3*%
X100482400Y-64312800D02*
X99669600Y-65125600D01*
X99669600Y-65125600D02*
X99669600Y-66125900D01*
X100482400Y-63919400D02*
X100482400Y-64312800D01*
X99669600Y-66125900D02*
X99181500Y-66614000D01*
%TO.N,MCLR*%
X91694000Y-98907600D02*
X91694000Y-97091000D01*
X99060000Y-96774000D02*
X96520000Y-99314000D01*
X99060000Y-94437200D02*
X99060000Y-96774000D01*
X92100400Y-99314000D02*
X91694000Y-98907600D01*
X98298000Y-93675200D02*
X99060000Y-94437200D01*
X97790000Y-92100400D02*
X98298000Y-92608400D01*
X98298000Y-92608400D02*
X98298000Y-93675200D01*
X96520000Y-99314000D02*
X92100400Y-99314000D01*
D30*
%TO.N,GND*%
X92204200Y-73607000D02*
X91389200Y-74422000D01*
X90202090Y-73607000D02*
X92204200Y-73607000D01*
X91389200Y-74422000D02*
X90691000Y-74422000D01*
X90041000Y-73445910D02*
X90202090Y-73607000D01*
X89704754Y-69981844D02*
X90041000Y-70318090D01*
X87436361Y-69981844D02*
X89704754Y-69981844D01*
X86817200Y-69362683D02*
X87436361Y-69981844D01*
X86817200Y-64973200D02*
X86817200Y-69362683D01*
X88138000Y-63652400D02*
X86817200Y-64973200D01*
X90041000Y-70318090D02*
X90041000Y-73445910D01*
%TO.N,P37*%
X85219600Y-89584718D02*
X85219600Y-92580400D01*
X85648800Y-89155518D02*
X85219600Y-89584718D01*
X85648800Y-87782400D02*
X85648800Y-89155518D01*
X85219600Y-92580400D02*
X83820000Y-93980000D01*
X86425673Y-87005527D02*
X85648800Y-87782400D01*
X87790179Y-87005527D02*
X86425673Y-87005527D01*
X88512037Y-86637221D02*
X88158485Y-86637221D01*
X88158485Y-86637221D02*
X87790179Y-87005527D01*
%TO.N,GND*%
X91130000Y-64724400D02*
X90869900Y-64984500D01*
X85919600Y-94915374D02*
X85090000Y-95744974D01*
X90869900Y-64984500D02*
X89662000Y-64984500D01*
X98938936Y-79957988D02*
X101919038Y-79957988D01*
D31*
X98958400Y-65278000D02*
X98958400Y-65328800D01*
D30*
X88709417Y-79957988D02*
X85545988Y-79957988D01*
X98570631Y-80326293D02*
X98938936Y-79957988D01*
X101344898Y-88136898D02*
X101965000Y-88757000D01*
D31*
X97530000Y-64205200D02*
X98094800Y-64770000D01*
X97530000Y-63624000D02*
X97530000Y-64205200D01*
D30*
X85344000Y-79756000D02*
X85344000Y-75184000D01*
X102665000Y-75135000D02*
X104140000Y-73660000D01*
X89275102Y-88136898D02*
X88579823Y-88136898D01*
D31*
X98399600Y-64770000D02*
X98450400Y-64820800D01*
D30*
X89077722Y-80326293D02*
X88709417Y-79957988D01*
D31*
X98450400Y-64820800D02*
X98501200Y-64820800D01*
D30*
X102870000Y-97536000D02*
X104140000Y-98806000D01*
X87422503Y-88905600D02*
X85919600Y-90408503D01*
X102520000Y-95394974D02*
X102870000Y-95744974D01*
X85919600Y-90408503D02*
X85919600Y-94915374D01*
D31*
X98094800Y-64770000D02*
X98399600Y-64770000D01*
D30*
X101919038Y-79957988D02*
X102665000Y-79212026D01*
X89643408Y-87768592D02*
X89275102Y-88136898D01*
X101965000Y-88757000D02*
X101965000Y-92794948D01*
X91130000Y-63624000D02*
X91130000Y-64724400D01*
X104140000Y-98806000D02*
X104140000Y-99060000D01*
X85545988Y-79957988D02*
X85344000Y-79756000D01*
X88579823Y-88136898D02*
X87811120Y-88905600D01*
D31*
X91130000Y-63624000D02*
X91130000Y-64572000D01*
X98958400Y-65328800D02*
X98907600Y-65278000D01*
D30*
X85090000Y-97790000D02*
X83820000Y-99060000D01*
D31*
X98907600Y-65278000D02*
X98958400Y-65278000D01*
D30*
X98019698Y-88136898D02*
X101344898Y-88136898D01*
X102665000Y-79212026D02*
X102665000Y-75135000D01*
X101965000Y-92794948D02*
X102520000Y-93349948D01*
X85344000Y-75184000D02*
X83820000Y-73660000D01*
X102520000Y-93349948D02*
X102520000Y-95394974D01*
X98217078Y-80326293D02*
X98570631Y-80326293D01*
D31*
X98501200Y-64820800D02*
X98501200Y-64871600D01*
D30*
X102870000Y-95744974D02*
X102870000Y-97536000D01*
X85090000Y-95744974D02*
X85090000Y-97790000D01*
D31*
X98501200Y-64871600D02*
X98907600Y-65278000D01*
D30*
X97651392Y-87768592D02*
X98019698Y-88136898D01*
X87811120Y-88905600D02*
X87422503Y-88905600D01*
D31*
%TO.N,+5V*%
X96730000Y-66040000D02*
X96730000Y-67387500D01*
X96730000Y-67387500D02*
X96906500Y-67564000D01*
X96730000Y-63624000D02*
X96730000Y-66040000D01*
X91930000Y-64752000D02*
X92334000Y-65156000D01*
D30*
X97790000Y-65786000D02*
X96730000Y-64726000D01*
X96730000Y-64726000D02*
X96730000Y-63624000D01*
D31*
X95846000Y-65156000D02*
X96730000Y-66040000D01*
X96906500Y-70516500D02*
X97002000Y-70612000D01*
X96906500Y-67564000D02*
X96906500Y-70516500D01*
X91930000Y-63624000D02*
X91930000Y-64752000D01*
X92334000Y-65156000D02*
X95846000Y-65156000D01*
D30*
%TO.N,+3V3*%
X88097516Y-89255600D02*
X87567477Y-89255600D01*
X102315000Y-88599000D02*
X102315000Y-92649974D01*
X102315000Y-79041000D02*
X102315000Y-74990026D01*
X85694000Y-79090000D02*
X85694000Y-75039026D01*
D31*
X90400800Y-80518000D02*
X89643408Y-79760608D01*
X96520000Y-85505829D02*
X98217078Y-87202907D01*
X90627399Y-87045601D02*
X90627399Y-87915972D01*
X91440000Y-80518000D02*
X90400800Y-80518000D01*
X99181500Y-66914000D02*
X97777000Y-68318500D01*
X99771200Y-98348800D02*
X101070000Y-99647600D01*
D30*
X101963698Y-79392302D02*
X102315000Y-79041000D01*
D31*
X99568000Y-74472800D02*
X99568000Y-73525182D01*
D30*
X101287212Y-87571212D02*
X102315000Y-88599000D01*
D31*
X95008500Y-71412000D02*
X94996000Y-71399500D01*
D30*
X85090000Y-100330000D02*
X83820000Y-101600000D01*
D31*
X100503800Y-111383000D02*
X96520000Y-111383000D01*
X99181500Y-66614000D02*
X99181500Y-66914000D01*
D30*
X98019698Y-79392302D02*
X101963698Y-79392302D01*
X102870000Y-72390000D02*
X104140000Y-71120000D01*
X88650533Y-88702583D02*
X88097516Y-89255600D01*
X85090000Y-72390000D02*
X83820000Y-71120000D01*
X87567477Y-89255600D02*
X86269600Y-90553477D01*
X97651392Y-79760608D02*
X98019698Y-79392302D01*
X102315000Y-92649974D02*
X102870000Y-93204974D01*
X89840788Y-88702583D02*
X88650533Y-88702583D01*
D31*
X96520000Y-80892000D02*
X97651392Y-79760608D01*
X101650800Y-103701407D02*
X101650800Y-110236000D01*
D30*
X102870000Y-93204974D02*
X102870000Y-95250000D01*
X102870000Y-95250000D02*
X104140000Y-96520000D01*
X98938936Y-87571212D02*
X101287212Y-87571212D01*
D31*
X101070000Y-103120607D02*
X101650800Y-103701407D01*
D30*
X98570631Y-87202907D02*
X98938936Y-87571212D01*
D31*
X101070000Y-99647600D02*
X101070000Y-103120607D01*
X92964000Y-71399500D02*
X94996000Y-71399500D01*
D30*
X98217078Y-87202907D02*
X98570631Y-87202907D01*
X86269600Y-90553477D02*
X86269600Y-95060348D01*
D31*
X96520000Y-81153000D02*
X96520000Y-85505829D01*
D30*
X89275102Y-79392302D02*
X85996302Y-79392302D01*
D31*
X101650800Y-110236000D02*
X100503800Y-111383000D01*
D30*
X86269600Y-95060348D02*
X85440000Y-95889948D01*
X102870000Y-74435026D02*
X102870000Y-72390000D01*
X85090000Y-74435026D02*
X85090000Y-72390000D01*
X89643408Y-79760608D02*
X89275102Y-79392302D01*
X85996302Y-79392302D02*
X85694000Y-79090000D01*
X85440000Y-97934974D02*
X85090000Y-98284974D01*
D31*
X96520000Y-81153000D02*
X90627399Y-87045601D01*
X96520000Y-81153000D02*
X96520000Y-80892000D01*
X97777000Y-71089818D02*
X97454818Y-71412000D01*
X90627399Y-87915972D02*
X90209093Y-88334278D01*
X99568000Y-73525182D02*
X97454818Y-71412000D01*
X97777000Y-68318500D02*
X97777000Y-71089818D01*
D30*
X85090000Y-98284974D02*
X85090000Y-100330000D01*
X90209093Y-88334278D02*
X89840788Y-88702583D01*
X85694000Y-75039026D02*
X85090000Y-74435026D01*
X85440000Y-95889948D02*
X85440000Y-97934974D01*
D31*
X97454818Y-71412000D02*
X95008500Y-71412000D01*
D30*
X102315000Y-74990026D02*
X102870000Y-74435026D01*
%TO.N,MCLR*%
X98843910Y-103651000D02*
X94126000Y-103651000D01*
X97085707Y-79194922D02*
X97540629Y-78740000D01*
X102870000Y-71895026D02*
X102870000Y-69850000D01*
X99060000Y-103867090D02*
X98843910Y-103651000D01*
X102520000Y-74290052D02*
X102520000Y-72245026D01*
X101473000Y-78740000D02*
X101965000Y-78248000D01*
X101965000Y-74845052D02*
X102520000Y-74290052D01*
X97540629Y-78740000D02*
X101473000Y-78740000D01*
X102870000Y-69850000D02*
X104140000Y-68580000D01*
X91694000Y-101219000D02*
X91694000Y-97091000D01*
X99060000Y-108073000D02*
X99060000Y-103867090D01*
X102520000Y-72245026D02*
X102870000Y-71895026D01*
X94126000Y-103651000D02*
X91694000Y-101219000D01*
X101965000Y-78248000D02*
X101965000Y-74845052D01*
D31*
%TO.N,Net-(D1-K)*%
X94996000Y-67881000D02*
X94996000Y-69824500D01*
%TO.N,Net-(D2-K)*%
X92964000Y-67881000D02*
X92964000Y-69824500D01*
D30*
%TO.N,Net-(J1-CC1)*%
X95580000Y-63054024D02*
X95580000Y-63624000D01*
X96367600Y-60655200D02*
X96367600Y-62266424D01*
X96367600Y-62266424D02*
X95580000Y-63054024D01*
D31*
%TO.N,Net-(J1-SHIELD)*%
X87947000Y-58420000D02*
X89561000Y-58420000D01*
D30*
X90010000Y-58869000D02*
X98650000Y-58869000D01*
D31*
X89561000Y-58420000D02*
X90010000Y-58869000D01*
D30*
X90010000Y-58869000D02*
X90010000Y-63049000D01*
X98650000Y-58869000D02*
X98650000Y-63049000D01*
%TO.N,Net-(U2-CBUS0)*%
X90273000Y-65556000D02*
X94321000Y-65556000D01*
X90170000Y-65659000D02*
X90273000Y-65556000D01*
X87884000Y-65659000D02*
X90170000Y-65659000D01*
X94321000Y-65556000D02*
X94996000Y-66231000D01*
D31*
%TO.N,Net-(U2-CBUS1)*%
X92202000Y-68336462D02*
X92164000Y-68298462D01*
X92164000Y-67031000D02*
X92964000Y-66231000D01*
X92164000Y-68298462D02*
X92164000Y-67031000D01*
X91567000Y-69088000D02*
X92202000Y-68453000D01*
X87715956Y-69306844D02*
X87934800Y-69088000D01*
X92202000Y-68453000D02*
X92202000Y-68336462D01*
X87934800Y-69088000D02*
X91567000Y-69088000D01*
D30*
%TO.N,RX*%
X95449500Y-75057000D02*
X94822965Y-75683535D01*
X94822965Y-76932181D02*
X95176517Y-76932181D01*
X102170000Y-64480051D02*
X102520000Y-64130051D01*
X102870000Y-59690000D02*
X104140000Y-58420000D01*
X100330000Y-76708000D02*
X100565000Y-76473000D01*
X95544823Y-76563875D02*
X95886549Y-76563875D01*
X94822965Y-75683535D02*
X94822965Y-76932181D01*
X96030674Y-76708000D02*
X100330000Y-76708000D01*
X101470000Y-69270102D02*
X101820000Y-68920102D01*
X101120000Y-71665130D02*
X101470000Y-71315130D01*
X101120000Y-73710156D02*
X101120000Y-71665130D01*
X101820000Y-68920102D02*
X101820000Y-66875075D01*
X95886549Y-76563875D02*
X96030674Y-76708000D01*
X101470000Y-71315130D02*
X101470000Y-69270102D01*
X102870000Y-61542918D02*
X102870000Y-59690000D01*
X95176517Y-76932181D02*
X95544823Y-76563875D01*
X102520000Y-61892918D02*
X102870000Y-61542918D01*
X102520000Y-64130051D02*
X102520000Y-61892918D01*
X102170000Y-66525076D02*
X102170000Y-64480051D01*
X100565000Y-74265156D02*
X101120000Y-73710156D01*
X101820000Y-66875075D02*
X102170000Y-66525076D01*
X100565000Y-76473000D02*
X100565000Y-74265156D01*
%TO.N,TX*%
X101820000Y-71460104D02*
X101820000Y-69415076D01*
X102170000Y-69065076D02*
X102170000Y-67020050D01*
X94488000Y-78740000D02*
X94488000Y-78398516D01*
X95742204Y-77497866D02*
X96110509Y-77129561D01*
X102520000Y-64625025D02*
X102870000Y-64275025D01*
X101820000Y-69415076D02*
X102170000Y-69065076D01*
X103947892Y-60960000D02*
X104140000Y-60960000D01*
X95388650Y-77497866D02*
X95742204Y-77497866D01*
X100915000Y-74410130D02*
X101470000Y-73855130D01*
X101470000Y-73855130D02*
X101470000Y-71810104D01*
X102870000Y-64275025D02*
X102870000Y-62037892D01*
X102520000Y-66670051D02*
X102520000Y-64625025D01*
X100670439Y-77129561D02*
X100915000Y-76885000D01*
X94488000Y-78398516D02*
X95388650Y-77497866D01*
X102170000Y-67020050D02*
X102520000Y-66670051D01*
X96110509Y-77129561D02*
X100670439Y-77129561D01*
X100915000Y-76885000D02*
X100915000Y-74410130D01*
X102870000Y-62037892D02*
X103947892Y-60960000D01*
X101470000Y-71810104D02*
X101820000Y-71460104D01*
%TO.N,D+*%
X93580000Y-64199000D02*
X93580000Y-63624000D01*
X93087541Y-62599500D02*
X93262041Y-62774000D01*
X94305000Y-64474000D02*
X93855000Y-64474000D01*
X93855000Y-64474000D02*
X93580000Y-64199000D01*
X93087541Y-62599500D02*
X93153300Y-62599500D01*
X94580000Y-63624000D02*
X94580000Y-64199000D01*
X94580000Y-64199000D02*
X94305000Y-64474000D01*
X93299976Y-62774000D02*
X93580000Y-63054024D01*
X93262041Y-62774000D02*
X93299976Y-62774000D01*
X93580000Y-63054024D02*
X93580000Y-63624000D01*
%TO.N,D-*%
X94080000Y-63054024D02*
X94360024Y-62774000D01*
X94154376Y-62128400D02*
X95080000Y-63054024D01*
X95080000Y-63049000D02*
X95080000Y-63624000D01*
X94805000Y-62774000D02*
X95080000Y-63049000D01*
X95080000Y-63054024D02*
X95080000Y-63624000D01*
X94132400Y-62128400D02*
X94154376Y-62128400D01*
X94080000Y-63624000D02*
X94080000Y-63054024D01*
X94360024Y-62774000D02*
X94805000Y-62774000D01*
%TO.N,PGD2*%
X102665000Y-90459975D02*
X102870000Y-90664975D01*
X105019000Y-112913000D02*
X105441000Y-112491000D01*
X102870000Y-92710000D02*
X104140000Y-93980000D01*
X101229527Y-87005527D02*
X102665000Y-88441000D01*
X91440000Y-111383000D02*
X92970000Y-112913000D01*
X105441000Y-112491000D02*
X105441000Y-95281000D01*
X105441000Y-95281000D02*
X104140000Y-93980000D01*
X99151069Y-87005527D02*
X101229527Y-87005527D01*
X92970000Y-112913000D02*
X105019000Y-112913000D01*
X102665000Y-88441000D02*
X102665000Y-90459975D01*
X98782763Y-86637221D02*
X99151069Y-87005527D01*
X102870000Y-90664975D02*
X102870000Y-92710000D01*
%TO.N,P23*%
X85389200Y-59989200D02*
X83820000Y-58420000D01*
X86140000Y-66875078D02*
X85790000Y-66525078D01*
X88416000Y-74879108D02*
X88416000Y-74852400D01*
X86840000Y-71499448D02*
X86394000Y-71053448D01*
X85790000Y-66525078D02*
X85790000Y-64480052D01*
X86394000Y-69044626D02*
X86140000Y-68790626D01*
X92471835Y-76932181D02*
X91887844Y-76348190D01*
X86140000Y-68790626D02*
X86140000Y-66875078D01*
X86840000Y-73276400D02*
X86840000Y-71499448D01*
X89885082Y-76348190D02*
X88416000Y-74879108D01*
X85790000Y-64480052D02*
X85389200Y-64079252D01*
X91887844Y-76348190D02*
X89885082Y-76348190D01*
X86394000Y-71053448D02*
X86394000Y-69044626D01*
X85389200Y-64079252D02*
X85389200Y-59989200D01*
X88416000Y-74852400D02*
X86840000Y-73276400D01*
%TO.N,P1*%
X102665000Y-105596586D02*
X102665000Y-110285000D01*
X95191271Y-90965325D02*
X95886549Y-90965325D01*
X95919874Y-90932000D02*
X99568000Y-90932000D01*
X100708000Y-94077948D02*
X100708000Y-96143948D01*
X101470000Y-100909896D02*
X101820000Y-101259896D01*
X101820000Y-103304922D02*
X102170000Y-103654922D01*
X100138000Y-91502000D02*
X100138000Y-93507948D01*
X101120000Y-98491948D02*
X101470000Y-98841948D01*
X101820000Y-101259896D02*
X101820000Y-103304922D01*
X102170000Y-105101587D02*
X102665000Y-105596586D01*
X102665000Y-110285000D02*
X104140000Y-111760000D01*
X94822965Y-90597019D02*
X95191271Y-90965325D01*
X99568000Y-90932000D02*
X100138000Y-91502000D01*
X95886549Y-90965325D02*
X95919874Y-90932000D01*
X100138000Y-93507948D02*
X100708000Y-94077948D01*
X102170000Y-103654922D02*
X102170000Y-105101587D01*
X101470000Y-98841948D02*
X101470000Y-100909896D01*
X101120000Y-96555948D02*
X101120000Y-98491948D01*
X100708000Y-96143948D02*
X101120000Y-96555948D01*
%TO.N,P2*%
X101820000Y-98696974D02*
X101820000Y-100764922D01*
X103015000Y-108095000D02*
X104140000Y-109220000D01*
X101058000Y-93932974D02*
X101058000Y-95998974D01*
X100457000Y-90805000D02*
X100457000Y-91059000D01*
X103015000Y-105451611D02*
X103015000Y-108095000D01*
X95781316Y-90424000D02*
X100076000Y-90424000D01*
X100488000Y-93362974D02*
X101058000Y-93932974D01*
X102170000Y-101114922D02*
X102170000Y-103159948D01*
X102520000Y-103509948D02*
X102520000Y-104956612D01*
X95388650Y-90031334D02*
X95781316Y-90424000D01*
X101820000Y-100764922D02*
X102170000Y-101114922D01*
X100488000Y-91090000D02*
X100488000Y-93362974D01*
X101470000Y-98346974D02*
X101820000Y-98696974D01*
X101058000Y-95998974D02*
X101470000Y-96410974D01*
X101470000Y-96410974D02*
X101470000Y-98346974D01*
X102520000Y-104956612D02*
X103015000Y-105451611D01*
X102170000Y-103159948D02*
X102520000Y-103509948D01*
X100076000Y-90424000D02*
X100457000Y-90805000D01*
%TO.N,P3*%
X100838000Y-93218000D02*
X101408000Y-93788000D01*
X102870000Y-103364974D02*
X102870000Y-104811637D01*
X100584000Y-89916000D02*
X100838000Y-90170000D01*
X96404688Y-89916000D02*
X100584000Y-89916000D01*
X101408000Y-95854000D02*
X101820000Y-96266000D01*
X101820000Y-98202000D02*
X102170000Y-98552000D01*
X95954336Y-89465648D02*
X96404688Y-89916000D01*
X102520000Y-103014974D02*
X102870000Y-103364974D01*
X103365000Y-105905000D02*
X104140000Y-106680000D01*
X102170000Y-100619948D02*
X102520000Y-100969948D01*
X102170000Y-98552000D02*
X102170000Y-100619948D01*
X101820000Y-96266000D02*
X101820000Y-98202000D01*
X100838000Y-90170000D02*
X100838000Y-93218000D01*
X102870000Y-104811637D02*
X103365000Y-105306637D01*
X103365000Y-105306637D02*
X103365000Y-105905000D01*
X102520000Y-100969948D02*
X102520000Y-103014974D01*
X101408000Y-93788000D02*
X101408000Y-95854000D01*
%TO.N,P4*%
X96888327Y-89268269D02*
X97583606Y-89268269D01*
X102520000Y-98175948D02*
X102520000Y-100474974D01*
X97583606Y-89268269D02*
X97697875Y-89154000D01*
X102870000Y-100824974D02*
X102870000Y-102870000D01*
X102870000Y-102870000D02*
X104140000Y-104140000D01*
X101265000Y-89327000D02*
X101265000Y-93084896D01*
X102170000Y-96034923D02*
X102170000Y-97825948D01*
X97697875Y-89154000D02*
X101092000Y-89154000D01*
X96520021Y-88899963D02*
X96888327Y-89268269D01*
X101265000Y-93084896D02*
X101758000Y-93577896D01*
X101758000Y-95622923D02*
X102170000Y-96034923D01*
X101758000Y-93577896D02*
X101758000Y-95622923D01*
X101092000Y-89154000D02*
X101265000Y-89327000D01*
X102170000Y-97825948D02*
X102520000Y-98175948D01*
X102520000Y-100474974D02*
X102870000Y-100824974D01*
%TO.N,P5*%
X102108000Y-93432922D02*
X102108000Y-95477948D01*
X102520000Y-95889948D02*
X102520000Y-97680974D01*
X101615000Y-92939922D02*
X102108000Y-93432922D01*
X102870000Y-100330000D02*
X104140000Y-101600000D01*
X97085707Y-88334278D02*
X97454012Y-88702583D01*
X102520000Y-97680974D02*
X102870000Y-98030974D01*
X101402583Y-88702583D02*
X101615000Y-88915000D01*
X102870000Y-98030974D02*
X102870000Y-100330000D01*
X102108000Y-95477948D02*
X102520000Y-95889948D01*
X101615000Y-88915000D02*
X101615000Y-92939922D01*
X97454012Y-88702583D02*
X101402583Y-88702583D01*
%TO.N,P10*%
X100267686Y-85505850D02*
X100635992Y-85874156D01*
X101368156Y-85874156D02*
X104140000Y-88646000D01*
X100635992Y-85874156D02*
X101368156Y-85874156D01*
X104140000Y-88646000D02*
X104140000Y-88900000D01*
X99914134Y-85505850D02*
X100267686Y-85505850D01*
%TO.N,P11*%
X102720165Y-84940165D02*
X104140000Y-86360000D01*
X100479819Y-84940165D02*
X102720165Y-84940165D01*
%TO.N,P13*%
X100657484Y-81280000D02*
X104140000Y-81280000D01*
X99914134Y-82023350D02*
X100657484Y-81280000D01*
%TO.N,P14*%
X102870000Y-80772000D02*
X102870000Y-80010000D01*
X99876112Y-80930000D02*
X102712000Y-80930000D01*
X102712000Y-80930000D02*
X102870000Y-80772000D01*
X99348448Y-81457664D02*
X99876112Y-80930000D01*
X102870000Y-80010000D02*
X104140000Y-78740000D01*
%TO.N,P19*%
X96873574Y-78629237D02*
X97241880Y-78260931D01*
X102520000Y-69705026D02*
X102870000Y-69355026D01*
X101615000Y-74700078D02*
X102170000Y-74145078D01*
X102520000Y-71750052D02*
X102520000Y-69705026D01*
X102170000Y-72100052D02*
X102520000Y-71750052D01*
X101063069Y-78260931D02*
X101615000Y-77709000D01*
X102870000Y-67310000D02*
X104140000Y-66040000D01*
X102170000Y-74145078D02*
X102170000Y-72100052D01*
X101615000Y-77709000D02*
X101615000Y-74700078D01*
X102870000Y-69355026D02*
X102870000Y-67310000D01*
X97241880Y-78260931D02*
X101063069Y-78260931D01*
X96520021Y-78629237D02*
X96873574Y-78629237D01*
%TO.N,P20*%
X95954336Y-78063552D02*
X96307888Y-78063552D01*
X101820000Y-71955078D02*
X102170000Y-71605078D01*
X96676194Y-77695246D02*
X100866754Y-77695246D01*
X101265000Y-77297000D02*
X101265000Y-74555104D01*
X102170000Y-71605078D02*
X102170000Y-69560051D01*
X102170000Y-69560051D02*
X102520000Y-69210051D01*
X102870000Y-64770000D02*
X104140000Y-63500000D01*
X102870000Y-66815026D02*
X102870000Y-64770000D01*
X96307888Y-78063552D02*
X96676194Y-77695246D01*
X101820000Y-74000104D02*
X101820000Y-71955078D01*
X102520000Y-67165025D02*
X102870000Y-66815026D01*
X102520000Y-69210051D02*
X102520000Y-67165025D01*
X100866754Y-77695246D02*
X101265000Y-77297000D01*
X101265000Y-74555104D02*
X101820000Y-74000104D01*
%TO.N,P24*%
X87391161Y-77129561D02*
X87094000Y-76832400D01*
X86044000Y-69189600D02*
X85790000Y-68935600D01*
X85790000Y-67020052D02*
X85440000Y-66670052D01*
X85790000Y-68935600D02*
X85790000Y-67020052D01*
X87094000Y-76832400D02*
X87094000Y-74314800D01*
X87094000Y-74314800D02*
X86490000Y-73710800D01*
X85440000Y-64625026D02*
X85039200Y-64224226D01*
X86490000Y-73710800D02*
X86490000Y-71644422D01*
X91906150Y-77497866D02*
X91537845Y-77129561D01*
X85039200Y-62179200D02*
X83820000Y-60960000D01*
X86044000Y-71198422D02*
X86044000Y-69189600D01*
X85039200Y-64224226D02*
X85039200Y-62179200D01*
X85440000Y-66670052D02*
X85440000Y-64625026D01*
X86490000Y-71644422D02*
X86044000Y-71198422D01*
X91537845Y-77129561D02*
X87391161Y-77129561D01*
%TO.N,P25*%
X85090000Y-64770000D02*
X83820000Y-63500000D01*
X86744000Y-74604104D02*
X86140000Y-74000104D01*
X87404754Y-77695246D02*
X86744000Y-77034492D01*
X85694000Y-69464052D02*
X85440000Y-69210052D01*
X90972158Y-77695246D02*
X87404754Y-77695246D01*
X85090000Y-66815026D02*
X85090000Y-64770000D01*
X86140000Y-74000104D02*
X86140000Y-71789396D01*
X86140000Y-71789396D02*
X85694000Y-71343396D01*
X86744000Y-77034492D02*
X86744000Y-74604104D01*
X91340464Y-78063552D02*
X90972158Y-77695246D01*
X85694000Y-71343396D02*
X85694000Y-69464052D01*
X85440000Y-69210052D02*
X85440000Y-67165026D01*
X85440000Y-67165026D02*
X85090000Y-66815026D01*
%TO.N,Net-(C5-Pad1)*%
X97955000Y-104576000D02*
X90005000Y-104576000D01*
%TO.N,PGC2*%
X99348448Y-86071536D02*
X99702002Y-86071536D01*
X100070307Y-86439841D02*
X101171841Y-86439841D01*
X88900000Y-110986910D02*
X88900000Y-108073000D01*
X101171841Y-86439841D02*
X103015000Y-88283000D01*
X91176090Y-113263000D02*
X88900000Y-110986910D01*
X103015000Y-88283000D02*
X103015000Y-90315000D01*
X105791000Y-93091000D02*
X105791000Y-112776000D01*
X99702002Y-86071536D02*
X100070307Y-86439841D01*
X105791000Y-93091000D02*
X104140000Y-91440000D01*
X103015000Y-90315000D02*
X104140000Y-91440000D01*
X105304000Y-113263000D02*
X91176090Y-113263000D01*
X105791000Y-112776000D02*
X105304000Y-113263000D01*
%TO.N,P26*%
X86614000Y-78232000D02*
X86394000Y-78012000D01*
X85090000Y-69355026D02*
X85090000Y-67310000D01*
X85090000Y-67310000D02*
X83820000Y-66040000D01*
X85344000Y-69609026D02*
X85090000Y-69355026D01*
X86394000Y-78012000D02*
X86394000Y-74749078D01*
X86394000Y-74749078D02*
X85790000Y-74145078D01*
X90377542Y-78232000D02*
X86614000Y-78232000D01*
X85344000Y-71488370D02*
X85344000Y-69609026D01*
X90774779Y-78629237D02*
X90377542Y-78232000D01*
X85790000Y-71934370D02*
X85344000Y-71488370D01*
X85790000Y-74145078D02*
X85790000Y-71934370D01*
%TO.N,P27*%
X84945000Y-69705000D02*
X83820000Y-68580000D01*
X90209093Y-79194922D02*
X89840788Y-78826617D01*
X86192617Y-78826617D02*
X86044000Y-78678000D01*
X86044000Y-78678000D02*
X86044000Y-74894052D01*
X85440000Y-74290052D02*
X85440000Y-72079344D01*
X86044000Y-74894052D02*
X85440000Y-74290052D01*
X84945000Y-71584344D02*
X84945000Y-69705000D01*
X89840788Y-78826617D02*
X86192617Y-78826617D01*
X85440000Y-72079344D02*
X84945000Y-71584344D01*
%TO.N,P32*%
X86637316Y-81280000D02*
X83820000Y-81280000D01*
X87380666Y-82023350D02*
X86637316Y-81280000D01*
%TO.N,P33*%
X86814981Y-82589035D02*
X86013946Y-81788000D01*
X86013946Y-81788000D02*
X85090000Y-81788000D01*
X85090000Y-81788000D02*
X83820000Y-83058000D01*
X83820000Y-83058000D02*
X83820000Y-83820000D01*
%TO.N,P38*%
X87277529Y-88555600D02*
X85569600Y-90263529D01*
X88434849Y-87786897D02*
X87666146Y-88555600D01*
X85569600Y-90263529D02*
X85569600Y-94770400D01*
X85569600Y-94770400D02*
X83820000Y-96520000D01*
X88493732Y-87786897D02*
X88434849Y-87786897D01*
X89077722Y-87202907D02*
X88493732Y-87786897D01*
X87666146Y-88555600D02*
X87277529Y-88555600D01*
%TO.N,P41*%
X85440000Y-98429948D02*
X85440000Y-100474974D01*
X86619600Y-90698451D02*
X86619600Y-95205322D01*
X90598002Y-88723186D02*
X90052920Y-89268269D01*
X87712712Y-89605339D02*
X86619600Y-90698451D01*
X88721245Y-89268269D02*
X88378314Y-89611200D01*
X87718574Y-89611200D02*
X87712712Y-89605339D01*
X85440000Y-100474974D02*
X85090000Y-100824974D01*
X88378314Y-89611200D02*
X87718574Y-89611200D01*
X90774779Y-88899963D02*
X90598002Y-88723186D01*
X85852000Y-95972922D02*
X85852000Y-98017948D01*
X85090000Y-100824974D02*
X85090000Y-102870000D01*
X85090000Y-102870000D02*
X83820000Y-104140000D01*
X86619600Y-95205322D02*
X85852000Y-95972922D01*
X85852000Y-98017948D02*
X85440000Y-98429948D01*
X90052920Y-89268269D02*
X88721245Y-89268269D01*
%TO.N,P42*%
X84945000Y-105555000D02*
X83820000Y-106680000D01*
X88576271Y-90049639D02*
X87763387Y-90049639D01*
X84945000Y-104031000D02*
X84945000Y-105555000D01*
X86202000Y-98162923D02*
X85790000Y-98574922D01*
X86969600Y-95350296D02*
X86202000Y-96117896D01*
X86202000Y-96117896D02*
X86202000Y-98162923D01*
X85790000Y-100619949D02*
X85440000Y-100969948D01*
X87763387Y-90049639D02*
X86969600Y-90843426D01*
X85440000Y-100969948D02*
X85440000Y-103536000D01*
X91340464Y-89465648D02*
X91163688Y-89288872D01*
X90618606Y-89833954D02*
X88791956Y-89833954D01*
X88791956Y-89833954D02*
X88576271Y-90049639D01*
X85440000Y-103536000D02*
X84945000Y-104031000D01*
X85790000Y-98574922D02*
X85790000Y-100619949D01*
X86969600Y-90843426D02*
X86969600Y-95350296D01*
X91163688Y-89288872D02*
X90618606Y-89833954D01*
%TO.N,P43*%
X85344000Y-104140000D02*
X85344000Y-107696000D01*
X85344000Y-107696000D02*
X83820000Y-109220000D01*
X87381600Y-90926400D02*
X87381600Y-95433270D01*
X91906150Y-90031334D02*
X91537845Y-90399639D01*
X86140000Y-100764924D02*
X85790000Y-101114923D01*
X85790000Y-101114923D02*
X85790000Y-103694000D01*
X86552000Y-98307898D02*
X86140000Y-98719896D01*
X85790000Y-103694000D02*
X85344000Y-104140000D01*
X87381600Y-95433270D02*
X86552000Y-96262870D01*
X87908361Y-90399639D02*
X87381600Y-90926400D01*
X86140000Y-98719896D02*
X86140000Y-100764924D01*
X86552000Y-96262870D02*
X86552000Y-98307898D01*
X91537845Y-90399639D02*
X87908361Y-90399639D01*
%TO.N,P44*%
X86902000Y-96407844D02*
X86902000Y-98452873D01*
X86902000Y-98452873D02*
X86490000Y-98864873D01*
X85694000Y-104284974D02*
X85694000Y-109886000D01*
X85694000Y-109886000D02*
X83820000Y-111760000D01*
X92471835Y-90597019D02*
X92103529Y-90965325D01*
X86140000Y-101259898D02*
X86140000Y-103838975D01*
X87850675Y-90965325D02*
X87731600Y-91084400D01*
X87731600Y-91084400D02*
X87731600Y-95578244D01*
X86490000Y-100909899D02*
X86140000Y-101259898D01*
X92103529Y-90965325D02*
X87850675Y-90965325D01*
X86490000Y-98864873D02*
X86490000Y-100909899D01*
X86140000Y-103838975D02*
X85694000Y-104284974D01*
X87731600Y-95578244D02*
X86902000Y-96407844D01*
%TO.N,OSCO*%
X93755826Y-80234174D02*
X92164030Y-81825970D01*
D31*
X92277000Y-72732000D02*
X93205000Y-73660000D01*
D30*
X83820000Y-79502000D02*
X85248000Y-80930000D01*
X87418688Y-80930000D02*
X87946352Y-81457664D01*
D31*
X91016000Y-72732000D02*
X92277000Y-72732000D01*
D30*
X93205000Y-73660000D02*
X93755826Y-74210826D01*
X88314658Y-81825970D02*
X87946352Y-81457664D01*
X85248000Y-80930000D02*
X87418688Y-80930000D01*
X83820000Y-78740000D02*
X83820000Y-79502000D01*
X93755826Y-74210826D02*
X93755826Y-80234174D01*
X92164030Y-81825970D02*
X88314658Y-81825970D01*
%TO.N,OSCI*%
X84945000Y-80119000D02*
X84945000Y-77325000D01*
X88512037Y-80891979D02*
X88143731Y-80523673D01*
D31*
X88816000Y-74097000D02*
X89141000Y-74422000D01*
D30*
X93405826Y-79822174D02*
X91967716Y-81260284D01*
X93405826Y-77088354D02*
X93405826Y-79822174D01*
X88880342Y-81260284D02*
X88512037Y-80891979D01*
X85349673Y-80523673D02*
X84945000Y-80119000D01*
X89141000Y-74422000D02*
X90717190Y-75998190D01*
X91967716Y-81260284D02*
X88880342Y-81260284D01*
X88143731Y-80523673D02*
X85349673Y-80523673D01*
D31*
X88816000Y-72732000D02*
X88816000Y-74097000D01*
D30*
X84945000Y-77325000D02*
X83820000Y-76200000D01*
X90717190Y-75998190D02*
X92315662Y-75998190D01*
X92315662Y-75998190D02*
X93405826Y-77088354D01*
%TO.N,P34*%
X86814981Y-84940165D02*
X85239835Y-84940165D01*
X85239835Y-84940165D02*
X83820000Y-86360000D01*
%TO.N,P12*%
X100479819Y-82589035D02*
X102909035Y-82589035D01*
X102909035Y-82589035D02*
X104140000Y-83820000D01*
%TO.N,P35*%
X86337844Y-85874156D02*
X83820000Y-88392000D01*
X87027114Y-85505850D02*
X86658808Y-85874156D01*
X83820000Y-88392000D02*
X83820000Y-88900000D01*
X87380666Y-85505850D02*
X87027114Y-85505850D01*
X86658808Y-85874156D02*
X86337844Y-85874156D01*
%TO.N,P36*%
X87946352Y-86071536D02*
X87578047Y-86439841D01*
X86381759Y-86439841D02*
X85293200Y-87528400D01*
X84869600Y-89439744D02*
X84869600Y-90390400D01*
X87578047Y-86439841D02*
X86381759Y-86439841D01*
X85293200Y-87528400D02*
X85293200Y-89016144D01*
X84869600Y-90390400D02*
X83820000Y-91440000D01*
X85293200Y-89016144D02*
X84869600Y-89439744D01*
%TO.N,P15*%
X99136315Y-80891979D02*
X99504621Y-80523673D01*
X101848327Y-80523673D02*
X103015000Y-79357000D01*
X103015000Y-77325000D02*
X104140000Y-76200000D01*
X98782763Y-80891979D02*
X99136315Y-80891979D01*
X103015000Y-79357000D02*
X103015000Y-77325000D01*
X99504621Y-80523673D02*
X101848327Y-80523673D01*
%TD*%
%TA.AperFunction,Conductor*%
%TO.N,GND*%
G36*
X105898539Y-56608185D02*
G01*
X105944294Y-56660989D01*
X105955500Y-56712500D01*
X105955500Y-92566522D01*
X105935815Y-92633561D01*
X105883011Y-92679316D01*
X105813853Y-92689260D01*
X105750297Y-92660235D01*
X105743819Y-92654203D01*
X105116982Y-92027366D01*
X105083497Y-91966043D01*
X105088481Y-91896351D01*
X105095307Y-91881229D01*
X105115230Y-91843957D01*
X105115232Y-91843954D01*
X105175300Y-91645934D01*
X105195583Y-91440000D01*
X105175300Y-91234066D01*
X105115232Y-91036046D01*
X105017685Y-90853550D01*
X104965702Y-90790209D01*
X104886410Y-90693589D01*
X104726452Y-90562317D01*
X104726453Y-90562317D01*
X104726450Y-90562315D01*
X104543954Y-90464768D01*
X104345934Y-90404700D01*
X104345932Y-90404699D01*
X104345934Y-90404699D01*
X104140000Y-90384417D01*
X103934067Y-90404699D01*
X103776689Y-90452439D01*
X103736046Y-90464768D01*
X103736045Y-90464768D01*
X103736040Y-90464770D01*
X103698764Y-90484694D01*
X103630361Y-90498935D01*
X103565118Y-90473934D01*
X103552632Y-90463016D01*
X103326819Y-90237203D01*
X103293334Y-90175880D01*
X103290500Y-90149522D01*
X103290500Y-89823982D01*
X103310185Y-89756943D01*
X103362989Y-89711188D01*
X103432147Y-89701244D01*
X103493165Y-89728129D01*
X103532811Y-89760665D01*
X103553550Y-89777685D01*
X103736046Y-89875232D01*
X103934066Y-89935300D01*
X103934065Y-89935300D01*
X103952529Y-89937118D01*
X104140000Y-89955583D01*
X104345934Y-89935300D01*
X104543954Y-89875232D01*
X104726450Y-89777685D01*
X104886410Y-89646410D01*
X105017685Y-89486450D01*
X105115232Y-89303954D01*
X105175300Y-89105934D01*
X105195583Y-88900000D01*
X105175300Y-88694066D01*
X105115232Y-88496046D01*
X105017685Y-88313550D01*
X104904932Y-88176159D01*
X104886410Y-88153589D01*
X104742622Y-88035587D01*
X104726450Y-88022315D01*
X104543954Y-87924768D01*
X104345934Y-87864700D01*
X104345932Y-87864699D01*
X104345934Y-87864699D01*
X104140000Y-87844417D01*
X103934066Y-87864699D01*
X103934063Y-87864700D01*
X103862667Y-87886357D01*
X103792800Y-87886980D01*
X103738993Y-87855377D01*
X101590783Y-85707167D01*
X101575361Y-85688375D01*
X101571917Y-85683221D01*
X101566780Y-85675532D01*
X101566776Y-85675528D01*
X101543779Y-85660163D01*
X101537017Y-85655645D01*
X101516746Y-85642100D01*
X101503524Y-85633265D01*
X101475652Y-85614641D01*
X101475646Y-85614639D01*
X101392589Y-85598118D01*
X101330678Y-85565733D01*
X101296104Y-85505017D01*
X101299844Y-85435248D01*
X101300259Y-85434092D01*
X101318211Y-85384768D01*
X101339309Y-85326800D01*
X101339309Y-85326795D01*
X101340837Y-85318132D01*
X101371864Y-85255530D01*
X101431811Y-85219639D01*
X101462953Y-85215665D01*
X102554687Y-85215665D01*
X102621726Y-85235350D01*
X102642368Y-85251984D01*
X103163016Y-85772632D01*
X103196501Y-85833955D01*
X103191517Y-85903647D01*
X103184694Y-85918764D01*
X103164770Y-85956040D01*
X103104699Y-86154067D01*
X103084417Y-86360000D01*
X103104699Y-86565932D01*
X103115983Y-86603129D01*
X103164768Y-86763954D01*
X103262315Y-86946450D01*
X103262317Y-86946452D01*
X103393589Y-87106410D01*
X103490209Y-87185702D01*
X103553550Y-87237685D01*
X103736046Y-87335232D01*
X103934066Y-87395300D01*
X103934065Y-87395300D01*
X103952529Y-87397118D01*
X104140000Y-87415583D01*
X104345934Y-87395300D01*
X104543954Y-87335232D01*
X104726450Y-87237685D01*
X104886410Y-87106410D01*
X105017685Y-86946450D01*
X105115232Y-86763954D01*
X105175300Y-86565934D01*
X105195583Y-86360000D01*
X105175300Y-86154066D01*
X105115232Y-85956046D01*
X105017685Y-85773550D01*
X104953299Y-85695095D01*
X104886410Y-85613589D01*
X104768677Y-85516969D01*
X104726450Y-85482315D01*
X104543954Y-85384768D01*
X104345934Y-85324700D01*
X104345932Y-85324699D01*
X104345934Y-85324699D01*
X104140000Y-85304417D01*
X103934067Y-85324699D01*
X103781424Y-85371003D01*
X103736046Y-85384768D01*
X103736045Y-85384768D01*
X103736040Y-85384770D01*
X103698764Y-85404694D01*
X103630361Y-85418935D01*
X103565118Y-85393934D01*
X103552632Y-85383016D01*
X102942792Y-84773176D01*
X102927370Y-84754384D01*
X102918789Y-84741541D01*
X102918785Y-84741537D01*
X102895788Y-84726172D01*
X102895785Y-84726170D01*
X102882584Y-84717349D01*
X102837355Y-84687127D01*
X102827661Y-84680650D01*
X102827657Y-84680648D01*
X102743014Y-84663812D01*
X102742981Y-84663806D01*
X102729019Y-84661029D01*
X102720166Y-84659268D01*
X102720165Y-84659268D01*
X102705011Y-84662282D01*
X102680821Y-84664665D01*
X100928139Y-84664665D01*
X100861100Y-84644980D01*
X100840458Y-84628346D01*
X100363784Y-84151673D01*
X100363778Y-84151667D01*
X100324391Y-84121443D01*
X100324385Y-84121440D01*
X100212381Y-84080675D01*
X100093184Y-84080675D01*
X100093181Y-84080675D01*
X100093181Y-84080676D01*
X99981176Y-84121441D01*
X99981173Y-84121443D01*
X99941788Y-84151664D01*
X99941787Y-84151665D01*
X99691320Y-84402134D01*
X99691319Y-84402135D01*
X99661095Y-84441522D01*
X99616619Y-84563724D01*
X99613701Y-84562662D01*
X99590451Y-84609555D01*
X99537238Y-84641402D01*
X99537693Y-84642650D01*
X99531213Y-84645008D01*
X99530499Y-84645436D01*
X99529353Y-84645685D01*
X99415491Y-84687126D01*
X99415488Y-84687128D01*
X99376103Y-84717349D01*
X99376102Y-84717350D01*
X99125635Y-84967819D01*
X99125634Y-84967820D01*
X99095410Y-85007207D01*
X99050934Y-85129409D01*
X99048016Y-85128347D01*
X99024770Y-85175237D01*
X98971553Y-85207090D01*
X98972007Y-85208336D01*
X98965538Y-85210690D01*
X98964819Y-85211121D01*
X98963665Y-85211371D01*
X98849805Y-85252812D01*
X98849802Y-85252814D01*
X98810417Y-85283035D01*
X98810416Y-85283036D01*
X98559949Y-85533505D01*
X98559948Y-85533506D01*
X98529724Y-85572893D01*
X98505049Y-85640690D01*
X98489570Y-85683221D01*
X98485248Y-85695095D01*
X98482330Y-85694033D01*
X98459080Y-85740926D01*
X98405867Y-85772773D01*
X98406322Y-85774021D01*
X98399842Y-85776379D01*
X98399128Y-85776807D01*
X98397982Y-85777056D01*
X98284120Y-85818497D01*
X98284117Y-85818499D01*
X98244732Y-85848720D01*
X98244731Y-85848721D01*
X97994264Y-86099190D01*
X97994263Y-86099191D01*
X97964040Y-86138576D01*
X97936957Y-86212987D01*
X97895530Y-86269251D01*
X97830262Y-86294186D01*
X97761873Y-86279876D01*
X97732754Y-86258257D01*
X96881819Y-85407322D01*
X96848334Y-85345999D01*
X96845500Y-85319641D01*
X96845500Y-81721298D01*
X96865185Y-81654259D01*
X96894010Y-81622925D01*
X96948282Y-81581282D01*
X97044536Y-81455841D01*
X97105044Y-81309762D01*
X97125682Y-81153000D01*
X97123325Y-81135099D01*
X97134090Y-81066066D01*
X97158583Y-81031233D01*
X98129396Y-80060420D01*
X98190719Y-80026935D01*
X98260411Y-80031919D01*
X98304758Y-80060420D01*
X98482950Y-80238612D01*
X98516435Y-80299935D01*
X98511451Y-80369627D01*
X98482950Y-80413974D01*
X97523282Y-81373642D01*
X97653492Y-81445226D01*
X97653500Y-81445229D01*
X97809504Y-81485284D01*
X97809510Y-81485285D01*
X97970574Y-81485285D01*
X97978315Y-81484307D01*
X97978683Y-81487222D01*
X98034680Y-81489120D01*
X98083414Y-81519161D01*
X98244728Y-81680474D01*
X98284119Y-81710702D01*
X98396128Y-81751469D01*
X98396129Y-81751469D01*
X98406322Y-81755179D01*
X98405258Y-81758099D01*
X98452132Y-81781326D01*
X98484006Y-81834556D01*
X98485248Y-81834105D01*
X98487590Y-81840540D01*
X98488027Y-81841270D01*
X98488281Y-81842440D01*
X98523362Y-81938826D01*
X98529725Y-81956308D01*
X98559951Y-81995699D01*
X98810413Y-82246159D01*
X98810416Y-82246161D01*
X98810417Y-82246162D01*
X98810418Y-82246163D01*
X98817321Y-82251460D01*
X98849804Y-82276387D01*
X98961813Y-82317154D01*
X98961814Y-82317154D01*
X98972007Y-82320864D01*
X98970943Y-82323784D01*
X99017814Y-82347007D01*
X99049694Y-82400242D01*
X99050934Y-82399791D01*
X99053272Y-82406216D01*
X99053712Y-82406950D01*
X99053968Y-82408128D01*
X99077580Y-82473004D01*
X99095411Y-82521994D01*
X99125637Y-82561385D01*
X99376099Y-82811845D01*
X99376102Y-82811847D01*
X99376103Y-82811848D01*
X99376104Y-82811849D01*
X99383007Y-82817146D01*
X99415490Y-82842073D01*
X99527499Y-82882840D01*
X99527500Y-82882840D01*
X99537693Y-82886550D01*
X99536629Y-82889470D01*
X99583503Y-82912697D01*
X99615377Y-82965927D01*
X99616619Y-82965476D01*
X99618961Y-82971911D01*
X99619398Y-82972641D01*
X99619652Y-82973811D01*
X99655968Y-83073590D01*
X99661096Y-83087679D01*
X99691322Y-83127070D01*
X99941784Y-83377530D01*
X99941787Y-83377532D01*
X99941788Y-83377533D01*
X99941789Y-83377534D01*
X99943392Y-83378764D01*
X99981175Y-83407758D01*
X100093184Y-83448525D01*
X100093187Y-83448525D01*
X100212379Y-83448525D01*
X100212381Y-83448525D01*
X100324389Y-83407758D01*
X100363781Y-83377532D01*
X100840458Y-82900853D01*
X100901781Y-82867369D01*
X100928139Y-82864535D01*
X102743557Y-82864535D01*
X102810596Y-82884220D01*
X102831238Y-82900854D01*
X103163016Y-83232632D01*
X103196501Y-83293955D01*
X103191517Y-83363647D01*
X103184694Y-83378764D01*
X103164770Y-83416040D01*
X103104699Y-83614067D01*
X103084417Y-83820000D01*
X103104699Y-84025932D01*
X103133671Y-84121440D01*
X103164768Y-84223954D01*
X103262315Y-84406450D01*
X103262317Y-84406452D01*
X103393589Y-84566410D01*
X103489884Y-84645436D01*
X103553550Y-84697685D01*
X103736046Y-84795232D01*
X103934066Y-84855300D01*
X103934065Y-84855300D01*
X103952529Y-84857118D01*
X104140000Y-84875583D01*
X104345934Y-84855300D01*
X104543954Y-84795232D01*
X104726450Y-84697685D01*
X104886410Y-84566410D01*
X105017685Y-84406450D01*
X105115232Y-84223954D01*
X105175300Y-84025934D01*
X105195583Y-83820000D01*
X105175300Y-83614066D01*
X105115232Y-83416046D01*
X105017685Y-83233550D01*
X104930300Y-83127070D01*
X104886410Y-83073589D01*
X104726452Y-82942317D01*
X104726453Y-82942317D01*
X104726450Y-82942315D01*
X104543954Y-82844768D01*
X104345934Y-82784700D01*
X104345932Y-82784699D01*
X104345934Y-82784699D01*
X104140000Y-82764417D01*
X103934067Y-82784699D01*
X103776689Y-82832439D01*
X103736046Y-82844768D01*
X103736045Y-82844768D01*
X103736040Y-82844770D01*
X103698764Y-82864694D01*
X103630361Y-82878935D01*
X103565118Y-82853934D01*
X103552632Y-82843016D01*
X103131662Y-82422046D01*
X103116240Y-82403254D01*
X103114636Y-82400854D01*
X103107659Y-82390411D01*
X103107656Y-82390408D01*
X103089723Y-82378426D01*
X103058500Y-82357563D01*
X103053148Y-82353987D01*
X103016530Y-82329520D01*
X103016529Y-82329519D01*
X103016528Y-82329519D01*
X102931884Y-82312682D01*
X102931851Y-82312676D01*
X102917889Y-82309899D01*
X102909036Y-82308138D01*
X102909035Y-82308138D01*
X102893881Y-82311152D01*
X102869691Y-82313535D01*
X101462953Y-82313535D01*
X101395914Y-82293850D01*
X101350159Y-82241046D01*
X101340837Y-82211068D01*
X101339309Y-82202403D01*
X101339309Y-82202400D01*
X101298542Y-82090391D01*
X101268316Y-82051000D01*
X101017854Y-81800540D01*
X101017849Y-81800536D01*
X101017848Y-81800535D01*
X100988316Y-81777873D01*
X100947115Y-81721444D01*
X100942963Y-81651698D01*
X100977177Y-81590779D01*
X101038896Y-81558028D01*
X101063806Y-81555500D01*
X103033837Y-81555500D01*
X103100876Y-81575185D01*
X103146631Y-81627989D01*
X103152497Y-81643504D01*
X103164767Y-81683952D01*
X103164768Y-81683954D01*
X103262315Y-81866450D01*
X103262317Y-81866452D01*
X103393589Y-82026410D01*
X103471553Y-82090392D01*
X103553550Y-82157685D01*
X103736046Y-82255232D01*
X103934066Y-82315300D01*
X103934065Y-82315300D01*
X103952529Y-82317118D01*
X104140000Y-82335583D01*
X104345934Y-82315300D01*
X104543954Y-82255232D01*
X104726450Y-82157685D01*
X104886410Y-82026410D01*
X105017685Y-81866450D01*
X105115232Y-81683954D01*
X105175300Y-81485934D01*
X105195583Y-81280000D01*
X105175300Y-81074066D01*
X105115232Y-80876046D01*
X105017685Y-80693550D01*
X104948462Y-80609201D01*
X104886410Y-80533589D01*
X104763594Y-80432798D01*
X104726450Y-80402315D01*
X104543954Y-80304768D01*
X104345934Y-80244700D01*
X104345932Y-80244699D01*
X104345934Y-80244699D01*
X104140000Y-80224417D01*
X103934067Y-80244699D01*
X103758692Y-80297898D01*
X103751979Y-80299935D01*
X103736043Y-80304769D01*
X103630401Y-80361237D01*
X103553550Y-80402315D01*
X103553548Y-80402316D01*
X103553547Y-80402317D01*
X103393589Y-80533590D01*
X103365353Y-80567996D01*
X103307607Y-80607330D01*
X103237763Y-80609201D01*
X103177994Y-80573013D01*
X103147279Y-80510257D01*
X103145500Y-80489331D01*
X103145500Y-80175477D01*
X103165185Y-80108438D01*
X103181815Y-80087800D01*
X103552634Y-79716980D01*
X103613955Y-79683497D01*
X103683646Y-79688481D01*
X103698767Y-79695305D01*
X103736046Y-79715232D01*
X103934066Y-79775300D01*
X103934065Y-79775300D01*
X103952529Y-79777118D01*
X104140000Y-79795583D01*
X104345934Y-79775300D01*
X104543954Y-79715232D01*
X104726450Y-79617685D01*
X104886410Y-79486410D01*
X105017685Y-79326450D01*
X105115232Y-79143954D01*
X105175300Y-78945934D01*
X105195583Y-78740000D01*
X105175300Y-78534066D01*
X105115232Y-78336046D01*
X105017685Y-78153550D01*
X104921134Y-78035901D01*
X104886410Y-77993589D01*
X104742923Y-77875834D01*
X104726450Y-77862315D01*
X104543954Y-77764768D01*
X104345934Y-77704700D01*
X104345932Y-77704699D01*
X104345934Y-77704699D01*
X104140000Y-77684417D01*
X103934067Y-77704699D01*
X103736043Y-77764769D01*
X103553546Y-77862317D01*
X103493164Y-77911871D01*
X103428853Y-77939183D01*
X103359986Y-77927391D01*
X103308426Y-77880238D01*
X103290500Y-77816017D01*
X103290500Y-77490477D01*
X103310185Y-77423438D01*
X103326815Y-77402800D01*
X103552634Y-77176980D01*
X103613955Y-77143497D01*
X103683646Y-77148481D01*
X103698767Y-77155305D01*
X103736046Y-77175232D01*
X103934066Y-77235300D01*
X103934065Y-77235300D01*
X103952529Y-77237118D01*
X104140000Y-77255583D01*
X104345934Y-77235300D01*
X104543954Y-77175232D01*
X104726450Y-77077685D01*
X104886410Y-76946410D01*
X105017685Y-76786450D01*
X105115232Y-76603954D01*
X105175300Y-76405934D01*
X105195583Y-76200000D01*
X105175300Y-75994066D01*
X105115232Y-75796046D01*
X105017685Y-75613550D01*
X104952457Y-75534069D01*
X104886410Y-75453589D01*
X104726452Y-75322317D01*
X104726453Y-75322317D01*
X104726450Y-75322315D01*
X104543954Y-75224768D01*
X104477447Y-75204593D01*
X104419009Y-75166296D01*
X104390553Y-75102484D01*
X104401113Y-75033417D01*
X104447337Y-74981023D01*
X104481350Y-74966158D01*
X104603483Y-74933433D01*
X104603492Y-74933429D01*
X104817578Y-74833600D01*
X105011082Y-74698105D01*
X105178105Y-74531082D01*
X105313600Y-74337578D01*
X105413429Y-74123492D01*
X105413432Y-74123486D01*
X105470636Y-73910000D01*
X104573686Y-73910000D01*
X104599493Y-73869844D01*
X104640000Y-73731889D01*
X104640000Y-73588111D01*
X104599493Y-73450156D01*
X104573686Y-73410000D01*
X105470636Y-73410000D01*
X105470635Y-73409999D01*
X105413432Y-73196513D01*
X105413429Y-73196507D01*
X105313600Y-72982422D01*
X105313599Y-72982420D01*
X105178113Y-72788926D01*
X105178108Y-72788920D01*
X105011082Y-72621894D01*
X104817578Y-72486399D01*
X104603492Y-72386570D01*
X104603486Y-72386567D01*
X104481349Y-72353841D01*
X104421689Y-72317476D01*
X104391160Y-72254629D01*
X104399455Y-72185253D01*
X104443940Y-72131375D01*
X104477444Y-72115407D01*
X104543954Y-72095232D01*
X104726450Y-71997685D01*
X104886410Y-71866410D01*
X105017685Y-71706450D01*
X105115232Y-71523954D01*
X105175300Y-71325934D01*
X105195583Y-71120000D01*
X105175300Y-70914066D01*
X105115232Y-70716046D01*
X105017685Y-70533550D01*
X104948462Y-70449201D01*
X104886410Y-70373589D01*
X104751723Y-70263056D01*
X104726450Y-70242315D01*
X104543954Y-70144768D01*
X104345934Y-70084700D01*
X104345932Y-70084699D01*
X104345934Y-70084699D01*
X104140000Y-70064417D01*
X103934067Y-70084699D01*
X103736043Y-70144769D01*
X103680577Y-70174417D01*
X103553550Y-70242315D01*
X103553548Y-70242316D01*
X103553547Y-70242317D01*
X103393589Y-70373590D01*
X103365353Y-70407996D01*
X103307607Y-70447330D01*
X103237763Y-70449201D01*
X103177994Y-70413013D01*
X103147279Y-70350257D01*
X103145500Y-70329331D01*
X103145500Y-70015477D01*
X103165185Y-69948438D01*
X103181815Y-69927800D01*
X103552634Y-69556980D01*
X103613955Y-69523497D01*
X103683646Y-69528481D01*
X103698767Y-69535305D01*
X103736046Y-69555232D01*
X103934066Y-69615300D01*
X103934065Y-69615300D01*
X103952529Y-69617118D01*
X104140000Y-69635583D01*
X104345934Y-69615300D01*
X104543954Y-69555232D01*
X104726450Y-69457685D01*
X104886410Y-69326410D01*
X105017685Y-69166450D01*
X105115232Y-68983954D01*
X105175300Y-68785934D01*
X105195583Y-68580000D01*
X105175300Y-68374066D01*
X105115232Y-68176046D01*
X105017685Y-67993550D01*
X104965702Y-67930209D01*
X104886410Y-67833589D01*
X104726452Y-67702317D01*
X104726453Y-67702317D01*
X104726450Y-67702315D01*
X104543954Y-67604768D01*
X104345934Y-67544700D01*
X104345932Y-67544699D01*
X104345934Y-67544699D01*
X104140000Y-67524417D01*
X103934067Y-67544699D01*
X103736043Y-67604769D01*
X103643955Y-67653992D01*
X103553550Y-67702315D01*
X103553548Y-67702316D01*
X103553547Y-67702317D01*
X103393589Y-67833590D01*
X103365353Y-67867996D01*
X103307607Y-67907330D01*
X103237763Y-67909201D01*
X103177994Y-67873013D01*
X103147279Y-67810257D01*
X103145500Y-67789331D01*
X103145500Y-67475477D01*
X103165185Y-67408438D01*
X103181815Y-67387800D01*
X103552634Y-67016980D01*
X103613955Y-66983497D01*
X103683646Y-66988481D01*
X103698767Y-66995305D01*
X103736046Y-67015232D01*
X103934066Y-67075300D01*
X103934065Y-67075300D01*
X103952529Y-67077118D01*
X104140000Y-67095583D01*
X104345934Y-67075300D01*
X104543954Y-67015232D01*
X104726450Y-66917685D01*
X104886410Y-66786410D01*
X105017685Y-66626450D01*
X105115232Y-66443954D01*
X105175300Y-66245934D01*
X105195583Y-66040000D01*
X105175300Y-65834066D01*
X105115232Y-65636046D01*
X105017685Y-65453550D01*
X104948462Y-65369201D01*
X104886410Y-65293589D01*
X104726452Y-65162317D01*
X104726453Y-65162317D01*
X104726450Y-65162315D01*
X104551533Y-65068819D01*
X104543956Y-65064769D01*
X104543955Y-65064768D01*
X104543954Y-65064768D01*
X104345934Y-65004700D01*
X104345932Y-65004699D01*
X104345934Y-65004699D01*
X104140000Y-64984417D01*
X103934067Y-65004699D01*
X103736043Y-65064769D01*
X103625898Y-65123643D01*
X103553550Y-65162315D01*
X103553548Y-65162316D01*
X103553547Y-65162317D01*
X103393589Y-65293590D01*
X103365353Y-65327996D01*
X103307607Y-65367330D01*
X103237763Y-65369201D01*
X103177994Y-65333013D01*
X103147279Y-65270257D01*
X103145500Y-65249331D01*
X103145500Y-64935477D01*
X103165185Y-64868438D01*
X103181815Y-64847800D01*
X103552634Y-64476980D01*
X103613955Y-64443497D01*
X103683646Y-64448481D01*
X103698767Y-64455305D01*
X103736046Y-64475232D01*
X103934066Y-64535300D01*
X103934065Y-64535300D01*
X103952529Y-64537118D01*
X104140000Y-64555583D01*
X104345934Y-64535300D01*
X104543954Y-64475232D01*
X104726450Y-64377685D01*
X104886410Y-64246410D01*
X105017685Y-64086450D01*
X105115232Y-63903954D01*
X105175300Y-63705934D01*
X105195583Y-63500000D01*
X105175300Y-63294066D01*
X105115232Y-63096046D01*
X105017685Y-62913550D01*
X104948462Y-62829201D01*
X104886410Y-62753589D01*
X104751300Y-62642709D01*
X104726450Y-62622315D01*
X104543954Y-62524768D01*
X104345934Y-62464700D01*
X104345932Y-62464699D01*
X104345934Y-62464699D01*
X104140000Y-62444417D01*
X103934067Y-62464699D01*
X103736043Y-62524769D01*
X103641366Y-62575376D01*
X103553550Y-62622315D01*
X103553548Y-62622316D01*
X103553547Y-62622317D01*
X103393589Y-62753590D01*
X103365353Y-62787996D01*
X103307607Y-62827330D01*
X103237763Y-62829201D01*
X103177994Y-62793013D01*
X103147279Y-62730257D01*
X103145500Y-62709331D01*
X103145500Y-62203369D01*
X103165185Y-62136330D01*
X103181815Y-62115692D01*
X103427442Y-61870064D01*
X103488763Y-61836581D01*
X103558454Y-61841565D01*
X103573574Y-61848389D01*
X103736041Y-61935230D01*
X103736043Y-61935230D01*
X103736046Y-61935232D01*
X103934066Y-61995300D01*
X103934065Y-61995300D01*
X103949214Y-61996792D01*
X104140000Y-62015583D01*
X104345934Y-61995300D01*
X104543954Y-61935232D01*
X104726450Y-61837685D01*
X104886410Y-61706410D01*
X105017685Y-61546450D01*
X105115232Y-61363954D01*
X105175300Y-61165934D01*
X105195583Y-60960000D01*
X105175300Y-60754066D01*
X105115232Y-60556046D01*
X105017685Y-60373550D01*
X104948462Y-60289201D01*
X104886410Y-60213589D01*
X104768677Y-60116969D01*
X104726450Y-60082315D01*
X104543954Y-59984768D01*
X104345934Y-59924700D01*
X104345932Y-59924699D01*
X104345934Y-59924699D01*
X104140000Y-59904417D01*
X103934067Y-59924699D01*
X103736043Y-59984769D01*
X103635744Y-60038381D01*
X103553550Y-60082315D01*
X103553548Y-60082316D01*
X103553547Y-60082317D01*
X103393589Y-60213590D01*
X103365353Y-60247996D01*
X103307607Y-60287330D01*
X103237763Y-60289201D01*
X103177994Y-60253013D01*
X103147279Y-60190257D01*
X103145500Y-60169331D01*
X103145500Y-59855478D01*
X103165185Y-59788439D01*
X103181819Y-59767797D01*
X103442797Y-59506819D01*
X103504120Y-59473334D01*
X103530478Y-59470500D01*
X105009750Y-59470500D01*
X105009751Y-59470499D01*
X105025474Y-59467372D01*
X105068229Y-59458868D01*
X105068229Y-59458867D01*
X105068231Y-59458867D01*
X105134552Y-59414552D01*
X105178867Y-59348231D01*
X105178867Y-59348229D01*
X105178868Y-59348229D01*
X105190499Y-59289752D01*
X105190500Y-59289750D01*
X105190500Y-57550249D01*
X105190499Y-57550247D01*
X105178868Y-57491770D01*
X105178867Y-57491769D01*
X105134552Y-57425447D01*
X105068230Y-57381132D01*
X105068229Y-57381131D01*
X105009752Y-57369500D01*
X105009748Y-57369500D01*
X103270252Y-57369500D01*
X103270247Y-57369500D01*
X103211770Y-57381131D01*
X103211769Y-57381132D01*
X103145447Y-57425447D01*
X103101132Y-57491769D01*
X103101131Y-57491770D01*
X103089500Y-57550247D01*
X103089500Y-59029521D01*
X103069815Y-59096560D01*
X103053181Y-59117202D01*
X102703010Y-59467372D01*
X102684222Y-59482791D01*
X102671380Y-59491371D01*
X102671375Y-59491376D01*
X102610485Y-59582505D01*
X102600305Y-59633685D01*
X102589103Y-59689999D01*
X102592117Y-59705151D01*
X102594500Y-59729344D01*
X102594500Y-61377439D01*
X102574815Y-61444478D01*
X102558181Y-61465120D01*
X102353010Y-61670290D01*
X102334222Y-61685709D01*
X102321377Y-61694292D01*
X102306004Y-61717298D01*
X102289806Y-61741542D01*
X102260484Y-61785423D01*
X102249786Y-61839210D01*
X102239103Y-61892916D01*
X102239103Y-61892917D01*
X102242117Y-61908069D01*
X102244500Y-61932262D01*
X102244500Y-63964572D01*
X102224815Y-64031611D01*
X102208181Y-64052253D01*
X102003010Y-64257423D01*
X101984222Y-64272842D01*
X101971377Y-64281425D01*
X101955999Y-64304439D01*
X101955329Y-64305442D01*
X101953888Y-64307599D01*
X101953880Y-64307611D01*
X101923744Y-64352712D01*
X101910485Y-64372556D01*
X101896055Y-64445103D01*
X101889103Y-64480051D01*
X101891664Y-64492928D01*
X101892117Y-64495202D01*
X101894500Y-64519395D01*
X101894500Y-66359597D01*
X101874815Y-66426636D01*
X101858181Y-66447278D01*
X101653013Y-66652445D01*
X101634226Y-66667864D01*
X101621378Y-66676449D01*
X101621373Y-66676453D01*
X101606006Y-66699453D01*
X101560485Y-66767578D01*
X101560483Y-66767582D01*
X101539103Y-66875072D01*
X101539103Y-66875074D01*
X101539103Y-66875075D01*
X101539103Y-66875077D01*
X101542117Y-66890226D01*
X101544500Y-66914419D01*
X101544500Y-68754623D01*
X101524815Y-68821662D01*
X101508181Y-68842304D01*
X101303010Y-69047474D01*
X101284222Y-69062893D01*
X101271377Y-69071476D01*
X101256006Y-69094479D01*
X101253302Y-69098526D01*
X101210485Y-69162607D01*
X101195651Y-69237184D01*
X101189103Y-69270101D01*
X101192117Y-69285253D01*
X101194500Y-69309446D01*
X101194500Y-71149651D01*
X101174815Y-71216690D01*
X101158181Y-71237332D01*
X100953010Y-71442502D01*
X100934222Y-71457921D01*
X100921377Y-71466504D01*
X100921376Y-71466506D01*
X100906007Y-71489506D01*
X100906006Y-71489508D01*
X100906005Y-71489510D01*
X100893316Y-71508500D01*
X100860485Y-71557633D01*
X100844952Y-71635727D01*
X100839103Y-71665129D01*
X100842117Y-71680281D01*
X100844500Y-71704474D01*
X100844500Y-73544677D01*
X100824815Y-73611716D01*
X100808181Y-73632358D01*
X100398010Y-74042528D01*
X100379222Y-74057947D01*
X100366376Y-74066530D01*
X100357601Y-74079662D01*
X100351007Y-74089532D01*
X100351006Y-74089534D01*
X100341787Y-74103331D01*
X100305485Y-74157661D01*
X100305484Y-74157662D01*
X100298701Y-74167815D01*
X100295201Y-74165476D01*
X100265780Y-74201919D01*
X100199466Y-74223924D01*
X100131782Y-74206584D01*
X100096776Y-74175485D01*
X100069435Y-74139854D01*
X99996282Y-74044518D01*
X99994468Y-74043126D01*
X99942012Y-74002874D01*
X99900810Y-73946446D01*
X99893500Y-73904499D01*
X99893500Y-73542102D01*
X99893736Y-73536695D01*
X99897264Y-73496375D01*
X99893543Y-73482489D01*
X99886782Y-73457258D01*
X99885616Y-73452000D01*
X99878588Y-73412137D01*
X99878586Y-73412134D01*
X99878586Y-73412132D01*
X99876760Y-73407115D01*
X99869820Y-73390358D01*
X99867554Y-73385501D01*
X99867554Y-73385498D01*
X99844339Y-73352344D01*
X99841433Y-73347781D01*
X99821196Y-73312730D01*
X99821195Y-73312729D01*
X99821194Y-73312727D01*
X99790177Y-73286700D01*
X99786193Y-73283049D01*
X98283753Y-71780609D01*
X98250268Y-71719286D01*
X98255252Y-71649594D01*
X98283751Y-71605248D01*
X98302000Y-71586998D01*
X98302000Y-70862000D01*
X98802000Y-70862000D01*
X98802000Y-71586999D01*
X98825308Y-71586999D01*
X98825322Y-71586998D01*
X98924607Y-71576855D01*
X99085481Y-71523547D01*
X99085492Y-71523542D01*
X99229728Y-71434575D01*
X99229732Y-71434572D01*
X99349572Y-71314732D01*
X99349575Y-71314728D01*
X99438542Y-71170492D01*
X99438547Y-71170481D01*
X99491855Y-71009606D01*
X99501999Y-70910322D01*
X99502000Y-70910309D01*
X99502000Y-70862000D01*
X98802000Y-70862000D01*
X98302000Y-70862000D01*
X98302000Y-69637000D01*
X98802000Y-69637000D01*
X98802000Y-70362000D01*
X99501999Y-70362000D01*
X99501999Y-70313692D01*
X99501998Y-70313677D01*
X99491855Y-70214392D01*
X99438547Y-70053518D01*
X99438542Y-70053507D01*
X99349575Y-69909271D01*
X99349572Y-69909267D01*
X99229732Y-69789427D01*
X99229728Y-69789424D01*
X99085492Y-69700457D01*
X99085481Y-69700452D01*
X98924606Y-69647144D01*
X98825322Y-69637000D01*
X98802000Y-69637000D01*
X98302000Y-69637000D01*
X98302000Y-69636999D01*
X98278693Y-69637000D01*
X98278671Y-69637002D01*
X98239101Y-69641044D01*
X98170408Y-69628274D01*
X98119524Y-69580393D01*
X98102500Y-69517686D01*
X98102500Y-69301530D01*
X98122185Y-69234491D01*
X98174989Y-69188736D01*
X98244147Y-69178792D01*
X98289621Y-69194798D01*
X98408803Y-69265282D01*
X98408806Y-69265283D01*
X98566504Y-69311099D01*
X98566510Y-69311100D01*
X98603356Y-69314000D01*
X98931500Y-69314000D01*
X98931500Y-68764000D01*
X99431500Y-68764000D01*
X99431500Y-69314000D01*
X99759644Y-69314000D01*
X99796489Y-69311100D01*
X99796495Y-69311099D01*
X99954193Y-69265283D01*
X99954196Y-69265282D01*
X100095552Y-69181685D01*
X100095561Y-69181678D01*
X100211678Y-69065561D01*
X100211685Y-69065552D01*
X100295281Y-68924198D01*
X100341100Y-68766486D01*
X100341295Y-68764001D01*
X100341295Y-68764000D01*
X99431500Y-68764000D01*
X98931500Y-68764000D01*
X98931500Y-67714000D01*
X99431500Y-67714000D01*
X99431500Y-68264000D01*
X100341295Y-68264000D01*
X100341295Y-68263998D01*
X100341100Y-68261513D01*
X100295281Y-68103801D01*
X100211685Y-67962447D01*
X100211678Y-67962438D01*
X100095561Y-67846321D01*
X100095552Y-67846314D01*
X99954196Y-67762717D01*
X99954193Y-67762716D01*
X99796495Y-67716900D01*
X99796489Y-67716899D01*
X99759644Y-67714000D01*
X99431500Y-67714000D01*
X98931500Y-67714000D01*
X98931500Y-67675687D01*
X98951185Y-67608648D01*
X98967819Y-67588006D01*
X99175086Y-67380739D01*
X99399705Y-67156119D01*
X99403674Y-67152482D01*
X99414375Y-67143504D01*
X99478385Y-67115496D01*
X99494073Y-67114500D01*
X99727261Y-67114500D01*
X99749971Y-67111191D01*
X99795393Y-67104573D01*
X99900483Y-67053198D01*
X99983198Y-66970483D01*
X100034573Y-66865393D01*
X100044500Y-66797260D01*
X100044500Y-66430740D01*
X100034573Y-66362607D01*
X99996300Y-66284319D01*
X99984543Y-66215447D01*
X99985578Y-66208369D01*
X99987217Y-66199075D01*
X99988378Y-66193835D01*
X99998864Y-66154707D01*
X99995335Y-66114378D01*
X99995100Y-66108975D01*
X99995100Y-65311788D01*
X100014785Y-65244749D01*
X100031419Y-65224107D01*
X100649307Y-64606219D01*
X100710630Y-64572734D01*
X100736988Y-64569900D01*
X100765893Y-64569900D01*
X100865521Y-64554120D01*
X100865521Y-64554119D01*
X100865526Y-64554119D01*
X100985620Y-64492928D01*
X101080928Y-64397620D01*
X101142119Y-64277526D01*
X101142861Y-64272842D01*
X101157900Y-64177893D01*
X101157900Y-63660906D01*
X101142120Y-63561278D01*
X101142119Y-63561276D01*
X101142119Y-63561274D01*
X101080928Y-63441180D01*
X101080926Y-63441178D01*
X101080923Y-63441174D01*
X101061975Y-63422226D01*
X101028490Y-63360903D01*
X101033474Y-63291211D01*
X101075346Y-63235278D01*
X101084560Y-63229006D01*
X101185131Y-63166973D01*
X101304972Y-63047132D01*
X101304975Y-63047128D01*
X101393942Y-62902892D01*
X101393947Y-62902881D01*
X101447255Y-62742006D01*
X101457399Y-62642722D01*
X101457400Y-62642709D01*
X101457400Y-62619400D01*
X100356400Y-62619400D01*
X100289361Y-62599715D01*
X100243606Y-62546911D01*
X100232400Y-62495400D01*
X100232400Y-61419400D01*
X100732400Y-61419400D01*
X100732400Y-62119400D01*
X101457399Y-62119400D01*
X101457399Y-62096092D01*
X101457398Y-62096077D01*
X101447255Y-61996792D01*
X101393947Y-61835918D01*
X101393942Y-61835907D01*
X101304975Y-61691671D01*
X101304972Y-61691667D01*
X101185132Y-61571827D01*
X101185128Y-61571824D01*
X101040892Y-61482857D01*
X101040881Y-61482852D01*
X100880006Y-61429544D01*
X100780722Y-61419400D01*
X100732400Y-61419400D01*
X100232400Y-61419400D01*
X100232399Y-61419399D01*
X100184093Y-61419400D01*
X100184075Y-61419401D01*
X100084792Y-61429544D01*
X99923918Y-61482852D01*
X99923907Y-61482857D01*
X99779671Y-61571824D01*
X99779667Y-61571827D01*
X99659827Y-61691667D01*
X99659824Y-61691671D01*
X99570857Y-61835907D01*
X99570852Y-61835918D01*
X99517544Y-61996793D01*
X99507400Y-62096077D01*
X99507400Y-62111130D01*
X99487715Y-62178169D01*
X99434911Y-62223924D01*
X99365753Y-62233868D01*
X99302197Y-62204843D01*
X99279886Y-62176685D01*
X99279079Y-62177243D01*
X99258160Y-62146937D01*
X99178183Y-62031071D01*
X99050852Y-61918266D01*
X98991872Y-61887310D01*
X98941661Y-61838726D01*
X98925500Y-61777515D01*
X98925500Y-59990484D01*
X98945185Y-59923445D01*
X98991873Y-59880688D01*
X99050852Y-59849734D01*
X99178183Y-59736929D01*
X99274818Y-59596930D01*
X99335140Y-59437872D01*
X99345846Y-59349703D01*
X99350500Y-59311374D01*
X99350500Y-58426625D01*
X99335140Y-58300131D01*
X99335139Y-58300125D01*
X99274817Y-58141068D01*
X99195938Y-58026794D01*
X99178183Y-58001071D01*
X99050852Y-57888266D01*
X99050849Y-57888263D01*
X98900226Y-57809210D01*
X98735056Y-57768500D01*
X98564944Y-57768500D01*
X98399773Y-57809210D01*
X98249150Y-57888263D01*
X98121816Y-58001072D01*
X98025182Y-58141068D01*
X97964860Y-58300125D01*
X97964859Y-58300131D01*
X97949500Y-58426625D01*
X97949500Y-58469500D01*
X97929815Y-58536539D01*
X97877011Y-58582294D01*
X97825500Y-58593500D01*
X90834500Y-58593500D01*
X90767461Y-58573815D01*
X90721706Y-58521011D01*
X90710500Y-58469500D01*
X90710500Y-58426625D01*
X90695140Y-58300131D01*
X90695139Y-58300125D01*
X90634817Y-58141068D01*
X90555938Y-58026794D01*
X90538183Y-58001071D01*
X90410852Y-57888266D01*
X90410849Y-57888263D01*
X90260226Y-57809210D01*
X90095056Y-57768500D01*
X89924944Y-57768500D01*
X89759773Y-57809210D01*
X89609150Y-57888263D01*
X89481815Y-58001072D01*
X89454296Y-58040941D01*
X89400013Y-58084931D01*
X89352247Y-58094500D01*
X88346865Y-58094500D01*
X88279826Y-58074815D01*
X88236380Y-58026794D01*
X88233050Y-58020258D01*
X88233047Y-58020255D01*
X88233045Y-58020252D01*
X88143347Y-57930554D01*
X88143344Y-57930552D01*
X88143342Y-57930550D01*
X88066517Y-57891405D01*
X88030301Y-57872952D01*
X87936524Y-57858100D01*
X87323482Y-57858100D01*
X87242519Y-57870923D01*
X87229696Y-57872954D01*
X87116658Y-57930550D01*
X87116657Y-57930551D01*
X87116652Y-57930554D01*
X87026954Y-58020252D01*
X87026951Y-58020257D01*
X87026950Y-58020258D01*
X87007751Y-58057937D01*
X86969352Y-58133298D01*
X86954500Y-58227075D01*
X86954500Y-58690117D01*
X86963272Y-58745500D01*
X86969354Y-58783904D01*
X87026950Y-58896942D01*
X87026952Y-58896944D01*
X87026954Y-58896947D01*
X87116652Y-58986645D01*
X87116654Y-58986646D01*
X87116658Y-58986650D01*
X87165612Y-59011593D01*
X87216408Y-59059568D01*
X87233203Y-59127389D01*
X87210665Y-59193524D01*
X87155950Y-59236975D01*
X87146208Y-59240463D01*
X87065603Y-59265581D01*
X86920122Y-59353527D01*
X86799927Y-59473722D01*
X86711980Y-59619204D01*
X86661409Y-59781493D01*
X86655000Y-59852027D01*
X86655000Y-59858600D01*
X88604999Y-59858600D01*
X88604999Y-59852017D01*
X88598591Y-59781497D01*
X88598590Y-59781492D01*
X88548018Y-59619203D01*
X88460072Y-59473722D01*
X88339877Y-59353527D01*
X88194395Y-59265580D01*
X88194396Y-59265580D01*
X88113791Y-59240463D01*
X88055643Y-59201726D01*
X88027669Y-59137700D01*
X88038751Y-59068715D01*
X88085369Y-59016672D01*
X88094369Y-59011602D01*
X88143342Y-58986650D01*
X88233050Y-58896942D01*
X88275716Y-58813204D01*
X88323691Y-58762409D01*
X88386201Y-58745500D01*
X89185500Y-58745500D01*
X89252539Y-58765185D01*
X89298294Y-58817989D01*
X89309500Y-58869500D01*
X89309500Y-59311374D01*
X89324859Y-59437868D01*
X89324860Y-59437874D01*
X89385182Y-59596931D01*
X89410552Y-59633685D01*
X89481817Y-59736929D01*
X89609148Y-59849734D01*
X89668126Y-59880688D01*
X89718338Y-59929271D01*
X89734500Y-59990484D01*
X89734500Y-61777515D01*
X89714815Y-61844554D01*
X89668127Y-61887310D01*
X89609148Y-61918266D01*
X89499300Y-62015583D01*
X89481816Y-62031072D01*
X89385182Y-62171068D01*
X89324860Y-62330125D01*
X89324859Y-62330131D01*
X89309500Y-62456625D01*
X89309500Y-63641374D01*
X89324859Y-63767868D01*
X89324860Y-63767874D01*
X89385182Y-63926931D01*
X89436623Y-64001455D01*
X89481817Y-64066929D01*
X89576029Y-64150393D01*
X89609150Y-64179736D01*
X89757170Y-64257423D01*
X89759775Y-64258790D01*
X89924944Y-64299500D01*
X90095056Y-64299500D01*
X90248138Y-64261769D01*
X90317937Y-64264838D01*
X90374999Y-64305158D01*
X90384542Y-64319045D01*
X90462315Y-64450553D01*
X90462321Y-64450561D01*
X90578438Y-64566678D01*
X90578447Y-64566685D01*
X90719801Y-64650281D01*
X90877514Y-64696100D01*
X90877511Y-64696100D01*
X90879998Y-64696295D01*
X90880000Y-64696295D01*
X90880000Y-63874000D01*
X90822221Y-63874000D01*
X90755182Y-63854315D01*
X90709427Y-63801511D01*
X90699125Y-63735053D01*
X90710500Y-63641374D01*
X90710500Y-63498000D01*
X90730185Y-63430961D01*
X90782989Y-63385206D01*
X90834500Y-63374000D01*
X90880000Y-63374000D01*
X90880000Y-62551703D01*
X90877505Y-62551900D01*
X90867467Y-62554817D01*
X90797598Y-62554616D01*
X90738928Y-62516673D01*
X90710086Y-62453035D01*
X90709784Y-62450738D01*
X90695140Y-62330128D01*
X90693874Y-62326791D01*
X90660690Y-62239290D01*
X90634818Y-62171070D01*
X90621867Y-62152308D01*
X90583054Y-62096077D01*
X90538183Y-62031071D01*
X90410852Y-61918266D01*
X90351872Y-61887310D01*
X90301661Y-61838726D01*
X90285500Y-61777515D01*
X90285500Y-59990484D01*
X90305185Y-59923445D01*
X90351873Y-59880688D01*
X90410852Y-59849734D01*
X90538183Y-59736929D01*
X90634818Y-59596930D01*
X90695140Y-59437872D01*
X90705846Y-59349703D01*
X90710500Y-59311374D01*
X90710500Y-59268500D01*
X90730185Y-59201461D01*
X90782989Y-59155706D01*
X90834500Y-59144500D01*
X91470403Y-59144500D01*
X91537442Y-59164185D01*
X91583197Y-59216989D01*
X91593141Y-59286147D01*
X91564116Y-59349703D01*
X91545889Y-59366876D01*
X91418120Y-59464916D01*
X91418119Y-59464917D01*
X91418118Y-59464918D01*
X91353948Y-59548545D01*
X91321863Y-59590360D01*
X91261356Y-59736437D01*
X91261355Y-59736439D01*
X91240718Y-59893198D01*
X91240718Y-59893201D01*
X91261355Y-60049960D01*
X91261356Y-60049962D01*
X91321576Y-60195347D01*
X91321864Y-60196041D01*
X91418118Y-60321482D01*
X91543559Y-60417736D01*
X91689638Y-60478244D01*
X91712251Y-60481221D01*
X91846399Y-60498882D01*
X91854528Y-60498882D01*
X91854528Y-60501895D01*
X91909345Y-60510421D01*
X91961620Y-60556779D01*
X91980542Y-60622616D01*
X91980542Y-62680940D01*
X91960857Y-62747979D01*
X91908053Y-62793734D01*
X91838895Y-62803678D01*
X91775339Y-62774653D01*
X91768861Y-62768621D01*
X91681561Y-62681321D01*
X91681552Y-62681314D01*
X91540196Y-62597717D01*
X91540193Y-62597716D01*
X91382494Y-62551900D01*
X91382497Y-62551900D01*
X91380000Y-62551703D01*
X91380000Y-64696295D01*
X91380001Y-64696295D01*
X91382488Y-64696100D01*
X91382494Y-64696099D01*
X91443132Y-64678482D01*
X91513001Y-64678681D01*
X91571671Y-64716623D01*
X91596221Y-64770787D01*
X91597928Y-64770330D01*
X91611212Y-64819910D01*
X91612383Y-64825190D01*
X91619411Y-64865043D01*
X91621235Y-64870055D01*
X91628197Y-64886861D01*
X91630445Y-64891681D01*
X91630446Y-64891684D01*
X91642655Y-64909120D01*
X91653655Y-64924831D01*
X91656561Y-64929392D01*
X91676806Y-64964455D01*
X91707815Y-64990475D01*
X91711805Y-64994131D01*
X91786493Y-65068819D01*
X91819978Y-65130142D01*
X91814994Y-65199834D01*
X91773122Y-65255767D01*
X91707658Y-65280184D01*
X91698812Y-65280500D01*
X90312344Y-65280500D01*
X90288153Y-65278117D01*
X90273000Y-65275103D01*
X90272999Y-65275103D01*
X90272998Y-65275103D01*
X90249949Y-65279688D01*
X90249944Y-65279689D01*
X90165509Y-65296483D01*
X90165504Y-65296485D01*
X90136574Y-65315815D01*
X90123534Y-65324528D01*
X90097378Y-65342006D01*
X90097376Y-65342007D01*
X90079122Y-65354204D01*
X90066556Y-65362601D01*
X89999879Y-65383480D01*
X89997664Y-65383500D01*
X88490666Y-65383500D01*
X88423627Y-65363815D01*
X88392290Y-65334987D01*
X88386926Y-65327996D01*
X88312282Y-65230718D01*
X88186841Y-65134464D01*
X88095890Y-65096791D01*
X88040762Y-65073956D01*
X88040760Y-65073955D01*
X87884001Y-65053318D01*
X87883999Y-65053318D01*
X87727239Y-65073955D01*
X87727237Y-65073956D01*
X87581160Y-65134463D01*
X87455718Y-65230718D01*
X87359463Y-65356160D01*
X87298956Y-65502237D01*
X87298955Y-65502239D01*
X87278318Y-65658998D01*
X87278318Y-65659001D01*
X87298955Y-65815760D01*
X87298956Y-65815762D01*
X87329901Y-65890471D01*
X87359464Y-65961841D01*
X87455718Y-66087282D01*
X87581159Y-66183536D01*
X87727238Y-66244044D01*
X87763440Y-66248810D01*
X87883999Y-66264682D01*
X87884000Y-66264682D01*
X87884001Y-66264682D01*
X87938447Y-66257514D01*
X88040762Y-66244044D01*
X88186841Y-66183536D01*
X88312282Y-66087282D01*
X88392290Y-65983012D01*
X88448718Y-65941811D01*
X88490666Y-65934500D01*
X90130656Y-65934500D01*
X90154846Y-65936882D01*
X90170000Y-65939897D01*
X90197132Y-65934500D01*
X90197133Y-65934500D01*
X90220734Y-65929805D01*
X90277493Y-65918516D01*
X90277494Y-65918515D01*
X90277495Y-65918515D01*
X90319465Y-65890471D01*
X90345622Y-65872994D01*
X90345621Y-65872994D01*
X90359053Y-65864020D01*
X90359055Y-65864017D01*
X90368624Y-65857624D01*
X90368625Y-65857621D01*
X90376452Y-65852393D01*
X90443131Y-65831520D01*
X90445336Y-65831500D01*
X92169920Y-65831500D01*
X92236959Y-65851185D01*
X92282714Y-65903989D01*
X92292658Y-65973147D01*
X92292393Y-65974899D01*
X92288500Y-65999476D01*
X92288500Y-66394811D01*
X92268815Y-66461850D01*
X92252181Y-66482492D01*
X91945802Y-66788870D01*
X91941814Y-66792525D01*
X91910805Y-66818545D01*
X91890562Y-66853606D01*
X91887656Y-66858166D01*
X91864446Y-66891313D01*
X91862206Y-66896117D01*
X91855229Y-66912961D01*
X91853410Y-66917959D01*
X91846383Y-66957811D01*
X91845212Y-66963091D01*
X91834735Y-67002191D01*
X91838264Y-67042513D01*
X91838500Y-67047920D01*
X91838500Y-68281540D01*
X91838264Y-68286947D01*
X91835537Y-68318111D01*
X91810084Y-68383179D01*
X91799690Y-68394983D01*
X91468493Y-68726181D01*
X91407170Y-68759666D01*
X91380812Y-68762500D01*
X87995641Y-68762500D01*
X87948188Y-68753061D01*
X87872718Y-68721800D01*
X87872716Y-68721799D01*
X87715957Y-68701162D01*
X87715955Y-68701162D01*
X87559195Y-68721799D01*
X87559193Y-68721800D01*
X87413116Y-68782307D01*
X87287674Y-68878562D01*
X87191419Y-69004004D01*
X87130912Y-69150081D01*
X87130911Y-69150083D01*
X87110274Y-69306842D01*
X87110274Y-69306845D01*
X87130911Y-69463604D01*
X87130912Y-69463606D01*
X87160611Y-69535307D01*
X87191420Y-69609685D01*
X87287674Y-69735126D01*
X87413115Y-69831380D01*
X87559194Y-69891888D01*
X87637575Y-69902207D01*
X87715955Y-69912526D01*
X87715956Y-69912526D01*
X87715957Y-69912526D01*
X87768210Y-69905646D01*
X87872718Y-69891888D01*
X88018797Y-69831380D01*
X88144238Y-69735126D01*
X88240492Y-69609685D01*
X88290047Y-69490047D01*
X88333888Y-69435644D01*
X88400182Y-69413579D01*
X88404608Y-69413500D01*
X91550078Y-69413500D01*
X91555481Y-69413735D01*
X91595807Y-69417264D01*
X91634940Y-69406777D01*
X91640162Y-69405619D01*
X91680045Y-69398588D01*
X91680050Y-69398584D01*
X91685099Y-69396747D01*
X91701824Y-69389819D01*
X91706681Y-69387554D01*
X91706684Y-69387554D01*
X91739841Y-69364335D01*
X91744390Y-69361438D01*
X91779455Y-69341194D01*
X91805481Y-69310176D01*
X91809122Y-69306202D01*
X92420216Y-68695108D01*
X92424175Y-68691481D01*
X92434800Y-68682567D01*
X92498810Y-68654558D01*
X92567802Y-68665601D01*
X92619870Y-68712192D01*
X92638500Y-68777561D01*
X92638500Y-69094512D01*
X92618815Y-69161551D01*
X92570795Y-69204996D01*
X92458249Y-69262342D01*
X92458248Y-69262343D01*
X92458243Y-69262346D01*
X92364346Y-69356243D01*
X92364343Y-69356248D01*
X92364342Y-69356249D01*
X92361011Y-69362787D01*
X92304047Y-69474582D01*
X92288500Y-69572748D01*
X92288500Y-70076251D01*
X92304047Y-70174417D01*
X92304049Y-70174420D01*
X92364342Y-70292751D01*
X92364344Y-70292753D01*
X92364346Y-70292756D01*
X92458243Y-70386653D01*
X92458245Y-70386654D01*
X92458249Y-70386658D01*
X92576580Y-70446951D01*
X92576581Y-70446951D01*
X92576583Y-70446952D01*
X92576582Y-70446952D01*
X92674749Y-70462500D01*
X92674754Y-70462500D01*
X93253251Y-70462500D01*
X93351417Y-70446952D01*
X93351418Y-70446951D01*
X93351420Y-70446951D01*
X93469751Y-70386658D01*
X93563658Y-70292751D01*
X93623951Y-70174420D01*
X93623951Y-70174418D01*
X93623952Y-70174417D01*
X93639500Y-70076251D01*
X94320500Y-70076251D01*
X94336047Y-70174417D01*
X94336049Y-70174420D01*
X94396342Y-70292751D01*
X94396344Y-70292753D01*
X94396346Y-70292756D01*
X94490243Y-70386653D01*
X94490245Y-70386654D01*
X94490249Y-70386658D01*
X94608580Y-70446951D01*
X94608581Y-70446951D01*
X94608583Y-70446952D01*
X94608582Y-70446952D01*
X94706749Y-70462500D01*
X94706754Y-70462500D01*
X95285251Y-70462500D01*
X95383417Y-70446952D01*
X95383418Y-70446951D01*
X95383420Y-70446951D01*
X95501751Y-70386658D01*
X95595658Y-70292751D01*
X95655951Y-70174420D01*
X95655951Y-70174418D01*
X95655952Y-70174417D01*
X95671500Y-70076251D01*
X95671500Y-69572748D01*
X95655952Y-69474582D01*
X95650358Y-69463604D01*
X95595658Y-69356249D01*
X95595654Y-69356245D01*
X95595653Y-69356243D01*
X95501756Y-69262346D01*
X95501753Y-69262344D01*
X95501751Y-69262342D01*
X95389204Y-69204996D01*
X95338409Y-69157022D01*
X95321500Y-69094512D01*
X95321500Y-68580748D01*
X95341185Y-68513709D01*
X95389205Y-68470263D01*
X95396304Y-68466646D01*
X95509342Y-68409050D01*
X95599050Y-68319342D01*
X95656646Y-68206304D01*
X95656646Y-68206302D01*
X95656647Y-68206301D01*
X95671499Y-68112524D01*
X95671500Y-68112519D01*
X95671499Y-67649482D01*
X95656646Y-67555696D01*
X95599050Y-67442658D01*
X95599046Y-67442654D01*
X95599045Y-67442652D01*
X95509347Y-67352954D01*
X95509344Y-67352952D01*
X95509342Y-67352950D01*
X95430165Y-67312607D01*
X95396301Y-67295352D01*
X95302524Y-67280500D01*
X94689482Y-67280500D01*
X94608519Y-67293323D01*
X94595696Y-67295354D01*
X94482658Y-67352950D01*
X94482657Y-67352951D01*
X94482652Y-67352954D01*
X94392954Y-67442652D01*
X94392951Y-67442657D01*
X94392950Y-67442658D01*
X94376228Y-67475477D01*
X94335352Y-67555698D01*
X94320500Y-67649475D01*
X94320500Y-68112517D01*
X94330562Y-68176046D01*
X94335354Y-68206304D01*
X94392950Y-68319342D01*
X94392952Y-68319344D01*
X94392954Y-68319347D01*
X94482652Y-68409045D01*
X94482656Y-68409048D01*
X94482658Y-68409050D01*
X94595696Y-68466646D01*
X94595699Y-68466646D01*
X94602795Y-68470262D01*
X94653591Y-68518236D01*
X94670500Y-68580747D01*
X94670500Y-69094512D01*
X94650815Y-69161551D01*
X94602795Y-69204996D01*
X94490249Y-69262342D01*
X94490248Y-69262343D01*
X94490243Y-69262346D01*
X94396346Y-69356243D01*
X94396343Y-69356248D01*
X94396342Y-69356249D01*
X94393011Y-69362787D01*
X94336047Y-69474582D01*
X94320500Y-69572748D01*
X94320500Y-70076251D01*
X93639500Y-70076251D01*
X93639500Y-69572748D01*
X93623952Y-69474582D01*
X93618358Y-69463604D01*
X93563658Y-69356249D01*
X93563654Y-69356245D01*
X93563653Y-69356243D01*
X93469756Y-69262346D01*
X93469753Y-69262344D01*
X93469751Y-69262342D01*
X93357204Y-69204996D01*
X93306409Y-69157022D01*
X93289500Y-69094512D01*
X93289500Y-68580748D01*
X93309185Y-68513709D01*
X93357205Y-68470263D01*
X93364304Y-68466646D01*
X93477342Y-68409050D01*
X93567050Y-68319342D01*
X93624646Y-68206304D01*
X93624646Y-68206302D01*
X93624647Y-68206301D01*
X93639499Y-68112524D01*
X93639500Y-68112519D01*
X93639499Y-67649482D01*
X93624646Y-67555696D01*
X93567050Y-67442658D01*
X93567046Y-67442654D01*
X93567045Y-67442652D01*
X93477347Y-67352954D01*
X93477344Y-67352952D01*
X93477342Y-67352950D01*
X93398165Y-67312607D01*
X93364301Y-67295352D01*
X93270524Y-67280500D01*
X92674186Y-67280500D01*
X92607147Y-67260815D01*
X92561392Y-67208011D01*
X92551448Y-67138853D01*
X92580473Y-67075297D01*
X92586481Y-67068843D01*
X92787507Y-66867817D01*
X92848830Y-66834333D01*
X92875188Y-66831499D01*
X93270517Y-66831499D01*
X93270518Y-66831499D01*
X93364304Y-66816646D01*
X93477342Y-66759050D01*
X93567050Y-66669342D01*
X93624646Y-66556304D01*
X93624646Y-66556302D01*
X93624647Y-66556301D01*
X93639499Y-66462524D01*
X93639500Y-66462519D01*
X93639499Y-65999482D01*
X93639499Y-65999481D01*
X93639499Y-65999477D01*
X93635606Y-65974898D01*
X93644561Y-65905604D01*
X93689557Y-65852152D01*
X93756308Y-65831513D01*
X93758079Y-65831500D01*
X94155522Y-65831500D01*
X94222561Y-65851185D01*
X94243203Y-65867819D01*
X94284181Y-65908797D01*
X94317666Y-65970120D01*
X94320500Y-65996478D01*
X94320500Y-66462517D01*
X94323664Y-66482492D01*
X94335354Y-66556304D01*
X94392950Y-66669342D01*
X94392952Y-66669344D01*
X94392954Y-66669347D01*
X94482652Y-66759045D01*
X94482654Y-66759046D01*
X94482658Y-66759050D01*
X94592517Y-66815026D01*
X94595698Y-66816647D01*
X94689475Y-66831499D01*
X94689481Y-66831500D01*
X95302518Y-66831499D01*
X95396304Y-66816646D01*
X95509342Y-66759050D01*
X95599050Y-66669342D01*
X95656646Y-66556304D01*
X95656646Y-66556302D01*
X95656647Y-66556301D01*
X95671499Y-66462524D01*
X95671500Y-66462519D01*
X95671499Y-65999482D01*
X95656646Y-65905696D01*
X95599050Y-65792658D01*
X95599046Y-65792654D01*
X95599045Y-65792652D01*
X95502442Y-65696049D01*
X95504314Y-65694176D01*
X95470627Y-65650496D01*
X95464643Y-65580883D01*
X95497245Y-65519085D01*
X95558082Y-65484724D01*
X95586175Y-65481500D01*
X95659812Y-65481500D01*
X95726851Y-65501185D01*
X95747493Y-65517819D01*
X96368181Y-66138507D01*
X96401666Y-66199830D01*
X96404500Y-66226188D01*
X96404500Y-66949881D01*
X96384815Y-67016920D01*
X96332011Y-67062675D01*
X96298384Y-67072585D01*
X96292607Y-67073426D01*
X96187514Y-67124803D01*
X96104803Y-67207514D01*
X96053426Y-67312608D01*
X96043500Y-67380739D01*
X96043500Y-67747260D01*
X96053426Y-67815391D01*
X96053427Y-67815393D01*
X96081595Y-67873013D01*
X96104803Y-67920485D01*
X96187514Y-68003196D01*
X96187515Y-68003196D01*
X96187517Y-68003198D01*
X96292607Y-68054573D01*
X96326673Y-68059536D01*
X96360739Y-68064500D01*
X96360740Y-68064500D01*
X96457000Y-68064500D01*
X96524039Y-68084185D01*
X96569794Y-68136989D01*
X96581000Y-68188500D01*
X96581000Y-69908717D01*
X96561315Y-69975756D01*
X96529889Y-70009033D01*
X96523777Y-70013473D01*
X96428476Y-70108774D01*
X96428473Y-70108778D01*
X96428472Y-70108780D01*
X96384023Y-70196017D01*
X96367279Y-70228878D01*
X96351500Y-70328506D01*
X96351500Y-70895488D01*
X96359041Y-70943103D01*
X96350085Y-71012397D01*
X96305088Y-71065848D01*
X96238337Y-71086487D01*
X96236567Y-71086500D01*
X95750749Y-71086500D01*
X95683710Y-71066815D01*
X95640266Y-71018797D01*
X95595658Y-70931249D01*
X95595656Y-70931247D01*
X95595653Y-70931243D01*
X95501756Y-70837346D01*
X95501753Y-70837344D01*
X95501751Y-70837342D01*
X95383420Y-70777049D01*
X95383419Y-70777048D01*
X95383416Y-70777047D01*
X95383417Y-70777047D01*
X95285251Y-70761500D01*
X95285246Y-70761500D01*
X94706754Y-70761500D01*
X94706749Y-70761500D01*
X94608582Y-70777047D01*
X94529692Y-70817244D01*
X94490249Y-70837342D01*
X94490248Y-70837343D01*
X94490243Y-70837346D01*
X94396346Y-70931243D01*
X94396341Y-70931250D01*
X94358103Y-71006296D01*
X94310129Y-71057091D01*
X94247619Y-71074000D01*
X93712381Y-71074000D01*
X93645342Y-71054315D01*
X93601897Y-71006296D01*
X93569698Y-70943103D01*
X93563658Y-70931249D01*
X93563655Y-70931246D01*
X93563653Y-70931243D01*
X93469756Y-70837346D01*
X93469753Y-70837344D01*
X93469751Y-70837342D01*
X93351420Y-70777049D01*
X93351419Y-70777048D01*
X93351416Y-70777047D01*
X93351417Y-70777047D01*
X93253251Y-70761500D01*
X93253246Y-70761500D01*
X92674754Y-70761500D01*
X92674749Y-70761500D01*
X92576582Y-70777047D01*
X92497692Y-70817244D01*
X92458249Y-70837342D01*
X92458248Y-70837343D01*
X92458243Y-70837346D01*
X92364346Y-70931243D01*
X92364344Y-70931247D01*
X92364342Y-70931249D01*
X92358302Y-70943103D01*
X92304047Y-71049582D01*
X92288500Y-71147748D01*
X92288500Y-71651251D01*
X92304047Y-71749417D01*
X92317874Y-71776553D01*
X92364342Y-71867751D01*
X92364344Y-71867753D01*
X92364346Y-71867756D01*
X92458243Y-71961653D01*
X92458245Y-71961654D01*
X92458249Y-71961658D01*
X92576580Y-72021951D01*
X92576581Y-72021951D01*
X92576583Y-72021952D01*
X92576582Y-72021952D01*
X92674749Y-72037500D01*
X92674754Y-72037500D01*
X93253251Y-72037500D01*
X93351417Y-72021952D01*
X93351418Y-72021951D01*
X93351420Y-72021951D01*
X93469751Y-71961658D01*
X93563658Y-71867751D01*
X93601897Y-71792704D01*
X93649871Y-71741909D01*
X93712381Y-71725000D01*
X94247619Y-71725000D01*
X94314658Y-71744685D01*
X94358103Y-71792704D01*
X94396341Y-71867749D01*
X94396346Y-71867756D01*
X94490243Y-71961653D01*
X94490245Y-71961654D01*
X94490249Y-71961658D01*
X94608580Y-72021951D01*
X94608581Y-72021951D01*
X94608583Y-72021952D01*
X94608582Y-72021952D01*
X94706749Y-72037500D01*
X94706754Y-72037500D01*
X95285251Y-72037500D01*
X95383417Y-72021952D01*
X95383418Y-72021951D01*
X95383420Y-72021951D01*
X95501751Y-71961658D01*
X95595658Y-71867751D01*
X95627528Y-71805202D01*
X95675500Y-71754409D01*
X95738011Y-71737500D01*
X97268630Y-71737500D01*
X97335669Y-71757185D01*
X97356311Y-71773819D01*
X99206181Y-73623689D01*
X99239666Y-73685012D01*
X99242500Y-73711370D01*
X99242500Y-73904499D01*
X99222815Y-73971538D01*
X99193988Y-74002874D01*
X99139720Y-74044515D01*
X99043463Y-74169960D01*
X98982956Y-74316037D01*
X98982955Y-74316039D01*
X98962318Y-74472798D01*
X98962318Y-74472801D01*
X98982955Y-74629560D01*
X98982956Y-74629562D01*
X99038393Y-74763400D01*
X99043464Y-74775641D01*
X99139718Y-74901082D01*
X99265159Y-74997336D01*
X99411238Y-75057844D01*
X99487029Y-75067822D01*
X99567999Y-75078482D01*
X99568000Y-75078482D01*
X99568001Y-75078482D01*
X99648971Y-75067822D01*
X99724762Y-75057844D01*
X99870841Y-74997336D01*
X99996282Y-74901082D01*
X100067125Y-74808757D01*
X100123552Y-74767555D01*
X100193298Y-74763400D01*
X100254218Y-74797612D01*
X100286971Y-74859329D01*
X100289500Y-74884244D01*
X100289500Y-76307522D01*
X100269815Y-76374561D01*
X100253181Y-76395203D01*
X100252203Y-76396181D01*
X100190880Y-76429666D01*
X100164522Y-76432500D01*
X96196386Y-76432500D01*
X96129347Y-76412815D01*
X96093285Y-76377392D01*
X96085173Y-76365251D01*
X96085170Y-76365249D01*
X96085170Y-76365248D01*
X96067237Y-76353266D01*
X96036014Y-76332403D01*
X95998776Y-76307522D01*
X95994044Y-76304360D01*
X95994043Y-76304359D01*
X95994042Y-76304359D01*
X95909398Y-76287522D01*
X95909365Y-76287516D01*
X95895403Y-76284739D01*
X95886550Y-76282978D01*
X95886549Y-76282978D01*
X95871395Y-76285992D01*
X95847205Y-76288375D01*
X95584168Y-76288375D01*
X95559975Y-76285992D01*
X95532844Y-76280595D01*
X95533434Y-76277627D01*
X95484617Y-76263293D01*
X95463976Y-76246660D01*
X95361003Y-76143689D01*
X95360994Y-76143681D01*
X95344243Y-76130827D01*
X95321609Y-76113458D01*
X95321607Y-76113457D01*
X95209598Y-76072690D01*
X95200926Y-76071161D01*
X95138325Y-76040131D01*
X95102438Y-75980182D01*
X95098465Y-75949046D01*
X95098465Y-75849013D01*
X95118150Y-75781974D01*
X95134779Y-75761336D01*
X95215331Y-75680783D01*
X95276652Y-75647300D01*
X95319194Y-75645527D01*
X95449500Y-75662682D01*
X95449501Y-75662682D01*
X95501754Y-75655802D01*
X95606262Y-75642044D01*
X95752341Y-75581536D01*
X95877782Y-75485282D01*
X95974036Y-75359841D01*
X96034544Y-75213762D01*
X96049293Y-75101735D01*
X96055182Y-75057001D01*
X96055182Y-75056998D01*
X96034544Y-74900239D01*
X96034544Y-74900238D01*
X95974036Y-74754159D01*
X95877782Y-74628718D01*
X95752341Y-74532464D01*
X95644366Y-74487739D01*
X95589964Y-74443899D01*
X95567899Y-74377605D01*
X95585178Y-74309906D01*
X95586282Y-74308081D01*
X95641544Y-74218488D01*
X95641547Y-74218481D01*
X95694855Y-74057606D01*
X95704999Y-73958322D01*
X95705000Y-73958309D01*
X95705000Y-73910000D01*
X95005000Y-73910000D01*
X95005000Y-74607761D01*
X94985315Y-74674800D01*
X94979376Y-74683247D01*
X94924964Y-74754157D01*
X94864456Y-74900237D01*
X94864455Y-74900239D01*
X94843818Y-75056998D01*
X94843818Y-75057001D01*
X94860972Y-75187302D01*
X94850206Y-75256337D01*
X94825714Y-75291168D01*
X94655975Y-75460907D01*
X94637187Y-75476326D01*
X94624341Y-75484909D01*
X94614095Y-75500244D01*
X94608972Y-75507911D01*
X94608971Y-75507913D01*
X94591493Y-75534069D01*
X94563449Y-75576041D01*
X94561668Y-75581912D01*
X94561067Y-75588021D01*
X94542068Y-75683534D01*
X94545082Y-75698686D01*
X94547465Y-75722879D01*
X94547465Y-76483860D01*
X94527780Y-76550899D01*
X94511146Y-76571541D01*
X94243007Y-76839680D01*
X94181684Y-76873165D01*
X94111992Y-76868181D01*
X94056059Y-76826309D01*
X94031642Y-76760845D01*
X94031326Y-76751999D01*
X94031326Y-74676411D01*
X94051011Y-74609372D01*
X94103815Y-74563617D01*
X94172973Y-74553673D01*
X94214807Y-74568837D01*
X94214968Y-74568493D01*
X94218846Y-74570301D01*
X94220426Y-74570874D01*
X94221514Y-74571545D01*
X94221518Y-74571547D01*
X94382393Y-74624855D01*
X94481683Y-74634999D01*
X94505000Y-74634998D01*
X94505000Y-72685000D01*
X95005000Y-72685000D01*
X95005000Y-73410000D01*
X95704999Y-73410000D01*
X95704999Y-73361692D01*
X95704998Y-73361677D01*
X95694855Y-73262392D01*
X95641547Y-73101518D01*
X95641542Y-73101507D01*
X95552575Y-72957271D01*
X95552572Y-72957267D01*
X95432732Y-72837427D01*
X95432728Y-72837424D01*
X95288492Y-72748457D01*
X95288481Y-72748452D01*
X95127606Y-72695144D01*
X95028322Y-72685000D01*
X95005000Y-72685000D01*
X94505000Y-72685000D01*
X94505000Y-72684999D01*
X94481693Y-72685000D01*
X94481674Y-72685001D01*
X94382392Y-72695144D01*
X94221518Y-72748452D01*
X94221507Y-72748457D01*
X94077271Y-72837424D01*
X94077267Y-72837427D01*
X93957426Y-72957268D01*
X93895392Y-73057841D01*
X93843444Y-73104565D01*
X93774481Y-73115786D01*
X93710399Y-73087943D01*
X93702173Y-73080424D01*
X93683225Y-73061476D01*
X93683221Y-73061473D01*
X93683220Y-73061472D01*
X93563126Y-73000281D01*
X93563124Y-73000280D01*
X93563121Y-73000279D01*
X93463493Y-72984500D01*
X93463488Y-72984500D01*
X93041189Y-72984500D01*
X92974150Y-72964815D01*
X92953508Y-72948181D01*
X92922625Y-72917298D01*
X92519119Y-72513793D01*
X92515474Y-72509814D01*
X92489456Y-72478807D01*
X92489455Y-72478806D01*
X92478058Y-72472226D01*
X92454392Y-72458561D01*
X92449831Y-72455655D01*
X92436687Y-72446452D01*
X92416684Y-72432446D01*
X92416681Y-72432445D01*
X92411861Y-72430197D01*
X92395055Y-72423235D01*
X92390043Y-72421411D01*
X92350190Y-72414383D01*
X92344910Y-72413212D01*
X92305808Y-72402735D01*
X92270892Y-72405790D01*
X92265481Y-72406264D01*
X92260078Y-72406500D01*
X92040500Y-72406500D01*
X91973461Y-72386815D01*
X91927706Y-72334011D01*
X91916500Y-72282500D01*
X91916500Y-72112249D01*
X91916499Y-72112247D01*
X91904868Y-72053770D01*
X91904867Y-72053769D01*
X91860552Y-71987447D01*
X91857043Y-71985103D01*
X91812237Y-71931492D01*
X91803528Y-71862167D01*
X91833682Y-71799139D01*
X91857043Y-71778897D01*
X91860552Y-71776552D01*
X91873493Y-71757185D01*
X91904867Y-71710231D01*
X91904867Y-71710229D01*
X91904868Y-71710229D01*
X91916499Y-71651752D01*
X91916500Y-71651750D01*
X91916500Y-70412249D01*
X91916499Y-70412247D01*
X91904868Y-70353770D01*
X91904867Y-70353769D01*
X91860552Y-70287447D01*
X91794230Y-70243132D01*
X91794229Y-70243131D01*
X91735752Y-70231500D01*
X91735748Y-70231500D01*
X90296252Y-70231500D01*
X90296247Y-70231500D01*
X90237770Y-70243131D01*
X90237769Y-70243132D01*
X90171447Y-70287447D01*
X90127132Y-70353769D01*
X90127131Y-70353770D01*
X90115500Y-70412247D01*
X90115500Y-71651752D01*
X90127131Y-71710229D01*
X90127132Y-71710230D01*
X90171448Y-71776553D01*
X90174959Y-71778899D01*
X90219764Y-71832512D01*
X90228470Y-71901837D01*
X90198314Y-71964864D01*
X90174959Y-71985101D01*
X90171448Y-71987446D01*
X90127132Y-72053769D01*
X90127131Y-72053770D01*
X90115500Y-72112247D01*
X90115500Y-73351752D01*
X90129515Y-73422210D01*
X90127602Y-73422590D01*
X90133439Y-73476904D01*
X90102160Y-73539382D01*
X90076508Y-73560419D01*
X90013268Y-73599426D01*
X89893426Y-73719268D01*
X89831392Y-73819841D01*
X89779444Y-73866565D01*
X89710481Y-73877786D01*
X89646399Y-73849943D01*
X89638173Y-73842424D01*
X89619225Y-73823476D01*
X89619221Y-73823473D01*
X89619220Y-73823472D01*
X89503668Y-73764595D01*
X89452874Y-73716622D01*
X89436079Y-73648801D01*
X89458616Y-73582667D01*
X89513331Y-73539215D01*
X89535768Y-73532495D01*
X89594231Y-73520867D01*
X89660552Y-73476552D01*
X89704867Y-73410231D01*
X89704867Y-73410229D01*
X89704868Y-73410229D01*
X89716499Y-73351752D01*
X89716500Y-73351750D01*
X89716500Y-72112249D01*
X89716499Y-72112247D01*
X89704868Y-72053770D01*
X89704867Y-72053769D01*
X89660552Y-71987447D01*
X89657043Y-71985103D01*
X89612237Y-71931492D01*
X89603528Y-71862167D01*
X89633682Y-71799139D01*
X89657043Y-71778897D01*
X89660552Y-71776552D01*
X89673493Y-71757185D01*
X89704867Y-71710231D01*
X89704867Y-71710229D01*
X89704868Y-71710229D01*
X89716499Y-71651752D01*
X89716500Y-71651750D01*
X89716500Y-70412249D01*
X89716499Y-70412247D01*
X89704868Y-70353770D01*
X89704867Y-70353769D01*
X89660552Y-70287447D01*
X89594230Y-70243132D01*
X89594229Y-70243131D01*
X89535752Y-70231500D01*
X89535748Y-70231500D01*
X88096252Y-70231500D01*
X88096247Y-70231500D01*
X88037770Y-70243131D01*
X88037769Y-70243132D01*
X87971447Y-70287447D01*
X87927132Y-70353769D01*
X87927131Y-70353770D01*
X87915500Y-70412247D01*
X87915500Y-71651752D01*
X87927131Y-71710229D01*
X87927132Y-71710230D01*
X87971448Y-71776553D01*
X87974959Y-71778899D01*
X88019764Y-71832512D01*
X88028470Y-71901837D01*
X87998314Y-71964864D01*
X87974959Y-71985101D01*
X87971448Y-71987446D01*
X87927132Y-72053769D01*
X87927131Y-72053770D01*
X87915500Y-72112247D01*
X87915500Y-73351752D01*
X87927131Y-73410229D01*
X87927132Y-73410230D01*
X87971447Y-73476552D01*
X88037769Y-73520867D01*
X88037770Y-73520868D01*
X88096247Y-73532499D01*
X88096250Y-73532500D01*
X88096252Y-73532500D01*
X88366500Y-73532500D01*
X88433539Y-73552185D01*
X88479294Y-73604989D01*
X88490500Y-73656500D01*
X88490500Y-74080078D01*
X88490264Y-74085485D01*
X88486735Y-74125808D01*
X88487199Y-74131114D01*
X88490500Y-74156180D01*
X88490500Y-74237922D01*
X88470815Y-74304961D01*
X88418011Y-74350716D01*
X88348853Y-74360660D01*
X88285297Y-74331635D01*
X88278819Y-74325603D01*
X87151819Y-73198603D01*
X87118334Y-73137280D01*
X87115500Y-73110922D01*
X87115500Y-71538792D01*
X87117883Y-71514599D01*
X87119097Y-71508499D01*
X87120897Y-71499448D01*
X87114344Y-71466506D01*
X87099515Y-71391953D01*
X87088894Y-71376058D01*
X87053994Y-71323826D01*
X87051685Y-71320370D01*
X87051680Y-71320364D01*
X87038624Y-71300824D01*
X87038621Y-71300821D01*
X87025775Y-71292238D01*
X87006985Y-71276817D01*
X86705819Y-70975651D01*
X86672334Y-70914328D01*
X86669500Y-70887970D01*
X86669500Y-69083970D01*
X86671883Y-69059777D01*
X86674897Y-69044625D01*
X86674897Y-69044623D01*
X86653516Y-68937133D01*
X86606273Y-68866429D01*
X86606266Y-68866419D01*
X86592624Y-68846002D01*
X86592622Y-68846000D01*
X86592621Y-68845999D01*
X86579775Y-68837416D01*
X86560985Y-68821995D01*
X86451819Y-68712829D01*
X86418334Y-68651506D01*
X86415500Y-68625148D01*
X86415500Y-66914422D01*
X86417883Y-66890229D01*
X86420897Y-66875077D01*
X86420897Y-66875076D01*
X86408952Y-66815026D01*
X86399515Y-66767584D01*
X86399515Y-66767583D01*
X86354825Y-66700700D01*
X86353994Y-66699456D01*
X86352342Y-66696982D01*
X86352327Y-66696963D01*
X86338624Y-66676454D01*
X86338623Y-66676453D01*
X86338621Y-66676451D01*
X86325775Y-66667868D01*
X86306985Y-66652447D01*
X86101819Y-66447281D01*
X86068334Y-66385958D01*
X86065500Y-66359600D01*
X86065500Y-64519396D01*
X86067883Y-64495203D01*
X86070897Y-64480051D01*
X86060225Y-64426401D01*
X86054874Y-64399499D01*
X86049515Y-64372557D01*
X86043505Y-64363563D01*
X86016151Y-64322624D01*
X86013760Y-64319046D01*
X86003994Y-64304430D01*
X86003992Y-64304428D01*
X86003991Y-64304427D01*
X86002273Y-64301855D01*
X86002266Y-64301845D01*
X86000699Y-64299500D01*
X85988624Y-64281428D01*
X85988622Y-64281426D01*
X85988621Y-64281425D01*
X85975775Y-64272842D01*
X85956985Y-64257421D01*
X85701019Y-64001455D01*
X85667534Y-63940132D01*
X85664700Y-63913774D01*
X85664700Y-60358600D01*
X86655001Y-60358600D01*
X86655001Y-60365182D01*
X86661408Y-60435702D01*
X86661409Y-60435707D01*
X86711981Y-60597996D01*
X86799927Y-60743477D01*
X86920122Y-60863672D01*
X87065604Y-60951619D01*
X87065603Y-60951619D01*
X87227894Y-61002190D01*
X87227892Y-61002190D01*
X87298418Y-61008599D01*
X87379999Y-61008598D01*
X87380000Y-61008598D01*
X87380000Y-60358600D01*
X87880000Y-60358600D01*
X87880000Y-61008599D01*
X87961581Y-61008599D01*
X88032102Y-61002191D01*
X88032107Y-61002190D01*
X88194396Y-60951618D01*
X88339877Y-60863672D01*
X88460072Y-60743477D01*
X88548019Y-60597995D01*
X88598590Y-60435706D01*
X88605000Y-60365172D01*
X88605000Y-60358600D01*
X87880000Y-60358600D01*
X87380000Y-60358600D01*
X86655001Y-60358600D01*
X85664700Y-60358600D01*
X85664700Y-60028544D01*
X85667083Y-60004351D01*
X85669842Y-59990484D01*
X85670097Y-59989200D01*
X85669215Y-59984768D01*
X85653233Y-59904417D01*
X85648715Y-59881705D01*
X85627352Y-59849734D01*
X85587824Y-59790575D01*
X85574975Y-59781990D01*
X85556185Y-59766569D01*
X84906819Y-59117203D01*
X84873334Y-59055880D01*
X84870500Y-59029522D01*
X84870500Y-57550249D01*
X84870499Y-57550247D01*
X84858868Y-57491770D01*
X84858867Y-57491769D01*
X84814552Y-57425447D01*
X84748230Y-57381132D01*
X84748229Y-57381131D01*
X84689752Y-57369500D01*
X84689748Y-57369500D01*
X82950252Y-57369500D01*
X82950247Y-57369500D01*
X82891770Y-57381131D01*
X82891769Y-57381132D01*
X82825447Y-57425447D01*
X82781132Y-57491769D01*
X82781131Y-57491770D01*
X82769500Y-57550247D01*
X82769500Y-59289752D01*
X82781131Y-59348229D01*
X82781132Y-59348230D01*
X82825447Y-59414552D01*
X82891769Y-59458867D01*
X82891770Y-59458868D01*
X82950247Y-59470499D01*
X82950250Y-59470500D01*
X82950252Y-59470500D01*
X84429522Y-59470500D01*
X84496561Y-59490185D01*
X84517203Y-59506819D01*
X85077381Y-60066997D01*
X85110866Y-60128320D01*
X85113700Y-60154678D01*
X85113700Y-60853564D01*
X85094015Y-60920603D01*
X85046458Y-60961810D01*
X85079697Y-60981133D01*
X85111528Y-61043330D01*
X85113700Y-61066435D01*
X85113700Y-61564722D01*
X85094015Y-61631761D01*
X85041211Y-61677516D01*
X84972053Y-61687460D01*
X84908497Y-61658435D01*
X84902019Y-61652403D01*
X84796982Y-61547366D01*
X84763497Y-61486043D01*
X84768481Y-61416351D01*
X84775307Y-61401229D01*
X84788024Y-61377439D01*
X84795232Y-61363954D01*
X84855300Y-61165934D01*
X84866297Y-61054280D01*
X84892458Y-60989494D01*
X84935008Y-60959384D01*
X84908497Y-60947277D01*
X84870723Y-60888499D01*
X84866297Y-60865718D01*
X84855300Y-60754067D01*
X84852088Y-60743477D01*
X84795232Y-60556046D01*
X84697685Y-60373550D01*
X84628462Y-60289201D01*
X84566410Y-60213589D01*
X84448677Y-60116969D01*
X84406450Y-60082315D01*
X84223954Y-59984768D01*
X84025934Y-59924700D01*
X84025932Y-59924699D01*
X84025934Y-59924699D01*
X83820000Y-59904417D01*
X83614067Y-59924699D01*
X83416043Y-59984769D01*
X83315744Y-60038381D01*
X83233550Y-60082315D01*
X83233548Y-60082316D01*
X83233547Y-60082317D01*
X83073589Y-60213589D01*
X82942317Y-60373547D01*
X82844769Y-60556043D01*
X82784699Y-60754067D01*
X82764417Y-60960000D01*
X82784699Y-61165932D01*
X82784700Y-61165934D01*
X82844768Y-61363954D01*
X82942315Y-61546450D01*
X82963139Y-61571824D01*
X83073589Y-61706410D01*
X83160232Y-61777515D01*
X83233550Y-61837685D01*
X83416046Y-61935232D01*
X83614066Y-61995300D01*
X83614065Y-61995300D01*
X83629214Y-61996792D01*
X83820000Y-62015583D01*
X84025934Y-61995300D01*
X84223954Y-61935232D01*
X84261230Y-61915306D01*
X84329631Y-61901063D01*
X84394875Y-61926061D01*
X84407366Y-61936982D01*
X84727381Y-62256997D01*
X84760866Y-62318320D01*
X84763700Y-62344678D01*
X84763700Y-62653325D01*
X84744015Y-62720364D01*
X84691211Y-62766119D01*
X84622053Y-62776063D01*
X84561036Y-62749179D01*
X84431300Y-62642709D01*
X84406450Y-62622315D01*
X84223954Y-62524768D01*
X84025934Y-62464700D01*
X84025932Y-62464699D01*
X84025934Y-62464699D01*
X83820000Y-62444417D01*
X83614067Y-62464699D01*
X83416043Y-62524769D01*
X83321366Y-62575376D01*
X83233550Y-62622315D01*
X83233548Y-62622316D01*
X83233547Y-62622317D01*
X83073589Y-62753589D01*
X82942317Y-62913547D01*
X82844769Y-63096043D01*
X82844768Y-63096045D01*
X82844768Y-63096046D01*
X82837898Y-63118692D01*
X82784699Y-63294067D01*
X82764417Y-63500000D01*
X82784699Y-63705932D01*
X82784700Y-63705934D01*
X82844768Y-63903954D01*
X82942315Y-64086450D01*
X82976969Y-64128677D01*
X83073589Y-64246410D01*
X83162098Y-64319046D01*
X83233550Y-64377685D01*
X83416046Y-64475232D01*
X83614066Y-64535300D01*
X83614065Y-64535300D01*
X83632529Y-64537118D01*
X83820000Y-64555583D01*
X84025934Y-64535300D01*
X84223954Y-64475232D01*
X84261230Y-64455306D01*
X84329631Y-64441063D01*
X84394875Y-64466061D01*
X84407366Y-64476982D01*
X84778181Y-64847797D01*
X84811666Y-64909120D01*
X84814500Y-64935478D01*
X84814500Y-65249331D01*
X84794815Y-65316370D01*
X84742011Y-65362125D01*
X84672853Y-65372069D01*
X84609297Y-65343044D01*
X84594647Y-65327996D01*
X84566410Y-65293590D01*
X84406452Y-65162317D01*
X84406453Y-65162317D01*
X84406450Y-65162315D01*
X84231533Y-65068819D01*
X84223956Y-65064769D01*
X84223955Y-65064768D01*
X84223954Y-65064768D01*
X84025934Y-65004700D01*
X84025932Y-65004699D01*
X84025934Y-65004699D01*
X83820000Y-64984417D01*
X83614067Y-65004699D01*
X83416043Y-65064769D01*
X83305898Y-65123643D01*
X83233550Y-65162315D01*
X83233548Y-65162316D01*
X83233547Y-65162317D01*
X83073589Y-65293589D01*
X82942317Y-65453547D01*
X82942315Y-65453550D01*
X82916290Y-65502239D01*
X82844769Y-65636043D01*
X82844768Y-65636045D01*
X82844768Y-65636046D01*
X82840385Y-65650496D01*
X82784699Y-65834067D01*
X82764417Y-66040000D01*
X82784699Y-66245932D01*
X82790387Y-66264682D01*
X82844768Y-66443954D01*
X82942315Y-66626450D01*
X82963650Y-66652447D01*
X83073589Y-66786410D01*
X83155469Y-66853606D01*
X83233550Y-66917685D01*
X83416046Y-67015232D01*
X83614066Y-67075300D01*
X83614065Y-67075300D01*
X83632529Y-67077118D01*
X83820000Y-67095583D01*
X84025934Y-67075300D01*
X84223954Y-67015232D01*
X84261230Y-66995306D01*
X84329631Y-66981063D01*
X84394875Y-67006061D01*
X84407366Y-67016982D01*
X84778181Y-67387797D01*
X84811666Y-67449120D01*
X84814500Y-67475478D01*
X84814500Y-67789331D01*
X84794815Y-67856370D01*
X84742011Y-67902125D01*
X84672853Y-67912069D01*
X84609297Y-67883044D01*
X84594647Y-67867996D01*
X84566410Y-67833590D01*
X84424222Y-67716900D01*
X84406450Y-67702315D01*
X84223954Y-67604768D01*
X84025934Y-67544700D01*
X84025932Y-67544699D01*
X84025934Y-67544699D01*
X83820000Y-67524417D01*
X83614067Y-67544699D01*
X83416043Y-67604769D01*
X83323955Y-67653992D01*
X83233550Y-67702315D01*
X83233548Y-67702316D01*
X83233547Y-67702317D01*
X83073589Y-67833589D01*
X82942317Y-67993547D01*
X82844769Y-68176043D01*
X82784699Y-68374067D01*
X82764417Y-68580000D01*
X82784699Y-68785932D01*
X82809118Y-68866429D01*
X82844768Y-68983954D01*
X82942315Y-69166450D01*
X82971530Y-69202049D01*
X83073589Y-69326410D01*
X83152680Y-69391317D01*
X83233550Y-69457685D01*
X83416046Y-69555232D01*
X83614066Y-69615300D01*
X83614065Y-69615300D01*
X83632529Y-69617118D01*
X83820000Y-69635583D01*
X84025934Y-69615300D01*
X84223954Y-69555232D01*
X84261230Y-69535306D01*
X84329631Y-69521063D01*
X84394875Y-69546061D01*
X84407366Y-69556982D01*
X84633181Y-69782797D01*
X84666666Y-69844120D01*
X84669500Y-69870478D01*
X84669500Y-70196017D01*
X84649815Y-70263056D01*
X84597011Y-70308811D01*
X84527853Y-70318755D01*
X84466836Y-70291871D01*
X84406453Y-70242317D01*
X84406451Y-70242316D01*
X84406450Y-70242315D01*
X84223954Y-70144768D01*
X84025934Y-70084700D01*
X84025932Y-70084699D01*
X84025934Y-70084699D01*
X83820000Y-70064417D01*
X83614067Y-70084699D01*
X83416043Y-70144769D01*
X83360577Y-70174417D01*
X83233550Y-70242315D01*
X83233548Y-70242316D01*
X83233547Y-70242317D01*
X83073589Y-70373589D01*
X82942317Y-70533547D01*
X82844769Y-70716043D01*
X82784699Y-70914067D01*
X82764417Y-71120000D01*
X82784699Y-71325932D01*
X82814734Y-71424944D01*
X82844768Y-71523954D01*
X82942315Y-71706450D01*
X82976969Y-71748677D01*
X83073589Y-71866410D01*
X83116758Y-71901837D01*
X83233550Y-71997685D01*
X83416046Y-72095232D01*
X83482551Y-72115405D01*
X83540989Y-72153702D01*
X83569446Y-72217514D01*
X83558887Y-72286581D01*
X83512663Y-72338975D01*
X83478650Y-72353841D01*
X83356514Y-72386567D01*
X83356507Y-72386570D01*
X83142422Y-72486399D01*
X83142420Y-72486400D01*
X82948926Y-72621886D01*
X82948920Y-72621891D01*
X82781891Y-72788920D01*
X82781886Y-72788926D01*
X82646400Y-72982420D01*
X82646399Y-72982422D01*
X82546570Y-73196507D01*
X82546567Y-73196513D01*
X82489364Y-73409999D01*
X82489364Y-73410000D01*
X83386314Y-73410000D01*
X83360507Y-73450156D01*
X83320000Y-73588111D01*
X83320000Y-73731889D01*
X83360507Y-73869844D01*
X83386314Y-73910000D01*
X82489364Y-73910000D01*
X82546567Y-74123486D01*
X82546570Y-74123492D01*
X82646399Y-74337578D01*
X82781894Y-74531082D01*
X82948917Y-74698105D01*
X83142421Y-74833600D01*
X83356507Y-74933429D01*
X83356516Y-74933433D01*
X83478649Y-74966158D01*
X83538310Y-75002523D01*
X83568839Y-75065369D01*
X83560545Y-75134745D01*
X83516059Y-75188623D01*
X83482552Y-75204593D01*
X83416046Y-75224767D01*
X83291821Y-75291168D01*
X83233550Y-75322315D01*
X83233548Y-75322316D01*
X83233547Y-75322317D01*
X83073589Y-75453589D01*
X82942317Y-75613547D01*
X82942315Y-75613550D01*
X82927085Y-75642043D01*
X82844769Y-75796043D01*
X82784699Y-75994067D01*
X82764417Y-76200000D01*
X82784699Y-76405932D01*
X82805310Y-76473876D01*
X82842541Y-76596614D01*
X82844769Y-76603956D01*
X82851502Y-76616554D01*
X82942315Y-76786450D01*
X82942317Y-76786452D01*
X83073589Y-76946410D01*
X83170209Y-77025702D01*
X83233550Y-77077685D01*
X83416046Y-77175232D01*
X83614066Y-77235300D01*
X83614065Y-77235300D01*
X83632529Y-77237118D01*
X83820000Y-77255583D01*
X84025934Y-77235300D01*
X84223954Y-77175232D01*
X84261230Y-77155306D01*
X84329631Y-77141063D01*
X84394875Y-77166061D01*
X84407366Y-77176982D01*
X84633181Y-77402797D01*
X84666666Y-77464120D01*
X84669500Y-77490478D01*
X84669500Y-77816017D01*
X84649815Y-77883056D01*
X84597011Y-77928811D01*
X84527853Y-77938755D01*
X84466836Y-77911871D01*
X84406453Y-77862317D01*
X84406451Y-77862316D01*
X84406450Y-77862315D01*
X84223954Y-77764768D01*
X84025934Y-77704700D01*
X84025932Y-77704699D01*
X84025934Y-77704699D01*
X83820000Y-77684417D01*
X83614067Y-77704699D01*
X83416043Y-77764769D01*
X83338641Y-77806142D01*
X83233550Y-77862315D01*
X83233548Y-77862316D01*
X83233547Y-77862317D01*
X83073589Y-77993589D01*
X82958454Y-78133884D01*
X82942315Y-78153550D01*
X82912076Y-78210123D01*
X82844769Y-78336043D01*
X82784699Y-78534067D01*
X82764417Y-78740000D01*
X82784699Y-78945932D01*
X82813538Y-79041000D01*
X82844768Y-79143954D01*
X82942315Y-79326450D01*
X82942317Y-79326452D01*
X83073589Y-79486410D01*
X83162393Y-79559288D01*
X83233550Y-79617685D01*
X83416046Y-79715232D01*
X83614066Y-79775300D01*
X83669321Y-79780742D01*
X83734108Y-79806903D01*
X83744848Y-79816464D01*
X83944107Y-80015723D01*
X83977592Y-80077046D01*
X83972608Y-80146738D01*
X83930736Y-80202671D01*
X83865272Y-80227088D01*
X83844274Y-80226807D01*
X83820003Y-80224417D01*
X83820001Y-80224417D01*
X83820000Y-80224417D01*
X83799718Y-80226414D01*
X83614067Y-80244699D01*
X83438692Y-80297898D01*
X83431979Y-80299935D01*
X83416043Y-80304769D01*
X83310401Y-80361237D01*
X83233550Y-80402315D01*
X83233548Y-80402316D01*
X83233547Y-80402317D01*
X83073589Y-80533589D01*
X82942317Y-80693547D01*
X82844769Y-80876043D01*
X82784699Y-81074067D01*
X82764417Y-81280000D01*
X82784699Y-81485932D01*
X82805802Y-81555500D01*
X82844768Y-81683954D01*
X82942315Y-81866450D01*
X82942317Y-81866452D01*
X83073589Y-82026410D01*
X83151553Y-82090392D01*
X83233550Y-82157685D01*
X83416046Y-82255232D01*
X83614066Y-82315300D01*
X83614065Y-82315300D01*
X83632890Y-82317154D01*
X83820000Y-82335583D01*
X83844271Y-82333192D01*
X83912915Y-82346210D01*
X83963626Y-82394274D01*
X83980302Y-82462125D01*
X83957647Y-82528220D01*
X83944106Y-82544276D01*
X83744847Y-82743535D01*
X83683524Y-82777020D01*
X83669322Y-82779257D01*
X83614067Y-82784699D01*
X83438692Y-82837898D01*
X83424931Y-82842073D01*
X83416043Y-82844769D01*
X83343077Y-82883771D01*
X83233550Y-82942315D01*
X83233548Y-82942316D01*
X83233547Y-82942317D01*
X83073589Y-83073589D01*
X82942317Y-83233547D01*
X82844769Y-83416043D01*
X82784699Y-83614067D01*
X82764417Y-83820000D01*
X82784699Y-84025932D01*
X82813671Y-84121440D01*
X82844768Y-84223954D01*
X82942315Y-84406450D01*
X82942317Y-84406452D01*
X83073589Y-84566410D01*
X83169884Y-84645436D01*
X83233550Y-84697685D01*
X83416046Y-84795232D01*
X83614066Y-84855300D01*
X83614065Y-84855300D01*
X83632529Y-84857118D01*
X83820000Y-84875583D01*
X84025934Y-84855300D01*
X84223954Y-84795232D01*
X84406450Y-84697685D01*
X84566410Y-84566410D01*
X84697685Y-84406450D01*
X84795232Y-84223954D01*
X84855300Y-84025934D01*
X84875583Y-83820000D01*
X84855300Y-83614066D01*
X84795232Y-83416046D01*
X84697685Y-83233550D01*
X84566410Y-83073590D01*
X84566409Y-83073589D01*
X84467636Y-82992528D01*
X84428302Y-82934783D01*
X84426431Y-82864938D01*
X84458618Y-82808996D01*
X85167797Y-82099819D01*
X85229120Y-82066334D01*
X85255478Y-82063500D01*
X85832205Y-82063500D01*
X85899244Y-82083185D01*
X85944999Y-82135989D01*
X85952988Y-82191552D01*
X85955491Y-82191552D01*
X85955491Y-82321597D01*
X85996258Y-82433606D01*
X86026486Y-82472999D01*
X86026490Y-82473004D01*
X86931015Y-83377526D01*
X86931021Y-83377532D01*
X86932627Y-83378764D01*
X86970411Y-83407758D01*
X87082419Y-83448525D01*
X87082421Y-83448525D01*
X87201613Y-83448525D01*
X87201616Y-83448525D01*
X87313625Y-83407758D01*
X87353016Y-83377532D01*
X87603476Y-83127070D01*
X87633704Y-83087679D01*
X87674471Y-82975670D01*
X87674471Y-82975669D01*
X87678181Y-82965476D01*
X87681101Y-82966539D01*
X87704324Y-82919669D01*
X87757557Y-82887788D01*
X87757107Y-82886550D01*
X87763530Y-82884212D01*
X87764267Y-82883771D01*
X87765448Y-82883513D01*
X87767297Y-82882840D01*
X87767301Y-82882840D01*
X87879310Y-82842073D01*
X87918701Y-82811847D01*
X88169161Y-82561385D01*
X88199389Y-82521994D01*
X88240156Y-82409985D01*
X88240156Y-82409984D01*
X88243866Y-82399791D01*
X88246787Y-82400854D01*
X88270006Y-82353987D01*
X88323243Y-82322101D01*
X88322793Y-82320864D01*
X88329209Y-82318528D01*
X88329947Y-82318087D01*
X88331130Y-82317829D01*
X88332985Y-82317154D01*
X88332987Y-82317154D01*
X88444996Y-82276387D01*
X88484387Y-82246161D01*
X88546350Y-82184196D01*
X88592759Y-82137789D01*
X88654082Y-82104304D01*
X88680440Y-82101470D01*
X92124686Y-82101470D01*
X92148876Y-82103852D01*
X92164030Y-82106867D01*
X92191162Y-82101470D01*
X92191163Y-82101470D01*
X92271525Y-82085485D01*
X92328351Y-82047515D01*
X92339652Y-82039964D01*
X92339652Y-82039962D01*
X92353083Y-82030989D01*
X92353083Y-82030988D01*
X92362654Y-82024594D01*
X92371238Y-82011745D01*
X92386654Y-81992960D01*
X93922812Y-80456801D01*
X93941597Y-80441385D01*
X93954450Y-80432798D01*
X94015341Y-80341669D01*
X94031326Y-80261307D01*
X94031679Y-80259533D01*
X94031681Y-80259512D01*
X94036722Y-80234174D01*
X94033708Y-80219019D01*
X94031326Y-80194831D01*
X94031326Y-79209113D01*
X94051011Y-79142074D01*
X94103815Y-79096319D01*
X94172973Y-79086375D01*
X94222363Y-79104796D01*
X94298931Y-79154004D01*
X94298933Y-79154004D01*
X94298934Y-79154005D01*
X94423225Y-79190499D01*
X94423227Y-79190500D01*
X94423228Y-79190500D01*
X94552773Y-79190500D01*
X94552773Y-79190499D01*
X94677069Y-79154004D01*
X94786049Y-79083967D01*
X94870882Y-78986063D01*
X94924697Y-78868226D01*
X94943133Y-78740000D01*
X94934754Y-78681723D01*
X94944697Y-78612567D01*
X94990452Y-78559763D01*
X95057492Y-78540078D01*
X95124531Y-78559762D01*
X95155863Y-78588587D01*
X95165839Y-78601587D01*
X95416301Y-78852047D01*
X95416304Y-78852049D01*
X95416305Y-78852050D01*
X95416306Y-78852051D01*
X95418366Y-78853632D01*
X95455692Y-78882275D01*
X95567701Y-78923042D01*
X95567702Y-78923042D01*
X95577895Y-78926752D01*
X95576831Y-78929672D01*
X95623705Y-78952899D01*
X95655579Y-79006129D01*
X95656821Y-79005678D01*
X95659163Y-79012113D01*
X95659600Y-79012843D01*
X95659854Y-79014013D01*
X95697386Y-79117133D01*
X95701298Y-79127881D01*
X95731524Y-79167272D01*
X95981986Y-79417732D01*
X95981989Y-79417734D01*
X95981990Y-79417735D01*
X95981991Y-79417736D01*
X95988894Y-79423033D01*
X96021377Y-79447960D01*
X96133386Y-79488727D01*
X96133387Y-79488727D01*
X96143580Y-79492437D01*
X96142516Y-79495357D01*
X96189387Y-79518580D01*
X96221267Y-79571814D01*
X96222507Y-79571363D01*
X96224846Y-79577790D01*
X96225285Y-79578523D01*
X96225540Y-79579699D01*
X96259571Y-79673199D01*
X96266984Y-79693566D01*
X96297210Y-79732957D01*
X96547672Y-79983417D01*
X96587063Y-80013645D01*
X96661473Y-80040727D01*
X96717735Y-80082150D01*
X96742672Y-80147419D01*
X96728363Y-80215808D01*
X96706743Y-80244929D01*
X96414707Y-80536965D01*
X96369912Y-80562833D01*
X96370746Y-80564846D01*
X96217160Y-80628463D01*
X96091718Y-80724718D01*
X95995463Y-80850160D01*
X95934956Y-80996237D01*
X95934955Y-80996239D01*
X95914318Y-81152998D01*
X95914318Y-81153001D01*
X95923246Y-81220818D01*
X95912480Y-81289853D01*
X95887988Y-81324684D01*
X92507892Y-84704781D01*
X92446569Y-84738266D01*
X92420211Y-84741100D01*
X92340426Y-84741100D01*
X92216135Y-84777594D01*
X92216132Y-84777595D01*
X92216131Y-84777596D01*
X92188692Y-84795230D01*
X92107150Y-84847633D01*
X92022318Y-84945537D01*
X92022317Y-84945538D01*
X91968502Y-85063374D01*
X91950067Y-85191599D01*
X91950160Y-85192246D01*
X91950067Y-85192892D01*
X91950067Y-85200468D01*
X91948977Y-85200468D01*
X91940213Y-85261404D01*
X91915102Y-85297569D01*
X90502431Y-86710240D01*
X90441108Y-86743725D01*
X90371416Y-86738741D01*
X90354035Y-86729673D01*
X90353688Y-86730306D01*
X90206989Y-86649657D01*
X90206985Y-86649655D01*
X90050981Y-86609600D01*
X89889910Y-86609600D01*
X89882166Y-86610578D01*
X89881799Y-86607672D01*
X89825743Y-86605744D01*
X89777066Y-86575720D01*
X89762672Y-86561326D01*
X89615757Y-86414412D01*
X89615752Y-86414408D01*
X89615751Y-86414407D01*
X89599000Y-86401553D01*
X89576366Y-86384184D01*
X89576364Y-86384183D01*
X89473542Y-86346760D01*
X89464357Y-86343417D01*
X89464356Y-86343417D01*
X89454163Y-86339707D01*
X89455224Y-86336789D01*
X89408335Y-86313543D01*
X89376482Y-86260326D01*
X89375237Y-86260780D01*
X89372884Y-86254316D01*
X89372451Y-86253592D01*
X89372198Y-86252432D01*
X89371527Y-86250588D01*
X89371527Y-86250586D01*
X89330760Y-86138577D01*
X89300534Y-86099186D01*
X89050072Y-85848726D01*
X89050067Y-85848722D01*
X89050066Y-85848721D01*
X89010682Y-85818499D01*
X89010681Y-85818498D01*
X89010679Y-85818497D01*
X88918976Y-85785121D01*
X88898672Y-85777731D01*
X88898671Y-85777731D01*
X88888478Y-85774021D01*
X88889539Y-85771103D01*
X88842650Y-85747857D01*
X88810797Y-85694641D01*
X88809552Y-85695095D01*
X88807198Y-85688628D01*
X88806766Y-85687906D01*
X88806514Y-85686749D01*
X88805842Y-85684902D01*
X88805842Y-85684901D01*
X88765075Y-85572892D01*
X88734849Y-85533501D01*
X88484387Y-85283041D01*
X88484382Y-85283037D01*
X88484381Y-85283036D01*
X88451071Y-85257475D01*
X88444996Y-85252813D01*
X88444994Y-85252812D01*
X88342930Y-85215665D01*
X88332987Y-85212046D01*
X88332986Y-85212046D01*
X88322793Y-85208336D01*
X88323854Y-85205418D01*
X88276967Y-85182176D01*
X88245109Y-85128956D01*
X88243866Y-85129409D01*
X88241516Y-85122953D01*
X88241081Y-85122226D01*
X88240827Y-85121061D01*
X88240156Y-85119217D01*
X88240156Y-85119215D01*
X88199389Y-85007206D01*
X88169163Y-84967815D01*
X87918701Y-84717355D01*
X87918696Y-84717351D01*
X87918695Y-84717350D01*
X87893068Y-84697685D01*
X87879310Y-84687127D01*
X87879308Y-84687126D01*
X87802766Y-84659268D01*
X87767301Y-84646360D01*
X87767300Y-84646360D01*
X87757107Y-84642650D01*
X87758168Y-84639732D01*
X87711279Y-84616486D01*
X87679426Y-84563270D01*
X87678181Y-84563724D01*
X87675827Y-84557257D01*
X87675395Y-84556535D01*
X87675143Y-84555378D01*
X87674471Y-84553531D01*
X87674471Y-84553530D01*
X87633704Y-84441521D01*
X87603478Y-84402130D01*
X87353016Y-84151670D01*
X87353011Y-84151666D01*
X87353010Y-84151665D01*
X87313626Y-84121443D01*
X87313625Y-84121442D01*
X87313623Y-84121441D01*
X87257620Y-84101058D01*
X87201616Y-84080675D01*
X87082419Y-84080675D01*
X87082418Y-84080675D01*
X86970409Y-84121442D01*
X86931016Y-84151670D01*
X86931011Y-84151674D01*
X86454342Y-84628346D01*
X86393019Y-84661831D01*
X86366661Y-84664665D01*
X85279179Y-84664665D01*
X85254988Y-84662282D01*
X85239835Y-84659268D01*
X85239834Y-84659268D01*
X85239833Y-84659268D01*
X85216784Y-84663853D01*
X85216779Y-84663854D01*
X85132341Y-84680648D01*
X85132340Y-84680649D01*
X85122645Y-84687128D01*
X85096226Y-84704781D01*
X85064213Y-84726171D01*
X85064211Y-84726172D01*
X85054986Y-84732335D01*
X85041208Y-84741542D01*
X85032626Y-84754387D01*
X85017207Y-84773175D01*
X84407366Y-85383016D01*
X84346043Y-85416501D01*
X84276351Y-85411517D01*
X84261232Y-85404693D01*
X84223958Y-85384769D01*
X84096148Y-85345999D01*
X84025934Y-85324700D01*
X84025932Y-85324699D01*
X84025934Y-85324699D01*
X83820000Y-85304417D01*
X83614067Y-85324699D01*
X83416043Y-85384769D01*
X83323768Y-85434092D01*
X83233550Y-85482315D01*
X83233548Y-85482316D01*
X83233547Y-85482317D01*
X83073589Y-85613589D01*
X82942317Y-85773547D01*
X82942315Y-85773550D01*
X82936130Y-85785121D01*
X82844769Y-85956043D01*
X82784699Y-86154067D01*
X82764417Y-86360000D01*
X82784699Y-86565932D01*
X82795983Y-86603129D01*
X82844768Y-86763954D01*
X82942315Y-86946450D01*
X82942317Y-86946452D01*
X83073589Y-87106410D01*
X83170209Y-87185702D01*
X83233550Y-87237685D01*
X83416046Y-87335232D01*
X83614066Y-87395300D01*
X83614065Y-87395300D01*
X83632529Y-87397118D01*
X83820000Y-87415583D01*
X84025934Y-87395300D01*
X84128039Y-87364326D01*
X84197903Y-87363704D01*
X84257016Y-87400952D01*
X84286607Y-87464246D01*
X84277282Y-87533491D01*
X84251713Y-87570669D01*
X84005273Y-87817109D01*
X83943950Y-87850594D01*
X83905439Y-87852831D01*
X83820000Y-87844417D01*
X83614067Y-87864699D01*
X83416043Y-87924769D01*
X83305898Y-87983643D01*
X83233550Y-88022315D01*
X83233548Y-88022316D01*
X83233547Y-88022317D01*
X83073589Y-88153589D01*
X82942317Y-88313547D01*
X82942315Y-88313550D01*
X82919640Y-88355971D01*
X82844769Y-88496043D01*
X82784699Y-88694067D01*
X82764417Y-88900000D01*
X82784699Y-89105932D01*
X82813798Y-89201857D01*
X82844768Y-89303954D01*
X82942315Y-89486450D01*
X82947939Y-89493303D01*
X83073589Y-89646410D01*
X83152523Y-89711188D01*
X83233550Y-89777685D01*
X83416046Y-89875232D01*
X83614066Y-89935300D01*
X83614065Y-89935300D01*
X83632529Y-89937118D01*
X83820000Y-89955583D01*
X84025934Y-89935300D01*
X84223954Y-89875232D01*
X84406450Y-89777685D01*
X84406454Y-89777682D01*
X84411646Y-89774907D01*
X84480049Y-89760665D01*
X84545293Y-89785665D01*
X84586664Y-89841969D01*
X84594100Y-89884265D01*
X84594100Y-90224921D01*
X84574415Y-90291960D01*
X84557781Y-90312603D01*
X84407366Y-90463017D01*
X84346043Y-90496501D01*
X84276351Y-90491517D01*
X84261232Y-90484693D01*
X84223958Y-90464769D01*
X84122729Y-90434062D01*
X84025934Y-90404700D01*
X84025932Y-90404699D01*
X84025934Y-90404699D01*
X83820000Y-90384417D01*
X83614067Y-90404699D01*
X83438692Y-90457898D01*
X83421819Y-90463017D01*
X83416043Y-90464769D01*
X83311061Y-90520884D01*
X83233550Y-90562315D01*
X83233548Y-90562316D01*
X83233547Y-90562317D01*
X83073589Y-90693589D01*
X82942317Y-90853547D01*
X82844769Y-91036043D01*
X82784699Y-91234067D01*
X82764417Y-91440000D01*
X82784699Y-91645932D01*
X82814734Y-91744944D01*
X82844768Y-91843954D01*
X82942315Y-92026450D01*
X82942316Y-92026451D01*
X82942317Y-92026452D01*
X83073589Y-92186410D01*
X83159800Y-92257160D01*
X83233550Y-92317685D01*
X83416046Y-92415232D01*
X83614066Y-92475300D01*
X83614065Y-92475300D01*
X83632529Y-92477118D01*
X83820000Y-92495583D01*
X84025934Y-92475300D01*
X84223954Y-92415232D01*
X84406450Y-92317685D01*
X84566410Y-92186410D01*
X84697685Y-92026450D01*
X84710742Y-92002021D01*
X84759704Y-91952177D01*
X84827842Y-91936717D01*
X84893522Y-91960549D01*
X84935890Y-92016106D01*
X84944100Y-92060475D01*
X84944100Y-92414921D01*
X84924415Y-92481960D01*
X84907781Y-92502602D01*
X84407366Y-93003016D01*
X84346043Y-93036501D01*
X84276351Y-93031517D01*
X84261232Y-93024693D01*
X84223958Y-93004769D01*
X84124944Y-92974734D01*
X84025934Y-92944700D01*
X84025932Y-92944699D01*
X84025934Y-92944699D01*
X83820000Y-92924417D01*
X83614067Y-92944699D01*
X83416043Y-93004769D01*
X83305898Y-93063643D01*
X83233550Y-93102315D01*
X83233548Y-93102316D01*
X83233547Y-93102317D01*
X83073589Y-93233589D01*
X82942317Y-93393547D01*
X82844769Y-93576043D01*
X82844768Y-93576045D01*
X82844768Y-93576046D01*
X82841664Y-93586279D01*
X82784699Y-93774067D01*
X82764417Y-93980000D01*
X82784699Y-94185932D01*
X82784700Y-94185934D01*
X82844768Y-94383954D01*
X82942315Y-94566450D01*
X82942317Y-94566452D01*
X83073589Y-94726410D01*
X83160253Y-94797532D01*
X83233550Y-94857685D01*
X83416046Y-94955232D01*
X83614066Y-95015300D01*
X83614065Y-95015300D01*
X83632529Y-95017118D01*
X83820000Y-95035583D01*
X84025934Y-95015300D01*
X84223954Y-94955232D01*
X84406450Y-94857685D01*
X84566410Y-94726410D01*
X84697685Y-94566450D01*
X84795232Y-94383954D01*
X84855300Y-94185934D01*
X84875583Y-93980000D01*
X84855300Y-93774066D01*
X84795232Y-93576046D01*
X84775305Y-93538767D01*
X84761063Y-93470366D01*
X84786062Y-93405121D01*
X84796974Y-93392640D01*
X85082420Y-93107195D01*
X85143742Y-93073711D01*
X85213434Y-93078695D01*
X85269367Y-93120567D01*
X85293784Y-93186031D01*
X85294100Y-93194877D01*
X85294100Y-94604921D01*
X85274415Y-94671960D01*
X85257781Y-94692602D01*
X84407366Y-95543016D01*
X84346043Y-95576501D01*
X84276351Y-95571517D01*
X84261232Y-95564693D01*
X84223958Y-95544769D01*
X84124944Y-95514734D01*
X84025934Y-95484700D01*
X84025932Y-95484699D01*
X84025934Y-95484699D01*
X83820000Y-95464417D01*
X83614067Y-95484699D01*
X83416043Y-95544769D01*
X83305898Y-95603643D01*
X83233550Y-95642315D01*
X83233548Y-95642316D01*
X83233547Y-95642317D01*
X83073589Y-95773589D01*
X82955831Y-95917080D01*
X82942315Y-95933550D01*
X82936302Y-95944800D01*
X82844769Y-96116043D01*
X82784699Y-96314067D01*
X82764417Y-96520000D01*
X82784699Y-96725932D01*
X82797869Y-96769346D01*
X82844768Y-96923954D01*
X82942315Y-97106450D01*
X82942317Y-97106452D01*
X83073589Y-97266410D01*
X83167831Y-97343751D01*
X83233550Y-97397685D01*
X83416046Y-97495232D01*
X83482551Y-97515405D01*
X83540989Y-97553702D01*
X83569446Y-97617514D01*
X83558887Y-97686581D01*
X83512663Y-97738975D01*
X83478650Y-97753841D01*
X83356514Y-97786567D01*
X83356507Y-97786570D01*
X83142422Y-97886399D01*
X83142420Y-97886400D01*
X82948926Y-98021886D01*
X82948920Y-98021891D01*
X82781891Y-98188920D01*
X82781886Y-98188926D01*
X82646400Y-98382420D01*
X82646399Y-98382422D01*
X82546570Y-98596507D01*
X82546567Y-98596513D01*
X82489364Y-98809999D01*
X82489364Y-98810000D01*
X83386314Y-98810000D01*
X83360507Y-98850156D01*
X83320000Y-98988111D01*
X83320000Y-99131889D01*
X83360507Y-99269844D01*
X83386314Y-99310000D01*
X82489364Y-99310000D01*
X82546567Y-99523486D01*
X82546570Y-99523492D01*
X82646399Y-99737578D01*
X82781894Y-99931082D01*
X82948917Y-100098105D01*
X83142421Y-100233600D01*
X83356507Y-100333429D01*
X83356516Y-100333433D01*
X83478649Y-100366158D01*
X83538310Y-100402523D01*
X83568839Y-100465369D01*
X83560545Y-100534745D01*
X83516059Y-100588623D01*
X83482552Y-100604593D01*
X83416046Y-100624767D01*
X83297662Y-100688046D01*
X83233550Y-100722315D01*
X83233548Y-100722316D01*
X83233547Y-100722317D01*
X83073589Y-100853589D01*
X82942317Y-101013547D01*
X82942315Y-101013550D01*
X82908046Y-101077662D01*
X82844769Y-101196043D01*
X82784700Y-101394065D01*
X82784699Y-101394065D01*
X82764417Y-101600000D01*
X82784699Y-101805932D01*
X82784700Y-101805934D01*
X82844768Y-102003954D01*
X82942315Y-102186450D01*
X82942317Y-102186452D01*
X83073589Y-102346410D01*
X83170209Y-102425702D01*
X83233550Y-102477685D01*
X83416046Y-102575232D01*
X83614066Y-102635300D01*
X83614065Y-102635300D01*
X83632529Y-102637118D01*
X83820000Y-102655583D01*
X84025934Y-102635300D01*
X84223954Y-102575232D01*
X84406450Y-102477685D01*
X84566410Y-102346410D01*
X84594646Y-102312003D01*
X84652391Y-102272669D01*
X84722236Y-102270798D01*
X84782005Y-102306985D01*
X84812721Y-102369740D01*
X84814500Y-102390668D01*
X84814500Y-102704521D01*
X84794815Y-102771560D01*
X84778181Y-102792202D01*
X84407366Y-103163016D01*
X84346043Y-103196501D01*
X84276351Y-103191517D01*
X84261232Y-103184693D01*
X84223958Y-103164769D01*
X84124944Y-103134734D01*
X84025934Y-103104700D01*
X84025932Y-103104699D01*
X84025934Y-103104699D01*
X83820000Y-103084417D01*
X83614067Y-103104699D01*
X83416043Y-103164769D01*
X83305898Y-103223643D01*
X83233550Y-103262315D01*
X83233548Y-103262316D01*
X83233547Y-103262317D01*
X83073589Y-103393589D01*
X82942317Y-103553547D01*
X82844769Y-103736043D01*
X82784699Y-103934067D01*
X82764417Y-104140000D01*
X82784699Y-104345932D01*
X82814734Y-104444944D01*
X82844768Y-104543954D01*
X82942315Y-104726450D01*
X82942317Y-104726452D01*
X83073589Y-104886410D01*
X83100459Y-104908461D01*
X83233550Y-105017685D01*
X83416046Y-105115232D01*
X83614066Y-105175300D01*
X83614065Y-105175300D01*
X83632529Y-105177118D01*
X83820000Y-105195583D01*
X84025934Y-105175300D01*
X84223954Y-105115232D01*
X84406450Y-105017685D01*
X84466835Y-104968129D01*
X84531145Y-104940816D01*
X84600013Y-104952607D01*
X84651573Y-104999760D01*
X84669500Y-105063982D01*
X84669500Y-105389521D01*
X84649815Y-105456560D01*
X84633181Y-105477202D01*
X84407366Y-105703016D01*
X84346043Y-105736501D01*
X84276351Y-105731517D01*
X84261232Y-105724693D01*
X84223958Y-105704769D01*
X84123787Y-105674383D01*
X84025934Y-105644700D01*
X84025932Y-105644699D01*
X84025934Y-105644699D01*
X83820000Y-105624417D01*
X83614067Y-105644699D01*
X83416043Y-105704769D01*
X83308854Y-105762064D01*
X83233550Y-105802315D01*
X83233548Y-105802316D01*
X83233547Y-105802317D01*
X83073589Y-105933589D01*
X82942317Y-106093547D01*
X82844769Y-106276043D01*
X82784699Y-106474067D01*
X82764417Y-106680000D01*
X82784699Y-106885932D01*
X82794500Y-106918240D01*
X82844768Y-107083954D01*
X82942315Y-107266450D01*
X82942317Y-107266452D01*
X83073589Y-107426410D01*
X83140406Y-107481244D01*
X83233550Y-107557685D01*
X83416046Y-107655232D01*
X83614066Y-107715300D01*
X83614065Y-107715300D01*
X83632529Y-107717118D01*
X83820000Y-107735583D01*
X84025934Y-107715300D01*
X84223954Y-107655232D01*
X84406450Y-107557685D01*
X84566410Y-107426410D01*
X84697685Y-107266450D01*
X84795232Y-107083954D01*
X84825840Y-106983051D01*
X84864136Y-106924614D01*
X84927949Y-106896158D01*
X84997016Y-106906718D01*
X85049409Y-106952942D01*
X85068500Y-107019048D01*
X85068500Y-107530521D01*
X85048815Y-107597560D01*
X85032181Y-107618202D01*
X84407366Y-108243016D01*
X84346043Y-108276501D01*
X84276351Y-108271517D01*
X84261232Y-108264693D01*
X84223958Y-108244769D01*
X84124944Y-108214734D01*
X84025934Y-108184700D01*
X84025932Y-108184699D01*
X84025934Y-108184699D01*
X83820000Y-108164417D01*
X83614067Y-108184699D01*
X83416043Y-108244769D01*
X83309664Y-108301631D01*
X83233550Y-108342315D01*
X83233548Y-108342316D01*
X83233547Y-108342317D01*
X83073589Y-108473589D01*
X82942317Y-108633547D01*
X82844769Y-108816043D01*
X82784699Y-109014067D01*
X82764417Y-109220000D01*
X82784699Y-109425932D01*
X82784700Y-109425934D01*
X82844768Y-109623954D01*
X82942315Y-109806450D01*
X82942317Y-109806452D01*
X83073589Y-109966410D01*
X83106593Y-109993495D01*
X83233550Y-110097685D01*
X83416046Y-110195232D01*
X83614066Y-110255300D01*
X83614065Y-110255300D01*
X83632529Y-110257118D01*
X83820000Y-110275583D01*
X84025934Y-110255300D01*
X84223954Y-110195232D01*
X84406450Y-110097685D01*
X84566410Y-109966410D01*
X84697685Y-109806450D01*
X84795232Y-109623954D01*
X84855300Y-109425934D01*
X84875583Y-109220000D01*
X84855300Y-109014066D01*
X84795232Y-108816046D01*
X84775305Y-108778767D01*
X84761063Y-108710366D01*
X84786062Y-108645121D01*
X84796974Y-108632640D01*
X85206820Y-108222795D01*
X85268142Y-108189311D01*
X85337834Y-108194295D01*
X85393767Y-108236167D01*
X85418184Y-108301631D01*
X85418500Y-108310477D01*
X85418500Y-109720521D01*
X85398815Y-109787560D01*
X85382181Y-109808202D01*
X84407366Y-110783016D01*
X84346043Y-110816501D01*
X84276351Y-110811517D01*
X84261232Y-110804693D01*
X84223958Y-110784769D01*
X84124944Y-110754734D01*
X84025934Y-110724700D01*
X84025932Y-110724699D01*
X84025934Y-110724699D01*
X83820000Y-110704417D01*
X83614067Y-110724699D01*
X83416043Y-110784769D01*
X83347453Y-110821432D01*
X83233550Y-110882315D01*
X83233548Y-110882316D01*
X83233547Y-110882317D01*
X83073589Y-111013589D01*
X82943068Y-111172632D01*
X82942315Y-111173550D01*
X82910028Y-111233955D01*
X82844769Y-111356043D01*
X82784699Y-111554067D01*
X82764417Y-111760000D01*
X82784699Y-111965932D01*
X82784700Y-111965934D01*
X82844768Y-112163954D01*
X82942315Y-112346450D01*
X82967291Y-112376884D01*
X83073589Y-112506410D01*
X83144996Y-112565011D01*
X83233550Y-112637685D01*
X83416046Y-112735232D01*
X83614066Y-112795300D01*
X83614065Y-112795300D01*
X83632529Y-112797118D01*
X83820000Y-112815583D01*
X84025934Y-112795300D01*
X84223954Y-112735232D01*
X84406450Y-112637685D01*
X84566410Y-112506410D01*
X84697685Y-112346450D01*
X84795232Y-112163954D01*
X84855300Y-111965934D01*
X84875583Y-111760000D01*
X84855300Y-111554066D01*
X84795232Y-111356046D01*
X84775305Y-111318767D01*
X84761063Y-111250366D01*
X84786062Y-111185121D01*
X84796975Y-111172639D01*
X85860990Y-110108624D01*
X85879774Y-110093209D01*
X85892624Y-110084624D01*
X85918152Y-110046420D01*
X85953515Y-109993495D01*
X85964328Y-109939133D01*
X85974897Y-109886002D01*
X85974897Y-109885999D01*
X85971883Y-109870847D01*
X85969500Y-109846655D01*
X85969500Y-104450452D01*
X85989185Y-104383413D01*
X86005819Y-104362771D01*
X86140579Y-104228011D01*
X86306989Y-104061600D01*
X86325774Y-104046184D01*
X86338624Y-104037599D01*
X86399515Y-103946470D01*
X86415500Y-103866108D01*
X86415500Y-103866107D01*
X86420897Y-103838975D01*
X86417882Y-103823815D01*
X86415500Y-103799627D01*
X86415500Y-101425375D01*
X86435185Y-101358336D01*
X86451815Y-101337698D01*
X86656988Y-101132524D01*
X86675776Y-101117106D01*
X86688624Y-101108523D01*
X86704684Y-101084489D01*
X86749515Y-101017394D01*
X86756642Y-100981562D01*
X86770897Y-100909901D01*
X86770897Y-100909898D01*
X86767883Y-100894746D01*
X86765500Y-100870554D01*
X86765500Y-99030350D01*
X86785185Y-98963311D01*
X86801815Y-98942673D01*
X87068990Y-98675497D01*
X87087774Y-98660082D01*
X87100624Y-98651497D01*
X87126748Y-98612401D01*
X87142063Y-98589479D01*
X87161515Y-98560368D01*
X87161515Y-98560366D01*
X87161516Y-98560366D01*
X87172805Y-98503607D01*
X87177500Y-98480006D01*
X87177500Y-98480005D01*
X87182897Y-98452873D01*
X87179883Y-98437720D01*
X87177500Y-98413528D01*
X87177500Y-96573321D01*
X87197185Y-96506282D01*
X87213815Y-96485644D01*
X87898590Y-95800868D01*
X87917374Y-95785453D01*
X87930224Y-95776868D01*
X87941384Y-95760167D01*
X87950512Y-95746507D01*
X87962124Y-95729127D01*
X87991116Y-95685738D01*
X88012497Y-95578244D01*
X88009482Y-95563084D01*
X88007100Y-95538896D01*
X88007100Y-91364825D01*
X88026785Y-91297786D01*
X88079589Y-91252031D01*
X88131100Y-91240825D01*
X91737747Y-91240825D01*
X91804786Y-91260510D01*
X91825427Y-91277143D01*
X91913111Y-91364825D01*
X91933800Y-91385514D01*
X91973191Y-91415742D01*
X92085200Y-91456509D01*
X92085203Y-91456509D01*
X92204395Y-91456509D01*
X92204397Y-91456509D01*
X92316405Y-91415742D01*
X92355797Y-91385516D01*
X93260330Y-90480981D01*
X93290558Y-90441589D01*
X93290558Y-90441588D01*
X93296334Y-90434062D01*
X93298291Y-90435564D01*
X93338030Y-90395983D01*
X93406332Y-90381266D01*
X93471748Y-90405812D01*
X93500344Y-90436042D01*
X93506987Y-90445983D01*
X93527374Y-90476495D01*
X93531585Y-90479308D01*
X93540222Y-90485079D01*
X93559012Y-90500500D01*
X96417331Y-93358819D01*
X96450816Y-93420142D01*
X96445832Y-93489834D01*
X96403960Y-93545767D01*
X96338496Y-93570184D01*
X96329650Y-93570500D01*
X95857882Y-93570500D01*
X95776919Y-93583323D01*
X95764096Y-93585354D01*
X95651058Y-93642950D01*
X95651057Y-93642951D01*
X95651052Y-93642954D01*
X95561354Y-93732652D01*
X95561349Y-93732659D01*
X95512874Y-93827796D01*
X95464900Y-93878591D01*
X95402390Y-93895500D01*
X94275130Y-93895500D01*
X94208091Y-93875815D01*
X94164645Y-93827795D01*
X94121328Y-93742780D01*
X94121324Y-93742776D01*
X94121323Y-93742774D01*
X94026025Y-93647476D01*
X94026021Y-93647473D01*
X94026020Y-93647472D01*
X93905926Y-93586281D01*
X93905924Y-93586280D01*
X93905921Y-93586279D01*
X93806293Y-93570500D01*
X93806288Y-93570500D01*
X93239312Y-93570500D01*
X93239307Y-93570500D01*
X93139678Y-93586279D01*
X93139674Y-93586280D01*
X93139674Y-93586281D01*
X93128148Y-93592154D01*
X93019578Y-93647473D01*
X93019574Y-93647476D01*
X92924276Y-93742774D01*
X92924273Y-93742779D01*
X92924272Y-93742780D01*
X92868320Y-93852592D01*
X92858651Y-93871569D01*
X92856714Y-93870582D01*
X92824636Y-93917494D01*
X92760277Y-93944692D01*
X92746143Y-93945500D01*
X91570005Y-93945500D01*
X91502966Y-93925815D01*
X91457211Y-93873011D01*
X91447531Y-93840897D01*
X91445456Y-93827795D01*
X91440246Y-93794896D01*
X91382650Y-93681858D01*
X91382646Y-93681854D01*
X91382645Y-93681852D01*
X91292947Y-93592154D01*
X91292944Y-93592152D01*
X91292942Y-93592150D01*
X91201911Y-93545767D01*
X91179901Y-93534552D01*
X91086124Y-93519700D01*
X90473082Y-93519700D01*
X90392119Y-93532523D01*
X90379296Y-93534554D01*
X90266258Y-93592150D01*
X90266257Y-93592151D01*
X90266252Y-93592154D01*
X90176554Y-93681852D01*
X90176551Y-93681857D01*
X90176550Y-93681858D01*
X90165264Y-93704008D01*
X90118952Y-93794898D01*
X90104100Y-93888675D01*
X90104100Y-94354720D01*
X90084415Y-94421759D01*
X90067781Y-94442401D01*
X88788010Y-95722172D01*
X88769222Y-95737591D01*
X88756376Y-95746174D01*
X88747601Y-95759306D01*
X88741007Y-95769176D01*
X88741006Y-95769178D01*
X88735868Y-95776868D01*
X88730595Y-95784759D01*
X88695485Y-95837303D01*
X88686111Y-95884433D01*
X88674103Y-95944799D01*
X88677117Y-95959951D01*
X88679500Y-95984144D01*
X88679500Y-103486655D01*
X88677117Y-103510847D01*
X88674103Y-103525999D01*
X88674103Y-103526000D01*
X88678640Y-103548807D01*
X88678647Y-103548849D01*
X88695483Y-103633490D01*
X88695484Y-103633493D01*
X88695484Y-103633494D01*
X88695485Y-103633495D01*
X88718852Y-103668466D01*
X88735913Y-103694000D01*
X88756376Y-103724624D01*
X88769222Y-103733207D01*
X88788012Y-103748628D01*
X88993181Y-103953797D01*
X89026666Y-104015120D01*
X89029500Y-104041478D01*
X89029500Y-105245752D01*
X89041131Y-105304229D01*
X89041132Y-105304230D01*
X89085447Y-105370552D01*
X89151769Y-105414867D01*
X89151770Y-105414868D01*
X89210247Y-105426499D01*
X89210250Y-105426500D01*
X89210252Y-105426500D01*
X90799750Y-105426500D01*
X90799751Y-105426499D01*
X90814568Y-105423552D01*
X90858229Y-105414868D01*
X90858229Y-105414867D01*
X90858231Y-105414867D01*
X90924552Y-105370552D01*
X90968867Y-105304231D01*
X90968867Y-105304229D01*
X90968868Y-105304229D01*
X90980499Y-105245752D01*
X90980500Y-105245750D01*
X90980500Y-104975500D01*
X91000185Y-104908461D01*
X91052989Y-104862706D01*
X91104500Y-104851500D01*
X96855500Y-104851500D01*
X96922539Y-104871185D01*
X96968294Y-104923989D01*
X96979500Y-104975500D01*
X96979500Y-105245752D01*
X96991131Y-105304229D01*
X96991132Y-105304230D01*
X97035447Y-105370552D01*
X97101769Y-105414867D01*
X97101770Y-105414868D01*
X97160247Y-105426499D01*
X97160250Y-105426500D01*
X98660500Y-105426500D01*
X98727539Y-105446185D01*
X98773294Y-105498989D01*
X98784500Y-105550500D01*
X98784500Y-106493500D01*
X98764815Y-106560539D01*
X98712011Y-106606294D01*
X98660500Y-106617500D01*
X98540247Y-106617500D01*
X98481770Y-106629131D01*
X98481769Y-106629132D01*
X98415447Y-106673447D01*
X98371132Y-106739769D01*
X98371131Y-106739770D01*
X98359500Y-106798247D01*
X98359500Y-109347752D01*
X98371131Y-109406229D01*
X98371132Y-109406230D01*
X98415447Y-109472552D01*
X98481769Y-109516867D01*
X98481770Y-109516868D01*
X98540247Y-109528499D01*
X98540250Y-109528500D01*
X98540252Y-109528500D01*
X99579750Y-109528500D01*
X99579751Y-109528499D01*
X99594568Y-109525552D01*
X99638229Y-109516868D01*
X99638229Y-109516867D01*
X99638231Y-109516867D01*
X99704552Y-109472552D01*
X99748867Y-109406231D01*
X99748867Y-109406229D01*
X99748868Y-109406229D01*
X99760499Y-109347752D01*
X99760500Y-109347750D01*
X99760500Y-106798249D01*
X99760499Y-106798247D01*
X99748868Y-106739770D01*
X99748867Y-106739769D01*
X99704552Y-106673447D01*
X99638230Y-106629132D01*
X99638229Y-106629131D01*
X99579752Y-106617500D01*
X99579748Y-106617500D01*
X99459500Y-106617500D01*
X99392461Y-106597815D01*
X99346706Y-106545011D01*
X99335500Y-106493500D01*
X99335500Y-103906429D01*
X99337883Y-103882236D01*
X99338232Y-103880485D01*
X99340896Y-103867090D01*
X99340700Y-103866107D01*
X99336689Y-103845939D01*
X99336687Y-103845923D01*
X99319516Y-103759596D01*
X99319515Y-103759594D01*
X99295692Y-103723942D01*
X99271685Y-103688012D01*
X99271680Y-103688006D01*
X99258624Y-103668466D01*
X99258621Y-103668463D01*
X99245775Y-103659880D01*
X99226985Y-103644459D01*
X99066537Y-103484011D01*
X99051115Y-103465219D01*
X99042534Y-103452376D01*
X99042529Y-103452372D01*
X99019534Y-103437007D01*
X98983758Y-103413103D01*
X98951405Y-103391484D01*
X98951403Y-103391483D01*
X98866759Y-103374647D01*
X98866726Y-103374641D01*
X98852764Y-103371864D01*
X98843911Y-103370103D01*
X98843910Y-103370103D01*
X98828756Y-103373117D01*
X98804566Y-103375500D01*
X94291478Y-103375500D01*
X94224439Y-103355815D01*
X94203797Y-103339181D01*
X92005819Y-101141203D01*
X91972334Y-101079880D01*
X91969500Y-101053522D01*
X91969500Y-100326000D01*
X96680000Y-100326000D01*
X96680000Y-100773844D01*
X96686401Y-100833372D01*
X96686403Y-100833379D01*
X96736645Y-100968086D01*
X96736649Y-100968093D01*
X96822809Y-101083187D01*
X96822812Y-101083190D01*
X96937906Y-101169350D01*
X96937913Y-101169354D01*
X97072620Y-101219596D01*
X97072627Y-101219598D01*
X97132155Y-101225999D01*
X97132172Y-101226000D01*
X97705000Y-101226000D01*
X97705000Y-100326000D01*
X98205000Y-100326000D01*
X98205000Y-101226000D01*
X98777828Y-101226000D01*
X98777844Y-101225999D01*
X98837372Y-101219598D01*
X98837379Y-101219596D01*
X98972086Y-101169354D01*
X98972093Y-101169350D01*
X99087187Y-101083190D01*
X99087190Y-101083187D01*
X99173350Y-100968093D01*
X99173354Y-100968086D01*
X99223596Y-100833379D01*
X99223598Y-100833372D01*
X99229999Y-100773844D01*
X99230000Y-100773827D01*
X99230000Y-100326000D01*
X98205000Y-100326000D01*
X97705000Y-100326000D01*
X96680000Y-100326000D01*
X91969500Y-100326000D01*
X91969500Y-99765820D01*
X91989185Y-99698781D01*
X92041989Y-99653026D01*
X92082693Y-99642292D01*
X92091144Y-99641552D01*
X92111910Y-99639735D01*
X92117312Y-99639500D01*
X96503078Y-99639500D01*
X96508481Y-99639735D01*
X96524959Y-99641177D01*
X96559616Y-99644210D01*
X96559420Y-99646441D01*
X96613682Y-99657341D01*
X96663870Y-99705952D01*
X96680000Y-99767108D01*
X96680000Y-99826000D01*
X97705000Y-99826000D01*
X97705000Y-98926000D01*
X98205000Y-98926000D01*
X98205000Y-99826000D01*
X99230000Y-99826000D01*
X99230000Y-99378172D01*
X99229999Y-99378155D01*
X99223598Y-99318627D01*
X99223596Y-99318620D01*
X99173354Y-99183913D01*
X99173350Y-99183906D01*
X99087190Y-99068812D01*
X99087187Y-99068809D01*
X98972093Y-98982649D01*
X98972086Y-98982645D01*
X98837379Y-98932403D01*
X98837372Y-98932401D01*
X98777844Y-98926000D01*
X98205000Y-98926000D01*
X97705000Y-98926000D01*
X97667687Y-98926000D01*
X97600648Y-98906315D01*
X97554893Y-98853511D01*
X97544949Y-98784353D01*
X97573974Y-98720797D01*
X97580006Y-98714319D01*
X98009351Y-98284974D01*
X99278210Y-97016115D01*
X99282172Y-97012484D01*
X99313194Y-96986455D01*
X99333444Y-96951378D01*
X99336333Y-96946845D01*
X99359553Y-96913684D01*
X99359555Y-96913676D01*
X99361816Y-96908828D01*
X99368754Y-96892079D01*
X99370583Y-96887052D01*
X99370588Y-96887045D01*
X99377622Y-96847147D01*
X99378779Y-96841929D01*
X99389263Y-96802807D01*
X99385735Y-96762489D01*
X99385500Y-96757086D01*
X99385500Y-94454120D01*
X99385736Y-94448713D01*
X99388095Y-94421759D01*
X99389264Y-94408393D01*
X99378782Y-94369276D01*
X99377616Y-94364018D01*
X99370588Y-94324155D01*
X99370586Y-94324152D01*
X99370586Y-94324150D01*
X99368760Y-94319133D01*
X99361820Y-94302376D01*
X99359554Y-94297519D01*
X99359554Y-94297516D01*
X99336339Y-94264362D01*
X99333433Y-94259799D01*
X99313196Y-94224748D01*
X99313195Y-94224747D01*
X99313194Y-94224745D01*
X99282177Y-94198718D01*
X99278193Y-94195067D01*
X98659819Y-93576693D01*
X98626334Y-93515370D01*
X98623500Y-93489012D01*
X98623500Y-92625309D01*
X98623736Y-92619902D01*
X98625838Y-92595884D01*
X98627263Y-92579593D01*
X98627262Y-92579592D01*
X98627263Y-92579591D01*
X98616786Y-92540492D01*
X98615617Y-92535224D01*
X98608588Y-92495355D01*
X98608587Y-92495354D01*
X98608587Y-92495351D01*
X98606765Y-92490347D01*
X98599815Y-92473568D01*
X98597554Y-92468719D01*
X98597553Y-92468718D01*
X98597553Y-92468716D01*
X98574333Y-92435554D01*
X98571435Y-92431004D01*
X98562328Y-92415230D01*
X98551194Y-92395945D01*
X98551191Y-92395942D01*
X98551190Y-92395941D01*
X98533458Y-92381063D01*
X98520188Y-92369928D01*
X98516205Y-92366278D01*
X98422011Y-92272083D01*
X98388526Y-92210760D01*
X98386753Y-92168217D01*
X98395682Y-92100400D01*
X98385946Y-92026451D01*
X98375044Y-91943639D01*
X98375044Y-91943638D01*
X98314536Y-91797559D01*
X98218282Y-91672118D01*
X98092841Y-91575864D01*
X97946762Y-91515356D01*
X97946760Y-91515355D01*
X97790001Y-91494718D01*
X97789999Y-91494718D01*
X97633239Y-91515355D01*
X97633237Y-91515356D01*
X97487160Y-91575863D01*
X97361718Y-91672118D01*
X97265463Y-91797560D01*
X97204956Y-91943637D01*
X97204955Y-91943639D01*
X97184318Y-92100398D01*
X97184318Y-92100401D01*
X97204955Y-92257160D01*
X97204956Y-92257162D01*
X97262177Y-92395307D01*
X97265464Y-92403241D01*
X97361718Y-92528682D01*
X97487159Y-92624936D01*
X97633238Y-92685444D01*
X97661548Y-92689171D01*
X97789999Y-92706082D01*
X97790000Y-92706082D01*
X97790001Y-92706082D01*
X97832314Y-92700511D01*
X97901349Y-92711276D01*
X97953605Y-92757656D01*
X97972500Y-92823450D01*
X97972500Y-93658278D01*
X97972264Y-93663685D01*
X97968735Y-93704008D01*
X97979212Y-93743110D01*
X97980383Y-93748390D01*
X97987411Y-93788243D01*
X97989235Y-93793255D01*
X97996197Y-93810061D01*
X97998445Y-93814881D01*
X97998446Y-93814884D01*
X98007487Y-93827796D01*
X98021655Y-93848031D01*
X98024561Y-93852592D01*
X98044806Y-93887655D01*
X98075815Y-93913675D01*
X98079805Y-93917331D01*
X98698181Y-94535707D01*
X98731666Y-94597030D01*
X98734500Y-94623388D01*
X98734500Y-96587811D01*
X98714815Y-96654850D01*
X98698181Y-96675492D01*
X96421493Y-98952181D01*
X96360170Y-98985666D01*
X96333812Y-98988500D01*
X92286589Y-98988500D01*
X92219550Y-98968815D01*
X92198908Y-98952181D01*
X92055819Y-98809092D01*
X92022334Y-98747769D01*
X92019500Y-98721411D01*
X92019500Y-97062527D01*
X92019500Y-97062525D01*
X92004588Y-96977955D01*
X91989255Y-96951398D01*
X91947196Y-96878548D01*
X91947191Y-96878542D01*
X91859261Y-96804759D01*
X91787791Y-96778746D01*
X91742522Y-96749906D01*
X91379585Y-96386969D01*
X91346100Y-96325646D01*
X91351084Y-96255954D01*
X91379587Y-96211604D01*
X91382650Y-96208542D01*
X91440246Y-96095504D01*
X91440246Y-96095502D01*
X91440247Y-96095501D01*
X91452046Y-96021000D01*
X92547801Y-96021000D01*
X92547801Y-96044322D01*
X92557944Y-96143607D01*
X92611252Y-96304481D01*
X92611257Y-96304492D01*
X92700224Y-96448728D01*
X92700227Y-96448732D01*
X92820067Y-96568572D01*
X92820071Y-96568575D01*
X92964307Y-96657542D01*
X92964318Y-96657547D01*
X93125193Y-96710855D01*
X93224483Y-96720999D01*
X93272799Y-96720998D01*
X93272800Y-96720998D01*
X93272800Y-96021000D01*
X93772800Y-96021000D01*
X93772800Y-96720999D01*
X93821108Y-96720999D01*
X93821122Y-96720998D01*
X93920407Y-96710855D01*
X94081281Y-96657547D01*
X94081292Y-96657542D01*
X94225528Y-96568575D01*
X94225532Y-96568572D01*
X94345372Y-96448732D01*
X94345375Y-96448728D01*
X94434342Y-96304492D01*
X94434347Y-96304481D01*
X94487655Y-96143606D01*
X94497799Y-96044322D01*
X94497800Y-96044309D01*
X94497800Y-96021000D01*
X93772800Y-96021000D01*
X93272800Y-96021000D01*
X92547801Y-96021000D01*
X91452046Y-96021000D01*
X91455099Y-96001724D01*
X91455100Y-96001719D01*
X91455099Y-95538682D01*
X91440246Y-95444896D01*
X91382650Y-95331858D01*
X91382646Y-95331854D01*
X91382645Y-95331852D01*
X91292947Y-95242154D01*
X91292944Y-95242152D01*
X91292942Y-95242150D01*
X91216117Y-95203005D01*
X91179901Y-95184552D01*
X91086124Y-95169700D01*
X90473079Y-95169700D01*
X90430144Y-95176500D01*
X90360851Y-95167543D01*
X90307401Y-95122545D01*
X90286763Y-95055793D01*
X90305490Y-94988480D01*
X90323064Y-94966350D01*
X90532397Y-94757017D01*
X90593720Y-94723533D01*
X90620078Y-94720699D01*
X91086117Y-94720699D01*
X91086118Y-94720699D01*
X91179904Y-94705846D01*
X91292942Y-94648250D01*
X91382650Y-94558542D01*
X91382653Y-94558535D01*
X91388383Y-94550650D01*
X91390863Y-94552452D01*
X91427742Y-94513407D01*
X91490249Y-94496500D01*
X92746143Y-94496500D01*
X92813182Y-94516185D01*
X92858937Y-94568989D01*
X92862245Y-94577486D01*
X92876224Y-94604921D01*
X92924272Y-94699220D01*
X92924274Y-94699222D01*
X92924276Y-94699225D01*
X92943224Y-94718173D01*
X92976709Y-94779496D01*
X92971725Y-94849188D01*
X92929853Y-94905121D01*
X92920641Y-94911392D01*
X92820068Y-94973426D01*
X92700227Y-95093267D01*
X92700224Y-95093271D01*
X92611257Y-95237507D01*
X92611252Y-95237518D01*
X92557944Y-95398393D01*
X92547800Y-95497677D01*
X92547800Y-95521000D01*
X94497799Y-95521000D01*
X94497799Y-95497692D01*
X94497798Y-95497677D01*
X94487655Y-95398392D01*
X94434347Y-95237518D01*
X94434342Y-95237507D01*
X94345375Y-95093271D01*
X94345372Y-95093267D01*
X94225532Y-94973427D01*
X94225528Y-94973424D01*
X94124959Y-94911392D01*
X94078234Y-94859444D01*
X94067013Y-94790482D01*
X94094856Y-94726400D01*
X94102365Y-94718182D01*
X94121328Y-94699220D01*
X94182519Y-94579126D01*
X94184382Y-94567366D01*
X94186958Y-94551103D01*
X94216887Y-94487968D01*
X94276198Y-94451036D01*
X94309431Y-94446500D01*
X95402390Y-94446500D01*
X95469429Y-94466185D01*
X95512874Y-94514204D01*
X95561349Y-94609340D01*
X95561354Y-94609347D01*
X95651052Y-94699045D01*
X95651054Y-94699046D01*
X95651058Y-94699050D01*
X95764096Y-94756646D01*
X95764098Y-94756647D01*
X95857875Y-94771499D01*
X95857881Y-94771500D01*
X96470918Y-94771499D01*
X96470922Y-94771499D01*
X96495502Y-94767606D01*
X96564796Y-94776561D01*
X96618248Y-94821557D01*
X96638887Y-94888308D01*
X96638900Y-94890079D01*
X96638900Y-94905521D01*
X96619215Y-94972560D01*
X96602581Y-94993202D01*
X96411602Y-95184181D01*
X96350279Y-95217666D01*
X96323921Y-95220500D01*
X95857882Y-95220500D01*
X95776919Y-95233323D01*
X95764096Y-95235354D01*
X95651058Y-95292950D01*
X95651057Y-95292951D01*
X95651052Y-95292954D01*
X95561354Y-95382652D01*
X95561351Y-95382657D01*
X95561350Y-95382658D01*
X95542262Y-95420120D01*
X95503752Y-95495698D01*
X95488900Y-95589475D01*
X95488900Y-96052517D01*
X95498962Y-96116046D01*
X95503754Y-96146304D01*
X95561350Y-96259342D01*
X95561352Y-96259344D01*
X95561354Y-96259347D01*
X95651052Y-96349045D01*
X95651054Y-96349046D01*
X95651058Y-96349050D01*
X95764096Y-96406646D01*
X95784297Y-96409845D01*
X95847432Y-96439774D01*
X95884363Y-96499085D01*
X95888900Y-96532319D01*
X95888900Y-96683855D01*
X95886517Y-96708047D01*
X95883503Y-96723199D01*
X95883503Y-96723200D01*
X95888040Y-96746007D01*
X95888047Y-96746049D01*
X95904883Y-96830690D01*
X95904884Y-96830693D01*
X95904885Y-96830695D01*
X95929340Y-96867294D01*
X95965773Y-96921821D01*
X95965776Y-96921824D01*
X95978621Y-96930406D01*
X95997411Y-96945827D01*
X96334012Y-97282428D01*
X96367497Y-97343751D01*
X96368606Y-97374733D01*
X96369667Y-97374733D01*
X96369667Y-97383599D01*
X96388102Y-97511825D01*
X96417220Y-97575583D01*
X96441918Y-97629663D01*
X96526751Y-97727567D01*
X96635731Y-97797604D01*
X96754068Y-97832350D01*
X96760025Y-97834099D01*
X96760027Y-97834100D01*
X96760028Y-97834100D01*
X96889573Y-97834100D01*
X96889573Y-97834099D01*
X97013869Y-97797604D01*
X97122849Y-97727567D01*
X97207682Y-97629663D01*
X97261497Y-97511826D01*
X97279933Y-97383600D01*
X97261497Y-97255374D01*
X97207682Y-97137537D01*
X97122849Y-97039633D01*
X97013869Y-96969596D01*
X97013865Y-96969594D01*
X97013864Y-96969594D01*
X96889574Y-96933100D01*
X96889572Y-96933100D01*
X96815278Y-96933100D01*
X96748239Y-96913415D01*
X96727597Y-96896781D01*
X96476219Y-96645403D01*
X96442734Y-96584080D01*
X96439900Y-96557722D01*
X96439900Y-96532318D01*
X96459585Y-96465279D01*
X96512389Y-96419524D01*
X96544502Y-96409845D01*
X96564704Y-96406646D01*
X96677742Y-96349050D01*
X96767450Y-96259342D01*
X96825046Y-96146304D01*
X96825046Y-96146302D01*
X96825047Y-96146301D01*
X96835743Y-96078764D01*
X96839900Y-96052519D01*
X96839899Y-95589482D01*
X96839899Y-95589481D01*
X96839899Y-95586477D01*
X96859583Y-95519438D01*
X96876213Y-95498801D01*
X97081389Y-95293625D01*
X97100174Y-95278209D01*
X97113024Y-95269624D01*
X97173915Y-95178495D01*
X97189900Y-95098133D01*
X97189900Y-95098132D01*
X97195297Y-95071000D01*
X97192283Y-95055847D01*
X97189900Y-95031655D01*
X97189900Y-93505616D01*
X97192283Y-93481423D01*
X97192404Y-93480815D01*
X97195297Y-93466272D01*
X97173916Y-93358778D01*
X97151631Y-93325427D01*
X97126683Y-93288089D01*
X97126666Y-93288065D01*
X97113024Y-93267648D01*
X97113022Y-93267646D01*
X97113021Y-93267645D01*
X97100175Y-93259062D01*
X97081385Y-93243641D01*
X95379811Y-91542067D01*
X95346326Y-91480744D01*
X95351310Y-91411052D01*
X95379811Y-91366705D01*
X95469372Y-91277144D01*
X95530695Y-91243659D01*
X95557053Y-91240825D01*
X95847205Y-91240825D01*
X95871395Y-91243207D01*
X95886549Y-91246222D01*
X95913681Y-91240825D01*
X95913682Y-91240825D01*
X95994044Y-91224840D01*
X95994048Y-91224837D01*
X96005324Y-91220167D01*
X96006435Y-91222850D01*
X96055402Y-91207520D01*
X96057610Y-91207500D01*
X99402522Y-91207500D01*
X99469561Y-91227185D01*
X99490203Y-91243819D01*
X99826181Y-91579797D01*
X99859666Y-91641120D01*
X99862500Y-91667478D01*
X99862500Y-93468603D01*
X99860117Y-93492795D01*
X99857103Y-93507947D01*
X99857103Y-93507948D01*
X99861640Y-93530755D01*
X99861647Y-93530797D01*
X99878483Y-93615441D01*
X99878484Y-93615442D01*
X99889245Y-93631546D01*
X99921798Y-93680266D01*
X99939374Y-93706571D01*
X99943585Y-93709384D01*
X99952222Y-93715155D01*
X99971012Y-93730576D01*
X100396181Y-94155745D01*
X100429666Y-94217068D01*
X100432500Y-94243426D01*
X100432500Y-96104603D01*
X100430117Y-96128795D01*
X100427103Y-96143947D01*
X100427103Y-96143948D01*
X100431640Y-96166755D01*
X100431647Y-96166797D01*
X100448483Y-96251441D01*
X100458212Y-96266000D01*
X100491500Y-96315820D01*
X100509374Y-96342571D01*
X100513585Y-96345384D01*
X100522222Y-96351155D01*
X100541012Y-96366576D01*
X100808181Y-96633745D01*
X100841666Y-96695068D01*
X100844500Y-96721426D01*
X100844500Y-98452603D01*
X100842117Y-98476795D01*
X100839103Y-98491947D01*
X100839103Y-98491948D01*
X100843640Y-98514755D01*
X100843647Y-98514797D01*
X100860483Y-98599440D01*
X100860484Y-98599441D01*
X100860484Y-98599442D01*
X100860485Y-98599443D01*
X100879480Y-98627871D01*
X100905123Y-98666249D01*
X100921376Y-98690572D01*
X100934222Y-98699155D01*
X100953012Y-98714576D01*
X101158181Y-98919745D01*
X101191666Y-98981068D01*
X101194500Y-99007426D01*
X101194500Y-99012412D01*
X101174815Y-99079451D01*
X101122011Y-99125206D01*
X101052853Y-99135150D01*
X100989297Y-99106125D01*
X100982819Y-99100093D01*
X100762626Y-98879900D01*
X100753061Y-98862383D01*
X100740219Y-98856794D01*
X100732050Y-98849324D01*
X100254643Y-98371917D01*
X100221158Y-98310594D01*
X100219588Y-98301895D01*
X100207897Y-98220574D01*
X100154082Y-98102737D01*
X100069249Y-98004833D01*
X99960269Y-97934796D01*
X99960265Y-97934794D01*
X99960264Y-97934794D01*
X99835974Y-97898300D01*
X99835972Y-97898300D01*
X99706428Y-97898300D01*
X99706426Y-97898300D01*
X99582135Y-97934794D01*
X99582132Y-97934795D01*
X99582131Y-97934796D01*
X99530877Y-97967734D01*
X99473150Y-98004833D01*
X99388318Y-98102737D01*
X99388317Y-98102738D01*
X99334502Y-98220574D01*
X99316067Y-98348800D01*
X99334502Y-98477025D01*
X99372564Y-98560367D01*
X99388318Y-98594863D01*
X99473151Y-98692767D01*
X99582131Y-98762804D01*
X99655522Y-98784353D01*
X99706425Y-98799299D01*
X99706427Y-98799300D01*
X99706428Y-98799300D01*
X99710012Y-98799300D01*
X99713451Y-98800309D01*
X99715205Y-98800562D01*
X99715168Y-98800814D01*
X99777051Y-98818985D01*
X99797693Y-98835619D01*
X100708181Y-99746107D01*
X100741666Y-99807430D01*
X100744500Y-99833788D01*
X100744500Y-103103685D01*
X100744264Y-103109092D01*
X100740735Y-103149415D01*
X100751212Y-103188517D01*
X100752383Y-103193797D01*
X100759411Y-103233650D01*
X100761235Y-103238662D01*
X100768197Y-103255468D01*
X100770445Y-103260288D01*
X100770446Y-103260291D01*
X100771865Y-103262317D01*
X100793655Y-103293438D01*
X100796561Y-103297999D01*
X100816806Y-103333062D01*
X100847815Y-103359082D01*
X100851805Y-103362738D01*
X101288981Y-103799914D01*
X101322466Y-103861237D01*
X101325300Y-103887595D01*
X101325300Y-110049812D01*
X101305615Y-110116851D01*
X101288981Y-110137493D01*
X100405293Y-111021181D01*
X100343970Y-111054666D01*
X100317612Y-111057500D01*
X97344500Y-111057500D01*
X97277461Y-111037815D01*
X97231706Y-110985011D01*
X97220500Y-110933500D01*
X97220500Y-110108249D01*
X97220499Y-110108247D01*
X97208868Y-110049770D01*
X97208867Y-110049769D01*
X97164552Y-109983447D01*
X97098230Y-109939132D01*
X97098229Y-109939131D01*
X97039752Y-109927500D01*
X97039748Y-109927500D01*
X96000252Y-109927500D01*
X96000247Y-109927500D01*
X95941770Y-109939131D01*
X95941769Y-109939132D01*
X95875447Y-109983447D01*
X95831132Y-110049769D01*
X95831131Y-110049770D01*
X95819500Y-110108247D01*
X95819500Y-112513500D01*
X95799815Y-112580539D01*
X95747011Y-112626294D01*
X95695500Y-112637500D01*
X93135478Y-112637500D01*
X93068439Y-112617815D01*
X93047797Y-112601181D01*
X92176819Y-111730203D01*
X92143334Y-111668880D01*
X92140500Y-111642522D01*
X92140500Y-110108249D01*
X92140499Y-110108247D01*
X92128868Y-110049770D01*
X92128867Y-110049769D01*
X92084552Y-109983447D01*
X92018230Y-109939132D01*
X92018229Y-109939131D01*
X91959752Y-109927500D01*
X91959748Y-109927500D01*
X90920252Y-109927500D01*
X90920247Y-109927500D01*
X90861770Y-109939131D01*
X90861769Y-109939132D01*
X90795447Y-109983447D01*
X90751132Y-110049769D01*
X90751131Y-110049770D01*
X90739500Y-110108247D01*
X90739500Y-112137432D01*
X90719815Y-112204471D01*
X90667011Y-112250226D01*
X90597853Y-112260170D01*
X90534297Y-112231145D01*
X90527819Y-112225113D01*
X89211819Y-110909113D01*
X89178334Y-110847790D01*
X89175500Y-110821432D01*
X89175500Y-109652500D01*
X89195185Y-109585461D01*
X89247989Y-109539706D01*
X89299500Y-109528500D01*
X89419750Y-109528500D01*
X89419751Y-109528499D01*
X89434568Y-109525552D01*
X89478229Y-109516868D01*
X89478229Y-109516867D01*
X89478231Y-109516867D01*
X89544552Y-109472552D01*
X89588867Y-109406231D01*
X89588867Y-109406229D01*
X89588868Y-109406229D01*
X89600499Y-109347752D01*
X89600500Y-109347750D01*
X89600500Y-108323000D01*
X92980000Y-108323000D01*
X92980000Y-109375844D01*
X92986401Y-109435372D01*
X92986403Y-109435379D01*
X93036645Y-109570086D01*
X93036649Y-109570093D01*
X93122809Y-109685187D01*
X93122812Y-109685190D01*
X93237906Y-109771350D01*
X93237913Y-109771354D01*
X93372620Y-109821596D01*
X93372627Y-109821598D01*
X93432155Y-109827999D01*
X93432172Y-109828000D01*
X93730000Y-109828000D01*
X93730000Y-108323000D01*
X94230000Y-108323000D01*
X94230000Y-109828000D01*
X94527828Y-109828000D01*
X94527844Y-109827999D01*
X94587372Y-109821598D01*
X94587379Y-109821596D01*
X94722086Y-109771354D01*
X94722093Y-109771350D01*
X94837187Y-109685190D01*
X94837190Y-109685187D01*
X94923350Y-109570093D01*
X94923354Y-109570086D01*
X94973596Y-109435379D01*
X94973598Y-109435372D01*
X94979999Y-109375844D01*
X94980000Y-109375827D01*
X94980000Y-108323000D01*
X94230000Y-108323000D01*
X93730000Y-108323000D01*
X92980000Y-108323000D01*
X89600500Y-108323000D01*
X89600500Y-107823000D01*
X92980000Y-107823000D01*
X93730000Y-107823000D01*
X93730000Y-106318000D01*
X94230000Y-106318000D01*
X94230000Y-107823000D01*
X94980000Y-107823000D01*
X94980000Y-106770172D01*
X94979999Y-106770155D01*
X94973598Y-106710627D01*
X94973596Y-106710620D01*
X94923354Y-106575913D01*
X94923350Y-106575906D01*
X94837190Y-106460812D01*
X94837187Y-106460809D01*
X94722093Y-106374649D01*
X94722086Y-106374645D01*
X94587379Y-106324403D01*
X94587372Y-106324401D01*
X94527844Y-106318000D01*
X94230000Y-106318000D01*
X93730000Y-106318000D01*
X93432155Y-106318000D01*
X93372627Y-106324401D01*
X93372620Y-106324403D01*
X93237913Y-106374645D01*
X93237906Y-106374649D01*
X93122812Y-106460809D01*
X93122809Y-106460812D01*
X93036649Y-106575906D01*
X93036645Y-106575913D01*
X92986403Y-106710620D01*
X92986401Y-106710627D01*
X92980000Y-106770155D01*
X92980000Y-107823000D01*
X89600500Y-107823000D01*
X89600500Y-106798249D01*
X89600499Y-106798247D01*
X89588868Y-106739770D01*
X89588867Y-106739769D01*
X89544552Y-106673447D01*
X89478230Y-106629132D01*
X89478229Y-106629131D01*
X89419752Y-106617500D01*
X89419748Y-106617500D01*
X88380252Y-106617500D01*
X88380247Y-106617500D01*
X88321770Y-106629131D01*
X88321769Y-106629132D01*
X88255447Y-106673447D01*
X88211132Y-106739769D01*
X88211131Y-106739770D01*
X88199500Y-106798247D01*
X88199500Y-109347752D01*
X88211131Y-109406229D01*
X88211132Y-109406230D01*
X88255447Y-109472552D01*
X88321769Y-109516867D01*
X88321770Y-109516868D01*
X88380247Y-109528499D01*
X88380250Y-109528500D01*
X88380252Y-109528500D01*
X88500500Y-109528500D01*
X88567539Y-109548185D01*
X88613294Y-109600989D01*
X88624500Y-109652500D01*
X88624500Y-110947565D01*
X88622117Y-110971757D01*
X88619103Y-110986909D01*
X88619103Y-110986910D01*
X88623640Y-111009717D01*
X88623647Y-111009759D01*
X88640483Y-111094400D01*
X88640484Y-111094403D01*
X88640485Y-111094405D01*
X88657520Y-111119899D01*
X88701373Y-111185531D01*
X88701376Y-111185534D01*
X88714221Y-111194116D01*
X88733011Y-111209537D01*
X90953459Y-113429985D01*
X90968880Y-113448775D01*
X90977463Y-113461621D01*
X90977464Y-113461622D01*
X90977466Y-113461624D01*
X91000466Y-113476992D01*
X91000468Y-113476994D01*
X91022024Y-113491397D01*
X91066830Y-113545009D01*
X91075537Y-113614334D01*
X91045383Y-113677362D01*
X90985940Y-113714082D01*
X90953134Y-113718500D01*
X82128500Y-113718500D01*
X82061461Y-113698815D01*
X82015706Y-113646011D01*
X82004500Y-113594500D01*
X82004500Y-56712500D01*
X82024185Y-56645461D01*
X82076989Y-56599706D01*
X82128500Y-56588500D01*
X105831500Y-56588500D01*
X105898539Y-56608185D01*
G37*
%TD.AperFunction*%
%TA.AperFunction,Conductor*%
G36*
X90031758Y-95360169D02*
G01*
X90087692Y-95402040D01*
X90112109Y-95467505D01*
X90110899Y-95495747D01*
X90104100Y-95538679D01*
X90104100Y-96001717D01*
X90113909Y-96063647D01*
X90118954Y-96095504D01*
X90176550Y-96208542D01*
X90176552Y-96208544D01*
X90176554Y-96208547D01*
X90266252Y-96298245D01*
X90266254Y-96298246D01*
X90266258Y-96298250D01*
X90370084Y-96351152D01*
X90379298Y-96355847D01*
X90473075Y-96370699D01*
X90473081Y-96370700D01*
X90532720Y-96370699D01*
X90599759Y-96390383D01*
X90620402Y-96407018D01*
X91332181Y-97118797D01*
X91365666Y-97180120D01*
X91368500Y-97206478D01*
X91368500Y-98890678D01*
X91368264Y-98896085D01*
X91364735Y-98936408D01*
X91375212Y-98975509D01*
X91376382Y-98980787D01*
X91380067Y-99001674D01*
X91372327Y-99071114D01*
X91328274Y-99125346D01*
X91261895Y-99147152D01*
X91194263Y-99129609D01*
X91158686Y-99097527D01*
X91137187Y-99068809D01*
X91022093Y-98982649D01*
X91022086Y-98982645D01*
X90887379Y-98932403D01*
X90887372Y-98932401D01*
X90827844Y-98926000D01*
X90255000Y-98926000D01*
X90255000Y-101226000D01*
X90827828Y-101226000D01*
X90827844Y-101225999D01*
X90887372Y-101219598D01*
X90887379Y-101219596D01*
X91022086Y-101169354D01*
X91022093Y-101169350D01*
X91137187Y-101083190D01*
X91137190Y-101083187D01*
X91195234Y-101005652D01*
X91251168Y-100963781D01*
X91320859Y-100958797D01*
X91382182Y-100992283D01*
X91415666Y-101053606D01*
X91418500Y-101079963D01*
X91418500Y-101179655D01*
X91416116Y-101203847D01*
X91413103Y-101219000D01*
X91416724Y-101237206D01*
X91417640Y-101241807D01*
X91417647Y-101241849D01*
X91434483Y-101326490D01*
X91434484Y-101326493D01*
X91434484Y-101326494D01*
X91434485Y-101326495D01*
X91461811Y-101367391D01*
X91479634Y-101394066D01*
X91495376Y-101417624D01*
X91508222Y-101426207D01*
X91527011Y-101441627D01*
X93903370Y-103817986D01*
X93918791Y-103836776D01*
X93927375Y-103849624D01*
X93935374Y-103854968D01*
X93950376Y-103864992D01*
X93950378Y-103864994D01*
X93973562Y-103880485D01*
X94012121Y-103906249D01*
X94018504Y-103910514D01*
X94018507Y-103910516D01*
X94104833Y-103927687D01*
X94104849Y-103927689D01*
X94125999Y-103931896D01*
X94126000Y-103931896D01*
X94126001Y-103931896D01*
X94141155Y-103928882D01*
X94165343Y-103926500D01*
X96855500Y-103926500D01*
X96922539Y-103946185D01*
X96968294Y-103998989D01*
X96979500Y-104050500D01*
X96979500Y-104176500D01*
X96959815Y-104243539D01*
X96907011Y-104289294D01*
X96855500Y-104300500D01*
X91104500Y-104300500D01*
X91037461Y-104280815D01*
X90991706Y-104228011D01*
X90980500Y-104176500D01*
X90980500Y-103906249D01*
X90980499Y-103906247D01*
X90968868Y-103847770D01*
X90968867Y-103847769D01*
X90924552Y-103781447D01*
X90858230Y-103737132D01*
X90858229Y-103737131D01*
X90799752Y-103725500D01*
X90799748Y-103725500D01*
X89595478Y-103725500D01*
X89528439Y-103705815D01*
X89507797Y-103689181D01*
X89266819Y-103448203D01*
X89233334Y-103386880D01*
X89230500Y-103360522D01*
X89230500Y-101350000D01*
X89250185Y-101282961D01*
X89302989Y-101237206D01*
X89354500Y-101226000D01*
X89755000Y-101226000D01*
X89755000Y-98926000D01*
X89354500Y-98926000D01*
X89287461Y-98906315D01*
X89241706Y-98853511D01*
X89230500Y-98802000D01*
X89230500Y-96110277D01*
X89250185Y-96043238D01*
X89266814Y-96022601D01*
X89900747Y-95388668D01*
X89962067Y-95355185D01*
X90031758Y-95360169D01*
G37*
%TD.AperFunction*%
%TA.AperFunction,Conductor*%
G36*
X85080389Y-95751739D02*
G01*
X85136322Y-95793611D01*
X85160739Y-95859075D01*
X85159103Y-95885235D01*
X85159103Y-95889947D01*
X85162117Y-95905099D01*
X85164500Y-95929292D01*
X85164500Y-97769495D01*
X85144815Y-97836534D01*
X85128181Y-97857176D01*
X84923010Y-98062346D01*
X84904215Y-98077770D01*
X84894555Y-98084224D01*
X84827877Y-98105099D01*
X84760498Y-98086612D01*
X84737988Y-98068800D01*
X84691082Y-98021894D01*
X84497578Y-97886399D01*
X84283492Y-97786570D01*
X84283486Y-97786567D01*
X84161349Y-97753841D01*
X84101689Y-97717476D01*
X84071160Y-97654629D01*
X84079455Y-97585253D01*
X84123940Y-97531375D01*
X84157444Y-97515407D01*
X84223954Y-97495232D01*
X84406450Y-97397685D01*
X84566410Y-97266410D01*
X84697685Y-97106450D01*
X84795232Y-96923954D01*
X84855300Y-96725934D01*
X84875583Y-96520000D01*
X84855300Y-96314066D01*
X84795232Y-96116046D01*
X84789115Y-96104603D01*
X84775306Y-96078768D01*
X84761063Y-96010366D01*
X84786062Y-95945121D01*
X84796975Y-95932639D01*
X84949376Y-95780238D01*
X85010697Y-95746755D01*
X85080389Y-95751739D01*
G37*
%TD.AperFunction*%
%TA.AperFunction,Conductor*%
G36*
X102984302Y-95760167D02*
G01*
X103010626Y-95780242D01*
X103163016Y-95932632D01*
X103196501Y-95993955D01*
X103191517Y-96063647D01*
X103184694Y-96078764D01*
X103164770Y-96116040D01*
X103104699Y-96314067D01*
X103084417Y-96520000D01*
X103104699Y-96725932D01*
X103117869Y-96769346D01*
X103164768Y-96923954D01*
X103262315Y-97106450D01*
X103262317Y-97106452D01*
X103393589Y-97266410D01*
X103487831Y-97343751D01*
X103553550Y-97397685D01*
X103736046Y-97495232D01*
X103802551Y-97515405D01*
X103860989Y-97553702D01*
X103889446Y-97617514D01*
X103878887Y-97686581D01*
X103832663Y-97738975D01*
X103798650Y-97753841D01*
X103676514Y-97786567D01*
X103676507Y-97786570D01*
X103462422Y-97886399D01*
X103462420Y-97886400D01*
X103319015Y-97986813D01*
X103252809Y-98009140D01*
X103185041Y-97992130D01*
X103137229Y-97941181D01*
X103133332Y-97932694D01*
X103129515Y-97923483D01*
X103129515Y-97923479D01*
X103093013Y-97868850D01*
X103068624Y-97832349D01*
X103055775Y-97823764D01*
X103036985Y-97808343D01*
X102831819Y-97603177D01*
X102798334Y-97541854D01*
X102795500Y-97515496D01*
X102795500Y-95929292D01*
X102797883Y-95905099D01*
X102800897Y-95889947D01*
X102800897Y-95877735D01*
X102802615Y-95877735D01*
X102807554Y-95822526D01*
X102850416Y-95767347D01*
X102916305Y-95744101D01*
X102984302Y-95760167D01*
G37*
%TD.AperFunction*%
%TA.AperFunction,Conductor*%
G36*
X96113834Y-82122005D02*
G01*
X96169767Y-82163877D01*
X96194184Y-82229341D01*
X96194500Y-82238187D01*
X96194500Y-85488907D01*
X96194264Y-85494314D01*
X96190735Y-85534637D01*
X96201212Y-85573739D01*
X96202383Y-85579019D01*
X96209411Y-85618872D01*
X96211235Y-85623884D01*
X96218197Y-85640690D01*
X96220445Y-85645510D01*
X96220446Y-85645513D01*
X96230703Y-85660162D01*
X96243655Y-85678660D01*
X96246561Y-85683221D01*
X96266806Y-85718284D01*
X96297815Y-85744304D01*
X96301805Y-85747960D01*
X96988873Y-86435028D01*
X97022358Y-86496351D01*
X97017374Y-86566043D01*
X96975502Y-86621976D01*
X96970107Y-86625794D01*
X96954941Y-86635928D01*
X96954866Y-86635979D01*
X96946284Y-86648823D01*
X96930865Y-86667611D01*
X93559010Y-90039467D01*
X93540222Y-90054886D01*
X93527376Y-90063469D01*
X93512004Y-90086476D01*
X93502294Y-90101009D01*
X93500341Y-90103931D01*
X93446726Y-90148733D01*
X93377401Y-90157436D01*
X93314375Y-90127278D01*
X93297014Y-90105379D01*
X93296334Y-90105902D01*
X93260335Y-90058988D01*
X93260334Y-90058987D01*
X93260332Y-90058984D01*
X93009870Y-89808524D01*
X93009865Y-89808520D01*
X93009864Y-89808519D01*
X92993113Y-89795665D01*
X92970479Y-89778296D01*
X92970477Y-89778295D01*
X92866292Y-89740376D01*
X92858470Y-89737529D01*
X92858469Y-89737529D01*
X92848276Y-89733819D01*
X92849337Y-89730901D01*
X92802448Y-89707655D01*
X92770595Y-89654439D01*
X92769350Y-89654893D01*
X92766996Y-89648426D01*
X92766564Y-89647704D01*
X92766312Y-89646547D01*
X92765640Y-89644700D01*
X92765640Y-89644699D01*
X92724873Y-89532690D01*
X92694647Y-89493299D01*
X92444185Y-89242839D01*
X92444180Y-89242835D01*
X92444179Y-89242834D01*
X92427428Y-89229980D01*
X92404794Y-89212611D01*
X92404792Y-89212610D01*
X92338151Y-89188355D01*
X92292785Y-89171844D01*
X92292784Y-89171844D01*
X92282591Y-89168134D01*
X92283652Y-89165216D01*
X92236765Y-89141974D01*
X92204907Y-89088754D01*
X92203664Y-89089207D01*
X92201314Y-89082751D01*
X92200879Y-89082024D01*
X92200625Y-89080859D01*
X92199954Y-89079015D01*
X92199954Y-89079013D01*
X92159187Y-88967004D01*
X92128961Y-88927613D01*
X91878499Y-88677153D01*
X91878494Y-88677149D01*
X91878493Y-88677148D01*
X91861742Y-88664294D01*
X91839108Y-88646925D01*
X91839106Y-88646924D01*
X91772465Y-88622669D01*
X91727099Y-88606158D01*
X91727098Y-88606158D01*
X91716905Y-88602448D01*
X91717966Y-88599530D01*
X91671077Y-88576284D01*
X91639224Y-88523068D01*
X91637979Y-88523522D01*
X91635625Y-88517055D01*
X91635193Y-88516333D01*
X91634941Y-88515176D01*
X91634269Y-88513329D01*
X91634269Y-88513328D01*
X91593502Y-88401319D01*
X91563276Y-88361928D01*
X91312814Y-88111468D01*
X91312809Y-88111464D01*
X91312808Y-88111463D01*
X91296057Y-88098609D01*
X91273423Y-88081240D01*
X91273421Y-88081239D01*
X91202479Y-88055419D01*
X91161414Y-88040473D01*
X91161413Y-88040473D01*
X91151220Y-88036763D01*
X91152281Y-88033845D01*
X91105394Y-88010603D01*
X91073537Y-87957384D01*
X91072293Y-87957837D01*
X91069942Y-87951378D01*
X91069508Y-87950653D01*
X91069255Y-87949490D01*
X91068583Y-87947643D01*
X91027816Y-87835634D01*
X90997590Y-87796243D01*
X90997589Y-87796242D01*
X90997582Y-87796234D01*
X90989218Y-87787870D01*
X90955733Y-87726547D01*
X90952899Y-87700189D01*
X90952899Y-87231788D01*
X90972584Y-87164749D01*
X90989213Y-87144112D01*
X92477681Y-85655643D01*
X92530424Y-85624349D01*
X92594269Y-85605604D01*
X92703249Y-85535567D01*
X92788082Y-85437663D01*
X92841897Y-85319826D01*
X92844395Y-85311319D01*
X92847742Y-85312301D01*
X92869796Y-85263978D01*
X92875835Y-85257489D01*
X95982821Y-82150504D01*
X96044142Y-82117021D01*
X96113834Y-82122005D01*
G37*
%TD.AperFunction*%
%TA.AperFunction,Conductor*%
G36*
X88386403Y-88327470D02*
G01*
X88442337Y-88369341D01*
X88466754Y-88434806D01*
X88451902Y-88503079D01*
X88446177Y-88512535D01*
X88443331Y-88516795D01*
X88427905Y-88535593D01*
X88061290Y-88902209D01*
X87999967Y-88935694D01*
X87930276Y-88930710D01*
X87874342Y-88888839D01*
X87849925Y-88823374D01*
X87864777Y-88755101D01*
X87870500Y-88745647D01*
X87873356Y-88741373D01*
X87888770Y-88722591D01*
X88255392Y-88355969D01*
X88316712Y-88322486D01*
X88386403Y-88327470D01*
G37*
%TD.AperFunction*%
%TA.AperFunction,Conductor*%
G36*
X101188773Y-87866397D02*
G01*
X101209415Y-87883031D01*
X101544808Y-88218424D01*
X101578293Y-88279747D01*
X101573309Y-88349439D01*
X101531437Y-88405372D01*
X101465973Y-88429789D01*
X101432946Y-88427724D01*
X101425436Y-88426231D01*
X101425402Y-88426225D01*
X101411437Y-88423447D01*
X101402584Y-88421686D01*
X101402583Y-88421686D01*
X101387429Y-88424700D01*
X101363239Y-88427083D01*
X98905818Y-88427083D01*
X98838779Y-88407398D01*
X98793024Y-88354594D01*
X98783080Y-88285436D01*
X98785714Y-88272245D01*
X98810383Y-88176165D01*
X98810384Y-88176159D01*
X98810384Y-88015095D01*
X98809406Y-88007355D01*
X98812316Y-88006987D01*
X98814229Y-87950957D01*
X98844264Y-87902251D01*
X98858091Y-87888424D01*
X98919414Y-87854942D01*
X98930901Y-87853707D01*
X98938935Y-87852108D01*
X98938936Y-87852109D01*
X98954089Y-87849094D01*
X98978280Y-87846712D01*
X101121734Y-87846712D01*
X101188773Y-87866397D01*
G37*
%TD.AperFunction*%
%TA.AperFunction,Conductor*%
G36*
X97350364Y-87129857D02*
G01*
X97394712Y-87158358D01*
X97917264Y-87680910D01*
X97950749Y-87742233D01*
X97945765Y-87811925D01*
X97917264Y-87856272D01*
X97739073Y-88034464D01*
X97677750Y-88067949D01*
X97608059Y-88062965D01*
X97563711Y-88034464D01*
X97041159Y-87511912D01*
X97007674Y-87450589D01*
X97012658Y-87380897D01*
X97041157Y-87336552D01*
X97219354Y-87158355D01*
X97280673Y-87124873D01*
X97350364Y-87129857D01*
G37*
%TD.AperFunction*%
%TA.AperFunction,Conductor*%
G36*
X85425703Y-79192303D02*
G01*
X85447603Y-79217127D01*
X85475267Y-79258530D01*
X85495374Y-79288623D01*
X85499585Y-79291436D01*
X85508222Y-79297207D01*
X85527012Y-79312628D01*
X85773672Y-79559288D01*
X85789093Y-79578078D01*
X85797677Y-79590926D01*
X85805676Y-79596270D01*
X85817827Y-79604389D01*
X85817853Y-79604408D01*
X85888806Y-79651817D01*
X85888808Y-79651818D01*
X85996302Y-79673199D01*
X86006848Y-79671101D01*
X86011462Y-79670184D01*
X86035650Y-79667802D01*
X87823296Y-79667802D01*
X87890335Y-79687487D01*
X87936090Y-79740291D01*
X87946034Y-79809449D01*
X87943400Y-79822640D01*
X87918730Y-79918719D01*
X87918730Y-80079787D01*
X87919708Y-80087527D01*
X87916807Y-80087893D01*
X87914865Y-80143984D01*
X87884854Y-80192629D01*
X87865635Y-80211850D01*
X87804313Y-80245338D01*
X87777949Y-80248173D01*
X85515151Y-80248173D01*
X85448112Y-80228488D01*
X85427470Y-80211854D01*
X85256819Y-80041203D01*
X85223334Y-79979880D01*
X85220500Y-79953522D01*
X85220500Y-79286016D01*
X85240185Y-79218977D01*
X85292989Y-79173222D01*
X85362147Y-79163278D01*
X85425703Y-79192303D01*
G37*
%TD.AperFunction*%
%TA.AperFunction,Conductor*%
G36*
X102009048Y-79668503D02*
G01*
X102063640Y-79673388D01*
X102118818Y-79716250D01*
X102142064Y-79782139D01*
X102125997Y-79850137D01*
X102105923Y-79876460D01*
X101770530Y-80211854D01*
X101709207Y-80245339D01*
X101682849Y-80248173D01*
X99543966Y-80248173D01*
X99519773Y-80245790D01*
X99492642Y-80240393D01*
X99493232Y-80237425D01*
X99444416Y-80223091D01*
X99423774Y-80206457D01*
X99409950Y-80192633D01*
X99376465Y-80131310D01*
X99377278Y-80087804D01*
X99375092Y-80087528D01*
X99376070Y-80079788D01*
X99376070Y-79918725D01*
X99376069Y-79918719D01*
X99351400Y-79822640D01*
X99353794Y-79752811D01*
X99393560Y-79695362D01*
X99458073Y-79668532D01*
X99471504Y-79667802D01*
X101924354Y-79667802D01*
X101948544Y-79670184D01*
X101963698Y-79673199D01*
X101990830Y-79667802D01*
X101990831Y-79667802D01*
X101994048Y-79667162D01*
X101998957Y-79667601D01*
X102009041Y-79666608D01*
X102009048Y-79666608D01*
X102009048Y-79668503D01*
G37*
%TD.AperFunction*%
%TA.AperFunction,Conductor*%
G36*
X84869002Y-74622697D02*
G01*
X84894556Y-74635775D01*
X84904228Y-74642237D01*
X84923011Y-74657653D01*
X85382181Y-75116823D01*
X85415666Y-75178146D01*
X85418500Y-75204504D01*
X85418500Y-77128982D01*
X85398815Y-77196021D01*
X85346011Y-77241776D01*
X85276853Y-77251720D01*
X85213297Y-77222695D01*
X85191403Y-77197880D01*
X85187272Y-77191699D01*
X85176268Y-77175230D01*
X85158994Y-77149378D01*
X85158992Y-77149376D01*
X85143624Y-77126376D01*
X85143622Y-77126374D01*
X85143621Y-77126373D01*
X85130775Y-77117790D01*
X85111985Y-77102369D01*
X84796982Y-76787366D01*
X84763497Y-76726043D01*
X84768481Y-76656351D01*
X84775307Y-76641229D01*
X84781798Y-76629087D01*
X84795232Y-76603954D01*
X84855300Y-76405934D01*
X84875583Y-76200000D01*
X84855300Y-75994066D01*
X84795232Y-75796046D01*
X84697685Y-75613550D01*
X84632457Y-75534069D01*
X84566410Y-75453589D01*
X84406452Y-75322317D01*
X84406453Y-75322317D01*
X84406450Y-75322315D01*
X84223954Y-75224768D01*
X84157447Y-75204593D01*
X84099009Y-75166296D01*
X84070553Y-75102484D01*
X84081113Y-75033417D01*
X84127337Y-74981023D01*
X84161350Y-74966158D01*
X84283483Y-74933433D01*
X84283492Y-74933429D01*
X84497578Y-74833600D01*
X84691078Y-74698109D01*
X84737988Y-74651199D01*
X84799311Y-74617713D01*
X84869002Y-74622697D01*
G37*
%TD.AperFunction*%
%TA.AperFunction,Conductor*%
G36*
X103199507Y-74633391D02*
G01*
X103222011Y-74651199D01*
X103268917Y-74698105D01*
X103462421Y-74833600D01*
X103676507Y-74933429D01*
X103676516Y-74933433D01*
X103798649Y-74966158D01*
X103858310Y-75002523D01*
X103888839Y-75065369D01*
X103880545Y-75134745D01*
X103836059Y-75188623D01*
X103802552Y-75204593D01*
X103736046Y-75224767D01*
X103611821Y-75291168D01*
X103553550Y-75322315D01*
X103553548Y-75322316D01*
X103553547Y-75322317D01*
X103393589Y-75453589D01*
X103262317Y-75613547D01*
X103262315Y-75613550D01*
X103247085Y-75642043D01*
X103164769Y-75796043D01*
X103104699Y-75994067D01*
X103084417Y-76200000D01*
X103104699Y-76405932D01*
X103164769Y-76603958D01*
X103184693Y-76641232D01*
X103198935Y-76709634D01*
X103173935Y-76774878D01*
X103163016Y-76787366D01*
X102848010Y-77102372D01*
X102829222Y-77117791D01*
X102816380Y-77126371D01*
X102807743Y-77135010D01*
X102806528Y-77133795D01*
X102763986Y-77169348D01*
X102694661Y-77178053D01*
X102631634Y-77147896D01*
X102594917Y-77088451D01*
X102590500Y-77055650D01*
X102590500Y-75155503D01*
X102610185Y-75088464D01*
X102626815Y-75067826D01*
X103036990Y-74657650D01*
X103055776Y-74642234D01*
X103065450Y-74635770D01*
X103132128Y-74614900D01*
X103199507Y-74633391D01*
G37*
%TD.AperFunction*%
%TA.AperFunction,Conductor*%
G36*
X92157851Y-73077185D02*
G01*
X92178493Y-73093819D01*
X92518181Y-73433507D01*
X92551666Y-73494830D01*
X92554500Y-73521188D01*
X92554500Y-73943493D01*
X92570279Y-74043121D01*
X92570280Y-74043124D01*
X92570281Y-74043126D01*
X92631472Y-74163220D01*
X92631473Y-74163221D01*
X92631476Y-74163225D01*
X92726774Y-74258523D01*
X92726778Y-74258526D01*
X92726780Y-74258528D01*
X92846874Y-74319719D01*
X92846876Y-74319719D01*
X92846878Y-74319720D01*
X92946507Y-74335500D01*
X93356326Y-74335500D01*
X93423365Y-74355185D01*
X93469120Y-74407989D01*
X93480326Y-74459500D01*
X93480326Y-76473876D01*
X93460641Y-76540915D01*
X93407837Y-76586670D01*
X93338679Y-76596614D01*
X93275123Y-76567589D01*
X93268645Y-76561557D01*
X92538289Y-75831201D01*
X92522867Y-75812409D01*
X92514286Y-75799566D01*
X92514283Y-75799563D01*
X92496350Y-75787581D01*
X92465127Y-75766718D01*
X92457066Y-75761332D01*
X92423157Y-75738675D01*
X92423156Y-75738674D01*
X92423155Y-75738674D01*
X92338511Y-75721837D01*
X92338478Y-75721831D01*
X92324516Y-75719054D01*
X92315663Y-75717293D01*
X92315662Y-75717293D01*
X92300508Y-75720307D01*
X92276318Y-75722690D01*
X90882668Y-75722690D01*
X90815629Y-75703005D01*
X90794987Y-75686371D01*
X90717296Y-75608680D01*
X90683811Y-75547357D01*
X90688795Y-75477665D01*
X90730667Y-75421732D01*
X90796131Y-75397315D01*
X90804977Y-75396999D01*
X90964308Y-75396999D01*
X90964322Y-75396998D01*
X91063607Y-75386855D01*
X91224481Y-75333547D01*
X91224492Y-75333542D01*
X91368728Y-75244575D01*
X91368732Y-75244572D01*
X91488572Y-75124732D01*
X91488575Y-75124728D01*
X91577542Y-74980492D01*
X91577547Y-74980481D01*
X91630855Y-74819606D01*
X91640999Y-74720322D01*
X91641000Y-74720309D01*
X91641000Y-74672000D01*
X90565000Y-74672000D01*
X90497961Y-74652315D01*
X90452206Y-74599511D01*
X90441000Y-74548000D01*
X90441000Y-74296000D01*
X90460685Y-74228961D01*
X90513489Y-74183206D01*
X90565000Y-74172000D01*
X91640999Y-74172000D01*
X91640999Y-74123692D01*
X91640998Y-74123677D01*
X91630855Y-74024392D01*
X91577547Y-73863518D01*
X91577542Y-73863507D01*
X91490010Y-73721597D01*
X91471569Y-73654205D01*
X91492491Y-73587541D01*
X91546133Y-73542772D01*
X91595548Y-73532500D01*
X91735750Y-73532500D01*
X91735751Y-73532499D01*
X91750568Y-73529552D01*
X91794229Y-73520868D01*
X91794229Y-73520867D01*
X91794231Y-73520867D01*
X91860552Y-73476552D01*
X91904867Y-73410231D01*
X91904867Y-73410229D01*
X91904868Y-73410229D01*
X91916499Y-73351752D01*
X91916500Y-73351750D01*
X91916500Y-73181500D01*
X91936185Y-73114461D01*
X91988989Y-73068706D01*
X92040500Y-73057500D01*
X92090812Y-73057500D01*
X92157851Y-73077185D01*
G37*
%TD.AperFunction*%
%TA.AperFunction,Conductor*%
G36*
X97892539Y-59164185D02*
G01*
X97938294Y-59216989D01*
X97949500Y-59268500D01*
X97949500Y-59311374D01*
X97964859Y-59437868D01*
X97964860Y-59437874D01*
X98025182Y-59596931D01*
X98050552Y-59633685D01*
X98121817Y-59736929D01*
X98249148Y-59849734D01*
X98308126Y-59880688D01*
X98358338Y-59929271D01*
X98374500Y-59990484D01*
X98374500Y-61777515D01*
X98354815Y-61844554D01*
X98308127Y-61887310D01*
X98249148Y-61918266D01*
X98139300Y-62015583D01*
X98121816Y-62031072D01*
X98025182Y-62171068D01*
X97964860Y-62330125D01*
X97964859Y-62330131D01*
X97950221Y-62450687D01*
X97922599Y-62514865D01*
X97864665Y-62553921D01*
X97794812Y-62555456D01*
X97792530Y-62554816D01*
X97782494Y-62551900D01*
X97782497Y-62551900D01*
X97780000Y-62551703D01*
X97780000Y-64696295D01*
X97780001Y-64696295D01*
X97782486Y-64696100D01*
X97940198Y-64650281D01*
X98081552Y-64566685D01*
X98081561Y-64566678D01*
X98197678Y-64450561D01*
X98197683Y-64450555D01*
X98275456Y-64319046D01*
X98326525Y-64271362D01*
X98395267Y-64258858D01*
X98411855Y-64261767D01*
X98564944Y-64299500D01*
X98735056Y-64299500D01*
X98900225Y-64258790D01*
X98979692Y-64217081D01*
X99050849Y-64179736D01*
X99050850Y-64179734D01*
X99050852Y-64179734D01*
X99178183Y-64066929D01*
X99274818Y-63926930D01*
X99335140Y-63767872D01*
X99345380Y-63683538D01*
X99350500Y-63641374D01*
X99350500Y-62982872D01*
X99370185Y-62915833D01*
X99422989Y-62870078D01*
X99492147Y-62860134D01*
X99555703Y-62889159D01*
X99580039Y-62917775D01*
X99659828Y-63047133D01*
X99779666Y-63166971D01*
X99880240Y-63229006D01*
X99926964Y-63280954D01*
X99938187Y-63349917D01*
X99910343Y-63413999D01*
X99902826Y-63422225D01*
X99883873Y-63441178D01*
X99822679Y-63561278D01*
X99806900Y-63660906D01*
X99806900Y-64177893D01*
X99822679Y-64277523D01*
X99860990Y-64352712D01*
X99873886Y-64421381D01*
X99847609Y-64486121D01*
X99838186Y-64496687D01*
X99451402Y-64883470D01*
X99447414Y-64887125D01*
X99416405Y-64913145D01*
X99396162Y-64948206D01*
X99393256Y-64952766D01*
X99370046Y-64985913D01*
X99367806Y-64990717D01*
X99360829Y-65007561D01*
X99359010Y-65012559D01*
X99351983Y-65052411D01*
X99350812Y-65057691D01*
X99340335Y-65096791D01*
X99343864Y-65137113D01*
X99344100Y-65142520D01*
X99344100Y-65939712D01*
X99324415Y-66006751D01*
X99307781Y-66027393D01*
X99257993Y-66077181D01*
X99196670Y-66110666D01*
X99170312Y-66113500D01*
X98635739Y-66113500D01*
X98567608Y-66123426D01*
X98462514Y-66174803D01*
X98379803Y-66257514D01*
X98328426Y-66362608D01*
X98318500Y-66430739D01*
X98318500Y-66797260D01*
X98328426Y-66865391D01*
X98379803Y-66970485D01*
X98434564Y-67025246D01*
X98468049Y-67086569D01*
X98463065Y-67156261D01*
X98434564Y-67200608D01*
X97981181Y-67653992D01*
X97919858Y-67687477D01*
X97850167Y-67682493D01*
X97794233Y-67640622D01*
X97769816Y-67575157D01*
X97769500Y-67566311D01*
X97769500Y-67380739D01*
X97759573Y-67312608D01*
X97759573Y-67312607D01*
X97708198Y-67207517D01*
X97708196Y-67207515D01*
X97708196Y-67207514D01*
X97625485Y-67124803D01*
X97520391Y-67073426D01*
X97452261Y-67063500D01*
X97452260Y-67063500D01*
X97179500Y-67063500D01*
X97112461Y-67043815D01*
X97066706Y-66991011D01*
X97055500Y-66939500D01*
X97055500Y-66056920D01*
X97055736Y-66051513D01*
X97056744Y-66040000D01*
X97059264Y-66011193D01*
X97059263Y-66011192D01*
X97059264Y-66011191D01*
X97058800Y-66005894D01*
X97055500Y-65980820D01*
X97055500Y-65930030D01*
X97075185Y-65862991D01*
X97127989Y-65817236D01*
X97197147Y-65807292D01*
X97260703Y-65836317D01*
X97298477Y-65895095D01*
X97302238Y-65912384D01*
X97302502Y-65914225D01*
X97344367Y-66005894D01*
X97356318Y-66032063D01*
X97441151Y-66129967D01*
X97550131Y-66200004D01*
X97639308Y-66226188D01*
X97674425Y-66236499D01*
X97674427Y-66236500D01*
X97674428Y-66236500D01*
X97803973Y-66236500D01*
X97803973Y-66236499D01*
X97928269Y-66200004D01*
X98037249Y-66129967D01*
X98122082Y-66032063D01*
X98175897Y-65914226D01*
X98194333Y-65786000D01*
X98175897Y-65657774D01*
X98122082Y-65539937D01*
X98037249Y-65442033D01*
X97928269Y-65371996D01*
X97928265Y-65371994D01*
X97928264Y-65371994D01*
X97803974Y-65335500D01*
X97803972Y-65335500D01*
X97780478Y-65335500D01*
X97713439Y-65315815D01*
X97692797Y-65299181D01*
X97272415Y-64878799D01*
X97238930Y-64817476D01*
X97243914Y-64747784D01*
X97275925Y-64700062D01*
X97280000Y-64696295D01*
X97280000Y-63874000D01*
X97266819Y-63860819D01*
X97233334Y-63799496D01*
X97230500Y-63773138D01*
X97230500Y-63474862D01*
X97250185Y-63407823D01*
X97266819Y-63387181D01*
X97280000Y-63374000D01*
X97280000Y-62551703D01*
X97277503Y-62551900D01*
X97119806Y-62597716D01*
X97119803Y-62597717D01*
X96978447Y-62681314D01*
X96978438Y-62681321D01*
X96862320Y-62797439D01*
X96859949Y-62800497D01*
X96857479Y-62802280D01*
X96856800Y-62802960D01*
X96856690Y-62802850D01*
X96803308Y-62841406D01*
X96761967Y-62848500D01*
X96546740Y-62848500D01*
X96517811Y-62852715D01*
X96481589Y-62857992D01*
X96412412Y-62848177D01*
X96359523Y-62802521D01*
X96339713Y-62735518D01*
X96359273Y-62668442D01*
X96376027Y-62647611D01*
X96534590Y-62489048D01*
X96553374Y-62473633D01*
X96566224Y-62465048D01*
X96583820Y-62438715D01*
X96627116Y-62373918D01*
X96648497Y-62266424D01*
X96645482Y-62251264D01*
X96643100Y-62227076D01*
X96643100Y-61071438D01*
X96662785Y-61004399D01*
X96673377Y-60990247D01*
X96750482Y-60901263D01*
X96804297Y-60783426D01*
X96822733Y-60655200D01*
X96804297Y-60526974D01*
X96750482Y-60409137D01*
X96665649Y-60311233D01*
X96556669Y-60241196D01*
X96556665Y-60241194D01*
X96556664Y-60241194D01*
X96432374Y-60204700D01*
X96432372Y-60204700D01*
X96302828Y-60204700D01*
X96302826Y-60204700D01*
X96178535Y-60241194D01*
X96178532Y-60241195D01*
X96178531Y-60241196D01*
X96127277Y-60274134D01*
X96069550Y-60311233D01*
X95984718Y-60409137D01*
X95984717Y-60409138D01*
X95930902Y-60526974D01*
X95912467Y-60655200D01*
X95930902Y-60783425D01*
X95968485Y-60865718D01*
X95984718Y-60901263D01*
X96061814Y-60990238D01*
X96090838Y-61053791D01*
X96092100Y-61071438D01*
X96092100Y-62100945D01*
X96072415Y-62167984D01*
X96055781Y-62188626D01*
X95420192Y-62824214D01*
X95358869Y-62857699D01*
X95289177Y-62852715D01*
X95244830Y-62824214D01*
X95027627Y-62607011D01*
X95012205Y-62588219D01*
X95003624Y-62575376D01*
X95003621Y-62575373D01*
X94985686Y-62563390D01*
X94975632Y-62556672D01*
X94956843Y-62541251D01*
X94623852Y-62208260D01*
X94590367Y-62146937D01*
X94589309Y-62137104D01*
X94588795Y-62137179D01*
X94583585Y-62100945D01*
X94569097Y-62000174D01*
X94515282Y-61882337D01*
X94430449Y-61784433D01*
X94321469Y-61714396D01*
X94321465Y-61714394D01*
X94321464Y-61714394D01*
X94197174Y-61677900D01*
X94197172Y-61677900D01*
X94067628Y-61677900D01*
X94067626Y-61677900D01*
X93943335Y-61714394D01*
X93943332Y-61714395D01*
X93943331Y-61714396D01*
X93901091Y-61741542D01*
X93834350Y-61784433D01*
X93749518Y-61882337D01*
X93749517Y-61882338D01*
X93695702Y-62000174D01*
X93677267Y-62128400D01*
X93696965Y-62265404D01*
X93694582Y-62265746D01*
X93694584Y-62322679D01*
X93691941Y-62326791D01*
X93695827Y-62327349D01*
X93743095Y-62368294D01*
X93743711Y-62367761D01*
X93747414Y-62372035D01*
X93748638Y-62373095D01*
X93748647Y-62373108D01*
X93749516Y-62374461D01*
X93828007Y-62465046D01*
X93834351Y-62472367D01*
X93943331Y-62542404D01*
X93943334Y-62542405D01*
X93943336Y-62542406D01*
X93951403Y-62546091D01*
X93950803Y-62547404D01*
X94001542Y-62580012D01*
X94030567Y-62643568D01*
X94020623Y-62712727D01*
X93995510Y-62748896D01*
X93917680Y-62826726D01*
X93856357Y-62860211D01*
X93786665Y-62855227D01*
X93742318Y-62826726D01*
X93576488Y-62660896D01*
X93543003Y-62599573D01*
X93541435Y-62590885D01*
X93525552Y-62480416D01*
X93522976Y-62462495D01*
X93525360Y-62462152D01*
X93525351Y-62405237D01*
X93528005Y-62401104D01*
X93524097Y-62400543D01*
X93476848Y-62359603D01*
X93476230Y-62360139D01*
X93472504Y-62355839D01*
X93471292Y-62354789D01*
X93471291Y-62354788D01*
X93470422Y-62353436D01*
X93450228Y-62330131D01*
X93385590Y-62255533D01*
X93276610Y-62185496D01*
X93276606Y-62185494D01*
X93276605Y-62185494D01*
X93152315Y-62149000D01*
X93152313Y-62149000D01*
X93022769Y-62149000D01*
X93022767Y-62149000D01*
X92898476Y-62185494D01*
X92898473Y-62185495D01*
X92898472Y-62185496D01*
X92814767Y-62239290D01*
X92789489Y-62255535D01*
X92749255Y-62301968D01*
X92690477Y-62339743D01*
X92620608Y-62339743D01*
X92561829Y-62301969D01*
X92532804Y-62238413D01*
X92531542Y-62220766D01*
X92531542Y-60342186D01*
X92533925Y-60317993D01*
X92536939Y-60302841D01*
X92523875Y-60237167D01*
X92515557Y-60195347D01*
X92455226Y-60105057D01*
X92434349Y-60038381D01*
X92435389Y-60019995D01*
X92452082Y-59893200D01*
X92431444Y-59736438D01*
X92370936Y-59590359D01*
X92274682Y-59464918D01*
X92149241Y-59368664D01*
X92146911Y-59366876D01*
X92105708Y-59310448D01*
X92101553Y-59240702D01*
X92135765Y-59179782D01*
X92197483Y-59147029D01*
X92222397Y-59144500D01*
X97825500Y-59144500D01*
X97892539Y-59164185D01*
G37*
%TD.AperFunction*%
%TD*%
M02*
