%TF.GenerationSoftware,KiCad,Pcbnew,7.0.8*%
%TF.CreationDate,2023-11-18T20:12:02-05:00*%
%TF.ProjectId,PIC24FJ64GA004 Dev Board,50494332-3446-44a3-9634-474130303420,rev?*%
%TF.SameCoordinates,Original*%
%TF.FileFunction,Legend,Top*%
%TF.FilePolarity,Positive*%
%FSLAX46Y46*%
G04 Gerber Fmt 4.6, Leading zero omitted, Abs format (unit mm)*
G04 Created by KiCad (PCBNEW 7.0.8) date 2023-11-18 20:12:02*
%MOMM*%
%LPD*%
G01*
G04 APERTURE LIST*
G04 Aperture macros list*
%AMRoundRect*
0 Rectangle with rounded corners*
0 $1 Rounding radius*
0 $2 $3 $4 $5 $6 $7 $8 $9 X,Y pos of 4 corners*
0 Add a 4 corners polygon primitive as box body*
4,1,4,$2,$3,$4,$5,$6,$7,$8,$9,$2,$3,0*
0 Add four circle primitives for the rounded corners*
1,1,$1+$1,$2,$3*
1,1,$1+$1,$4,$5*
1,1,$1+$1,$6,$7*
1,1,$1+$1,$8,$9*
0 Add four rect primitives between the rounded corners*
20,1,$1+$1,$2,$3,$4,$5,0*
20,1,$1+$1,$4,$5,$6,$7,0*
20,1,$1+$1,$6,$7,$8,$9,0*
20,1,$1+$1,$8,$9,$2,$3,0*%
G04 Aperture macros list end*
%ADD10C,0.150000*%
%ADD11C,0.120000*%
%ADD12RoundRect,0.137500X0.521491X0.327037X0.327037X0.521491X-0.521491X-0.327037X-0.327037X-0.521491X0*%
%ADD13RoundRect,0.137500X0.521491X-0.327037X-0.327037X0.521491X-0.521491X0.327037X0.327037X-0.521491X0*%
%ADD14R,1.400000X1.200000*%
%ADD15R,1.550000X1.300000*%
%ADD16RoundRect,0.200000X0.275000X-0.200000X0.275000X0.200000X-0.275000X0.200000X-0.275000X-0.200000X0*%
%ADD17RoundRect,0.150000X0.512500X0.150000X-0.512500X0.150000X-0.512500X-0.150000X0.512500X-0.150000X0*%
%ADD18RoundRect,0.225000X-0.225000X-0.250000X0.225000X-0.250000X0.225000X0.250000X-0.225000X0.250000X0*%
%ADD19R,1.000000X2.510000*%
%ADD20RoundRect,0.218750X-0.256250X0.218750X-0.256250X-0.218750X0.256250X-0.218750X0.256250X0.218750X0*%
%ADD21RoundRect,0.150000X0.150000X0.425000X-0.150000X0.425000X-0.150000X-0.425000X0.150000X-0.425000X0*%
%ADD22RoundRect,0.075000X0.075000X0.500000X-0.075000X0.500000X-0.075000X-0.500000X0.075000X-0.500000X0*%
%ADD23O,1.000000X2.100000*%
%ADD24O,1.000000X1.800000*%
%ADD25RoundRect,0.225000X0.250000X-0.225000X0.250000X0.225000X-0.250000X0.225000X-0.250000X-0.225000X0*%
%ADD26RoundRect,0.200000X-0.275000X0.200000X-0.275000X-0.200000X0.275000X-0.200000X0.275000X0.200000X0*%
%ADD27RoundRect,0.225000X-0.250000X0.225000X-0.250000X-0.225000X0.250000X-0.225000X0.250000X0.225000X0*%
%ADD28R,1.700000X1.700000*%
%ADD29O,1.700000X1.700000*%
G04 APERTURE END LIST*
D10*
X99517200Y-111760000D02*
X99263200Y-111455200D01*
X99263200Y-111455200D02*
X99517200Y-111760000D01*
X99009200Y-111760000D02*
X99263200Y-111455200D01*
X99263200Y-111455200D02*
X99009200Y-111760000D01*
X99263200Y-112217200D02*
X99263200Y-111455200D01*
X98177579Y-113407819D02*
X98177579Y-112407819D01*
X98177579Y-112407819D02*
X98510912Y-113122104D01*
X98510912Y-113122104D02*
X98844245Y-112407819D01*
X98844245Y-112407819D02*
X98844245Y-113407819D01*
X99891864Y-113312580D02*
X99844245Y-113360200D01*
X99844245Y-113360200D02*
X99701388Y-113407819D01*
X99701388Y-113407819D02*
X99606150Y-113407819D01*
X99606150Y-113407819D02*
X99463293Y-113360200D01*
X99463293Y-113360200D02*
X99368055Y-113264961D01*
X99368055Y-113264961D02*
X99320436Y-113169723D01*
X99320436Y-113169723D02*
X99272817Y-112979247D01*
X99272817Y-112979247D02*
X99272817Y-112836390D01*
X99272817Y-112836390D02*
X99320436Y-112645914D01*
X99320436Y-112645914D02*
X99368055Y-112550676D01*
X99368055Y-112550676D02*
X99463293Y-112455438D01*
X99463293Y-112455438D02*
X99606150Y-112407819D01*
X99606150Y-112407819D02*
X99701388Y-112407819D01*
X99701388Y-112407819D02*
X99844245Y-112455438D01*
X99844245Y-112455438D02*
X99891864Y-112503057D01*
X100796626Y-113407819D02*
X100320436Y-113407819D01*
X100320436Y-113407819D02*
X100320436Y-112407819D01*
X101701388Y-113407819D02*
X101368055Y-112931628D01*
X101129960Y-113407819D02*
X101129960Y-112407819D01*
X101129960Y-112407819D02*
X101510912Y-112407819D01*
X101510912Y-112407819D02*
X101606150Y-112455438D01*
X101606150Y-112455438D02*
X101653769Y-112503057D01*
X101653769Y-112503057D02*
X101701388Y-112598295D01*
X101701388Y-112598295D02*
X101701388Y-112741152D01*
X101701388Y-112741152D02*
X101653769Y-112836390D01*
X101653769Y-112836390D02*
X101606150Y-112884009D01*
X101606150Y-112884009D02*
X101510912Y-112931628D01*
X101510912Y-112931628D02*
X101129960Y-112931628D01*
X101898607Y-58899419D02*
X101565274Y-58423228D01*
X101327179Y-58899419D02*
X101327179Y-57899419D01*
X101327179Y-57899419D02*
X101708131Y-57899419D01*
X101708131Y-57899419D02*
X101803369Y-57947038D01*
X101803369Y-57947038D02*
X101850988Y-57994657D01*
X101850988Y-57994657D02*
X101898607Y-58089895D01*
X101898607Y-58089895D02*
X101898607Y-58232752D01*
X101898607Y-58232752D02*
X101850988Y-58327990D01*
X101850988Y-58327990D02*
X101803369Y-58375609D01*
X101803369Y-58375609D02*
X101708131Y-58423228D01*
X101708131Y-58423228D02*
X101327179Y-58423228D01*
X102231941Y-57899419D02*
X102898607Y-58899419D01*
X102898607Y-57899419D02*
X102231941Y-58899419D01*
X101438322Y-60490219D02*
X102009750Y-60490219D01*
X101724036Y-61490219D02*
X101724036Y-60490219D01*
X102247846Y-60490219D02*
X102914512Y-61490219D01*
X102914512Y-60490219D02*
X102247846Y-61490219D01*
X101381160Y-63074657D02*
X101428779Y-63027038D01*
X101428779Y-63027038D02*
X101524017Y-62979419D01*
X101524017Y-62979419D02*
X101762112Y-62979419D01*
X101762112Y-62979419D02*
X101857350Y-63027038D01*
X101857350Y-63027038D02*
X101904969Y-63074657D01*
X101904969Y-63074657D02*
X101952588Y-63169895D01*
X101952588Y-63169895D02*
X101952588Y-63265133D01*
X101952588Y-63265133D02*
X101904969Y-63407990D01*
X101904969Y-63407990D02*
X101333541Y-63979419D01*
X101333541Y-63979419D02*
X101952588Y-63979419D01*
X102571636Y-62979419D02*
X102666874Y-62979419D01*
X102666874Y-62979419D02*
X102762112Y-63027038D01*
X102762112Y-63027038D02*
X102809731Y-63074657D01*
X102809731Y-63074657D02*
X102857350Y-63169895D01*
X102857350Y-63169895D02*
X102904969Y-63360371D01*
X102904969Y-63360371D02*
X102904969Y-63598466D01*
X102904969Y-63598466D02*
X102857350Y-63788942D01*
X102857350Y-63788942D02*
X102809731Y-63884180D01*
X102809731Y-63884180D02*
X102762112Y-63931800D01*
X102762112Y-63931800D02*
X102666874Y-63979419D01*
X102666874Y-63979419D02*
X102571636Y-63979419D01*
X102571636Y-63979419D02*
X102476398Y-63931800D01*
X102476398Y-63931800D02*
X102428779Y-63884180D01*
X102428779Y-63884180D02*
X102381160Y-63788942D01*
X102381160Y-63788942D02*
X102333541Y-63598466D01*
X102333541Y-63598466D02*
X102333541Y-63360371D01*
X102333541Y-63360371D02*
X102381160Y-63169895D01*
X102381160Y-63169895D02*
X102428779Y-63074657D01*
X102428779Y-63074657D02*
X102476398Y-63027038D01*
X102476398Y-63027038D02*
X102571636Y-62979419D01*
X102003388Y-66671819D02*
X101431960Y-66671819D01*
X101717674Y-66671819D02*
X101717674Y-65671819D01*
X101717674Y-65671819D02*
X101622436Y-65814676D01*
X101622436Y-65814676D02*
X101527198Y-65909914D01*
X101527198Y-65909914D02*
X101431960Y-65957533D01*
X102479579Y-66671819D02*
X102670055Y-66671819D01*
X102670055Y-66671819D02*
X102765293Y-66624200D01*
X102765293Y-66624200D02*
X102812912Y-66576580D01*
X102812912Y-66576580D02*
X102908150Y-66433723D01*
X102908150Y-66433723D02*
X102955769Y-66243247D01*
X102955769Y-66243247D02*
X102955769Y-65862295D01*
X102955769Y-65862295D02*
X102908150Y-65767057D01*
X102908150Y-65767057D02*
X102860531Y-65719438D01*
X102860531Y-65719438D02*
X102765293Y-65671819D01*
X102765293Y-65671819D02*
X102574817Y-65671819D01*
X102574817Y-65671819D02*
X102479579Y-65719438D01*
X102479579Y-65719438D02*
X102431960Y-65767057D01*
X102431960Y-65767057D02*
X102384341Y-65862295D01*
X102384341Y-65862295D02*
X102384341Y-66100390D01*
X102384341Y-66100390D02*
X102431960Y-66195628D01*
X102431960Y-66195628D02*
X102479579Y-66243247D01*
X102479579Y-66243247D02*
X102574817Y-66290866D01*
X102574817Y-66290866D02*
X102765293Y-66290866D01*
X102765293Y-66290866D02*
X102860531Y-66243247D01*
X102860531Y-66243247D02*
X102908150Y-66195628D01*
X102908150Y-66195628D02*
X102955769Y-66100390D01*
X101187407Y-69008619D02*
X100854074Y-68532428D01*
X100615979Y-69008619D02*
X100615979Y-68008619D01*
X100615979Y-68008619D02*
X100996931Y-68008619D01*
X100996931Y-68008619D02*
X101092169Y-68056238D01*
X101092169Y-68056238D02*
X101139788Y-68103857D01*
X101139788Y-68103857D02*
X101187407Y-68199095D01*
X101187407Y-68199095D02*
X101187407Y-68341952D01*
X101187407Y-68341952D02*
X101139788Y-68437190D01*
X101139788Y-68437190D02*
X101092169Y-68484809D01*
X101092169Y-68484809D02*
X100996931Y-68532428D01*
X100996931Y-68532428D02*
X100615979Y-68532428D01*
X101568360Y-68961000D02*
X101711217Y-69008619D01*
X101711217Y-69008619D02*
X101949312Y-69008619D01*
X101949312Y-69008619D02*
X102044550Y-68961000D01*
X102044550Y-68961000D02*
X102092169Y-68913380D01*
X102092169Y-68913380D02*
X102139788Y-68818142D01*
X102139788Y-68818142D02*
X102139788Y-68722904D01*
X102139788Y-68722904D02*
X102092169Y-68627666D01*
X102092169Y-68627666D02*
X102044550Y-68580047D01*
X102044550Y-68580047D02*
X101949312Y-68532428D01*
X101949312Y-68532428D02*
X101758836Y-68484809D01*
X101758836Y-68484809D02*
X101663598Y-68437190D01*
X101663598Y-68437190D02*
X101615979Y-68389571D01*
X101615979Y-68389571D02*
X101568360Y-68294333D01*
X101568360Y-68294333D02*
X101568360Y-68199095D01*
X101568360Y-68199095D02*
X101615979Y-68103857D01*
X101615979Y-68103857D02*
X101663598Y-68056238D01*
X101663598Y-68056238D02*
X101758836Y-68008619D01*
X101758836Y-68008619D02*
X101996931Y-68008619D01*
X101996931Y-68008619D02*
X102139788Y-68056238D01*
X102425503Y-68008619D02*
X102996931Y-68008619D01*
X102711217Y-69008619D02*
X102711217Y-68008619D01*
X100469941Y-70904219D02*
X101088988Y-70904219D01*
X101088988Y-70904219D02*
X100755655Y-71285171D01*
X100755655Y-71285171D02*
X100898512Y-71285171D01*
X100898512Y-71285171D02*
X100993750Y-71332790D01*
X100993750Y-71332790D02*
X101041369Y-71380409D01*
X101041369Y-71380409D02*
X101088988Y-71475647D01*
X101088988Y-71475647D02*
X101088988Y-71713742D01*
X101088988Y-71713742D02*
X101041369Y-71808980D01*
X101041369Y-71808980D02*
X100993750Y-71856600D01*
X100993750Y-71856600D02*
X100898512Y-71904219D01*
X100898512Y-71904219D02*
X100612798Y-71904219D01*
X100612798Y-71904219D02*
X100517560Y-71856600D01*
X100517560Y-71856600D02*
X100469941Y-71808980D01*
X101374703Y-70904219D02*
X101708036Y-71904219D01*
X101708036Y-71904219D02*
X102041369Y-70904219D01*
X102279465Y-70904219D02*
X102898512Y-70904219D01*
X102898512Y-70904219D02*
X102565179Y-71285171D01*
X102565179Y-71285171D02*
X102708036Y-71285171D01*
X102708036Y-71285171D02*
X102803274Y-71332790D01*
X102803274Y-71332790D02*
X102850893Y-71380409D01*
X102850893Y-71380409D02*
X102898512Y-71475647D01*
X102898512Y-71475647D02*
X102898512Y-71713742D01*
X102898512Y-71713742D02*
X102850893Y-71808980D01*
X102850893Y-71808980D02*
X102803274Y-71856600D01*
X102803274Y-71856600D02*
X102708036Y-71904219D01*
X102708036Y-71904219D02*
X102422322Y-71904219D01*
X102422322Y-71904219D02*
X102327084Y-71856600D01*
X102327084Y-71856600D02*
X102279465Y-71808980D01*
X100733388Y-73288638D02*
X100638150Y-73241019D01*
X100638150Y-73241019D02*
X100495293Y-73241019D01*
X100495293Y-73241019D02*
X100352436Y-73288638D01*
X100352436Y-73288638D02*
X100257198Y-73383876D01*
X100257198Y-73383876D02*
X100209579Y-73479114D01*
X100209579Y-73479114D02*
X100161960Y-73669590D01*
X100161960Y-73669590D02*
X100161960Y-73812447D01*
X100161960Y-73812447D02*
X100209579Y-74002923D01*
X100209579Y-74002923D02*
X100257198Y-74098161D01*
X100257198Y-74098161D02*
X100352436Y-74193400D01*
X100352436Y-74193400D02*
X100495293Y-74241019D01*
X100495293Y-74241019D02*
X100590531Y-74241019D01*
X100590531Y-74241019D02*
X100733388Y-74193400D01*
X100733388Y-74193400D02*
X100781007Y-74145780D01*
X100781007Y-74145780D02*
X100781007Y-73812447D01*
X100781007Y-73812447D02*
X100590531Y-73812447D01*
X101209579Y-74241019D02*
X101209579Y-73241019D01*
X101209579Y-73241019D02*
X101781007Y-74241019D01*
X101781007Y-74241019D02*
X101781007Y-73241019D01*
X102257198Y-74241019D02*
X102257198Y-73241019D01*
X102257198Y-73241019D02*
X102495293Y-73241019D01*
X102495293Y-73241019D02*
X102638150Y-73288638D01*
X102638150Y-73288638D02*
X102733388Y-73383876D01*
X102733388Y-73383876D02*
X102781007Y-73479114D01*
X102781007Y-73479114D02*
X102828626Y-73669590D01*
X102828626Y-73669590D02*
X102828626Y-73812447D01*
X102828626Y-73812447D02*
X102781007Y-74002923D01*
X102781007Y-74002923D02*
X102733388Y-74098161D01*
X102733388Y-74098161D02*
X102638150Y-74193400D01*
X102638150Y-74193400D02*
X102495293Y-74241019D01*
X102495293Y-74241019D02*
X102257198Y-74241019D01*
X102003388Y-76781019D02*
X101431960Y-76781019D01*
X101717674Y-76781019D02*
X101717674Y-75781019D01*
X101717674Y-75781019D02*
X101622436Y-75923876D01*
X101622436Y-75923876D02*
X101527198Y-76019114D01*
X101527198Y-76019114D02*
X101431960Y-76066733D01*
X102908150Y-75781019D02*
X102431960Y-75781019D01*
X102431960Y-75781019D02*
X102384341Y-76257209D01*
X102384341Y-76257209D02*
X102431960Y-76209590D01*
X102431960Y-76209590D02*
X102527198Y-76161971D01*
X102527198Y-76161971D02*
X102765293Y-76161971D01*
X102765293Y-76161971D02*
X102860531Y-76209590D01*
X102860531Y-76209590D02*
X102908150Y-76257209D01*
X102908150Y-76257209D02*
X102955769Y-76352447D01*
X102955769Y-76352447D02*
X102955769Y-76590542D01*
X102955769Y-76590542D02*
X102908150Y-76685780D01*
X102908150Y-76685780D02*
X102860531Y-76733400D01*
X102860531Y-76733400D02*
X102765293Y-76781019D01*
X102765293Y-76781019D02*
X102527198Y-76781019D01*
X102527198Y-76781019D02*
X102431960Y-76733400D01*
X102431960Y-76733400D02*
X102384341Y-76685780D01*
X102003388Y-79219419D02*
X101431960Y-79219419D01*
X101717674Y-79219419D02*
X101717674Y-78219419D01*
X101717674Y-78219419D02*
X101622436Y-78362276D01*
X101622436Y-78362276D02*
X101527198Y-78457514D01*
X101527198Y-78457514D02*
X101431960Y-78505133D01*
X102860531Y-78552752D02*
X102860531Y-79219419D01*
X102622436Y-78171800D02*
X102384341Y-78886085D01*
X102384341Y-78886085D02*
X103003388Y-78886085D01*
X102003388Y-81759419D02*
X101431960Y-81759419D01*
X101717674Y-81759419D02*
X101717674Y-80759419D01*
X101717674Y-80759419D02*
X101622436Y-80902276D01*
X101622436Y-80902276D02*
X101527198Y-80997514D01*
X101527198Y-80997514D02*
X101431960Y-81045133D01*
X102336722Y-80759419D02*
X102955769Y-80759419D01*
X102955769Y-80759419D02*
X102622436Y-81140371D01*
X102622436Y-81140371D02*
X102765293Y-81140371D01*
X102765293Y-81140371D02*
X102860531Y-81187990D01*
X102860531Y-81187990D02*
X102908150Y-81235609D01*
X102908150Y-81235609D02*
X102955769Y-81330847D01*
X102955769Y-81330847D02*
X102955769Y-81568942D01*
X102955769Y-81568942D02*
X102908150Y-81664180D01*
X102908150Y-81664180D02*
X102860531Y-81711800D01*
X102860531Y-81711800D02*
X102765293Y-81759419D01*
X102765293Y-81759419D02*
X102479579Y-81759419D01*
X102479579Y-81759419D02*
X102384341Y-81711800D01*
X102384341Y-81711800D02*
X102336722Y-81664180D01*
X101952588Y-84299419D02*
X101381160Y-84299419D01*
X101666874Y-84299419D02*
X101666874Y-83299419D01*
X101666874Y-83299419D02*
X101571636Y-83442276D01*
X101571636Y-83442276D02*
X101476398Y-83537514D01*
X101476398Y-83537514D02*
X101381160Y-83585133D01*
X102333541Y-83394657D02*
X102381160Y-83347038D01*
X102381160Y-83347038D02*
X102476398Y-83299419D01*
X102476398Y-83299419D02*
X102714493Y-83299419D01*
X102714493Y-83299419D02*
X102809731Y-83347038D01*
X102809731Y-83347038D02*
X102857350Y-83394657D01*
X102857350Y-83394657D02*
X102904969Y-83489895D01*
X102904969Y-83489895D02*
X102904969Y-83585133D01*
X102904969Y-83585133D02*
X102857350Y-83727990D01*
X102857350Y-83727990D02*
X102285922Y-84299419D01*
X102285922Y-84299419D02*
X102904969Y-84299419D01*
X102054188Y-86991819D02*
X101482760Y-86991819D01*
X101768474Y-86991819D02*
X101768474Y-85991819D01*
X101768474Y-85991819D02*
X101673236Y-86134676D01*
X101673236Y-86134676D02*
X101577998Y-86229914D01*
X101577998Y-86229914D02*
X101482760Y-86277533D01*
X103006569Y-86991819D02*
X102435141Y-86991819D01*
X102720855Y-86991819D02*
X102720855Y-85991819D01*
X102720855Y-85991819D02*
X102625617Y-86134676D01*
X102625617Y-86134676D02*
X102530379Y-86229914D01*
X102530379Y-86229914D02*
X102435141Y-86277533D01*
X101850988Y-89379419D02*
X101279560Y-89379419D01*
X101565274Y-89379419D02*
X101565274Y-88379419D01*
X101565274Y-88379419D02*
X101470036Y-88522276D01*
X101470036Y-88522276D02*
X101374798Y-88617514D01*
X101374798Y-88617514D02*
X101279560Y-88665133D01*
X102470036Y-88379419D02*
X102565274Y-88379419D01*
X102565274Y-88379419D02*
X102660512Y-88427038D01*
X102660512Y-88427038D02*
X102708131Y-88474657D01*
X102708131Y-88474657D02*
X102755750Y-88569895D01*
X102755750Y-88569895D02*
X102803369Y-88760371D01*
X102803369Y-88760371D02*
X102803369Y-88998466D01*
X102803369Y-88998466D02*
X102755750Y-89188942D01*
X102755750Y-89188942D02*
X102708131Y-89284180D01*
X102708131Y-89284180D02*
X102660512Y-89331800D01*
X102660512Y-89331800D02*
X102565274Y-89379419D01*
X102565274Y-89379419D02*
X102470036Y-89379419D01*
X102470036Y-89379419D02*
X102374798Y-89331800D01*
X102374798Y-89331800D02*
X102327179Y-89284180D01*
X102327179Y-89284180D02*
X102279560Y-89188942D01*
X102279560Y-89188942D02*
X102231941Y-88998466D01*
X102231941Y-88998466D02*
X102231941Y-88760371D01*
X102231941Y-88760371D02*
X102279560Y-88569895D01*
X102279560Y-88569895D02*
X102327179Y-88474657D01*
X102327179Y-88474657D02*
X102374798Y-88427038D01*
X102374798Y-88427038D02*
X102470036Y-88379419D01*
X99295179Y-91919419D02*
X99295179Y-90919419D01*
X99295179Y-90919419D02*
X99676131Y-90919419D01*
X99676131Y-90919419D02*
X99771369Y-90967038D01*
X99771369Y-90967038D02*
X99818988Y-91014657D01*
X99818988Y-91014657D02*
X99866607Y-91109895D01*
X99866607Y-91109895D02*
X99866607Y-91252752D01*
X99866607Y-91252752D02*
X99818988Y-91347990D01*
X99818988Y-91347990D02*
X99771369Y-91395609D01*
X99771369Y-91395609D02*
X99676131Y-91443228D01*
X99676131Y-91443228D02*
X99295179Y-91443228D01*
X100866607Y-91824180D02*
X100818988Y-91871800D01*
X100818988Y-91871800D02*
X100676131Y-91919419D01*
X100676131Y-91919419D02*
X100580893Y-91919419D01*
X100580893Y-91919419D02*
X100438036Y-91871800D01*
X100438036Y-91871800D02*
X100342798Y-91776561D01*
X100342798Y-91776561D02*
X100295179Y-91681323D01*
X100295179Y-91681323D02*
X100247560Y-91490847D01*
X100247560Y-91490847D02*
X100247560Y-91347990D01*
X100247560Y-91347990D02*
X100295179Y-91157514D01*
X100295179Y-91157514D02*
X100342798Y-91062276D01*
X100342798Y-91062276D02*
X100438036Y-90967038D01*
X100438036Y-90967038D02*
X100580893Y-90919419D01*
X100580893Y-90919419D02*
X100676131Y-90919419D01*
X100676131Y-90919419D02*
X100818988Y-90967038D01*
X100818988Y-90967038D02*
X100866607Y-91014657D01*
X101818988Y-90967038D02*
X101723750Y-90919419D01*
X101723750Y-90919419D02*
X101580893Y-90919419D01*
X101580893Y-90919419D02*
X101438036Y-90967038D01*
X101438036Y-90967038D02*
X101342798Y-91062276D01*
X101342798Y-91062276D02*
X101295179Y-91157514D01*
X101295179Y-91157514D02*
X101247560Y-91347990D01*
X101247560Y-91347990D02*
X101247560Y-91490847D01*
X101247560Y-91490847D02*
X101295179Y-91681323D01*
X101295179Y-91681323D02*
X101342798Y-91776561D01*
X101342798Y-91776561D02*
X101438036Y-91871800D01*
X101438036Y-91871800D02*
X101580893Y-91919419D01*
X101580893Y-91919419D02*
X101676131Y-91919419D01*
X101676131Y-91919419D02*
X101818988Y-91871800D01*
X101818988Y-91871800D02*
X101866607Y-91824180D01*
X101866607Y-91824180D02*
X101866607Y-91490847D01*
X101866607Y-91490847D02*
X101676131Y-91490847D01*
X102247560Y-91014657D02*
X102295179Y-90967038D01*
X102295179Y-90967038D02*
X102390417Y-90919419D01*
X102390417Y-90919419D02*
X102628512Y-90919419D01*
X102628512Y-90919419D02*
X102723750Y-90967038D01*
X102723750Y-90967038D02*
X102771369Y-91014657D01*
X102771369Y-91014657D02*
X102818988Y-91109895D01*
X102818988Y-91109895D02*
X102818988Y-91205133D01*
X102818988Y-91205133D02*
X102771369Y-91347990D01*
X102771369Y-91347990D02*
X102199941Y-91919419D01*
X102199941Y-91919419D02*
X102818988Y-91919419D01*
X99295179Y-94459419D02*
X99295179Y-93459419D01*
X99295179Y-93459419D02*
X99676131Y-93459419D01*
X99676131Y-93459419D02*
X99771369Y-93507038D01*
X99771369Y-93507038D02*
X99818988Y-93554657D01*
X99818988Y-93554657D02*
X99866607Y-93649895D01*
X99866607Y-93649895D02*
X99866607Y-93792752D01*
X99866607Y-93792752D02*
X99818988Y-93887990D01*
X99818988Y-93887990D02*
X99771369Y-93935609D01*
X99771369Y-93935609D02*
X99676131Y-93983228D01*
X99676131Y-93983228D02*
X99295179Y-93983228D01*
X100295179Y-94459419D02*
X100295179Y-93459419D01*
X100295179Y-93459419D02*
X100533274Y-93459419D01*
X100533274Y-93459419D02*
X100676131Y-93507038D01*
X100676131Y-93507038D02*
X100771369Y-93602276D01*
X100771369Y-93602276D02*
X100818988Y-93697514D01*
X100818988Y-93697514D02*
X100866607Y-93887990D01*
X100866607Y-93887990D02*
X100866607Y-94030847D01*
X100866607Y-94030847D02*
X100818988Y-94221323D01*
X100818988Y-94221323D02*
X100771369Y-94316561D01*
X100771369Y-94316561D02*
X100676131Y-94411800D01*
X100676131Y-94411800D02*
X100533274Y-94459419D01*
X100533274Y-94459419D02*
X100295179Y-94459419D01*
X101818988Y-93507038D02*
X101723750Y-93459419D01*
X101723750Y-93459419D02*
X101580893Y-93459419D01*
X101580893Y-93459419D02*
X101438036Y-93507038D01*
X101438036Y-93507038D02*
X101342798Y-93602276D01*
X101342798Y-93602276D02*
X101295179Y-93697514D01*
X101295179Y-93697514D02*
X101247560Y-93887990D01*
X101247560Y-93887990D02*
X101247560Y-94030847D01*
X101247560Y-94030847D02*
X101295179Y-94221323D01*
X101295179Y-94221323D02*
X101342798Y-94316561D01*
X101342798Y-94316561D02*
X101438036Y-94411800D01*
X101438036Y-94411800D02*
X101580893Y-94459419D01*
X101580893Y-94459419D02*
X101676131Y-94459419D01*
X101676131Y-94459419D02*
X101818988Y-94411800D01*
X101818988Y-94411800D02*
X101866607Y-94364180D01*
X101866607Y-94364180D02*
X101866607Y-94030847D01*
X101866607Y-94030847D02*
X101676131Y-94030847D01*
X102247560Y-93554657D02*
X102295179Y-93507038D01*
X102295179Y-93507038D02*
X102390417Y-93459419D01*
X102390417Y-93459419D02*
X102628512Y-93459419D01*
X102628512Y-93459419D02*
X102723750Y-93507038D01*
X102723750Y-93507038D02*
X102771369Y-93554657D01*
X102771369Y-93554657D02*
X102818988Y-93649895D01*
X102818988Y-93649895D02*
X102818988Y-93745133D01*
X102818988Y-93745133D02*
X102771369Y-93887990D01*
X102771369Y-93887990D02*
X102199941Y-94459419D01*
X102199941Y-94459419D02*
X102818988Y-94459419D01*
X100419141Y-96050219D02*
X101038188Y-96050219D01*
X101038188Y-96050219D02*
X100704855Y-96431171D01*
X100704855Y-96431171D02*
X100847712Y-96431171D01*
X100847712Y-96431171D02*
X100942950Y-96478790D01*
X100942950Y-96478790D02*
X100990569Y-96526409D01*
X100990569Y-96526409D02*
X101038188Y-96621647D01*
X101038188Y-96621647D02*
X101038188Y-96859742D01*
X101038188Y-96859742D02*
X100990569Y-96954980D01*
X100990569Y-96954980D02*
X100942950Y-97002600D01*
X100942950Y-97002600D02*
X100847712Y-97050219D01*
X100847712Y-97050219D02*
X100561998Y-97050219D01*
X100561998Y-97050219D02*
X100466760Y-97002600D01*
X100466760Y-97002600D02*
X100419141Y-96954980D01*
X101323903Y-96050219D02*
X101657236Y-97050219D01*
X101657236Y-97050219D02*
X101990569Y-96050219D01*
X102228665Y-96050219D02*
X102847712Y-96050219D01*
X102847712Y-96050219D02*
X102514379Y-96431171D01*
X102514379Y-96431171D02*
X102657236Y-96431171D01*
X102657236Y-96431171D02*
X102752474Y-96478790D01*
X102752474Y-96478790D02*
X102800093Y-96526409D01*
X102800093Y-96526409D02*
X102847712Y-96621647D01*
X102847712Y-96621647D02*
X102847712Y-96859742D01*
X102847712Y-96859742D02*
X102800093Y-96954980D01*
X102800093Y-96954980D02*
X102752474Y-97002600D01*
X102752474Y-97002600D02*
X102657236Y-97050219D01*
X102657236Y-97050219D02*
X102371522Y-97050219D01*
X102371522Y-97050219D02*
X102276284Y-97002600D01*
X102276284Y-97002600D02*
X102228665Y-96954980D01*
X100834988Y-98739438D02*
X100739750Y-98691819D01*
X100739750Y-98691819D02*
X100596893Y-98691819D01*
X100596893Y-98691819D02*
X100454036Y-98739438D01*
X100454036Y-98739438D02*
X100358798Y-98834676D01*
X100358798Y-98834676D02*
X100311179Y-98929914D01*
X100311179Y-98929914D02*
X100263560Y-99120390D01*
X100263560Y-99120390D02*
X100263560Y-99263247D01*
X100263560Y-99263247D02*
X100311179Y-99453723D01*
X100311179Y-99453723D02*
X100358798Y-99548961D01*
X100358798Y-99548961D02*
X100454036Y-99644200D01*
X100454036Y-99644200D02*
X100596893Y-99691819D01*
X100596893Y-99691819D02*
X100692131Y-99691819D01*
X100692131Y-99691819D02*
X100834988Y-99644200D01*
X100834988Y-99644200D02*
X100882607Y-99596580D01*
X100882607Y-99596580D02*
X100882607Y-99263247D01*
X100882607Y-99263247D02*
X100692131Y-99263247D01*
X101311179Y-99691819D02*
X101311179Y-98691819D01*
X101311179Y-98691819D02*
X101882607Y-99691819D01*
X101882607Y-99691819D02*
X101882607Y-98691819D01*
X102358798Y-99691819D02*
X102358798Y-98691819D01*
X102358798Y-98691819D02*
X102596893Y-98691819D01*
X102596893Y-98691819D02*
X102739750Y-98739438D01*
X102739750Y-98739438D02*
X102834988Y-98834676D01*
X102834988Y-98834676D02*
X102882607Y-98929914D01*
X102882607Y-98929914D02*
X102930226Y-99120390D01*
X102930226Y-99120390D02*
X102930226Y-99263247D01*
X102930226Y-99263247D02*
X102882607Y-99453723D01*
X102882607Y-99453723D02*
X102834988Y-99548961D01*
X102834988Y-99548961D02*
X102739750Y-99644200D01*
X102739750Y-99644200D02*
X102596893Y-99691819D01*
X102596893Y-99691819D02*
X102358798Y-99691819D01*
X102565369Y-101130219D02*
X102089179Y-101130219D01*
X102089179Y-101130219D02*
X102041560Y-101606409D01*
X102041560Y-101606409D02*
X102089179Y-101558790D01*
X102089179Y-101558790D02*
X102184417Y-101511171D01*
X102184417Y-101511171D02*
X102422512Y-101511171D01*
X102422512Y-101511171D02*
X102517750Y-101558790D01*
X102517750Y-101558790D02*
X102565369Y-101606409D01*
X102565369Y-101606409D02*
X102612988Y-101701647D01*
X102612988Y-101701647D02*
X102612988Y-101939742D01*
X102612988Y-101939742D02*
X102565369Y-102034980D01*
X102565369Y-102034980D02*
X102517750Y-102082600D01*
X102517750Y-102082600D02*
X102422512Y-102130219D01*
X102422512Y-102130219D02*
X102184417Y-102130219D01*
X102184417Y-102130219D02*
X102089179Y-102082600D01*
X102089179Y-102082600D02*
X102041560Y-102034980D01*
X102416150Y-103952752D02*
X102416150Y-104619419D01*
X102178055Y-103571800D02*
X101939960Y-104286085D01*
X101939960Y-104286085D02*
X102559007Y-104286085D01*
X101892341Y-106210219D02*
X102511388Y-106210219D01*
X102511388Y-106210219D02*
X102178055Y-106591171D01*
X102178055Y-106591171D02*
X102320912Y-106591171D01*
X102320912Y-106591171D02*
X102416150Y-106638790D01*
X102416150Y-106638790D02*
X102463769Y-106686409D01*
X102463769Y-106686409D02*
X102511388Y-106781647D01*
X102511388Y-106781647D02*
X102511388Y-107019742D01*
X102511388Y-107019742D02*
X102463769Y-107114980D01*
X102463769Y-107114980D02*
X102416150Y-107162600D01*
X102416150Y-107162600D02*
X102320912Y-107210219D01*
X102320912Y-107210219D02*
X102035198Y-107210219D01*
X102035198Y-107210219D02*
X101939960Y-107162600D01*
X101939960Y-107162600D02*
X101892341Y-107114980D01*
X102041560Y-108896257D02*
X102089179Y-108848638D01*
X102089179Y-108848638D02*
X102184417Y-108801019D01*
X102184417Y-108801019D02*
X102422512Y-108801019D01*
X102422512Y-108801019D02*
X102517750Y-108848638D01*
X102517750Y-108848638D02*
X102565369Y-108896257D01*
X102565369Y-108896257D02*
X102612988Y-108991495D01*
X102612988Y-108991495D02*
X102612988Y-109086733D01*
X102612988Y-109086733D02*
X102565369Y-109229590D01*
X102565369Y-109229590D02*
X101993941Y-109801019D01*
X101993941Y-109801019D02*
X102612988Y-109801019D01*
X102612988Y-112290219D02*
X102041560Y-112290219D01*
X102327274Y-112290219D02*
X102327274Y-111290219D01*
X102327274Y-111290219D02*
X102232036Y-111433076D01*
X102232036Y-111433076D02*
X102136798Y-111528314D01*
X102136798Y-111528314D02*
X102041560Y-111575933D01*
X85550550Y-111674352D02*
X85550550Y-112341019D01*
X85312455Y-111293400D02*
X85074360Y-112007685D01*
X85074360Y-112007685D02*
X85693407Y-112007685D01*
X86502931Y-111674352D02*
X86502931Y-112341019D01*
X86264836Y-111293400D02*
X86026741Y-112007685D01*
X86026741Y-112007685D02*
X86645788Y-112007685D01*
X85550550Y-109083552D02*
X85550550Y-109750219D01*
X85312455Y-108702600D02*
X85074360Y-109416885D01*
X85074360Y-109416885D02*
X85693407Y-109416885D01*
X85979122Y-108750219D02*
X86598169Y-108750219D01*
X86598169Y-108750219D02*
X86264836Y-109131171D01*
X86264836Y-109131171D02*
X86407693Y-109131171D01*
X86407693Y-109131171D02*
X86502931Y-109178790D01*
X86502931Y-109178790D02*
X86550550Y-109226409D01*
X86550550Y-109226409D02*
X86598169Y-109321647D01*
X86598169Y-109321647D02*
X86598169Y-109559742D01*
X86598169Y-109559742D02*
X86550550Y-109654980D01*
X86550550Y-109654980D02*
X86502931Y-109702600D01*
X86502931Y-109702600D02*
X86407693Y-109750219D01*
X86407693Y-109750219D02*
X86121979Y-109750219D01*
X86121979Y-109750219D02*
X86026741Y-109702600D01*
X86026741Y-109702600D02*
X85979122Y-109654980D01*
X85550550Y-106340352D02*
X85550550Y-107007019D01*
X85312455Y-105959400D02*
X85074360Y-106673685D01*
X85074360Y-106673685D02*
X85693407Y-106673685D01*
X86026741Y-106102257D02*
X86074360Y-106054638D01*
X86074360Y-106054638D02*
X86169598Y-106007019D01*
X86169598Y-106007019D02*
X86407693Y-106007019D01*
X86407693Y-106007019D02*
X86502931Y-106054638D01*
X86502931Y-106054638D02*
X86550550Y-106102257D01*
X86550550Y-106102257D02*
X86598169Y-106197495D01*
X86598169Y-106197495D02*
X86598169Y-106292733D01*
X86598169Y-106292733D02*
X86550550Y-106435590D01*
X86550550Y-106435590D02*
X85979122Y-107007019D01*
X85979122Y-107007019D02*
X86598169Y-107007019D01*
X85652150Y-104003552D02*
X85652150Y-104670219D01*
X85414055Y-103622600D02*
X85175960Y-104336885D01*
X85175960Y-104336885D02*
X85795007Y-104336885D01*
X86699769Y-104670219D02*
X86128341Y-104670219D01*
X86414055Y-104670219D02*
X86414055Y-103670219D01*
X86414055Y-103670219D02*
X86318817Y-103813076D01*
X86318817Y-103813076D02*
X86223579Y-103908314D01*
X86223579Y-103908314D02*
X86128341Y-103955933D01*
X85179141Y-101079419D02*
X85798188Y-101079419D01*
X85798188Y-101079419D02*
X85464855Y-101460371D01*
X85464855Y-101460371D02*
X85607712Y-101460371D01*
X85607712Y-101460371D02*
X85702950Y-101507990D01*
X85702950Y-101507990D02*
X85750569Y-101555609D01*
X85750569Y-101555609D02*
X85798188Y-101650847D01*
X85798188Y-101650847D02*
X85798188Y-101888942D01*
X85798188Y-101888942D02*
X85750569Y-101984180D01*
X85750569Y-101984180D02*
X85702950Y-102031800D01*
X85702950Y-102031800D02*
X85607712Y-102079419D01*
X85607712Y-102079419D02*
X85321998Y-102079419D01*
X85321998Y-102079419D02*
X85226760Y-102031800D01*
X85226760Y-102031800D02*
X85179141Y-101984180D01*
X86083903Y-101079419D02*
X86417236Y-102079419D01*
X86417236Y-102079419D02*
X86750569Y-101079419D01*
X86988665Y-101079419D02*
X87607712Y-101079419D01*
X87607712Y-101079419D02*
X87274379Y-101460371D01*
X87274379Y-101460371D02*
X87417236Y-101460371D01*
X87417236Y-101460371D02*
X87512474Y-101507990D01*
X87512474Y-101507990D02*
X87560093Y-101555609D01*
X87560093Y-101555609D02*
X87607712Y-101650847D01*
X87607712Y-101650847D02*
X87607712Y-101888942D01*
X87607712Y-101888942D02*
X87560093Y-101984180D01*
X87560093Y-101984180D02*
X87512474Y-102031800D01*
X87512474Y-102031800D02*
X87417236Y-102079419D01*
X87417236Y-102079419D02*
X87131522Y-102079419D01*
X87131522Y-102079419D02*
X87036284Y-102031800D01*
X87036284Y-102031800D02*
X86988665Y-101984180D01*
X85594988Y-98688638D02*
X85499750Y-98641019D01*
X85499750Y-98641019D02*
X85356893Y-98641019D01*
X85356893Y-98641019D02*
X85214036Y-98688638D01*
X85214036Y-98688638D02*
X85118798Y-98783876D01*
X85118798Y-98783876D02*
X85071179Y-98879114D01*
X85071179Y-98879114D02*
X85023560Y-99069590D01*
X85023560Y-99069590D02*
X85023560Y-99212447D01*
X85023560Y-99212447D02*
X85071179Y-99402923D01*
X85071179Y-99402923D02*
X85118798Y-99498161D01*
X85118798Y-99498161D02*
X85214036Y-99593400D01*
X85214036Y-99593400D02*
X85356893Y-99641019D01*
X85356893Y-99641019D02*
X85452131Y-99641019D01*
X85452131Y-99641019D02*
X85594988Y-99593400D01*
X85594988Y-99593400D02*
X85642607Y-99545780D01*
X85642607Y-99545780D02*
X85642607Y-99212447D01*
X85642607Y-99212447D02*
X85452131Y-99212447D01*
X86071179Y-99641019D02*
X86071179Y-98641019D01*
X86071179Y-98641019D02*
X86642607Y-99641019D01*
X86642607Y-99641019D02*
X86642607Y-98641019D01*
X87118798Y-99641019D02*
X87118798Y-98641019D01*
X87118798Y-98641019D02*
X87356893Y-98641019D01*
X87356893Y-98641019D02*
X87499750Y-98688638D01*
X87499750Y-98688638D02*
X87594988Y-98783876D01*
X87594988Y-98783876D02*
X87642607Y-98879114D01*
X87642607Y-98879114D02*
X87690226Y-99069590D01*
X87690226Y-99069590D02*
X87690226Y-99212447D01*
X87690226Y-99212447D02*
X87642607Y-99402923D01*
X87642607Y-99402923D02*
X87594988Y-99498161D01*
X87594988Y-99498161D02*
X87499750Y-99593400D01*
X87499750Y-99593400D02*
X87356893Y-99641019D01*
X87356893Y-99641019D02*
X87118798Y-99641019D01*
X85128341Y-95999419D02*
X85747388Y-95999419D01*
X85747388Y-95999419D02*
X85414055Y-96380371D01*
X85414055Y-96380371D02*
X85556912Y-96380371D01*
X85556912Y-96380371D02*
X85652150Y-96427990D01*
X85652150Y-96427990D02*
X85699769Y-96475609D01*
X85699769Y-96475609D02*
X85747388Y-96570847D01*
X85747388Y-96570847D02*
X85747388Y-96808942D01*
X85747388Y-96808942D02*
X85699769Y-96904180D01*
X85699769Y-96904180D02*
X85652150Y-96951800D01*
X85652150Y-96951800D02*
X85556912Y-96999419D01*
X85556912Y-96999419D02*
X85271198Y-96999419D01*
X85271198Y-96999419D02*
X85175960Y-96951800D01*
X85175960Y-96951800D02*
X85128341Y-96904180D01*
X86318817Y-96427990D02*
X86223579Y-96380371D01*
X86223579Y-96380371D02*
X86175960Y-96332752D01*
X86175960Y-96332752D02*
X86128341Y-96237514D01*
X86128341Y-96237514D02*
X86128341Y-96189895D01*
X86128341Y-96189895D02*
X86175960Y-96094657D01*
X86175960Y-96094657D02*
X86223579Y-96047038D01*
X86223579Y-96047038D02*
X86318817Y-95999419D01*
X86318817Y-95999419D02*
X86509293Y-95999419D01*
X86509293Y-95999419D02*
X86604531Y-96047038D01*
X86604531Y-96047038D02*
X86652150Y-96094657D01*
X86652150Y-96094657D02*
X86699769Y-96189895D01*
X86699769Y-96189895D02*
X86699769Y-96237514D01*
X86699769Y-96237514D02*
X86652150Y-96332752D01*
X86652150Y-96332752D02*
X86604531Y-96380371D01*
X86604531Y-96380371D02*
X86509293Y-96427990D01*
X86509293Y-96427990D02*
X86318817Y-96427990D01*
X86318817Y-96427990D02*
X86223579Y-96475609D01*
X86223579Y-96475609D02*
X86175960Y-96523228D01*
X86175960Y-96523228D02*
X86128341Y-96618466D01*
X86128341Y-96618466D02*
X86128341Y-96808942D01*
X86128341Y-96808942D02*
X86175960Y-96904180D01*
X86175960Y-96904180D02*
X86223579Y-96951800D01*
X86223579Y-96951800D02*
X86318817Y-96999419D01*
X86318817Y-96999419D02*
X86509293Y-96999419D01*
X86509293Y-96999419D02*
X86604531Y-96951800D01*
X86604531Y-96951800D02*
X86652150Y-96904180D01*
X86652150Y-96904180D02*
X86699769Y-96808942D01*
X86699769Y-96808942D02*
X86699769Y-96618466D01*
X86699769Y-96618466D02*
X86652150Y-96523228D01*
X86652150Y-96523228D02*
X86604531Y-96475609D01*
X86604531Y-96475609D02*
X86509293Y-96427990D01*
X85179141Y-93510219D02*
X85798188Y-93510219D01*
X85798188Y-93510219D02*
X85464855Y-93891171D01*
X85464855Y-93891171D02*
X85607712Y-93891171D01*
X85607712Y-93891171D02*
X85702950Y-93938790D01*
X85702950Y-93938790D02*
X85750569Y-93986409D01*
X85750569Y-93986409D02*
X85798188Y-94081647D01*
X85798188Y-94081647D02*
X85798188Y-94319742D01*
X85798188Y-94319742D02*
X85750569Y-94414980D01*
X85750569Y-94414980D02*
X85702950Y-94462600D01*
X85702950Y-94462600D02*
X85607712Y-94510219D01*
X85607712Y-94510219D02*
X85321998Y-94510219D01*
X85321998Y-94510219D02*
X85226760Y-94462600D01*
X85226760Y-94462600D02*
X85179141Y-94414980D01*
X86131522Y-93510219D02*
X86798188Y-93510219D01*
X86798188Y-93510219D02*
X86369617Y-94510219D01*
X85229941Y-90919419D02*
X85848988Y-90919419D01*
X85848988Y-90919419D02*
X85515655Y-91300371D01*
X85515655Y-91300371D02*
X85658512Y-91300371D01*
X85658512Y-91300371D02*
X85753750Y-91347990D01*
X85753750Y-91347990D02*
X85801369Y-91395609D01*
X85801369Y-91395609D02*
X85848988Y-91490847D01*
X85848988Y-91490847D02*
X85848988Y-91728942D01*
X85848988Y-91728942D02*
X85801369Y-91824180D01*
X85801369Y-91824180D02*
X85753750Y-91871800D01*
X85753750Y-91871800D02*
X85658512Y-91919419D01*
X85658512Y-91919419D02*
X85372798Y-91919419D01*
X85372798Y-91919419D02*
X85277560Y-91871800D01*
X85277560Y-91871800D02*
X85229941Y-91824180D01*
X86706131Y-90919419D02*
X86515655Y-90919419D01*
X86515655Y-90919419D02*
X86420417Y-90967038D01*
X86420417Y-90967038D02*
X86372798Y-91014657D01*
X86372798Y-91014657D02*
X86277560Y-91157514D01*
X86277560Y-91157514D02*
X86229941Y-91347990D01*
X86229941Y-91347990D02*
X86229941Y-91728942D01*
X86229941Y-91728942D02*
X86277560Y-91824180D01*
X86277560Y-91824180D02*
X86325179Y-91871800D01*
X86325179Y-91871800D02*
X86420417Y-91919419D01*
X86420417Y-91919419D02*
X86610893Y-91919419D01*
X86610893Y-91919419D02*
X86706131Y-91871800D01*
X86706131Y-91871800D02*
X86753750Y-91824180D01*
X86753750Y-91824180D02*
X86801369Y-91728942D01*
X86801369Y-91728942D02*
X86801369Y-91490847D01*
X86801369Y-91490847D02*
X86753750Y-91395609D01*
X86753750Y-91395609D02*
X86706131Y-91347990D01*
X86706131Y-91347990D02*
X86610893Y-91300371D01*
X86610893Y-91300371D02*
X86420417Y-91300371D01*
X86420417Y-91300371D02*
X86325179Y-91347990D01*
X86325179Y-91347990D02*
X86277560Y-91395609D01*
X86277560Y-91395609D02*
X86229941Y-91490847D01*
X85179141Y-88481019D02*
X85798188Y-88481019D01*
X85798188Y-88481019D02*
X85464855Y-88861971D01*
X85464855Y-88861971D02*
X85607712Y-88861971D01*
X85607712Y-88861971D02*
X85702950Y-88909590D01*
X85702950Y-88909590D02*
X85750569Y-88957209D01*
X85750569Y-88957209D02*
X85798188Y-89052447D01*
X85798188Y-89052447D02*
X85798188Y-89290542D01*
X85798188Y-89290542D02*
X85750569Y-89385780D01*
X85750569Y-89385780D02*
X85702950Y-89433400D01*
X85702950Y-89433400D02*
X85607712Y-89481019D01*
X85607712Y-89481019D02*
X85321998Y-89481019D01*
X85321998Y-89481019D02*
X85226760Y-89433400D01*
X85226760Y-89433400D02*
X85179141Y-89385780D01*
X86702950Y-88481019D02*
X86226760Y-88481019D01*
X86226760Y-88481019D02*
X86179141Y-88957209D01*
X86179141Y-88957209D02*
X86226760Y-88909590D01*
X86226760Y-88909590D02*
X86321998Y-88861971D01*
X86321998Y-88861971D02*
X86560093Y-88861971D01*
X86560093Y-88861971D02*
X86655331Y-88909590D01*
X86655331Y-88909590D02*
X86702950Y-88957209D01*
X86702950Y-88957209D02*
X86750569Y-89052447D01*
X86750569Y-89052447D02*
X86750569Y-89290542D01*
X86750569Y-89290542D02*
X86702950Y-89385780D01*
X86702950Y-89385780D02*
X86655331Y-89433400D01*
X86655331Y-89433400D02*
X86560093Y-89481019D01*
X86560093Y-89481019D02*
X86321998Y-89481019D01*
X86321998Y-89481019D02*
X86226760Y-89433400D01*
X86226760Y-89433400D02*
X86179141Y-89385780D01*
X85229941Y-86245819D02*
X85848988Y-86245819D01*
X85848988Y-86245819D02*
X85515655Y-86626771D01*
X85515655Y-86626771D02*
X85658512Y-86626771D01*
X85658512Y-86626771D02*
X85753750Y-86674390D01*
X85753750Y-86674390D02*
X85801369Y-86722009D01*
X85801369Y-86722009D02*
X85848988Y-86817247D01*
X85848988Y-86817247D02*
X85848988Y-87055342D01*
X85848988Y-87055342D02*
X85801369Y-87150580D01*
X85801369Y-87150580D02*
X85753750Y-87198200D01*
X85753750Y-87198200D02*
X85658512Y-87245819D01*
X85658512Y-87245819D02*
X85372798Y-87245819D01*
X85372798Y-87245819D02*
X85277560Y-87198200D01*
X85277560Y-87198200D02*
X85229941Y-87150580D01*
X86706131Y-86579152D02*
X86706131Y-87245819D01*
X86468036Y-86198200D02*
X86229941Y-86912485D01*
X86229941Y-86912485D02*
X86848988Y-86912485D01*
X84998169Y-83523895D02*
X85493407Y-83523895D01*
X85493407Y-83523895D02*
X85226741Y-83828657D01*
X85226741Y-83828657D02*
X85341026Y-83828657D01*
X85341026Y-83828657D02*
X85417217Y-83866752D01*
X85417217Y-83866752D02*
X85455312Y-83904847D01*
X85455312Y-83904847D02*
X85493407Y-83981038D01*
X85493407Y-83981038D02*
X85493407Y-84171514D01*
X85493407Y-84171514D02*
X85455312Y-84247704D01*
X85455312Y-84247704D02*
X85417217Y-84285800D01*
X85417217Y-84285800D02*
X85341026Y-84323895D01*
X85341026Y-84323895D02*
X85112455Y-84323895D01*
X85112455Y-84323895D02*
X85036264Y-84285800D01*
X85036264Y-84285800D02*
X84998169Y-84247704D01*
X85760074Y-83523895D02*
X86255312Y-83523895D01*
X86255312Y-83523895D02*
X85988646Y-83828657D01*
X85988646Y-83828657D02*
X86102931Y-83828657D01*
X86102931Y-83828657D02*
X86179122Y-83866752D01*
X86179122Y-83866752D02*
X86217217Y-83904847D01*
X86217217Y-83904847D02*
X86255312Y-83981038D01*
X86255312Y-83981038D02*
X86255312Y-84171514D01*
X86255312Y-84171514D02*
X86217217Y-84247704D01*
X86217217Y-84247704D02*
X86179122Y-84285800D01*
X86179122Y-84285800D02*
X86102931Y-84323895D01*
X86102931Y-84323895D02*
X85874360Y-84323895D01*
X85874360Y-84323895D02*
X85798169Y-84285800D01*
X85798169Y-84285800D02*
X85760074Y-84247704D01*
X84925141Y-80149819D02*
X85544188Y-80149819D01*
X85544188Y-80149819D02*
X85210855Y-80530771D01*
X85210855Y-80530771D02*
X85353712Y-80530771D01*
X85353712Y-80530771D02*
X85448950Y-80578390D01*
X85448950Y-80578390D02*
X85496569Y-80626009D01*
X85496569Y-80626009D02*
X85544188Y-80721247D01*
X85544188Y-80721247D02*
X85544188Y-80959342D01*
X85544188Y-80959342D02*
X85496569Y-81054580D01*
X85496569Y-81054580D02*
X85448950Y-81102200D01*
X85448950Y-81102200D02*
X85353712Y-81149819D01*
X85353712Y-81149819D02*
X85067998Y-81149819D01*
X85067998Y-81149819D02*
X84972760Y-81102200D01*
X84972760Y-81102200D02*
X84925141Y-81054580D01*
X85925141Y-80245057D02*
X85972760Y-80197438D01*
X85972760Y-80197438D02*
X86067998Y-80149819D01*
X86067998Y-80149819D02*
X86306093Y-80149819D01*
X86306093Y-80149819D02*
X86401331Y-80197438D01*
X86401331Y-80197438D02*
X86448950Y-80245057D01*
X86448950Y-80245057D02*
X86496569Y-80340295D01*
X86496569Y-80340295D02*
X86496569Y-80435533D01*
X86496569Y-80435533D02*
X86448950Y-80578390D01*
X86448950Y-80578390D02*
X85877522Y-81149819D01*
X85877522Y-81149819D02*
X86496569Y-81149819D01*
X85261655Y-78270219D02*
X85452131Y-78270219D01*
X85452131Y-78270219D02*
X85547369Y-78317838D01*
X85547369Y-78317838D02*
X85642607Y-78413076D01*
X85642607Y-78413076D02*
X85690226Y-78603552D01*
X85690226Y-78603552D02*
X85690226Y-78936885D01*
X85690226Y-78936885D02*
X85642607Y-79127361D01*
X85642607Y-79127361D02*
X85547369Y-79222600D01*
X85547369Y-79222600D02*
X85452131Y-79270219D01*
X85452131Y-79270219D02*
X85261655Y-79270219D01*
X85261655Y-79270219D02*
X85166417Y-79222600D01*
X85166417Y-79222600D02*
X85071179Y-79127361D01*
X85071179Y-79127361D02*
X85023560Y-78936885D01*
X85023560Y-78936885D02*
X85023560Y-78603552D01*
X85023560Y-78603552D02*
X85071179Y-78413076D01*
X85071179Y-78413076D02*
X85166417Y-78317838D01*
X85166417Y-78317838D02*
X85261655Y-78270219D01*
X86309274Y-78270219D02*
X86499750Y-78270219D01*
X86499750Y-78270219D02*
X86594988Y-78317838D01*
X86594988Y-78317838D02*
X86690226Y-78413076D01*
X86690226Y-78413076D02*
X86737845Y-78603552D01*
X86737845Y-78603552D02*
X86737845Y-78936885D01*
X86737845Y-78936885D02*
X86690226Y-79127361D01*
X86690226Y-79127361D02*
X86594988Y-79222600D01*
X86594988Y-79222600D02*
X86499750Y-79270219D01*
X86499750Y-79270219D02*
X86309274Y-79270219D01*
X86309274Y-79270219D02*
X86214036Y-79222600D01*
X86214036Y-79222600D02*
X86118798Y-79127361D01*
X86118798Y-79127361D02*
X86071179Y-78936885D01*
X86071179Y-78936885D02*
X86071179Y-78603552D01*
X86071179Y-78603552D02*
X86118798Y-78413076D01*
X86118798Y-78413076D02*
X86214036Y-78317838D01*
X86214036Y-78317838D02*
X86309274Y-78270219D01*
X85464855Y-75730219D02*
X85655331Y-75730219D01*
X85655331Y-75730219D02*
X85750569Y-75777838D01*
X85750569Y-75777838D02*
X85845807Y-75873076D01*
X85845807Y-75873076D02*
X85893426Y-76063552D01*
X85893426Y-76063552D02*
X85893426Y-76396885D01*
X85893426Y-76396885D02*
X85845807Y-76587361D01*
X85845807Y-76587361D02*
X85750569Y-76682600D01*
X85750569Y-76682600D02*
X85655331Y-76730219D01*
X85655331Y-76730219D02*
X85464855Y-76730219D01*
X85464855Y-76730219D02*
X85369617Y-76682600D01*
X85369617Y-76682600D02*
X85274379Y-76587361D01*
X85274379Y-76587361D02*
X85226760Y-76396885D01*
X85226760Y-76396885D02*
X85226760Y-76063552D01*
X85226760Y-76063552D02*
X85274379Y-75873076D01*
X85274379Y-75873076D02*
X85369617Y-75777838D01*
X85369617Y-75777838D02*
X85464855Y-75730219D01*
X86321998Y-76730219D02*
X86321998Y-75730219D01*
X85594988Y-73644238D02*
X85499750Y-73596619D01*
X85499750Y-73596619D02*
X85356893Y-73596619D01*
X85356893Y-73596619D02*
X85214036Y-73644238D01*
X85214036Y-73644238D02*
X85118798Y-73739476D01*
X85118798Y-73739476D02*
X85071179Y-73834714D01*
X85071179Y-73834714D02*
X85023560Y-74025190D01*
X85023560Y-74025190D02*
X85023560Y-74168047D01*
X85023560Y-74168047D02*
X85071179Y-74358523D01*
X85071179Y-74358523D02*
X85118798Y-74453761D01*
X85118798Y-74453761D02*
X85214036Y-74549000D01*
X85214036Y-74549000D02*
X85356893Y-74596619D01*
X85356893Y-74596619D02*
X85452131Y-74596619D01*
X85452131Y-74596619D02*
X85594988Y-74549000D01*
X85594988Y-74549000D02*
X85642607Y-74501380D01*
X85642607Y-74501380D02*
X85642607Y-74168047D01*
X85642607Y-74168047D02*
X85452131Y-74168047D01*
X86071179Y-74596619D02*
X86071179Y-73596619D01*
X86071179Y-73596619D02*
X86642607Y-74596619D01*
X86642607Y-74596619D02*
X86642607Y-73596619D01*
X87118798Y-74596619D02*
X87118798Y-73596619D01*
X87118798Y-73596619D02*
X87356893Y-73596619D01*
X87356893Y-73596619D02*
X87499750Y-73644238D01*
X87499750Y-73644238D02*
X87594988Y-73739476D01*
X87594988Y-73739476D02*
X87642607Y-73834714D01*
X87642607Y-73834714D02*
X87690226Y-74025190D01*
X87690226Y-74025190D02*
X87690226Y-74168047D01*
X87690226Y-74168047D02*
X87642607Y-74358523D01*
X87642607Y-74358523D02*
X87594988Y-74453761D01*
X87594988Y-74453761D02*
X87499750Y-74549000D01*
X87499750Y-74549000D02*
X87356893Y-74596619D01*
X87356893Y-74596619D02*
X87118798Y-74596619D01*
X85077541Y-70751819D02*
X85696588Y-70751819D01*
X85696588Y-70751819D02*
X85363255Y-71132771D01*
X85363255Y-71132771D02*
X85506112Y-71132771D01*
X85506112Y-71132771D02*
X85601350Y-71180390D01*
X85601350Y-71180390D02*
X85648969Y-71228009D01*
X85648969Y-71228009D02*
X85696588Y-71323247D01*
X85696588Y-71323247D02*
X85696588Y-71561342D01*
X85696588Y-71561342D02*
X85648969Y-71656580D01*
X85648969Y-71656580D02*
X85601350Y-71704200D01*
X85601350Y-71704200D02*
X85506112Y-71751819D01*
X85506112Y-71751819D02*
X85220398Y-71751819D01*
X85220398Y-71751819D02*
X85125160Y-71704200D01*
X85125160Y-71704200D02*
X85077541Y-71656580D01*
X86029922Y-71085152D02*
X86268017Y-71751819D01*
X86268017Y-71751819D02*
X86506112Y-71085152D01*
X86791827Y-70751819D02*
X87410874Y-70751819D01*
X87410874Y-70751819D02*
X87077541Y-71132771D01*
X87077541Y-71132771D02*
X87220398Y-71132771D01*
X87220398Y-71132771D02*
X87315636Y-71180390D01*
X87315636Y-71180390D02*
X87363255Y-71228009D01*
X87363255Y-71228009D02*
X87410874Y-71323247D01*
X87410874Y-71323247D02*
X87410874Y-71561342D01*
X87410874Y-71561342D02*
X87363255Y-71656580D01*
X87363255Y-71656580D02*
X87315636Y-71704200D01*
X87315636Y-71704200D02*
X87220398Y-71751819D01*
X87220398Y-71751819D02*
X86934684Y-71751819D01*
X86934684Y-71751819D02*
X86839446Y-71704200D01*
X86839446Y-71704200D02*
X86791827Y-71656580D01*
X85074360Y-68256257D02*
X85121979Y-68208638D01*
X85121979Y-68208638D02*
X85217217Y-68161019D01*
X85217217Y-68161019D02*
X85455312Y-68161019D01*
X85455312Y-68161019D02*
X85550550Y-68208638D01*
X85550550Y-68208638D02*
X85598169Y-68256257D01*
X85598169Y-68256257D02*
X85645788Y-68351495D01*
X85645788Y-68351495D02*
X85645788Y-68446733D01*
X85645788Y-68446733D02*
X85598169Y-68589590D01*
X85598169Y-68589590D02*
X85026741Y-69161019D01*
X85026741Y-69161019D02*
X85645788Y-69161019D01*
X85979122Y-68161019D02*
X86645788Y-68161019D01*
X86645788Y-68161019D02*
X86217217Y-69161019D01*
X85074360Y-65665457D02*
X85121979Y-65617838D01*
X85121979Y-65617838D02*
X85217217Y-65570219D01*
X85217217Y-65570219D02*
X85455312Y-65570219D01*
X85455312Y-65570219D02*
X85550550Y-65617838D01*
X85550550Y-65617838D02*
X85598169Y-65665457D01*
X85598169Y-65665457D02*
X85645788Y-65760695D01*
X85645788Y-65760695D02*
X85645788Y-65855933D01*
X85645788Y-65855933D02*
X85598169Y-65998790D01*
X85598169Y-65998790D02*
X85026741Y-66570219D01*
X85026741Y-66570219D02*
X85645788Y-66570219D01*
X86502931Y-65570219D02*
X86312455Y-65570219D01*
X86312455Y-65570219D02*
X86217217Y-65617838D01*
X86217217Y-65617838D02*
X86169598Y-65665457D01*
X86169598Y-65665457D02*
X86074360Y-65808314D01*
X86074360Y-65808314D02*
X86026741Y-65998790D01*
X86026741Y-65998790D02*
X86026741Y-66379742D01*
X86026741Y-66379742D02*
X86074360Y-66474980D01*
X86074360Y-66474980D02*
X86121979Y-66522600D01*
X86121979Y-66522600D02*
X86217217Y-66570219D01*
X86217217Y-66570219D02*
X86407693Y-66570219D01*
X86407693Y-66570219D02*
X86502931Y-66522600D01*
X86502931Y-66522600D02*
X86550550Y-66474980D01*
X86550550Y-66474980D02*
X86598169Y-66379742D01*
X86598169Y-66379742D02*
X86598169Y-66141647D01*
X86598169Y-66141647D02*
X86550550Y-66046409D01*
X86550550Y-66046409D02*
X86502931Y-65998790D01*
X86502931Y-65998790D02*
X86407693Y-65951171D01*
X86407693Y-65951171D02*
X86217217Y-65951171D01*
X86217217Y-65951171D02*
X86121979Y-65998790D01*
X86121979Y-65998790D02*
X86074360Y-66046409D01*
X86074360Y-66046409D02*
X86026741Y-66141647D01*
X85074360Y-62973057D02*
X85121979Y-62925438D01*
X85121979Y-62925438D02*
X85217217Y-62877819D01*
X85217217Y-62877819D02*
X85455312Y-62877819D01*
X85455312Y-62877819D02*
X85550550Y-62925438D01*
X85550550Y-62925438D02*
X85598169Y-62973057D01*
X85598169Y-62973057D02*
X85645788Y-63068295D01*
X85645788Y-63068295D02*
X85645788Y-63163533D01*
X85645788Y-63163533D02*
X85598169Y-63306390D01*
X85598169Y-63306390D02*
X85026741Y-63877819D01*
X85026741Y-63877819D02*
X85645788Y-63877819D01*
X86550550Y-62877819D02*
X86074360Y-62877819D01*
X86074360Y-62877819D02*
X86026741Y-63354009D01*
X86026741Y-63354009D02*
X86074360Y-63306390D01*
X86074360Y-63306390D02*
X86169598Y-63258771D01*
X86169598Y-63258771D02*
X86407693Y-63258771D01*
X86407693Y-63258771D02*
X86502931Y-63306390D01*
X86502931Y-63306390D02*
X86550550Y-63354009D01*
X86550550Y-63354009D02*
X86598169Y-63449247D01*
X86598169Y-63449247D02*
X86598169Y-63687342D01*
X86598169Y-63687342D02*
X86550550Y-63782580D01*
X86550550Y-63782580D02*
X86502931Y-63830200D01*
X86502931Y-63830200D02*
X86407693Y-63877819D01*
X86407693Y-63877819D02*
X86169598Y-63877819D01*
X86169598Y-63877819D02*
X86074360Y-63830200D01*
X86074360Y-63830200D02*
X86026741Y-63782580D01*
X85074360Y-60585457D02*
X85121979Y-60537838D01*
X85121979Y-60537838D02*
X85217217Y-60490219D01*
X85217217Y-60490219D02*
X85455312Y-60490219D01*
X85455312Y-60490219D02*
X85550550Y-60537838D01*
X85550550Y-60537838D02*
X85598169Y-60585457D01*
X85598169Y-60585457D02*
X85645788Y-60680695D01*
X85645788Y-60680695D02*
X85645788Y-60775933D01*
X85645788Y-60775933D02*
X85598169Y-60918790D01*
X85598169Y-60918790D02*
X85026741Y-61490219D01*
X85026741Y-61490219D02*
X85645788Y-61490219D01*
X86502931Y-60823552D02*
X86502931Y-61490219D01*
X86264836Y-60442600D02*
X86026741Y-61156885D01*
X86026741Y-61156885D02*
X86645788Y-61156885D01*
X85074360Y-58096257D02*
X85121979Y-58048638D01*
X85121979Y-58048638D02*
X85217217Y-58001019D01*
X85217217Y-58001019D02*
X85455312Y-58001019D01*
X85455312Y-58001019D02*
X85550550Y-58048638D01*
X85550550Y-58048638D02*
X85598169Y-58096257D01*
X85598169Y-58096257D02*
X85645788Y-58191495D01*
X85645788Y-58191495D02*
X85645788Y-58286733D01*
X85645788Y-58286733D02*
X85598169Y-58429590D01*
X85598169Y-58429590D02*
X85026741Y-59001019D01*
X85026741Y-59001019D02*
X85645788Y-59001019D01*
X85979122Y-58001019D02*
X86598169Y-58001019D01*
X86598169Y-58001019D02*
X86264836Y-58381971D01*
X86264836Y-58381971D02*
X86407693Y-58381971D01*
X86407693Y-58381971D02*
X86502931Y-58429590D01*
X86502931Y-58429590D02*
X86550550Y-58477209D01*
X86550550Y-58477209D02*
X86598169Y-58572447D01*
X86598169Y-58572447D02*
X86598169Y-58810542D01*
X86598169Y-58810542D02*
X86550550Y-58905780D01*
X86550550Y-58905780D02*
X86502931Y-58953400D01*
X86502931Y-58953400D02*
X86407693Y-59001019D01*
X86407693Y-59001019D02*
X86121979Y-59001019D01*
X86121979Y-59001019D02*
X86026741Y-58953400D01*
X86026741Y-58953400D02*
X85979122Y-58905780D01*
X88296918Y-88037585D02*
X87724498Y-88610005D01*
X87724498Y-88610005D02*
X87690826Y-88711020D01*
X87690826Y-88711020D02*
X87690826Y-88778364D01*
X87690826Y-88778364D02*
X87724498Y-88879379D01*
X87724498Y-88879379D02*
X87859185Y-89014066D01*
X87859185Y-89014066D02*
X87960200Y-89047738D01*
X87960200Y-89047738D02*
X88027544Y-89047738D01*
X88027544Y-89047738D02*
X88128559Y-89014066D01*
X88128559Y-89014066D02*
X88700979Y-88441646D01*
X89105040Y-89317112D02*
X88633635Y-89788516D01*
X89206055Y-88879379D02*
X88532620Y-89216097D01*
X88532620Y-89216097D02*
X88970353Y-89653829D01*
X91935467Y-102362800D02*
X92078324Y-102410419D01*
X92078324Y-102410419D02*
X92316419Y-102410419D01*
X92316419Y-102410419D02*
X92411657Y-102362800D01*
X92411657Y-102362800D02*
X92459276Y-102315180D01*
X92459276Y-102315180D02*
X92506895Y-102219942D01*
X92506895Y-102219942D02*
X92506895Y-102124704D01*
X92506895Y-102124704D02*
X92459276Y-102029466D01*
X92459276Y-102029466D02*
X92411657Y-101981847D01*
X92411657Y-101981847D02*
X92316419Y-101934228D01*
X92316419Y-101934228D02*
X92125943Y-101886609D01*
X92125943Y-101886609D02*
X92030705Y-101838990D01*
X92030705Y-101838990D02*
X91983086Y-101791371D01*
X91983086Y-101791371D02*
X91935467Y-101696133D01*
X91935467Y-101696133D02*
X91935467Y-101600895D01*
X91935467Y-101600895D02*
X91983086Y-101505657D01*
X91983086Y-101505657D02*
X92030705Y-101458038D01*
X92030705Y-101458038D02*
X92125943Y-101410419D01*
X92125943Y-101410419D02*
X92364038Y-101410419D01*
X92364038Y-101410419D02*
X92506895Y-101458038D01*
X92840229Y-101410419D02*
X93078324Y-102410419D01*
X93078324Y-102410419D02*
X93268800Y-101696133D01*
X93268800Y-101696133D02*
X93459276Y-102410419D01*
X93459276Y-102410419D02*
X93697372Y-101410419D01*
X94602133Y-102410419D02*
X94030705Y-102410419D01*
X94316419Y-102410419D02*
X94316419Y-101410419D01*
X94316419Y-101410419D02*
X94221181Y-101553276D01*
X94221181Y-101553276D02*
X94125943Y-101648514D01*
X94125943Y-101648514D02*
X94030705Y-101696133D01*
X91691619Y-67527466D02*
X91215428Y-67860799D01*
X91691619Y-68098894D02*
X90691619Y-68098894D01*
X90691619Y-68098894D02*
X90691619Y-67717942D01*
X90691619Y-67717942D02*
X90739238Y-67622704D01*
X90739238Y-67622704D02*
X90786857Y-67575085D01*
X90786857Y-67575085D02*
X90882095Y-67527466D01*
X90882095Y-67527466D02*
X91024952Y-67527466D01*
X91024952Y-67527466D02*
X91120190Y-67575085D01*
X91120190Y-67575085D02*
X91167809Y-67622704D01*
X91167809Y-67622704D02*
X91215428Y-67717942D01*
X91215428Y-67717942D02*
X91215428Y-68098894D01*
X90786857Y-67146513D02*
X90739238Y-67098894D01*
X90739238Y-67098894D02*
X90691619Y-67003656D01*
X90691619Y-67003656D02*
X90691619Y-66765561D01*
X90691619Y-66765561D02*
X90739238Y-66670323D01*
X90739238Y-66670323D02*
X90786857Y-66622704D01*
X90786857Y-66622704D02*
X90882095Y-66575085D01*
X90882095Y-66575085D02*
X90977333Y-66575085D01*
X90977333Y-66575085D02*
X91120190Y-66622704D01*
X91120190Y-66622704D02*
X91691619Y-67194132D01*
X91691619Y-67194132D02*
X91691619Y-66575085D01*
X99960133Y-70412780D02*
X99912514Y-70460400D01*
X99912514Y-70460400D02*
X99769657Y-70508019D01*
X99769657Y-70508019D02*
X99674419Y-70508019D01*
X99674419Y-70508019D02*
X99531562Y-70460400D01*
X99531562Y-70460400D02*
X99436324Y-70365161D01*
X99436324Y-70365161D02*
X99388705Y-70269923D01*
X99388705Y-70269923D02*
X99341086Y-70079447D01*
X99341086Y-70079447D02*
X99341086Y-69936590D01*
X99341086Y-69936590D02*
X99388705Y-69746114D01*
X99388705Y-69746114D02*
X99436324Y-69650876D01*
X99436324Y-69650876D02*
X99531562Y-69555638D01*
X99531562Y-69555638D02*
X99674419Y-69508019D01*
X99674419Y-69508019D02*
X99769657Y-69508019D01*
X99769657Y-69508019D02*
X99912514Y-69555638D01*
X99912514Y-69555638D02*
X99960133Y-69603257D01*
X100341086Y-69603257D02*
X100388705Y-69555638D01*
X100388705Y-69555638D02*
X100483943Y-69508019D01*
X100483943Y-69508019D02*
X100722038Y-69508019D01*
X100722038Y-69508019D02*
X100817276Y-69555638D01*
X100817276Y-69555638D02*
X100864895Y-69603257D01*
X100864895Y-69603257D02*
X100912514Y-69698495D01*
X100912514Y-69698495D02*
X100912514Y-69793733D01*
X100912514Y-69793733D02*
X100864895Y-69936590D01*
X100864895Y-69936590D02*
X100293467Y-70508019D01*
X100293467Y-70508019D02*
X100912514Y-70508019D01*
X100844819Y-110061333D02*
X101559104Y-110061333D01*
X101559104Y-110061333D02*
X101701961Y-110108952D01*
X101701961Y-110108952D02*
X101797200Y-110204190D01*
X101797200Y-110204190D02*
X101844819Y-110347047D01*
X101844819Y-110347047D02*
X101844819Y-110442285D01*
X101178152Y-109156571D02*
X101844819Y-109156571D01*
X100797200Y-109394666D02*
X101511485Y-109632761D01*
X101511485Y-109632761D02*
X101511485Y-109013714D01*
X93032342Y-75645180D02*
X92984723Y-75692800D01*
X92984723Y-75692800D02*
X92841866Y-75740419D01*
X92841866Y-75740419D02*
X92746628Y-75740419D01*
X92746628Y-75740419D02*
X92603771Y-75692800D01*
X92603771Y-75692800D02*
X92508533Y-75597561D01*
X92508533Y-75597561D02*
X92460914Y-75502323D01*
X92460914Y-75502323D02*
X92413295Y-75311847D01*
X92413295Y-75311847D02*
X92413295Y-75168990D01*
X92413295Y-75168990D02*
X92460914Y-74978514D01*
X92460914Y-74978514D02*
X92508533Y-74883276D01*
X92508533Y-74883276D02*
X92603771Y-74788038D01*
X92603771Y-74788038D02*
X92746628Y-74740419D01*
X92746628Y-74740419D02*
X92841866Y-74740419D01*
X92841866Y-74740419D02*
X92984723Y-74788038D01*
X92984723Y-74788038D02*
X93032342Y-74835657D01*
X93984723Y-75740419D02*
X93413295Y-75740419D01*
X93699009Y-75740419D02*
X93699009Y-74740419D01*
X93699009Y-74740419D02*
X93603771Y-74883276D01*
X93603771Y-74883276D02*
X93508533Y-74978514D01*
X93508533Y-74978514D02*
X93413295Y-75026133D01*
X94603771Y-74740419D02*
X94699009Y-74740419D01*
X94699009Y-74740419D02*
X94794247Y-74788038D01*
X94794247Y-74788038D02*
X94841866Y-74835657D01*
X94841866Y-74835657D02*
X94889485Y-74930895D01*
X94889485Y-74930895D02*
X94937104Y-75121371D01*
X94937104Y-75121371D02*
X94937104Y-75359466D01*
X94937104Y-75359466D02*
X94889485Y-75549942D01*
X94889485Y-75549942D02*
X94841866Y-75645180D01*
X94841866Y-75645180D02*
X94794247Y-75692800D01*
X94794247Y-75692800D02*
X94699009Y-75740419D01*
X94699009Y-75740419D02*
X94603771Y-75740419D01*
X94603771Y-75740419D02*
X94508533Y-75692800D01*
X94508533Y-75692800D02*
X94460914Y-75645180D01*
X94460914Y-75645180D02*
X94413295Y-75549942D01*
X94413295Y-75549942D02*
X94365676Y-75359466D01*
X94365676Y-75359466D02*
X94365676Y-75121371D01*
X94365676Y-75121371D02*
X94413295Y-74930895D01*
X94413295Y-74930895D02*
X94460914Y-74835657D01*
X94460914Y-74835657D02*
X94508533Y-74788038D01*
X94508533Y-74788038D02*
X94603771Y-74740419D01*
X90322495Y-68898419D02*
X90893923Y-68898419D01*
X90608209Y-69898419D02*
X90608209Y-68898419D01*
X91132019Y-68898419D02*
X91798685Y-69898419D01*
X91798685Y-68898419D02*
X91132019Y-69898419D01*
X96974819Y-65901866D02*
X96498628Y-66235199D01*
X96974819Y-66473294D02*
X95974819Y-66473294D01*
X95974819Y-66473294D02*
X95974819Y-66092342D01*
X95974819Y-66092342D02*
X96022438Y-65997104D01*
X96022438Y-65997104D02*
X96070057Y-65949485D01*
X96070057Y-65949485D02*
X96165295Y-65901866D01*
X96165295Y-65901866D02*
X96308152Y-65901866D01*
X96308152Y-65901866D02*
X96403390Y-65949485D01*
X96403390Y-65949485D02*
X96451009Y-65997104D01*
X96451009Y-65997104D02*
X96498628Y-66092342D01*
X96498628Y-66092342D02*
X96498628Y-66473294D01*
X96974819Y-64949485D02*
X96974819Y-65520913D01*
X96974819Y-65235199D02*
X95974819Y-65235199D01*
X95974819Y-65235199D02*
X96117676Y-65330437D01*
X96117676Y-65330437D02*
X96212914Y-65425675D01*
X96212914Y-65425675D02*
X96260533Y-65520913D01*
X100867380Y-60771066D02*
X100915000Y-60818685D01*
X100915000Y-60818685D02*
X100962619Y-60961542D01*
X100962619Y-60961542D02*
X100962619Y-61056780D01*
X100962619Y-61056780D02*
X100915000Y-61199637D01*
X100915000Y-61199637D02*
X100819761Y-61294875D01*
X100819761Y-61294875D02*
X100724523Y-61342494D01*
X100724523Y-61342494D02*
X100534047Y-61390113D01*
X100534047Y-61390113D02*
X100391190Y-61390113D01*
X100391190Y-61390113D02*
X100200714Y-61342494D01*
X100200714Y-61342494D02*
X100105476Y-61294875D01*
X100105476Y-61294875D02*
X100010238Y-61199637D01*
X100010238Y-61199637D02*
X99962619Y-61056780D01*
X99962619Y-61056780D02*
X99962619Y-60961542D01*
X99962619Y-60961542D02*
X100010238Y-60818685D01*
X100010238Y-60818685D02*
X100057857Y-60771066D01*
X99962619Y-60437732D02*
X99962619Y-59818685D01*
X99962619Y-59818685D02*
X100343571Y-60152018D01*
X100343571Y-60152018D02*
X100343571Y-60009161D01*
X100343571Y-60009161D02*
X100391190Y-59913923D01*
X100391190Y-59913923D02*
X100438809Y-59866304D01*
X100438809Y-59866304D02*
X100534047Y-59818685D01*
X100534047Y-59818685D02*
X100772142Y-59818685D01*
X100772142Y-59818685D02*
X100867380Y-59866304D01*
X100867380Y-59866304D02*
X100915000Y-59913923D01*
X100915000Y-59913923D02*
X100962619Y-60009161D01*
X100962619Y-60009161D02*
X100962619Y-60294875D01*
X100962619Y-60294875D02*
X100915000Y-60390113D01*
X100915000Y-60390113D02*
X100867380Y-60437732D01*
X88897619Y-61837866D02*
X88421428Y-62171199D01*
X88897619Y-62409294D02*
X87897619Y-62409294D01*
X87897619Y-62409294D02*
X87897619Y-62028342D01*
X87897619Y-62028342D02*
X87945238Y-61933104D01*
X87945238Y-61933104D02*
X87992857Y-61885485D01*
X87992857Y-61885485D02*
X88088095Y-61837866D01*
X88088095Y-61837866D02*
X88230952Y-61837866D01*
X88230952Y-61837866D02*
X88326190Y-61885485D01*
X88326190Y-61885485D02*
X88373809Y-61933104D01*
X88373809Y-61933104D02*
X88421428Y-62028342D01*
X88421428Y-62028342D02*
X88421428Y-62409294D01*
X87897619Y-60933104D02*
X87897619Y-61409294D01*
X87897619Y-61409294D02*
X88373809Y-61456913D01*
X88373809Y-61456913D02*
X88326190Y-61409294D01*
X88326190Y-61409294D02*
X88278571Y-61314056D01*
X88278571Y-61314056D02*
X88278571Y-61075961D01*
X88278571Y-61075961D02*
X88326190Y-60980723D01*
X88326190Y-60980723D02*
X88373809Y-60933104D01*
X88373809Y-60933104D02*
X88469047Y-60885485D01*
X88469047Y-60885485D02*
X88707142Y-60885485D01*
X88707142Y-60885485D02*
X88802380Y-60933104D01*
X88802380Y-60933104D02*
X88850000Y-60980723D01*
X88850000Y-60980723D02*
X88897619Y-61075961D01*
X88897619Y-61075961D02*
X88897619Y-61314056D01*
X88897619Y-61314056D02*
X88850000Y-61409294D01*
X88850000Y-61409294D02*
X88802380Y-61456913D01*
X89019142Y-76356380D02*
X88971523Y-76404000D01*
X88971523Y-76404000D02*
X88828666Y-76451619D01*
X88828666Y-76451619D02*
X88733428Y-76451619D01*
X88733428Y-76451619D02*
X88590571Y-76404000D01*
X88590571Y-76404000D02*
X88495333Y-76308761D01*
X88495333Y-76308761D02*
X88447714Y-76213523D01*
X88447714Y-76213523D02*
X88400095Y-76023047D01*
X88400095Y-76023047D02*
X88400095Y-75880190D01*
X88400095Y-75880190D02*
X88447714Y-75689714D01*
X88447714Y-75689714D02*
X88495333Y-75594476D01*
X88495333Y-75594476D02*
X88590571Y-75499238D01*
X88590571Y-75499238D02*
X88733428Y-75451619D01*
X88733428Y-75451619D02*
X88828666Y-75451619D01*
X88828666Y-75451619D02*
X88971523Y-75499238D01*
X88971523Y-75499238D02*
X89019142Y-75546857D01*
X89971523Y-76451619D02*
X89400095Y-76451619D01*
X89685809Y-76451619D02*
X89685809Y-75451619D01*
X89685809Y-75451619D02*
X89590571Y-75594476D01*
X89590571Y-75594476D02*
X89495333Y-75689714D01*
X89495333Y-75689714D02*
X89400095Y-75737333D01*
X90923904Y-76451619D02*
X90352476Y-76451619D01*
X90638190Y-76451619D02*
X90638190Y-75451619D01*
X90638190Y-75451619D02*
X90542952Y-75594476D01*
X90542952Y-75594476D02*
X90447714Y-75689714D01*
X90447714Y-75689714D02*
X90352476Y-75737333D01*
X89761219Y-95010266D02*
X89285028Y-95343599D01*
X89761219Y-95581694D02*
X88761219Y-95581694D01*
X88761219Y-95581694D02*
X88761219Y-95200742D01*
X88761219Y-95200742D02*
X88808838Y-95105504D01*
X88808838Y-95105504D02*
X88856457Y-95057885D01*
X88856457Y-95057885D02*
X88951695Y-95010266D01*
X88951695Y-95010266D02*
X89094552Y-95010266D01*
X89094552Y-95010266D02*
X89189790Y-95057885D01*
X89189790Y-95057885D02*
X89237409Y-95105504D01*
X89237409Y-95105504D02*
X89285028Y-95200742D01*
X89285028Y-95200742D02*
X89285028Y-95581694D01*
X88761219Y-94676932D02*
X88761219Y-94010266D01*
X88761219Y-94010266D02*
X89761219Y-94438837D01*
X96924019Y-72353466D02*
X96447828Y-72686799D01*
X96924019Y-72924894D02*
X95924019Y-72924894D01*
X95924019Y-72924894D02*
X95924019Y-72543942D01*
X95924019Y-72543942D02*
X95971638Y-72448704D01*
X95971638Y-72448704D02*
X96019257Y-72401085D01*
X96019257Y-72401085D02*
X96114495Y-72353466D01*
X96114495Y-72353466D02*
X96257352Y-72353466D01*
X96257352Y-72353466D02*
X96352590Y-72401085D01*
X96352590Y-72401085D02*
X96400209Y-72448704D01*
X96400209Y-72448704D02*
X96447828Y-72543942D01*
X96447828Y-72543942D02*
X96447828Y-72924894D01*
X95924019Y-72020132D02*
X96924019Y-71353466D01*
X95924019Y-71353466D02*
X96924019Y-72020132D01*
X93305333Y-93215619D02*
X92972000Y-92739428D01*
X92733905Y-93215619D02*
X92733905Y-92215619D01*
X92733905Y-92215619D02*
X93114857Y-92215619D01*
X93114857Y-92215619D02*
X93210095Y-92263238D01*
X93210095Y-92263238D02*
X93257714Y-92310857D01*
X93257714Y-92310857D02*
X93305333Y-92406095D01*
X93305333Y-92406095D02*
X93305333Y-92548952D01*
X93305333Y-92548952D02*
X93257714Y-92644190D01*
X93257714Y-92644190D02*
X93210095Y-92691809D01*
X93210095Y-92691809D02*
X93114857Y-92739428D01*
X93114857Y-92739428D02*
X92733905Y-92739428D01*
X94162476Y-92215619D02*
X93972000Y-92215619D01*
X93972000Y-92215619D02*
X93876762Y-92263238D01*
X93876762Y-92263238D02*
X93829143Y-92310857D01*
X93829143Y-92310857D02*
X93733905Y-92453714D01*
X93733905Y-92453714D02*
X93686286Y-92644190D01*
X93686286Y-92644190D02*
X93686286Y-93025142D01*
X93686286Y-93025142D02*
X93733905Y-93120380D01*
X93733905Y-93120380D02*
X93781524Y-93168000D01*
X93781524Y-93168000D02*
X93876762Y-93215619D01*
X93876762Y-93215619D02*
X94067238Y-93215619D01*
X94067238Y-93215619D02*
X94162476Y-93168000D01*
X94162476Y-93168000D02*
X94210095Y-93120380D01*
X94210095Y-93120380D02*
X94257714Y-93025142D01*
X94257714Y-93025142D02*
X94257714Y-92787047D01*
X94257714Y-92787047D02*
X94210095Y-92691809D01*
X94210095Y-92691809D02*
X94162476Y-92644190D01*
X94162476Y-92644190D02*
X94067238Y-92596571D01*
X94067238Y-92596571D02*
X93876762Y-92596571D01*
X93876762Y-92596571D02*
X93781524Y-92644190D01*
X93781524Y-92644190D02*
X93733905Y-92691809D01*
X93733905Y-92691809D02*
X93686286Y-92787047D01*
X98098780Y-95365866D02*
X98146400Y-95413485D01*
X98146400Y-95413485D02*
X98194019Y-95556342D01*
X98194019Y-95556342D02*
X98194019Y-95651580D01*
X98194019Y-95651580D02*
X98146400Y-95794437D01*
X98146400Y-95794437D02*
X98051161Y-95889675D01*
X98051161Y-95889675D02*
X97955923Y-95937294D01*
X97955923Y-95937294D02*
X97765447Y-95984913D01*
X97765447Y-95984913D02*
X97622590Y-95984913D01*
X97622590Y-95984913D02*
X97432114Y-95937294D01*
X97432114Y-95937294D02*
X97336876Y-95889675D01*
X97336876Y-95889675D02*
X97241638Y-95794437D01*
X97241638Y-95794437D02*
X97194019Y-95651580D01*
X97194019Y-95651580D02*
X97194019Y-95556342D01*
X97194019Y-95556342D02*
X97241638Y-95413485D01*
X97241638Y-95413485D02*
X97289257Y-95365866D01*
X97194019Y-94461104D02*
X97194019Y-94937294D01*
X97194019Y-94937294D02*
X97670209Y-94984913D01*
X97670209Y-94984913D02*
X97622590Y-94937294D01*
X97622590Y-94937294D02*
X97574971Y-94842056D01*
X97574971Y-94842056D02*
X97574971Y-94603961D01*
X97574971Y-94603961D02*
X97622590Y-94508723D01*
X97622590Y-94508723D02*
X97670209Y-94461104D01*
X97670209Y-94461104D02*
X97765447Y-94413485D01*
X97765447Y-94413485D02*
X98003542Y-94413485D01*
X98003542Y-94413485D02*
X98098780Y-94461104D01*
X98098780Y-94461104D02*
X98146400Y-94508723D01*
X98146400Y-94508723D02*
X98194019Y-94603961D01*
X98194019Y-94603961D02*
X98194019Y-94842056D01*
X98194019Y-94842056D02*
X98146400Y-94937294D01*
X98146400Y-94937294D02*
X98098780Y-94984913D01*
D11*
%TO.C,U4*%
X93647400Y-76537969D02*
X93240814Y-76944555D01*
X86420769Y-83764600D02*
X86827355Y-83358014D01*
X94053986Y-76944555D02*
X93647400Y-76537969D01*
X86827355Y-84171186D02*
X86420769Y-83764600D01*
X100467445Y-83358014D02*
X100874031Y-83764600D01*
X93240814Y-90584645D02*
X93647400Y-90991231D01*
X100874031Y-83764600D02*
X100467445Y-84171186D01*
X94053986Y-90584645D02*
X94966154Y-91496813D01*
X93647400Y-90991231D02*
X94053986Y-90584645D01*
%TO.C,Y1*%
X87916000Y-70232000D02*
X87916000Y-73532000D01*
X87916000Y-73532000D02*
X91916000Y-73532000D01*
%TO.C,SW1*%
X90750000Y-99096000D02*
X97210000Y-99096000D01*
X90750000Y-99126000D02*
X90750000Y-99096000D01*
X90750000Y-101026000D02*
X90750000Y-103626000D01*
X90750000Y-105556000D02*
X90750000Y-105526000D01*
X90750000Y-105556000D02*
X97210000Y-105556000D01*
X97210000Y-99096000D02*
X97210000Y-99126000D01*
X97210000Y-101026000D02*
X97210000Y-103626000D01*
X97210000Y-105556000D02*
X97210000Y-105526000D01*
%TO.C,R2*%
X92441500Y-67293258D02*
X92441500Y-66818742D01*
X93486500Y-67293258D02*
X93486500Y-66818742D01*
%TO.C,U3*%
X98044000Y-69124000D02*
X99844000Y-69124000D01*
X98044000Y-69124000D02*
X97244000Y-69124000D01*
X98044000Y-66004000D02*
X98844000Y-66004000D01*
X98044000Y-66004000D02*
X97244000Y-66004000D01*
%TO.C,C2*%
X97636420Y-70102000D02*
X97917580Y-70102000D01*
X97636420Y-71122000D02*
X97917580Y-71122000D01*
%TO.C,J4*%
X100390000Y-108398000D02*
X99820000Y-108398000D01*
X100390000Y-108398000D02*
X100390000Y-111058000D01*
X99820000Y-108398000D02*
X99820000Y-106878000D01*
X98300000Y-108398000D02*
X94740000Y-108398000D01*
X93220000Y-108398000D02*
X89660000Y-108398000D01*
X87570000Y-108398000D02*
X87570000Y-111058000D01*
X100390000Y-111058000D02*
X97280000Y-111058000D01*
X95760000Y-111058000D02*
X92200000Y-111058000D01*
X90680000Y-111058000D02*
X87570000Y-111058000D01*
X88140000Y-111058000D02*
X87570000Y-111058000D01*
%TO.C,C10*%
X93839420Y-73150000D02*
X94120580Y-73150000D01*
X93839420Y-74170000D02*
X94120580Y-74170000D01*
%TO.C,TX*%
X93699000Y-69127000D02*
X92229000Y-69127000D01*
X92229000Y-69127000D02*
X92229000Y-71412000D01*
X93699000Y-71412000D02*
X93699000Y-69127000D01*
%TO.C,R1*%
X94473500Y-67293258D02*
X94473500Y-66818742D01*
X95518500Y-67293258D02*
X95518500Y-66818742D01*
%TO.C,J1*%
X99000000Y-60044000D02*
X99000000Y-61744000D01*
X89660000Y-60044000D02*
X89660000Y-61744000D01*
%TO.C,C3*%
X99972400Y-63284980D02*
X99972400Y-63003820D01*
X100992400Y-63284980D02*
X100992400Y-63003820D01*
%TO.C,R5*%
X88152500Y-59046342D02*
X88152500Y-59520858D01*
X87107500Y-59046342D02*
X87107500Y-59520858D01*
%TO.C,C11*%
X89775420Y-73912000D02*
X90056580Y-73912000D01*
X89775420Y-74932000D02*
X90056580Y-74932000D01*
%TO.C,R7*%
X91302100Y-94707942D02*
X91302100Y-95182458D01*
X90257100Y-94707942D02*
X90257100Y-95182458D01*
%TO.C,RX*%
X95731000Y-69127000D02*
X94261000Y-69127000D01*
X94261000Y-69127000D02*
X94261000Y-71412000D01*
X95731000Y-71412000D02*
X95731000Y-69127000D01*
%TO.C,R6*%
X95641900Y-95233258D02*
X95641900Y-94758742D01*
X96686900Y-95233258D02*
X96686900Y-94758742D01*
%TO.C,C5*%
X94032800Y-94855420D02*
X94032800Y-95136580D01*
X93012800Y-94855420D02*
X93012800Y-95136580D01*
%TD*%
%LPC*%
D12*
%TO.C,U4*%
X92471835Y-90597019D03*
X91906150Y-90031334D03*
X91340464Y-89465648D03*
X90774779Y-88899963D03*
X90209093Y-88334278D03*
X89643408Y-87768592D03*
X89077722Y-87202907D03*
X88512037Y-86637221D03*
X87946352Y-86071536D03*
X87380666Y-85505850D03*
X86814981Y-84940165D03*
D13*
X86814981Y-82589035D03*
X87380666Y-82023350D03*
X87946352Y-81457664D03*
X88512037Y-80891979D03*
X89077722Y-80326293D03*
X89643408Y-79760608D03*
X90209093Y-79194922D03*
X90774779Y-78629237D03*
X91340464Y-78063552D03*
X91906150Y-77497866D03*
X92471835Y-76932181D03*
D12*
X94822965Y-76932181D03*
X95388650Y-77497866D03*
X95954336Y-78063552D03*
X96520021Y-78629237D03*
X97085707Y-79194922D03*
X97651392Y-79760608D03*
X98217078Y-80326293D03*
X98782763Y-80891979D03*
X99348448Y-81457664D03*
X99914134Y-82023350D03*
X100479819Y-82589035D03*
D13*
X100479819Y-84940165D03*
X99914134Y-85505850D03*
X99348448Y-86071536D03*
X98782763Y-86637221D03*
X98217078Y-87202907D03*
X97651392Y-87768592D03*
X97085707Y-88334278D03*
X96520021Y-88899963D03*
X95954336Y-89465648D03*
X95388650Y-90031334D03*
X94822965Y-90597019D03*
%TD*%
D14*
%TO.C,Y1*%
X88816000Y-72732000D03*
X91016000Y-72732000D03*
X91016000Y-71032000D03*
X88816000Y-71032000D03*
%TD*%
D15*
%TO.C,SW1*%
X90005000Y-100076000D03*
X97955000Y-100076000D03*
X90005000Y-104576000D03*
X97955000Y-104576000D03*
%TD*%
D16*
%TO.C,R2*%
X92964000Y-67881000D03*
X92964000Y-66231000D03*
%TD*%
D17*
%TO.C,U3*%
X99181500Y-68514000D03*
X99181500Y-66614000D03*
X96906500Y-67564000D03*
%TD*%
D18*
%TO.C,C2*%
X97002000Y-70612000D03*
X98552000Y-70612000D03*
%TD*%
D19*
%TO.C,J4*%
X99060000Y-108073000D03*
X96520000Y-111383000D03*
X93980000Y-108073000D03*
X91440000Y-111383000D03*
X88900000Y-108073000D03*
%TD*%
D18*
%TO.C,C10*%
X93205000Y-73660000D03*
X94755000Y-73660000D03*
%TD*%
D20*
%TO.C,TX*%
X92964000Y-69824500D03*
X92964000Y-71399500D03*
%TD*%
D16*
%TO.C,R1*%
X94996000Y-67881000D03*
X94996000Y-66231000D03*
%TD*%
D21*
%TO.C,J1*%
X97530000Y-63624000D03*
X96730000Y-63624000D03*
D22*
X95580000Y-63624000D03*
X94580000Y-63624000D03*
X94080000Y-63624000D03*
X93080000Y-63624000D03*
D21*
X91930000Y-63624000D03*
X91130000Y-63624000D03*
X91130000Y-63624000D03*
X91930000Y-63624000D03*
D22*
X92580000Y-63624000D03*
X93580000Y-63624000D03*
X95080000Y-63624000D03*
X96080000Y-63624000D03*
D21*
X96730000Y-63624000D03*
X97530000Y-63624000D03*
D23*
X98650000Y-63049000D03*
D24*
X98650000Y-58869000D03*
D23*
X90010000Y-63049000D03*
D24*
X90010000Y-58869000D03*
%TD*%
D25*
%TO.C,C3*%
X100482400Y-63919400D03*
X100482400Y-62369400D03*
%TD*%
D26*
%TO.C,R5*%
X87630000Y-58458600D03*
X87630000Y-60108600D03*
%TD*%
D18*
%TO.C,C11*%
X89141000Y-74422000D03*
X90691000Y-74422000D03*
%TD*%
D26*
%TO.C,R7*%
X90779600Y-94120200D03*
X90779600Y-95770200D03*
%TD*%
D20*
%TO.C,RX*%
X94996000Y-69824500D03*
X94996000Y-71399500D03*
%TD*%
D16*
%TO.C,R6*%
X96164400Y-95821000D03*
X96164400Y-94171000D03*
%TD*%
D27*
%TO.C,C5*%
X93522800Y-94221000D03*
X93522800Y-95771000D03*
%TD*%
D28*
%TO.C,J2*%
X83820000Y-58420000D03*
D29*
X83820000Y-60960000D03*
X83820000Y-63500000D03*
X83820000Y-66040000D03*
X83820000Y-68580000D03*
X83820000Y-71120000D03*
X83820000Y-73660000D03*
X83820000Y-76200000D03*
X83820000Y-78740000D03*
X83820000Y-81280000D03*
X83820000Y-83820000D03*
X83820000Y-86360000D03*
X83820000Y-88900000D03*
X83820000Y-91440000D03*
X83820000Y-93980000D03*
X83820000Y-96520000D03*
X83820000Y-99060000D03*
X83820000Y-101600000D03*
X83820000Y-104140000D03*
X83820000Y-106680000D03*
X83820000Y-109220000D03*
X83820000Y-111760000D03*
%TD*%
D28*
%TO.C,J3*%
X104140000Y-58420000D03*
D29*
X104140000Y-60960000D03*
X104140000Y-63500000D03*
X104140000Y-66040000D03*
X104140000Y-68580000D03*
X104140000Y-71120000D03*
X104140000Y-73660000D03*
X104140000Y-76200000D03*
X104140000Y-78740000D03*
X104140000Y-81280000D03*
X104140000Y-83820000D03*
X104140000Y-86360000D03*
X104140000Y-88900000D03*
X104140000Y-91440000D03*
X104140000Y-93980000D03*
X104140000Y-96520000D03*
X104140000Y-99060000D03*
X104140000Y-101600000D03*
X104140000Y-104140000D03*
X104140000Y-106680000D03*
X104140000Y-109220000D03*
X104140000Y-111760000D03*
%TD*%
%LPD*%
M02*
